<svg width="156" height="99" viewBox="0 0 156 99" fill="none" xmlns="http://www.w3.org/2000/svg">
<path d="M48.9597 80.75L49.2197 86.73C49.4797 89.59 50.0864 91.54 51.0397 92.58C52.0797 93.5333 53.423 94.14 55.0697 94.4C56.7164 94.5733 58.103 94.7033 59.2297 94.79C60.443 94.79 61.743 94.8333 63.1297 94.92V97H1.76968V94.92C2.72302 94.92 3.67635 94.92 4.62968 94.92C5.66968 94.8333 7.35968 94.66 9.69968 94.4C12.1264 94.0533 13.8164 93.36 14.7697 92.32C15.8097 91.1933 16.4597 89.2433 16.7197 86.47L16.9797 80.49V19.39L16.7197 13.41C16.4597 10.7233 15.8097 8.77333 14.7697 7.56C13.8164 6.26 12.343 5.48 10.3497 5.22C8.44302 4.95999 6.49302 4.78666 4.49968 4.7C2.50635 4.52666 1.07635 4.39666 0.209685 4.30999V2.23H48.9597V80.75ZM155.344 49.68C155.344 62.2467 151.184 73.5567 142.864 83.61C134.544 93.5767 123.841 98.56 110.754 98.56C96.9744 98.56 86.0977 93.36 78.1244 82.96C70.151 72.56 66.1644 61.4667 66.1644 49.68C66.1644 37.1133 70.4544 25.8467 79.0344 15.88C87.6144 5.82667 98.1877 0.799999 110.754 0.799999C123.754 0.799999 134.414 5.91333 142.734 16.14C151.141 26.28 155.344 37.46 155.344 49.68ZM122.974 49.68C122.974 42.4867 122.844 36.3333 122.584 31.22C122.324 26.1067 121.804 21.1667 121.024 16.4C120.331 11.5467 119.204 8.16666 117.644 6.26C116.171 4.26666 113.874 3.27 110.754 3.27C107.894 3.27 105.598 4.31 103.864 6.39C102.218 8.38333 101.091 11.46 100.484 15.62C99.8777 19.78 99.401 24.98 99.0544 31.22C98.7077 37.46 98.5344 43.6133 98.5344 49.68C98.5344 56.3533 98.6644 62.42 98.9244 67.88C99.271 73.2533 99.791 78.3233 100.484 83.09C101.178 87.8567 102.261 91.2367 103.734 93.23C105.294 95.1367 107.634 96.09 110.754 96.09C113.614 96.09 115.868 95.0933 117.514 93.1C119.248 91.02 120.374 87.9433 120.894 83.87C121.501 79.71 121.978 74.38 122.324 67.88C122.758 61.2933 122.974 55.2267 122.974 49.68Z" fill="#4A4A4A"/>
</svg>
