<svg width="599" height="178" viewBox="0 0 599 178" fill="none" xmlns="http://www.w3.org/2000/svg">
<path d="M132.477 32.1899H148.956V21.4599H132.477V11.018H152.842V0H118.516V50.4092H132.477V32.1899Z" fill="url(#paint0_linear)"/>
<path d="M155.602 14.4026V50.4092H168.556V14.4026H155.602ZM155.602 0V8.42554H168.556V0H155.602Z" fill="url(#paint1_linear)"/>
<path d="M210.605 50.4092V27.365C210.605 18.0033 207.726 13.6825 200.17 13.6825C195.133 13.6825 188.944 15.4108 185.706 16.9231V14.4026H172.753V50.4092H185.706V25.0606C187.073 24.0524 189.52 22.9002 192.038 22.9002C195.852 22.9002 197.652 24.2684 197.652 28.5892V50.4092H210.605Z" fill="url(#paint2_linear)"/>
<path d="M212.406 12.3863H225.215V50.4092H239.176V12.3863H251.985V0H212.406V12.3863Z" fill="url(#paint3_linear)"/>
<path d="M284.151 40.9755C280.841 41.8396 274.005 42.6318 268.752 42.6318C266.305 42.6318 262.851 42.0557 262.851 37.3028V36.0786H286.454V28.0131C286.454 16.563 277.387 13.6825 268.32 13.6825C255.798 13.6825 249.825 19.1555 249.825 30.8216V36.3666C249.825 48.3208 259.468 51.1293 268.752 51.1293C275.228 51.1293 280.913 50.3372 285.447 49.401L284.151 40.9755ZM262.851 27.7971C262.851 23.9804 264.506 21.5319 268.32 21.5319C272.134 21.5319 274.437 23.9804 274.437 27.437V28.8773H262.851V27.7971Z" fill="url(#paint4_linear)"/>
<path d="M317.133 40.1113C313.894 41.1195 312.383 41.7676 309.433 41.7676C304.251 41.7676 301.517 40.1833 301.517 34.1342V30.8216C301.517 24.7725 304.323 23.0442 309.433 23.0442C311.736 23.0442 316.125 24.3404 317.133 24.8445L318.86 15.8429C315.118 14.3306 311.448 13.6105 306.77 13.6105C296.264 13.6105 287.988 19.8036 287.988 29.8134V35.1424C287.988 46.3045 296.336 51.0573 306.77 51.0573C309.289 51.0573 314.974 50.5532 318.86 49.113L317.133 40.1113Z" fill="url(#paint5_linear)"/>
<path d="M358.265 50.4092V25.5647C358.265 14.6907 352.436 13.6825 345.384 13.6825C339.051 13.6825 335.381 15.6989 333.366 16.9231V0H320.413V50.4092H333.366V25.2046C334.806 24.1244 337.396 22.9002 339.699 22.9002C343.513 22.9002 345.312 24.4125 345.312 27.9411V50.4092H358.265Z" fill="url(#paint6_linear)"/>
<path d="M0 81.1648H12.1766C23.4238 81.1648 28.4431 77.7232 28.4431 64.8868C28.4431 52.0505 23.5632 48.6089 12.1766 48.6089H0V81.1648ZM12.1766 55.027C16.8707 55.027 19.3804 56.5618 19.3804 64.8868C19.3804 72.8398 16.8707 74.7466 12.1766 74.7466H9.01629V55.027H12.1766Z" fill="url(#paint7_linear)"/>
<path d="M31.7876 64.1427C33.786 63.7241 37.8759 63.073 40.3391 63.073C43.3136 63.073 44.1501 64.0032 44.1501 66.1891V67.8634H38.573C32.8565 67.8634 29.8356 69.5842 29.8356 74.4211C29.8356 79.537 32.4382 81.6299 37.1323 81.6299C40.1067 81.6299 42.6164 80.6532 44.0572 79.63V81.1648H52.4228V66.2356C52.4228 59.8639 48.24 57.4455 40.7574 57.4455C36.2957 57.4455 32.6706 58.4687 30.9045 58.8873L31.7876 64.1427ZM41.3151 76.7465C39.1772 76.7465 38.2477 76.0489 38.2477 74.2816C38.2477 73.0258 39.2702 71.9561 40.9433 71.9561H44.0572V76.0489C43.453 76.2814 42.2446 76.7465 41.3151 76.7465Z" fill="url(#paint8_linear)"/>
<path d="M66.0093 57.4455C58.7126 57.4455 54.2045 59.3058 54.2045 64.3753C54.2045 71.8166 60.3393 72.0957 66.2417 73.6304C67.8684 74.049 68.3796 74.2816 68.3796 75.2582C68.3796 76.0489 68.0543 76.607 65.0333 76.6535C62.1518 76.6535 58.1085 76.0024 54.9016 75.4443L54.251 80.4207C58.2014 81.2578 61.873 81.6299 65.9629 81.6299C72.9342 81.6299 76.7452 80.3277 76.7452 74.4211C76.7452 67.9564 70.6569 66.8402 64.3362 65.817C63.0349 65.5845 62.5701 65.445 62.5701 64.3753C62.5701 63.2591 63.2673 62.5149 65.9629 62.5149C68.8908 62.5149 72.1441 62.98 74.9791 63.6776L75.8157 58.7477C73.1201 58.0501 69.7739 57.4455 66.0093 57.4455Z" fill="url(#paint9_linear)"/>
<path d="M102.911 81.1648V65.1194C102.911 58.0966 99.1461 57.4455 94.5915 57.4455C90.5017 57.4455 88.1314 58.7477 86.8301 59.5384V48.6089H78.4645V81.1648H86.8301V64.8868C87.7596 64.1892 89.4327 63.3986 90.9199 63.3986C93.3832 63.3986 94.5451 64.3753 94.5451 66.6542V81.1648H102.911Z" fill="url(#paint10_linear)"/>
<path d="M105.607 48.6089V81.1648H113.973V79.63C115.507 80.3742 117.645 81.3043 120.48 81.3043C126.893 81.3043 129.728 78.2348 129.728 69.5377C129.728 61.2127 126.8 57.492 120.48 57.492C117.645 57.492 115.646 58.4687 113.973 59.4454V48.6089H105.607ZM116.715 76.0489C115.553 76.0489 114.577 75.6303 113.973 75.3513V64.0497C114.577 63.8172 115.786 63.3521 116.762 63.3521C119.271 63.3521 121.316 64.8403 121.316 69.5377C121.316 74.4211 119.271 76.0489 116.715 76.0489Z" fill="url(#paint11_linear)"/>
<path d="M130.366 71.6306C130.366 78.1883 134.642 81.6764 142.589 81.6764C150.583 81.6764 155.138 78.1883 155.138 71.6306V67.4913C155.138 60.9336 150.583 57.492 142.589 57.492C134.642 57.492 130.366 60.9336 130.366 67.4913V71.6306ZM138.453 67.1658C138.453 64.4218 139.754 62.4219 142.589 62.4219C145.843 62.4219 146.726 64.4218 146.726 67.1658V72.0026C146.726 74.7467 145.843 76.7 142.589 76.7C139.383 76.7 138.453 74.7932 138.453 72.0026V67.1658Z" fill="url(#paint12_linear)"/>
<path d="M158.107 64.1427C160.106 63.7241 164.195 63.073 166.659 63.073C169.633 63.073 170.47 64.0032 170.47 66.1891V67.8634H164.893C159.176 67.8634 156.155 69.5842 156.155 74.4211C156.155 79.537 158.758 81.6299 163.452 81.6299C166.426 81.6299 168.936 80.6532 170.377 79.63V81.1648H178.742V66.2356C178.742 59.8639 174.56 57.4455 167.077 57.4455C162.615 57.4455 158.99 58.4687 157.224 58.8873L158.107 64.1427ZM167.635 76.7465C165.497 76.7465 164.567 76.0489 164.567 74.2816C164.567 73.0258 165.59 71.9561 167.263 71.9561H170.377V76.0489C169.773 76.2814 168.564 76.7465 167.635 76.7465Z" fill="url(#paint13_linear)"/>
<path d="M197.952 57.4455H196C193.165 57.4455 190.981 59.0733 189.819 60.6081V57.9106H181.454V81.1648H189.819V70.2353C189.819 67.3518 192.515 64.2357 195.396 64.2357H198.696L197.952 57.4455Z" fill="url(#paint14_linear)"/>
<path d="M213.898 48.6089V59.4454C212.782 58.5617 211.341 57.4455 207.995 57.4455C201.349 57.4455 198.142 60.5616 198.142 69.5377C198.142 78.6534 202.743 81.6299 207.902 81.6299C211.388 81.6299 213.015 80.0951 213.898 79.63V81.1648H222.263V48.6089H213.898ZM211.016 75.7233C208.274 75.7233 206.554 74.4211 206.554 69.5377C206.554 64.3287 208.321 63.3521 211.016 63.3521C212.178 63.3521 213.2 63.8172 213.898 64.0497V75.0257C213.154 75.3047 212.225 75.7233 211.016 75.7233Z" fill="url(#paint15_linear)"/>
<path d="M235.813 57.4455C228.516 57.4455 224.008 59.3058 224.008 64.3753C224.008 71.8166 230.143 72.0957 236.045 73.6304C237.672 74.049 238.183 74.2816 238.183 75.2582C238.183 76.0489 237.858 76.607 234.837 76.6535C231.955 76.6535 227.912 76.0024 224.705 75.4443L224.054 80.4207C228.005 81.2578 231.676 81.6299 235.766 81.6299C242.738 81.6299 246.549 80.3277 246.549 74.4211C246.549 67.9564 240.46 66.8402 234.14 65.817C232.838 65.5845 232.374 65.445 232.374 64.3753C232.374 63.2591 233.071 62.5149 235.766 62.5149C238.694 62.5149 241.948 62.98 244.783 63.6776L245.619 58.7477C242.924 58.0501 239.577 57.4455 235.813 57.4455Z" fill="url(#paint16_linear)"/>
<path d="M287.615 89.2963C283.567 90.5565 281.678 91.3667 277.99 91.3667C271.513 91.3667 268.095 89.3863 268.095 81.8249V77.6842C268.095 70.1228 271.603 67.9624 277.99 67.9624C280.868 67.9624 286.355 69.5827 287.615 70.2128L289.774 58.9608C285.096 57.0704 280.509 56.1703 274.662 56.1703C261.528 56.1703 251.184 63.9117 251.184 76.424V83.0852C251.184 97.0377 261.618 102.979 274.662 102.979C277.81 102.979 284.916 102.349 289.774 100.548L287.615 89.2963Z" fill="url(#paint17_linear)"/>
<path d="M323.649 56.2603H319.871C314.384 56.2603 310.156 59.4108 307.907 62.3814V57.1604H291.715V102.169H307.907V81.0148C307.907 75.4338 313.124 69.4027 318.701 69.4027H325.088L323.649 56.2603Z" fill="url(#paint18_linear)"/>
<path d="M345.113 107.12C343.224 110.9 340.615 111.35 337.377 111.35C335.398 111.35 329.551 110.18 326.403 109.19L324.064 120.532C327.842 121.702 334.409 123.323 339.536 123.323C346.462 123.323 351.14 120.262 354.468 116.121C356.807 113.241 359.056 108.83 360.945 104.779L376.057 57.1604H359.326L350.69 92.8069H349.701L340.705 57.1604H323.344L335.668 93.5271C337.557 99.0181 343.764 102.079 347.272 102.079L345.113 107.12Z" fill="url(#paint19_linear)"/>
<path d="M392.157 120.172V99.1981C395.216 100.728 398.814 103.069 405.56 103.069C416.354 103.069 422.651 97.0377 422.651 79.6645C422.651 62.0213 416.175 55.9002 405.56 55.9002C398.814 55.9002 394.406 58.6907 392.157 60.131V57.1604H375.966V120.172H392.157ZM397.105 67.6924C402.412 67.6924 406.37 70.2128 406.37 79.6645C406.37 89.7464 401.512 91.5467 398.454 91.5467C395.935 91.5467 393.686 90.8266 392.157 90.2865V69.0426C393.327 68.5025 395.305 67.6924 397.105 67.6924Z" fill="url(#paint20_linear)"/>
<path d="M423.241 68.0524H429.088V89.3863C429.088 99.6482 434.126 103.069 445.55 103.069C451.487 103.069 456.524 101.989 459.043 101.268L457.244 91.2767C454.185 91.8168 452.656 92.0868 449.778 92.0868C446.719 92.0868 445.28 90.1064 445.28 86.4158V68.0524H456.974V57.1604H445.28V44.5581L429.088 46.0884V57.1604H423.241V68.0524Z" fill="url(#paint21_linear)"/>
<path d="M457.622 83.7153C457.622 96.4076 465.897 103.159 481.279 103.159C496.751 103.159 505.567 96.4076 505.567 83.7153V75.7038C505.567 63.0115 496.751 56.3503 481.279 56.3503C465.897 56.3503 457.622 63.0115 457.622 75.7038V83.7153ZM473.274 75.0737C473.274 69.7627 475.792 65.892 481.279 65.892C487.576 65.892 489.285 69.7627 489.285 75.0737V84.4354C489.285 89.7464 487.576 93.5271 481.279 93.5271C475.073 93.5271 473.274 89.8364 473.274 84.4354V75.0737Z" fill="url(#paint22_linear)"/>
<path d="M20.646 84.653V91.7316C19.9174 91.1544 18.9763 90.4253 16.7904 90.4253C12.4491 90.4253 10.3543 92.4608 10.3543 98.3242C10.3543 104.279 13.3598 106.223 16.7297 106.223C19.0066 106.223 20.0692 105.221 20.646 104.917V105.919H26.1107V84.653H20.646ZM18.7638 102.365C16.9726 102.365 15.8493 101.514 15.8493 98.3242C15.8493 94.9216 17.0029 94.2836 18.7638 94.2836C19.5227 94.2836 20.1906 94.5874 20.646 94.7393V101.909C20.1603 102.091 19.5531 102.365 18.7638 102.365Z" fill="url(#paint23_linear)"/>
<path d="M28.6772 94.8001C29.9827 94.5266 32.6543 94.1013 34.2633 94.1013C36.2063 94.1013 36.7528 94.7089 36.7528 96.1368V97.2305H33.1096C29.3755 97.2305 27.4021 98.3546 27.4021 101.514C27.4021 104.856 29.1022 106.223 32.1685 106.223C34.1115 106.223 35.7509 105.585 36.692 104.917V105.919H42.1567V96.1672C42.1567 92.0051 39.4243 90.4253 34.5365 90.4253C31.622 90.4253 29.254 91.0936 28.1004 91.3671L28.6772 94.8001ZM34.9008 103.033C33.5043 103.033 32.8971 102.577 32.8971 101.423C32.8971 100.603 33.565 99.904 34.658 99.904H36.692V102.577C36.2973 102.729 35.508 103.033 34.9008 103.033Z" fill="url(#paint24_linear)"/>
<path d="M42.8348 94.4051H44.8081V101.605C44.8081 105.069 46.5082 106.223 50.3638 106.223C52.3675 106.223 54.0677 105.859 54.9177 105.616L54.3105 102.243C53.2783 102.426 52.7622 102.517 51.7907 102.517C50.7585 102.517 50.2728 101.848 50.2728 100.603V94.4051H54.2194V90.7291H50.2728V86.4758L44.8081 86.9923V90.7291H42.8348V94.4051Z" fill="url(#paint25_linear)"/>
<path d="M55.9257 94.8001C57.2312 94.5266 59.9028 94.1013 61.5118 94.1013C63.4548 94.1013 64.0013 94.7089 64.0013 96.1368V97.2305H60.3582C56.624 97.2305 54.6507 98.3546 54.6507 101.514C54.6507 104.856 56.3508 106.223 59.417 106.223C61.36 106.223 62.9994 105.585 63.9405 104.917V105.919H69.4052V96.1672C69.4052 92.0051 66.6729 90.4253 61.785 90.4253C58.8706 90.4253 56.5026 91.0936 55.3489 91.3671L55.9257 94.8001ZM62.1494 103.033C60.7528 103.033 60.1456 102.577 60.1456 101.423C60.1456 100.603 60.8135 99.904 61.9065 99.904H63.9405V102.577C63.5459 102.729 62.7565 103.033 62.1494 103.033Z" fill="url(#paint26_linear)"/>
<path d="M82.0545 105.919H89.6139L94.4107 90.7291H88.8246L86.2744 102.031H85.7583L83.1778 90.7291H77.2274L82.0545 105.919Z" fill="url(#paint27_linear)"/>
<path d="M94.9856 90.7291V105.919H100.45V90.7291H94.9856ZM94.9856 84.653V88.2075H100.45V84.653H94.9856Z" fill="url(#paint28_linear)"/>
<path d="M109.325 90.4253C104.558 90.4253 101.614 91.6405 101.614 94.952C101.614 99.8129 105.621 99.9951 109.477 100.998C110.539 101.271 110.873 101.423 110.873 102.061C110.873 102.577 110.661 102.942 108.687 102.972C106.805 102.972 104.164 102.547 102.069 102.183L101.644 105.433C104.225 105.98 106.623 106.223 109.294 106.223C113.848 106.223 116.338 105.372 116.338 101.514C116.338 97.2913 112.361 96.5621 108.232 95.8938C107.382 95.7419 107.078 95.6507 107.078 94.952C107.078 94.2228 107.534 93.7367 109.294 93.7367C111.207 93.7367 113.332 94.0405 115.184 94.4963L115.731 91.2759C113.97 90.8202 111.784 90.4253 109.325 90.4253Z" fill="url(#paint29_linear)"/>
<path d="M117.461 90.7291V101.757C117.461 104.309 118.736 106.223 121.681 106.223C124.261 106.223 126.569 105.433 127.965 104.856V105.919H133.43V90.7291H127.965V101.453C127.358 101.879 126.295 102.334 125.111 102.334C123.806 102.334 122.925 101.757 122.925 99.9344V90.7291H117.461Z" fill="url(#paint30_linear)"/>
<path d="M136.011 94.8001C137.316 94.5266 139.988 94.1013 141.597 94.1013C143.54 94.1013 144.087 94.7089 144.087 96.1368V97.2305H140.443C136.709 97.2305 134.736 98.3546 134.736 101.514C134.736 104.856 136.436 106.223 139.502 106.223C141.445 106.223 143.085 105.585 144.026 104.917V105.919H149.49V96.1672C149.49 92.0051 146.758 90.4253 141.87 90.4253C138.956 90.4253 136.588 91.0936 135.434 91.3671L136.011 94.8001ZM142.235 103.033C140.838 103.033 140.231 102.577 140.231 101.423C140.231 100.603 140.899 99.904 141.992 99.904H144.026V102.577C143.631 102.729 142.842 103.033 142.235 103.033Z" fill="url(#paint31_linear)"/>
<path d="M156.726 105.919V83.1339H151.261V105.919H156.726Z" fill="url(#paint32_linear)"/>
<path d="M158.497 90.7291V105.919H163.961V90.7291H158.497ZM158.497 84.653V88.2075H163.961V84.653H158.497Z" fill="url(#paint33_linear)"/>
<path d="M165.337 94.7089H171.925L165.064 103.276V105.919H178.695V101.909H171.622L178.27 93.3722V90.7291H165.337V94.7089Z" fill="url(#paint34_linear)"/>
<path d="M180.665 94.8001C181.97 94.5266 184.642 94.1013 186.251 94.1013C188.194 94.1013 188.741 94.7089 188.741 96.1368V97.2305H185.097C181.363 97.2305 179.39 98.3546 179.39 101.514C179.39 104.856 181.09 106.223 184.156 106.223C186.099 106.223 187.739 105.585 188.68 104.917V105.919H194.145V96.1672C194.145 92.0051 191.412 90.4253 186.524 90.4253C183.61 90.4253 181.242 91.0936 180.088 91.3671L180.665 94.8001ZM186.889 103.033C185.492 103.033 184.885 102.577 184.885 101.423C184.885 100.603 185.553 99.904 186.646 99.904H188.68V102.577C188.285 102.729 187.496 103.033 186.889 103.033Z" fill="url(#paint35_linear)"/>
<path d="M194.823 94.4051H196.796V101.605C196.796 105.069 198.496 106.223 202.352 106.223C204.355 106.223 206.055 105.859 206.906 105.616L206.298 102.243C205.266 102.426 204.75 102.517 203.779 102.517C202.746 102.517 202.261 101.848 202.261 100.603V94.4051H206.207V90.7291H202.261V86.4758L196.796 86.9923V90.7291H194.823V94.4051Z" fill="url(#paint36_linear)"/>
<path d="M207.094 90.7291V105.919H212.558V90.7291H207.094ZM207.094 84.653V88.2075H212.558V84.653H207.094Z" fill="url(#paint37_linear)"/>
<path d="M213.661 99.6913C213.661 103.975 216.454 106.254 221.646 106.254C226.867 106.254 229.843 103.975 229.843 99.6913V96.9874C229.843 92.7038 226.867 90.4556 221.646 90.4556C216.454 90.4556 213.661 92.7038 213.661 96.9874V99.6913ZM218.944 96.7748C218.944 94.9823 219.794 93.676 221.646 93.676C223.771 93.676 224.348 94.9823 224.348 96.7748V99.9344C224.348 101.727 223.771 103.003 221.646 103.003C219.551 103.003 218.944 101.757 218.944 99.9344V96.7748Z" fill="url(#paint38_linear)"/>
<path d="M246.931 105.919V96.1976C246.931 92.2481 245.717 90.4253 242.529 90.4253C240.404 90.4253 237.793 91.1544 236.427 91.7924V90.7291H230.963V105.919H236.427V95.2254C237.004 94.8001 238.036 94.314 239.099 94.314C240.708 94.314 241.467 94.8912 241.467 96.714V105.919H246.931Z" fill="url(#paint39_linear)"/>
<path d="M207.935 126.923H221.347V122.548H213.171V108.02H207.935V126.923Z" fill="url(#paint40_linear)"/>
<path d="M234.31 123.386C233.069 123.71 230.505 124.007 228.535 124.007C227.618 124.007 226.322 123.791 226.322 122.008V121.549H235.174V118.525C235.174 114.231 231.774 113.151 228.373 113.151C223.678 113.151 221.438 115.203 221.438 119.578V121.657C221.438 126.14 225.054 127.193 228.535 127.193C230.964 127.193 233.096 126.896 234.796 126.545L234.31 123.386ZM226.322 118.444C226.322 117.012 226.943 116.094 228.373 116.094C229.804 116.094 230.667 117.012 230.667 118.309V118.849H226.322V118.444Z" fill="url(#paint41_linear)"/>
<path d="M250.348 126.923V118.282C250.348 114.771 249.269 113.151 246.435 113.151C244.546 113.151 242.226 113.799 241.011 114.366V113.421H236.154V126.923H241.011V117.417C241.524 117.039 242.441 116.607 243.386 116.607C244.816 116.607 245.491 117.12 245.491 118.741V126.923H250.348Z" fill="url(#paint42_linear)"/>
<path d="M260.685 108.02V114.312C260.037 113.799 259.2 113.151 257.257 113.151C253.398 113.151 251.536 114.96 251.536 120.172C251.536 125.465 254.208 127.193 257.203 127.193C259.227 127.193 260.172 126.302 260.685 126.032V126.923H265.542V108.02H260.685ZM259.011 123.764C257.419 123.764 256.421 123.007 256.421 120.172C256.421 117.147 257.446 116.58 259.011 116.58C259.686 116.58 260.28 116.85 260.685 116.985V123.359C260.253 123.521 259.713 123.764 259.011 123.764Z" fill="url(#paint43_linear)"/>
<path d="M267.095 113.421V126.923H271.952V113.421H267.095ZM267.095 108.02V111.179H271.952V108.02H267.095Z" fill="url(#paint44_linear)"/>
<path d="M287.721 126.923V118.282C287.721 114.771 286.641 113.151 283.808 113.151C281.919 113.151 279.598 113.799 278.384 114.366V113.421H273.526V126.923H278.384V117.417C278.896 117.039 279.814 116.607 280.758 116.607C282.189 116.607 282.863 117.12 282.863 118.741V126.923H287.721Z" fill="url(#paint45_linear)"/>
<path d="M296.006 113.151C292.471 113.151 289.233 113.799 289.233 117.39C289.233 119.092 289.907 120.118 290.825 120.712C290.366 121.144 290.069 121.738 290.069 122.44C290.069 123.007 290.339 123.602 290.69 123.98C289.448 124.682 288.639 125.816 288.639 127.76C288.639 131.406 291.661 132.351 296.006 132.351C300.351 132.351 303.346 131.406 303.346 127.76C303.346 124.061 300.324 123.169 296.006 123.169C295.493 123.169 294.792 123.196 294.387 123.25C294.306 123.007 294.198 122.656 294.198 122.386C294.198 122.089 294.279 121.738 294.36 121.522C294.792 121.576 295.493 121.603 296.006 121.603C299.595 121.603 302.752 121.009 302.752 117.39C302.752 116.418 302.456 115.608 301.808 115.068C303.076 114.582 303.508 113.394 303.508 112.07H298.678C298.705 112.259 298.705 112.395 298.705 112.53C298.705 112.881 298.678 113.124 298.57 113.421C297.787 113.232 297.301 113.151 296.006 113.151ZM298.678 127.76C298.678 128.922 298.192 129.462 296.006 129.462C293.793 129.462 293.334 128.841 293.334 127.76C293.334 126.464 294.036 126.059 296.006 126.059C298.192 126.059 298.678 126.545 298.678 127.76ZM298.057 117.39C298.057 118.606 297.625 119.065 296.006 119.065C294.306 119.038 293.928 118.579 293.928 117.39C293.928 116.31 294.306 115.662 296.006 115.662C297.544 115.662 298.057 116.283 298.057 117.39Z" fill="url(#paint46_linear)"/>
<path d="M310.571 113.151C306.334 113.151 303.717 114.231 303.717 117.174C303.717 121.495 307.279 121.657 310.706 122.548C311.65 122.791 311.947 122.926 311.947 123.494C311.947 123.953 311.758 124.277 310.004 124.304C308.331 124.304 305.983 123.926 304.121 123.602L303.744 126.491C306.037 126.977 308.169 127.193 310.544 127.193C314.592 127.193 316.805 126.437 316.805 123.007C316.805 119.254 313.27 118.606 309.599 118.012C308.844 117.877 308.574 117.795 308.574 117.174C308.574 116.526 308.979 116.094 310.544 116.094C312.244 116.094 314.133 116.364 315.779 116.769L316.265 113.907C314.7 113.502 312.757 113.151 310.571 113.151Z" fill="url(#paint47_linear)"/>
<path d="M397.032 122.422H401.549C405.722 122.422 407.584 121.146 407.584 116.384C407.584 111.622 405.773 110.345 401.549 110.345H397.032V122.422ZM401.549 112.726C403.291 112.726 404.222 113.295 404.222 116.384C404.222 119.334 403.291 120.041 401.549 120.041H400.377V112.726H401.549Z" fill="url(#paint48_linear)"/>
<path d="M408.824 116.108C409.566 115.952 411.083 115.711 411.997 115.711C413.1 115.711 413.41 116.056 413.41 116.867V117.488H411.342C409.221 117.488 408.1 118.126 408.1 119.921C408.1 121.818 409.066 122.595 410.807 122.595C411.91 122.595 412.841 122.233 413.376 121.853V122.422H416.479V116.884C416.479 114.52 414.928 113.623 412.152 113.623C410.497 113.623 409.152 114.003 408.497 114.158L408.824 116.108ZM412.359 120.783C411.566 120.783 411.221 120.524 411.221 119.869C411.221 119.403 411.6 119.006 412.221 119.006H413.376V120.525C413.152 120.611 412.704 120.783 412.359 120.783Z" fill="url(#paint49_linear)"/>
<path d="M416.864 115.883H417.985V119.972C417.985 121.939 418.951 122.595 421.14 122.595C422.278 122.595 423.244 122.388 423.726 122.25L423.382 120.335C422.795 120.438 422.502 120.49 421.951 120.49C421.364 120.49 421.088 120.11 421.088 119.403V115.883H423.33V113.796H421.088V111.38L417.985 111.674V113.796H416.864V115.883Z" fill="url(#paint50_linear)"/>
<path d="M424.299 116.108C425.04 115.952 426.557 115.711 427.471 115.711C428.575 115.711 428.885 116.056 428.885 116.867V117.488H426.816C424.695 117.488 423.575 118.126 423.575 119.921C423.575 121.818 424.54 122.595 426.282 122.595C427.385 122.595 428.316 122.233 428.85 121.853V122.422H431.954V116.884C431.954 114.52 430.402 113.623 427.626 113.623C425.971 113.623 424.626 114.003 423.971 114.158L424.299 116.108ZM427.833 120.783C427.04 120.783 426.695 120.524 426.695 119.869C426.695 119.403 427.075 119.006 427.695 119.006H428.85V120.525C428.626 120.611 428.178 120.783 427.833 120.783Z" fill="url(#paint51_linear)"/>
<path d="M432.391 113.313H435.46V122.422H438.804V113.313H441.873V110.345H432.391V113.313Z" fill="url(#paint52_linear)"/>
<path d="M449.58 120.162C448.787 120.369 447.149 120.559 445.89 120.559C445.304 120.559 444.476 120.421 444.476 119.282V118.989H450.131V117.057C450.131 114.313 447.959 113.623 445.787 113.623C442.787 113.623 441.356 114.934 441.356 117.729V119.058C441.356 121.922 443.666 122.595 445.89 122.595C447.442 122.595 448.804 122.405 449.89 122.181L449.58 120.162ZM444.476 117.005C444.476 116.09 444.873 115.504 445.787 115.504C446.701 115.504 447.252 116.09 447.252 116.919V117.264H444.476V117.005Z" fill="url(#paint53_linear)"/>
<path d="M457.482 119.955C456.706 120.197 456.344 120.352 455.637 120.352C454.395 120.352 453.74 119.972 453.74 118.523V117.729C453.74 116.28 454.413 115.866 455.637 115.866C456.188 115.866 457.24 116.177 457.482 116.297L457.895 114.141C456.999 113.779 456.119 113.606 454.999 113.606C452.482 113.606 450.499 115.09 450.499 117.488V118.765C450.499 121.439 452.499 122.578 454.999 122.578C455.602 122.578 456.964 122.457 457.895 122.112L457.482 119.955Z" fill="url(#paint54_linear)"/>
<path d="M467.336 122.422V116.47C467.336 113.865 465.94 113.623 464.25 113.623C462.733 113.623 461.854 114.106 461.371 114.4V110.345H458.267V122.422H461.371V116.384C461.716 116.125 462.336 115.832 462.888 115.832C463.802 115.832 464.233 116.194 464.233 117.039V122.422H467.336Z" fill="url(#paint55_linear)"/>
<path d="M359.389 117.171V164.43H371.533V162.202C373.759 163.282 376.862 164.633 380.978 164.633C390.288 164.633 394.403 160.177 394.403 147.552C394.403 135.467 390.153 130.066 380.978 130.066C376.862 130.066 373.961 131.484 371.533 132.902V117.171H359.389ZM375.513 157.004C373.826 157.004 372.41 156.396 371.533 155.991V139.585C372.41 139.248 374.164 138.573 375.58 138.573C379.224 138.573 382.192 140.733 382.192 147.552C382.192 154.641 379.224 157.004 375.513 157.004Z" fill="url(#paint56_linear)"/>
<path d="M398.635 139.721C401.536 139.113 407.473 138.168 411.048 138.168C415.366 138.168 416.581 139.518 416.581 142.691V145.122H408.485C400.187 145.122 395.801 147.619 395.801 154.641C395.801 162.067 399.579 165.105 406.393 165.105C410.711 165.105 414.354 163.687 416.446 162.202V164.43H428.589V142.759C428.589 133.509 422.517 129.999 411.656 129.999C405.179 129.999 399.917 131.484 397.353 132.092L398.635 139.721ZM412.465 158.016C409.362 158.016 408.013 157.004 408.013 154.438C408.013 152.615 409.497 151.063 411.926 151.063H416.446V157.004C415.569 157.341 413.815 158.016 412.465 158.016Z" fill="url(#paint57_linear)"/>
<path d="M468.011 164.43V142.826C468.011 134.049 465.313 129.999 458.229 129.999C453.506 129.999 447.705 131.619 444.669 133.037V130.674H432.525V164.43H444.669V140.666C445.95 139.721 448.244 138.64 450.605 138.64C454.181 138.64 455.868 139.923 455.868 143.974V164.43H468.011Z" fill="url(#paint58_linear)"/>
<path d="M484.07 117.171H471.926V164.43H484.07V148.227H484.542L493.38 164.43H507.143L495.201 146.202L507.008 130.674H492.907L484.609 144.986H484.07V117.171Z" fill="url(#paint59_linear)"/>
<path d="M507.967 130.674V164.43H520.111V130.674H507.967ZM507.967 117.171V125.07H520.111V117.171H507.967Z" fill="url(#paint60_linear)"/>
<path d="M559.532 164.43V142.826C559.532 134.049 556.833 129.999 549.749 129.999C545.027 129.999 539.225 131.619 536.189 133.037V130.674H524.045V164.43H536.189V140.666C537.471 139.721 539.764 138.64 542.126 138.64C545.701 138.64 547.388 139.923 547.388 143.974V164.43H559.532Z" fill="url(#paint61_linear)"/>
<path d="M580.245 129.999C571.407 129.999 563.311 131.619 563.311 140.598C563.311 144.851 564.998 147.417 567.292 148.902C566.145 149.982 565.403 151.468 565.403 153.223C565.403 154.641 566.077 156.126 566.954 157.071C563.851 158.826 561.827 161.662 561.827 166.523C561.827 175.637 569.383 178 580.245 178C591.107 178 598.595 175.637 598.595 166.523C598.595 157.274 591.039 155.046 580.245 155.046C578.963 155.046 577.209 155.113 576.197 155.248C575.995 154.641 575.725 153.763 575.725 153.088C575.725 152.345 575.927 151.468 576.129 150.928C577.209 151.063 578.963 151.13 580.245 151.13C589.218 151.13 597.111 149.645 597.111 140.598C597.111 138.168 596.369 136.142 594.75 134.792C597.921 133.577 599 130.606 599 127.298H586.924C586.991 127.771 586.991 128.108 586.991 128.446C586.991 129.324 586.924 129.931 586.654 130.674C584.698 130.201 583.483 129.999 580.245 129.999ZM586.924 166.523C586.924 169.426 585.709 170.776 580.245 170.776C574.713 170.776 573.566 169.223 573.566 166.523C573.566 163.282 575.32 162.27 580.245 162.27C585.709 162.27 586.924 163.485 586.924 166.523ZM585.372 140.598C585.372 143.636 584.293 144.784 580.245 144.784C575.995 144.716 575.05 143.569 575.05 140.598C575.05 137.898 575.995 136.277 580.245 136.277C584.09 136.277 585.372 137.83 585.372 140.598Z" fill="url(#paint62_linear)"/>
<defs>
<linearGradient id="paint0_linear" x1="-0.0768654" y1="21.904" x2="613.905" y2="177.726" gradientUnits="userSpaceOnUse">
<stop stop-color="#3D1AA3"/>
<stop offset="1" stop-color="#DF255C"/>
</linearGradient>
<linearGradient id="paint1_linear" x1="-0.0768654" y1="21.904" x2="613.905" y2="177.726" gradientUnits="userSpaceOnUse">
<stop stop-color="#3D1AA3"/>
<stop offset="1" stop-color="#DF255C"/>
</linearGradient>
<linearGradient id="paint2_linear" x1="-0.0768654" y1="21.904" x2="613.905" y2="177.726" gradientUnits="userSpaceOnUse">
<stop stop-color="#3D1AA3"/>
<stop offset="1" stop-color="#DF255C"/>
</linearGradient>
<linearGradient id="paint3_linear" x1="-0.0768654" y1="21.904" x2="613.905" y2="177.726" gradientUnits="userSpaceOnUse">
<stop stop-color="#3D1AA3"/>
<stop offset="1" stop-color="#DF255C"/>
</linearGradient>
<linearGradient id="paint4_linear" x1="-0.0768654" y1="21.904" x2="613.905" y2="177.726" gradientUnits="userSpaceOnUse">
<stop stop-color="#3D1AA3"/>
<stop offset="1" stop-color="#DF255C"/>
</linearGradient>
<linearGradient id="paint5_linear" x1="-0.0768654" y1="21.904" x2="613.905" y2="177.726" gradientUnits="userSpaceOnUse">
<stop stop-color="#3D1AA3"/>
<stop offset="1" stop-color="#DF255C"/>
</linearGradient>
<linearGradient id="paint6_linear" x1="-0.0768654" y1="21.904" x2="613.905" y2="177.726" gradientUnits="userSpaceOnUse">
<stop stop-color="#3D1AA3"/>
<stop offset="1" stop-color="#DF255C"/>
</linearGradient>
<linearGradient id="paint7_linear" x1="-0.0768654" y1="21.904" x2="613.905" y2="177.726" gradientUnits="userSpaceOnUse">
<stop stop-color="#3D1AA3"/>
<stop offset="1" stop-color="#DF255C"/>
</linearGradient>
<linearGradient id="paint8_linear" x1="-0.0768654" y1="21.904" x2="613.905" y2="177.726" gradientUnits="userSpaceOnUse">
<stop stop-color="#3D1AA3"/>
<stop offset="1" stop-color="#DF255C"/>
</linearGradient>
<linearGradient id="paint9_linear" x1="-0.0768654" y1="21.904" x2="613.905" y2="177.726" gradientUnits="userSpaceOnUse">
<stop stop-color="#3D1AA3"/>
<stop offset="1" stop-color="#DF255C"/>
</linearGradient>
<linearGradient id="paint10_linear" x1="-0.0768654" y1="21.904" x2="613.905" y2="177.726" gradientUnits="userSpaceOnUse">
<stop stop-color="#3D1AA3"/>
<stop offset="1" stop-color="#DF255C"/>
</linearGradient>
<linearGradient id="paint11_linear" x1="-0.0768654" y1="21.904" x2="613.905" y2="177.726" gradientUnits="userSpaceOnUse">
<stop stop-color="#3D1AA3"/>
<stop offset="1" stop-color="#DF255C"/>
</linearGradient>
<linearGradient id="paint12_linear" x1="-0.0768654" y1="21.904" x2="613.905" y2="177.726" gradientUnits="userSpaceOnUse">
<stop stop-color="#3D1AA3"/>
<stop offset="1" stop-color="#DF255C"/>
</linearGradient>
<linearGradient id="paint13_linear" x1="-0.0768654" y1="21.904" x2="613.905" y2="177.726" gradientUnits="userSpaceOnUse">
<stop stop-color="#3D1AA3"/>
<stop offset="1" stop-color="#DF255C"/>
</linearGradient>
<linearGradient id="paint14_linear" x1="-0.0768654" y1="21.904" x2="613.905" y2="177.726" gradientUnits="userSpaceOnUse">
<stop stop-color="#3D1AA3"/>
<stop offset="1" stop-color="#DF255C"/>
</linearGradient>
<linearGradient id="paint15_linear" x1="-0.0768654" y1="21.904" x2="613.905" y2="177.726" gradientUnits="userSpaceOnUse">
<stop stop-color="#3D1AA3"/>
<stop offset="1" stop-color="#DF255C"/>
</linearGradient>
<linearGradient id="paint16_linear" x1="-0.0768654" y1="21.904" x2="613.905" y2="177.726" gradientUnits="userSpaceOnUse">
<stop stop-color="#3D1AA3"/>
<stop offset="1" stop-color="#DF255C"/>
</linearGradient>
<linearGradient id="paint17_linear" x1="-0.0768654" y1="21.904" x2="613.905" y2="177.726" gradientUnits="userSpaceOnUse">
<stop stop-color="#3D1AA3"/>
<stop offset="1" stop-color="#DF255C"/>
</linearGradient>
<linearGradient id="paint18_linear" x1="-0.0768654" y1="21.904" x2="613.905" y2="177.726" gradientUnits="userSpaceOnUse">
<stop stop-color="#3D1AA3"/>
<stop offset="1" stop-color="#DF255C"/>
</linearGradient>
<linearGradient id="paint19_linear" x1="-0.0768654" y1="21.904" x2="613.905" y2="177.726" gradientUnits="userSpaceOnUse">
<stop stop-color="#3D1AA3"/>
<stop offset="1" stop-color="#DF255C"/>
</linearGradient>
<linearGradient id="paint20_linear" x1="-0.0768654" y1="21.904" x2="613.905" y2="177.726" gradientUnits="userSpaceOnUse">
<stop stop-color="#3D1AA3"/>
<stop offset="1" stop-color="#DF255C"/>
</linearGradient>
<linearGradient id="paint21_linear" x1="-0.0768654" y1="21.904" x2="613.905" y2="177.726" gradientUnits="userSpaceOnUse">
<stop stop-color="#3D1AA3"/>
<stop offset="1" stop-color="#DF255C"/>
</linearGradient>
<linearGradient id="paint22_linear" x1="-0.0768654" y1="21.904" x2="613.905" y2="177.726" gradientUnits="userSpaceOnUse">
<stop stop-color="#3D1AA3"/>
<stop offset="1" stop-color="#DF255C"/>
</linearGradient>
<linearGradient id="paint23_linear" x1="-0.0768654" y1="21.904" x2="613.905" y2="177.726" gradientUnits="userSpaceOnUse">
<stop stop-color="#3D1AA3"/>
<stop offset="1" stop-color="#DF255C"/>
</linearGradient>
<linearGradient id="paint24_linear" x1="-0.0768654" y1="21.904" x2="613.905" y2="177.726" gradientUnits="userSpaceOnUse">
<stop stop-color="#3D1AA3"/>
<stop offset="1" stop-color="#DF255C"/>
</linearGradient>
<linearGradient id="paint25_linear" x1="-0.0768654" y1="21.904" x2="613.905" y2="177.726" gradientUnits="userSpaceOnUse">
<stop stop-color="#3D1AA3"/>
<stop offset="1" stop-color="#DF255C"/>
</linearGradient>
<linearGradient id="paint26_linear" x1="-0.0768654" y1="21.904" x2="613.905" y2="177.726" gradientUnits="userSpaceOnUse">
<stop stop-color="#3D1AA3"/>
<stop offset="1" stop-color="#DF255C"/>
</linearGradient>
<linearGradient id="paint27_linear" x1="-0.0768654" y1="21.904" x2="613.905" y2="177.726" gradientUnits="userSpaceOnUse">
<stop stop-color="#3D1AA3"/>
<stop offset="1" stop-color="#DF255C"/>
</linearGradient>
<linearGradient id="paint28_linear" x1="-0.0768654" y1="21.904" x2="613.905" y2="177.726" gradientUnits="userSpaceOnUse">
<stop stop-color="#3D1AA3"/>
<stop offset="1" stop-color="#DF255C"/>
</linearGradient>
<linearGradient id="paint29_linear" x1="-0.0768654" y1="21.904" x2="613.905" y2="177.726" gradientUnits="userSpaceOnUse">
<stop stop-color="#3D1AA3"/>
<stop offset="1" stop-color="#DF255C"/>
</linearGradient>
<linearGradient id="paint30_linear" x1="-0.0768654" y1="21.904" x2="613.905" y2="177.726" gradientUnits="userSpaceOnUse">
<stop stop-color="#3D1AA3"/>
<stop offset="1" stop-color="#DF255C"/>
</linearGradient>
<linearGradient id="paint31_linear" x1="-0.0768654" y1="21.904" x2="613.905" y2="177.726" gradientUnits="userSpaceOnUse">
<stop stop-color="#3D1AA3"/>
<stop offset="1" stop-color="#DF255C"/>
</linearGradient>
<linearGradient id="paint32_linear" x1="-0.0768654" y1="21.904" x2="613.905" y2="177.726" gradientUnits="userSpaceOnUse">
<stop stop-color="#3D1AA3"/>
<stop offset="1" stop-color="#DF255C"/>
</linearGradient>
<linearGradient id="paint33_linear" x1="-0.0768654" y1="21.904" x2="613.905" y2="177.726" gradientUnits="userSpaceOnUse">
<stop stop-color="#3D1AA3"/>
<stop offset="1" stop-color="#DF255C"/>
</linearGradient>
<linearGradient id="paint34_linear" x1="-0.0768654" y1="21.904" x2="613.905" y2="177.726" gradientUnits="userSpaceOnUse">
<stop stop-color="#3D1AA3"/>
<stop offset="1" stop-color="#DF255C"/>
</linearGradient>
<linearGradient id="paint35_linear" x1="-0.0768654" y1="21.904" x2="613.905" y2="177.726" gradientUnits="userSpaceOnUse">
<stop stop-color="#3D1AA3"/>
<stop offset="1" stop-color="#DF255C"/>
</linearGradient>
<linearGradient id="paint36_linear" x1="-0.0768654" y1="21.904" x2="613.905" y2="177.726" gradientUnits="userSpaceOnUse">
<stop stop-color="#3D1AA3"/>
<stop offset="1" stop-color="#DF255C"/>
</linearGradient>
<linearGradient id="paint37_linear" x1="-0.0768654" y1="21.904" x2="613.905" y2="177.726" gradientUnits="userSpaceOnUse">
<stop stop-color="#3D1AA3"/>
<stop offset="1" stop-color="#DF255C"/>
</linearGradient>
<linearGradient id="paint38_linear" x1="-0.0768654" y1="21.904" x2="613.905" y2="177.726" gradientUnits="userSpaceOnUse">
<stop stop-color="#3D1AA3"/>
<stop offset="1" stop-color="#DF255C"/>
</linearGradient>
<linearGradient id="paint39_linear" x1="-0.0768654" y1="21.904" x2="613.905" y2="177.726" gradientUnits="userSpaceOnUse">
<stop stop-color="#3D1AA3"/>
<stop offset="1" stop-color="#DF255C"/>
</linearGradient>
<linearGradient id="paint40_linear" x1="-0.0768654" y1="21.904" x2="613.905" y2="177.726" gradientUnits="userSpaceOnUse">
<stop stop-color="#3D1AA3"/>
<stop offset="1" stop-color="#DF255C"/>
</linearGradient>
<linearGradient id="paint41_linear" x1="-0.0768654" y1="21.904" x2="613.905" y2="177.726" gradientUnits="userSpaceOnUse">
<stop stop-color="#3D1AA3"/>
<stop offset="1" stop-color="#DF255C"/>
</linearGradient>
<linearGradient id="paint42_linear" x1="-0.0768654" y1="21.904" x2="613.905" y2="177.726" gradientUnits="userSpaceOnUse">
<stop stop-color="#3D1AA3"/>
<stop offset="1" stop-color="#DF255C"/>
</linearGradient>
<linearGradient id="paint43_linear" x1="-0.0768654" y1="21.904" x2="613.905" y2="177.726" gradientUnits="userSpaceOnUse">
<stop stop-color="#3D1AA3"/>
<stop offset="1" stop-color="#DF255C"/>
</linearGradient>
<linearGradient id="paint44_linear" x1="-0.0768654" y1="21.904" x2="613.905" y2="177.726" gradientUnits="userSpaceOnUse">
<stop stop-color="#3D1AA3"/>
<stop offset="1" stop-color="#DF255C"/>
</linearGradient>
<linearGradient id="paint45_linear" x1="-0.0768654" y1="21.904" x2="613.905" y2="177.726" gradientUnits="userSpaceOnUse">
<stop stop-color="#3D1AA3"/>
<stop offset="1" stop-color="#DF255C"/>
</linearGradient>
<linearGradient id="paint46_linear" x1="-0.0768654" y1="21.904" x2="613.905" y2="177.726" gradientUnits="userSpaceOnUse">
<stop stop-color="#3D1AA3"/>
<stop offset="1" stop-color="#DF255C"/>
</linearGradient>
<linearGradient id="paint47_linear" x1="-0.0768654" y1="21.904" x2="613.905" y2="177.726" gradientUnits="userSpaceOnUse">
<stop stop-color="#3D1AA3"/>
<stop offset="1" stop-color="#DF255C"/>
</linearGradient>
<linearGradient id="paint48_linear" x1="-0.0768654" y1="21.904" x2="613.905" y2="177.726" gradientUnits="userSpaceOnUse">
<stop stop-color="#3D1AA3"/>
<stop offset="1" stop-color="#DF255C"/>
</linearGradient>
<linearGradient id="paint49_linear" x1="-0.0768654" y1="21.904" x2="613.905" y2="177.726" gradientUnits="userSpaceOnUse">
<stop stop-color="#3D1AA3"/>
<stop offset="1" stop-color="#DF255C"/>
</linearGradient>
<linearGradient id="paint50_linear" x1="-0.0768654" y1="21.904" x2="613.905" y2="177.726" gradientUnits="userSpaceOnUse">
<stop stop-color="#3D1AA3"/>
<stop offset="1" stop-color="#DF255C"/>
</linearGradient>
<linearGradient id="paint51_linear" x1="-0.0768654" y1="21.904" x2="613.905" y2="177.726" gradientUnits="userSpaceOnUse">
<stop stop-color="#3D1AA3"/>
<stop offset="1" stop-color="#DF255C"/>
</linearGradient>
<linearGradient id="paint52_linear" x1="-0.0768654" y1="21.904" x2="613.905" y2="177.726" gradientUnits="userSpaceOnUse">
<stop stop-color="#3D1AA3"/>
<stop offset="1" stop-color="#DF255C"/>
</linearGradient>
<linearGradient id="paint53_linear" x1="-0.0768654" y1="21.904" x2="613.905" y2="177.726" gradientUnits="userSpaceOnUse">
<stop stop-color="#3D1AA3"/>
<stop offset="1" stop-color="#DF255C"/>
</linearGradient>
<linearGradient id="paint54_linear" x1="-0.0768654" y1="21.904" x2="613.905" y2="177.726" gradientUnits="userSpaceOnUse">
<stop stop-color="#3D1AA3"/>
<stop offset="1" stop-color="#DF255C"/>
</linearGradient>
<linearGradient id="paint55_linear" x1="-0.0768654" y1="21.904" x2="613.905" y2="177.726" gradientUnits="userSpaceOnUse">
<stop stop-color="#3D1AA3"/>
<stop offset="1" stop-color="#DF255C"/>
</linearGradient>
<linearGradient id="paint56_linear" x1="-0.0768654" y1="21.904" x2="613.905" y2="177.726" gradientUnits="userSpaceOnUse">
<stop stop-color="#3D1AA3"/>
<stop offset="1" stop-color="#DF255C"/>
</linearGradient>
<linearGradient id="paint57_linear" x1="-0.0768654" y1="21.904" x2="613.905" y2="177.726" gradientUnits="userSpaceOnUse">
<stop stop-color="#3D1AA3"/>
<stop offset="1" stop-color="#DF255C"/>
</linearGradient>
<linearGradient id="paint58_linear" x1="-0.0768654" y1="21.904" x2="613.905" y2="177.726" gradientUnits="userSpaceOnUse">
<stop stop-color="#3D1AA3"/>
<stop offset="1" stop-color="#DF255C"/>
</linearGradient>
<linearGradient id="paint59_linear" x1="-0.0768654" y1="21.904" x2="613.905" y2="177.726" gradientUnits="userSpaceOnUse">
<stop stop-color="#3D1AA3"/>
<stop offset="1" stop-color="#DF255C"/>
</linearGradient>
<linearGradient id="paint60_linear" x1="-0.0768654" y1="21.904" x2="613.905" y2="177.726" gradientUnits="userSpaceOnUse">
<stop stop-color="#3D1AA3"/>
<stop offset="1" stop-color="#DF255C"/>
</linearGradient>
<linearGradient id="paint61_linear" x1="-0.0768654" y1="21.904" x2="613.905" y2="177.726" gradientUnits="userSpaceOnUse">
<stop stop-color="#3D1AA3"/>
<stop offset="1" stop-color="#DF255C"/>
</linearGradient>
<linearGradient id="paint62_linear" x1="-0.0768654" y1="21.904" x2="613.905" y2="177.726" gradientUnits="userSpaceOnUse">
<stop stop-color="#3D1AA3"/>
<stop offset="1" stop-color="#DF255C"/>
</linearGradient>
</defs>
</svg>
