<?xml version="1.0" encoding="utf-8"?>
<!-- Generator: Adobe Illustrator 17.0.0, SVG Export Plug-In . SVG Version: 6.00 Build 0)  -->
<!DOCTYPE svg PUBLIC "-//W3C//DTD SVG 1.1//EN" "http://www.w3.org/Graphics/SVG/1.1/DTD/svg11.dtd">
<svg version="1.1" id="Layer_1" xmlns="http://www.w3.org/2000/svg" xmlns:xlink="http://www.w3.org/1999/xlink" x="0px" y="0px"
	 width="533px" height="549px" viewBox="0 0 533 549" enable-background="new 0 0 533 549" xml:space="preserve">
<path fill="#FFFFFF" d="M110.8,228h18.624l12.096-51.072L153.712,228h16.608l17.76-67.2h-15.072l-10.08,52.704L149.296,160.8h-15.36
	L120.4,213.696L110.224,160.8H94.96L110.8,228z M234.252,216.192c-4.704,1.344-13.248,2.496-18.24,2.496
	c-6.144,0-10.944-0.672-10.944-8.16v-2.976h31.968v-9.408c0-14.88-11.328-19.104-23.52-19.104c-16.32,0-23.904,7.488-23.904,22.56
	v7.872c0,15.648,12.192,19.488,24.672,19.488c8.16,0,15.456-1.152,21.504-2.592L234.252,216.192z M205.068,198.048
	c0-7.392,2.592-9.504,8.448-9.504c5.856,0,9.216,1.824,9.216,8.832v2.304h-17.664V198.048z M124.798,292h10.62l-12.921-41.3h-12.803
	L96.419,292h10.679l2.537-8.909h12.626L124.798,292z M116.184,260.081l4.72,16.284h-9.794L116.184,260.081z M160.973,261.91h-2.478
	c-3.658,0-6.549,2.773-8.083,4.897V262.5h-9.44V292h9.44v-14.75c0-3.481,3.599-7.611,7.552-7.611h3.894L160.973,261.91z
	 M190.741,284.743c-2.891,0.826-8.142,1.534-11.21,1.534c-3.776,0-6.726-0.413-6.726-5.015v-1.829h19.647v-5.782
	c0-9.145-6.962-11.741-14.455-11.741c-10.03,0-14.691,4.602-14.691,13.865v4.838c0,9.617,7.493,11.977,15.163,11.977
	c5.015,0,9.499-0.708,13.216-1.593L190.741,284.743z M172.805,273.592c0-4.543,1.593-5.841,5.192-5.841s5.664,1.121,5.664,5.428
	v1.416h-10.856V273.592z M245.33,290.053v-21.122h-15.458v6.667l7.198,0.354v8.319c-2.301,0.59-4.13,0.885-6.136,0.885
	c-5.9,0-8.732-3.127-8.732-9.086v-8.85c0-6.018,2.832-9.086,9.971-9.086c3.304,0,7.139,0.649,10.443,1.593l1.77-7.729
	c-4.071-1.239-8.732-1.888-13.452-1.888c-11.328,0-18.939,4.897-18.939,16.756v9.204c0,11.859,7.611,16.52,18.939,16.52
	C236.303,292.59,240.905,291.823,245.33,290.053z M270.619,261.91h-2.478c-3.658,0-6.549,2.773-8.083,4.897V262.5h-9.44V292h9.44
	v-14.75c0-3.481,3.599-7.611,7.552-7.611h3.894L270.619,261.91z M274.853,269.816c2.478-0.531,7.493-1.475,10.797-1.475
	c3.953,0,5.133,1.239,5.133,4.307v2.596h-7.375c-7.08,0-11.033,2.242-11.033,8.26c0,6.313,3.245,9.086,9.44,9.086
	c3.894,0,7.139-1.298,8.909-2.596V292h9.44v-19.057c0-7.729-4.543-11.033-14.042-11.033c-5.133,0-10.207,1.298-12.331,1.829
	L274.853,269.816z M286.417,286.926c-3.186,0-4.543-1.003-4.543-3.599c0-1.711,1.357-3.186,4.189-3.186h4.661v5.605
	C289.78,286.159,287.833,286.926,286.417,286.926z M304.034,268.872h4.13v14.691c0,6.667,3.186,9.027,10.443,9.027
	c3.835,0,6.962-0.767,8.437-1.18l-1.121-5.841c-1.711,0.413-2.891,0.59-4.956,0.59c-2.183,0-3.363-1.298-3.363-4.307v-12.98h8.26
	V262.5h-8.26v-8.26l-9.44,0.944v7.316h-4.13V268.872z M356.044,284.743c-2.891,0.826-8.142,1.534-11.21,1.534
	c-3.776,0-6.726-0.413-6.726-5.015v-1.829h19.647v-5.782c0-9.145-6.962-11.741-14.455-11.741c-10.03,0-14.691,4.602-14.691,13.865
	v4.838c0,9.617,7.493,11.977,15.163,11.977c5.015,0,9.499-0.708,13.216-1.593L356.044,284.743z M338.108,273.592
	c0-4.543,1.593-5.841,5.192-5.841s5.664,1.121,5.664,5.428v1.416h-10.856V273.592z M386.817,248.989
	c-1.593-0.531-5.664-1.239-10.207-1.239c-7.198,0-11.092,3.953-11.092,12.98v1.77h-4.838v6.726h4.838V292h9.44v-22.774h8.614V262.5
	h-8.614c0-4.838,0.472-8.024,4.602-8.024c1.711,0,4.307,0.354,6.018,0.767L386.817,248.989z M387.804,262.5v21.24
	c0,5.133,2.537,8.85,8.378,8.85c4.897,0,9.499-1.652,12.154-2.891V292h9.44v-29.5h-9.44v21.24c-1.298,1.003-3.776,2.124-6.431,2.124
	c-2.832,0-4.661-1.298-4.661-5.192V262.5H387.804z M433.37,292v-44.25h-9.44V292H433.37z M95.008,308.128h8.484V334h4.452v-25.872
	h8.484V304.6h-21.42V308.128z M117.292,325.726c0,5.418,3.654,8.694,10.122,8.694c6.426,0,10.206-3.276,10.206-8.694v-4.41
	c0-5.418-3.78-8.736-10.206-8.736c-6.468,0-10.122,3.318-10.122,8.736V325.726z M121.492,320.644c0-3.402,2.184-5.208,5.922-5.208
	c3.906,0,5.922,1.722,5.922,5.208v5.418c0,3.528-2.016,5.544-5.922,5.544s-5.922-1.974-5.922-5.544V320.644z M151.916,322.828
	c0,6.804,4.62,11.592,13.02,11.592s13.02-4.788,13.02-11.592v-6.93c0-6.804-4.662-11.718-13.02-11.718s-13.02,4.914-13.02,11.718
	V322.828z M156.494,315.52c0-5.04,3.36-7.98,8.442-7.98c5.586,0,8.442,3.234,8.442,7.98v7.602c0,5.124-2.856,7.938-8.442,7.938
	c-5.292,0-8.442-2.814-8.442-7.938V315.52z M182.367,313v14.7c0,3.99,1.932,6.72,6.258,6.72c3.36,0,6.846-1.47,8.61-2.604V334h4.2
	v-21h-4.2v16.086c-1.176,1.008-3.78,2.31-6.51,2.31c-2.562,0-4.158-1.302-4.158-4.788V313H182.367z M218.746,312.58h-1.722
	c-2.688,0-5.124,2.058-6.258,4.2V313h-4.2v21h4.2v-12.39c0-2.058,2.94-5.46,6.384-5.46h2.1L218.746,312.58z M251.743,329.674
	c-2.1,0.672-4.872,1.47-7.056,1.47c-5.418,0-7.434-3.78-7.434-8.568v-6.51c0-5.25,2.184-8.61,7.434-8.61
	c2.184,0,4.83,0.672,6.93,1.47l0.882-3.15c-2.1-0.84-5.04-1.596-7.812-1.596c-7.854,0-11.97,4.116-11.97,11.844v6.552
	c0,7.77,4.116,11.844,11.97,11.844c2.772,0,5.712-0.882,7.812-1.596L251.743,329.674z M256.892,313v14.7
	c0,3.99,1.932,6.72,6.258,6.72c3.36,0,6.846-1.47,8.61-2.604V334h4.2v-21h-4.2v16.086c-1.176,1.008-3.78,2.31-6.51,2.31
	c-2.562,0-4.158-1.302-4.158-4.788V313H256.892z M289.407,312.58c-5.25,0-9.156,1.596-9.156,5.964c0,6.426,6.888,5.922,11.424,7.644
	c1.554,0.588,2.226,1.554,2.226,2.814c0,1.008-0.63,2.52-4.872,2.52c-2.856,0-5.964-0.756-8.484-1.386l-0.378,2.94
	c2.688,0.756,5.838,1.344,9.198,1.344c5.04,0,8.736-0.882,8.736-5.754c0-6.3-6.888-6.048-11.634-7.56
	c-1.218-0.378-2.016-1.302-2.016-2.562c0-1.386,1.05-3.066,4.914-3.066c2.982,0,5.208,0.63,7.392,1.302l0.588-2.898
	C295.371,313.294,292.809,312.58,289.407,312.58z M300.407,315.898h3.57v11.97c0,4.62,2.1,6.552,6.678,6.552
	c2.646,0,4.41-0.588,5.166-0.882l-0.63-2.646c-1.008,0.294-1.806,0.63-3.738,0.63c-1.848,0-3.276-0.966-3.276-4.284v-11.34h7.14V313
	h-7.14v-5.88l-4.2,0.546V313h-3.57V315.898z M317.284,325.726c0,5.418,3.654,8.694,10.122,8.694c6.426,0,10.206-3.276,10.206-8.694
	v-4.41c0-5.418-3.78-8.736-10.206-8.736c-6.468,0-10.122,3.318-10.122,8.736V325.726z M321.484,320.644
	c0-3.402,2.184-5.208,5.922-5.208c3.906,0,5.922,1.722,5.922,5.208v5.418c0,3.528-2.016,5.544-5.922,5.544s-5.922-1.974-5.922-5.544
	V320.644z M358.05,334v-16.002c1.344-1.092,3.906-2.142,5.25-2.142c2.268,0,2.814,1.218,2.814,3.612V334h4.074v-15.078
	c0-4.116-0.966-6.342-5.25-6.342c-2.058,0-5.46,1.806-7.308,3.486c-0.63-1.764-1.722-3.486-5.04-3.486
	c-2.1,0-5.418,2.184-6.804,3.318V313h-4.074v21h4.074v-15.876c1.218-1.176,3.654-2.268,5.082-2.268c2.268,0,3.108,1.26,3.108,3.612
	V334H358.05z M392.44,329.884c-2.394,0.756-5.418,1.428-7.518,1.428c-3.822,0-6.174-0.84-6.174-4.914v-1.806h14.616v-3.612
	c0-5.964-3.864-8.4-9.408-8.4c-6.678,0-9.534,3.57-9.534,9.576v4.032c0,6.384,4.452,8.232,10.122,8.232
	c2.982,0,5.67-0.588,8.358-1.428L392.44,329.884z M378.748,321.148c0-4.032,1.596-5.67,5.208-5.67c3.528,0,5.418,1.428,5.418,5.082
	v1.554h-10.626V321.148z M409.715,312.58h-1.722c-2.688,0-5.124,2.058-6.258,4.2V313h-4.2v21h4.2v-12.39
	c0-2.058,2.94-5.46,6.384-5.46h2.1L409.715,312.58z M420.534,312.58c-5.25,0-9.156,1.596-9.156,5.964
	c0,6.426,6.888,5.922,11.424,7.644c1.554,0.588,2.226,1.554,2.226,2.814c0,1.008-0.63,2.52-4.872,2.52
	c-2.856,0-5.964-0.756-8.484-1.386l-0.378,2.94c2.688,0.756,5.838,1.344,9.198,1.344c5.04,0,8.736-0.882,8.736-5.754
	c0-6.3-6.888-6.048-11.634-7.56c-1.218-0.378-2.016-1.302-2.016-2.562c0-1.386,1.05-3.066,4.914-3.066
	c2.982,0,5.208,0.63,7.392,1.302l0.588-2.898C426.498,313.294,423.936,312.58,420.534,312.58z M101.728,363.064h11.802v-3.402
	h-11.802v-9.66h13.734V346.6H97.276V376h4.452V363.064z M117.456,367.726c0,5.418,3.654,8.694,10.122,8.694
	c6.426,0,10.206-3.276,10.206-8.694v-4.41c0-5.418-3.78-8.736-10.206-8.736c-6.468,0-10.122,3.318-10.122,8.736V367.726z
	 M121.656,362.644c0-3.402,2.184-5.208,5.922-5.208c3.906,0,5.922,1.722,5.922,5.208v5.418c0,3.528-2.016,5.544-5.922,5.544
	c-3.906,0-5.922-1.974-5.922-5.544V362.644z M154.064,354.58h-1.722c-2.688,0-5.124,2.058-6.258,4.2V355h-4.2v21h4.2v-12.39
	c0-2.058,2.94-5.46,6.384-5.46h2.1L154.064,354.58z M167.196,350.128h8.484V376h4.452v-25.872h8.484V346.6h-21.42V350.128z
	 M211.237,376v-14.364c0-6.09-2.982-7.056-7.476-7.056c-3.696,0-6.3,1.722-7.392,2.604V346.6h-4.2V376h4.2v-16.044
	c1.218-1.05,3.738-2.352,5.964-2.352c3.57,0,4.704,1.428,4.704,4.62V376H211.237z M233.505,371.884
	c-2.394,0.756-5.418,1.428-7.518,1.428c-3.822,0-6.174-0.84-6.174-4.914v-1.806h14.616v-3.612c0-5.964-3.864-8.4-9.408-8.4
	c-6.678,0-9.534,3.57-9.534,9.576v4.032c0,6.384,4.452,8.232,10.122,8.232c2.982,0,5.67-0.588,8.358-1.428L233.505,371.884z
	 M219.813,363.148c0-4.032,1.596-5.67,5.208-5.67c3.528,0,5.418,1.428,5.418,5.082v1.554h-10.626V363.148z M238.599,355v21h4.2v-21
	H238.599z M238.599,346.6v4.914h4.2V346.6H238.599z M260.09,354.58h-1.722c-2.688,0-5.124,2.058-6.258,4.2V355h-4.2v21h4.2v-12.39
	c0-2.058,2.94-5.46,6.384-5.46h2.1L260.09,354.58z M279.941,363.064h11.802v-3.402h-11.802v-9.66h13.734V346.6h-18.186V376h4.452
	V363.064z M313.813,371.884c-2.394,0.756-5.418,1.428-7.518,1.428c-3.822,0-6.174-0.84-6.174-4.914v-1.806h14.616v-3.612
	c0-5.964-3.864-8.4-9.408-8.4c-6.678,0-9.534,3.57-9.534,9.576v4.032c0,6.384,4.452,8.232,10.122,8.232
	c2.982,0,5.67-0.588,8.358-1.428L313.813,371.884z M300.121,363.148c0-4.032,1.596-5.67,5.208-5.67c3.528,0,5.418,1.428,5.418,5.082
	v1.554h-10.626V363.148z M336.044,371.884c-2.394,0.756-5.418,1.428-7.518,1.428c-3.822,0-6.174-0.84-6.174-4.914v-1.806h14.616
	v-3.612c0-5.964-3.864-8.4-9.408-8.4c-6.678,0-9.534,3.57-9.534,9.576v4.032c0,6.384,4.452,8.232,10.122,8.232
	c2.982,0,5.67-0.588,8.358-1.428L336.044,371.884z M322.352,363.148c0-4.032,1.596-5.67,5.208-5.67c3.528,0,5.418,1.428,5.418,5.082
	v1.554h-10.626V363.148z M356.174,346.6v9.954c-1.134-0.798-3.066-1.974-6.132-1.974c-6.51,0-9.156,3.738-9.156,10.92
	c0,7.434,3.528,10.92,9.072,10.92c3.108,0,5.208-1.344,6.216-1.974V376h4.2v-29.4H356.174z M351.218,373.396
	c-3.066,0-6.048-1.344-6.048-7.896c0-6.678,2.982-7.896,6.048-7.896c2.1,0,3.864,0.882,4.956,1.47v12.852
	C355.04,372.598,353.444,373.396,351.218,373.396z M365.501,346.6V376h4.2v-1.554c1.302,0.714,3.486,1.848,6.384,1.848
	c6.384,0,8.904-3.444,8.904-10.794c0-6.888-2.52-10.878-8.904-10.878c-2.856,0-5.166,1.176-6.384,1.932V346.6H365.501z
	 M374.615,373.522c-2.226,0-3.864-0.798-4.914-1.47v-12.978c1.05-0.588,2.772-1.47,4.914-1.47c2.982,0,6.09,1.386,6.09,7.896
	C380.705,372.052,377.597,373.522,374.615,373.522z M390.049,358.612c1.68-0.546,4.914-1.218,7.644-1.218
	c3.108,0,4.368,1.26,4.368,4.116v2.73h-5.964c-4.704,0-7.812,1.764-7.812,5.796c0,4.242,2.268,6.426,7.224,6.426
	c2.982,0,5.376-1.176,6.552-2.016V376h4.2v-13.818c0-4.704-1.68-7.602-8.4-7.602c-3.822,0-7.014,0.84-8.358,1.302L390.049,358.612z
	 M397.147,373.564c-3.192,0-4.536-1.05-4.536-3.57c0-1.47,1.302-3.066,4.41-3.066h5.04v5.166
	C400.969,372.598,398.743,373.564,397.147,373.564z M426.938,371.884c-2.016,0.798-3.654,1.47-5.67,1.47c-4.2,0-6.3-2.1-6.3-6.468
	v-2.73c0-4.326,2.058-6.468,6.3-6.468c1.848,0,4.242,0.882,5.628,1.47l0.672-3.066c-2.058-0.924-4.914-1.512-6.972-1.512
	c-6.09,0-10.08,3.486-10.08,9.324v3.234c0,6.174,4.032,9.282,10.08,9.282c3.066,0,5.418-0.714,6.972-1.512L426.938,371.884z
	 M435.039,346.6h-4.2V376h4.2v-9.996h0.588l8.946,9.996h4.956l-10.29-10.962L449.529,355h-5.208l-8.694,8.988h-0.588V346.6z"/>
<g>
	<path fill="#FFFFFF" d="M108.262,128.085c0-0.381,0.017-0.76,0.046-1.136c-1.993-0.527-3.76-1.616-5.116-3.088
		c-1.957,1.749-3.192,4.29-3.192,7.116V143h8.262V128.085z"/>
	<path fill="#FFFFFF" d="M114.262,116.286c-1.169-1.882-1.846-4.099-1.846-6.471c0-0.256,0.009-0.509,0.024-0.761
		c-0.456-0.083-0.925-0.129-1.404-0.129c-4.293,0-7.785,3.478-7.785,7.753c0,3.508,2.352,6.478,5.567,7.431
		C109.701,121.007,111.601,118.234,114.262,116.286z"/>
	<path fill="#FFFFFF" d="M124.787,119.274c-5.238,0-9.499-4.243-9.499-9.459c0-5.216,4.261-9.459,9.499-9.459
		c5.238,0,9.499,4.243,9.499,9.459C134.286,115.031,130.025,119.274,124.787,119.274z"/>
	<path fill="#FFFFFF" d="M133.524,118.535c-2.24,2.229-5.33,3.61-8.738,3.61s-6.498-1.381-8.738-3.61
		c-2.974,2.133-4.916,5.619-4.916,9.55V143h27.308v-14.915C138.441,124.154,136.499,120.668,133.524,118.535z"/>
	<path fill="#FFFFFF" d="M142.157,105.324c-0.23,0-0.46-0.055-0.669-0.166c-0.06-0.032-1.489-0.789-2.93-1.923
		c-2.164-1.703-3.255-3.394-3.244-5.026c0.016-2.322,1.909-4.21,4.22-4.21c0.974,0,1.892,0.337,2.623,0.918
		c0.73-0.581,1.649-0.918,2.623-0.918c1.135,0,2.201,0.444,3.001,1.249c0.794,0.799,1.227,1.858,1.219,2.981
		c-0.011,1.623-1.107,3.306-3.257,5.004c-1.435,1.134-2.854,1.891-2.913,1.922C142.619,105.269,142.388,105.324,142.157,105.324z"/>
</g>
</svg>
