<?xml version="1.0" encoding="utf-8"?>
<!-- Generator: Adobe Illustrator 17.0.0, SVG Export Plug-In . SVG Version: 6.00 Build 0)  -->
<!DOCTYPE svg PUBLIC "-//W3C//DTD SVG 1.1//EN" "http://www.w3.org/Graphics/SVG/1.1/DTD/svg11.dtd">
<svg version="1.1" id="Layer_1" xmlns="http://www.w3.org/2000/svg" xmlns:xlink="http://www.w3.org/1999/xlink" x="0px" y="0px"
	 width="13.538px" height="12.9px" viewBox="9.308 13.165 13.538 12.9" enable-background="new 9.308 13.165 13.538 12.9"
	 xml:space="preserve">
<path fill="#FFFFFF" d="M22.834,18.075c-0.029-0.088-0.104-0.152-0.196-0.165l-4.384-0.637l-1.96-3.972
	c-0.041-0.083-0.125-0.135-0.217-0.135s-0.177,0.052-0.217,0.135l-1.961,3.973L9.515,17.91c-0.091,0.013-0.167,0.077-0.196,0.165
	c-0.028,0.087-0.005,0.184,0.061,0.248l3.172,3.092l-0.749,4.366c-0.016,0.091,0.022,0.183,0.096,0.237
	c0.075,0.055,0.174,0.062,0.255,0.018l3.921-2.061l3.921,2.061c0.035,0.019,0.074,0.028,0.113,0.028c0.05,0,0.1-0.015,0.142-0.046
	c0.075-0.054,0.112-0.146,0.096-0.237l-0.749-4.366l3.172-3.092C22.839,18.259,22.863,18.163,22.834,18.075z"/>
</svg>
