<?xml version="1.0" encoding="utf-8"?>
<!-- Generator: Adobe Illustrator 17.0.0, SVG Export Plug-In . SVG Version: 6.00 Build 0)  -->
<!DOCTYPE svg PUBLIC "-//W3C//DTD SVG 1.1//EN" "http://www.w3.org/Graphics/SVG/1.1/DTD/svg11.dtd">
<svg version="1.1" id="Layer_1" xmlns="http://www.w3.org/2000/svg" xmlns:xlink="http://www.w3.org/1999/xlink" x="0px" y="0px"
	 width="261.939px" height="261.106px" viewBox="77.221 80.644 261.939 261.106"
	 enable-background="new 77.221 80.644 261.939 261.106" xml:space="preserve">
<path fill="#FFBC31" d="M322.662,147.544c10.334,17.9,15.237,36.174,16.318,56.814c1.082,20.64-2.737,41.243-11.143,60.125
	c-8.407,18.881-21.163,35.505-37.225,48.512c-16.063,13.007-31.492,20.844-51.709,25.141l-4.26-2.473l3.339-3.917
	c19.063-4.052,32.778-12.298,47.924-24.562c15.145-12.265,27.172-27.94,35.099-45.743c7.927-17.803,11.527-37.23,10.507-56.692
	c-1.02-19.461-5.595-36.581-15.339-53.459l4.613,0.798L322.662,147.544z"/>
<path fill="#FF4E83" d="M235.45,338.747c-27.058,5.734-55.345,3.346-80.605-7.92s-46.305-30.239-60.119-54.2
	c-13.814-23.962-19.688-51.681-16.779-79.186s13.648-51.641,32.168-72.183l4.643-0.95l0.281,4.683
	c-17.463,19.369-26.912,43.302-29.655,69.237c-2.742,25.934,2.796,52.071,15.821,74.664s32.869,40.483,56.686,51.105
	c23.818,10.622,50.866,13.916,76.379,8.51l-2.995,3.805L235.45,338.747z"/>
<path fill="#00C297" d="M111.851,122.87c13.673-15.499,28.947-25.844,48.166-33.446c19.22-7.602,38.059-10.095,58.635-8.143
	l3.436,3.553l-4.413,2.547c-19.401-1.84-36.785,1.829-54.907,8.997c-18.122,7.168-32.801,16.13-45.694,30.744l-0.062-5.501
	L111.851,122.87z"/>
<path fill="#AB34F4" d="M221.198,80.872c20.559,2.05,40.341,8.937,57.728,20.097c17.388,11.16,31.887,26.277,42.313,44.114
	l-1.801,4.67l-4.653-0.898c-9.831-16.819-23.502-31.072-39.897-41.595c-16.394-10.523-35.046-17.016-54.431-18.949l5.324-3.074
	L221.198,80.872z"/>
</svg>
