<svg width="24" height="24" viewBox="0 0 24 24" fill="none" xmlns="http://www.w3.org/2000/svg">
<path d="M3.165 4.28885C3.24 4.30767 3.30863 4.34656 3.36333 4.40121L9.47411 10.5121L10.5798 9.40646L4.46897 3.29558C4.41416 3.24082 4.37542 3.17197 4.35649 3.09675L3.97189 1.56361L1.42233 0.106018L0.173828 1.35446L1.63186 3.90578L3.165 4.28885Z" fill="#6C6C6C"/>
<path d="M8.59884 18.2279L18.2957 8.5309C18.402 8.42457 18.5561 8.38194 18.7018 8.41821C19.9785 8.74542 21.3346 8.46188 22.3737 7.6512C23.413 6.84047 24.0175 5.59372 24.0105 4.27582C24.0105 4.19555 24.0081 4.11468 24.0029 4.03309L21.7475 6.2882C21.6332 6.40259 21.4638 6.4427 21.3101 6.39145L18.7449 5.53628C18.6172 5.49398 18.517 5.39379 18.4744 5.26618L17.6194 2.70093C17.5681 2.54752 17.6081 2.37799 17.7227 2.26349L19.978 0.00822138C18.6199 -0.0762703 17.3032 0.494322 16.4357 1.54268C15.5684 2.59125 15.2549 3.99151 15.5923 5.30963C15.6288 5.45557 15.5862 5.60963 15.4799 5.7159L5.78316 15.4122C5.67678 15.5178 5.52283 15.5605 5.37699 15.5248C5.03941 15.4381 4.69222 15.3932 4.3435 15.3918C2.50217 15.3797 0.856933 16.5405 0.250673 18.2795C-0.355257 20.0184 0.212213 21.9504 1.66241 23.0853C3.1126 24.2202 5.12429 24.307 6.66665 23.3008C8.20913 22.2946 8.94048 20.4187 8.48592 18.634C8.44977 18.4883 8.49251 18.334 8.59884 18.2279ZM5.38418 21.3775H3.30315L2.27679 19.6674L3.30315 17.957H5.38418L6.41032 19.6674L5.38418 21.3775ZM7.03419 16.3722L16.44 6.96633L17.0445 7.57088L7.63864 16.9768L7.03419 16.3722Z" fill="#6C6C6C"/>
<path d="M20.5049 23.7767C21.4572 24.1347 22.5308 23.9025 23.2503 23.1831C23.9698 22.4636 24.202 21.3898 23.8438 20.4377L20.5049 23.7767Z" fill="#6C6C6C"/>
<path d="M23.2514 19.5118L18.4496 14.708C17.9199 15.1532 17.1378 15.1194 16.6482 14.6304C16.1586 14.1416 16.1241 13.3597 16.5686 12.8294L15.8885 12.1486L12.2178 15.8195L12.9019 16.5036C13.4316 16.0584 14.2138 16.0921 14.7031 16.5809C15.1927 17.0699 15.2274 17.8519 14.7829 18.3822L19.5807 23.1825C19.633 23.2348 19.6882 23.2833 19.744 23.3305L23.3996 19.675C23.3525 19.6191 23.3038 19.564 23.2514 19.5118ZM20.7166 21.252L16.4414 16.9768L17.0458 16.3722L21.3212 20.6477L20.7166 21.252Z" fill="#6C6C6C"/>
</svg>
