<?xml version="1.0" standalone="no"?>
<!DOCTYPE svg PUBLIC "-//W3C//DTD SVG 1.1//EN" "http://www.w3.org/Graphics/SVG/1.1/DTD/svg11.dtd" >
<svg>
<metadata>
Created by FontForge 20120731 at Wed Aug 21 20:39:46 2019
 By www
Copyright (c) 2006 by Zakhar Yashchin. All rights reserved.
</metadata>
<defs>
<font id="ALSEkibastuz-Bold" horiz-adv-x="1355" >
  <font-face 
    font-family="ALS Ekibastuz"
    font-weight="700"
    font-stretch="normal"
    units-per-em="2048"
    panose-1="2 0 6 3 0 0 0 2 0 3"
    ascent="1638"
    descent="-410"
    x-height="1024"
    cap-height="1434"
    bbox="-195 -471 2472 1925"
    underline-thickness="102"
    underline-position="-102"
    unicode-range="U+0020-F6D0"
  />
<missing-glyph horiz-adv-x="532" 
 />
    <glyph glyph-name=".notdef" horiz-adv-x="532" 
 />
    <glyph glyph-name=".null" horiz-adv-x="0" 
 />
    <glyph glyph-name="nonmarkingreturn" horiz-adv-x="682" 
 />
    <glyph glyph-name="space" unicode=" " horiz-adv-x="532" 
 />
    <glyph glyph-name="exclam" unicode="!" horiz-adv-x="673" 
d="M184 1434h262l-45 -1031h-172zM199 0v274h231v-274h-231z" />
    <glyph glyph-name="quotedbl" unicode="&#x22;" horiz-adv-x="921" 
d="M184 1434h207l-20 -471h-166zM498 1434h209l-21 -471h-168z" />
    <glyph glyph-name="numbersign" unicode="#" horiz-adv-x="1513" 
d="M184 313v193h140l82 422h-222v192h258l62 314h221l-61 -314h262l59 314h221l-59 -314h96v-192h-135l-82 -422h217v-193h-256l-61 -313h-219l61 313h-262l-62 -313h-219l60 313h-101zM543 506h262l82 422h-260z" />
    <glyph glyph-name="dollar" unicode="$" horiz-adv-x="1396" 
d="M164 72l31 159q86 -35 197 -59.5t216 -32.5v504q-58 17 -99.5 30.5t-91 35t-83.5 44t-68 54.5t-54.5 69.5t-33 87.5t-12.5 109q0 117 58.5 200t155.5 125t228 52v188h193v-188q186 -13 391 -78l-33 -158q-199 69 -358 84v-497q94 -29 140 -45t112.5 -51t97 -74t54.5 -104
t24 -150q0 -89 -32 -159.5t-90.5 -117.5t-135 -75.5t-170.5 -38.5v-191h-193v187q-292 16 -444 90zM389 1087q0 -71 46 -120.5t132 -85.5q7 -3 22 -9t19 -8v430q-114 -19 -166.5 -76.5t-52.5 -130.5zM801 145q56 10 97 33.5t61.5 47.5t32 55t14 48.5t2.5 35.5
q0 93 -41.5 137.5t-157.5 83.5q-2 0 -4.5 1t-3.5 1v-443z" />
    <glyph glyph-name="percent" unicode="%" horiz-adv-x="1988" 
d="M184 997v154q0 140 82 221.5t234 81.5q153 0 235 -81.5t82 -221.5v-154q0 -138 -81.5 -218.5t-235.5 -80.5q-153 0 -234.5 80.5t-81.5 218.5zM336 1006q0 -87 42.5 -141t121.5 -54t121.5 52t42.5 132v152q0 79 -42 135.5t-122 56.5q-77 0 -122 -53.5t-42 -128.5v-151z
M444 0q594 1045 818 1436h200l-813 -1436h-205zM1096 279v153q0 140 81 221.5t234 81.5q152 0 233.5 -81t81.5 -222v-153q0 -138 -81 -218.5t-234 -80.5q-154 0 -234.5 80t-80.5 219zM1247 276q0 -81 43.5 -132.5t120.5 -51.5q78 0 120 52.5t42 131.5v162q0 77 -42 131
t-120 54q-79 0 -121.5 -59t-42.5 -146v-142z" />
    <glyph glyph-name="ampersand" unicode="&#x26;" horiz-adv-x="1646" 
d="M184 381q0 94 22.5 167.5t65.5 124.5t90 84.5t111 63.5q-129 156 -129 293q0 166 123.5 253t325.5 87q194 0 383 -92l-43 -168q-181 88 -293 88q-41 0 -77 -5t-72 -19.5t-61 -37.5t-41 -61t-16 -88q0 -82 89 -190l444 -539q77 105 108 272l191 -8q-11 -101 -66 -206.5
t-122 -182.5l184 -217h-238l-92 109q-67 -61 -156.5 -95t-228.5 -34q-99 0 -185.5 22t-159 68t-115 125.5t-42.5 185.5zM401 387q0 -121 84 -193.5t209 -72.5q72 0 148.5 28t128.5 74l-396 479q-18 -10 -36 -23.5t-44.5 -41t-46 -60.5t-33.5 -83.5t-14 -106.5z" />
    <glyph glyph-name="quotesingle" unicode="'" horiz-adv-x="606" 
d="M184 1434h205l-20 -471h-164z" />
    <glyph glyph-name="parenleft" unicode="(" horiz-adv-x="927" 
d="M184 666q0 144 28 286.5t79 270t97.5 219t107.5 194.5l196 -30q-46 -71 -87 -151t-92 -204t-81.5 -277t-30.5 -308q0 -475 301 -936l-198 -35q-49 82 -86.5 150t-84.5 171t-77 198t-51 215t-21 237z" />
    <glyph glyph-name="parenright" unicode=")" horiz-adv-x="722" 
d="M184 1604l199 34q63 -105 109.5 -194.5t99.5 -218t81.5 -270.5t28.5 -287q0 -144 -28 -286.5t-78.5 -270t-97 -219.5t-107.5 -195l-196 31q45 71 86.5 151t92 204t81 277t30.5 308q0 475 -301 936z" />
    <glyph glyph-name="asterisk" unicode="*" horiz-adv-x="1507" 
d="M184 766l389 197l-389 196l82 160l396 -240l-17 437h180l-14 -437l393 240l82 -160l-389 -196l389 -197l-82 -160l-393 240l14 -436h-180l17 434l-396 -238z" />
    <glyph glyph-name="plus" unicode="+" 
d="M145 629v174h416v416h193v-416h415v-174h-415v-416h-193v416h-416z" />
    <glyph glyph-name="comma" unicode="," horiz-adv-x="448" 
d="M86 0v274h248v-168q0 -121 -46.5 -229.5t-113.5 -191.5l-80 36q82 138 82 279h-90z" />
    <glyph glyph-name="hyphen" unicode="-" horiz-adv-x="942" 
d="M143 406v174h615v-174h-615z" />
    <glyph glyph-name="period" unicode="." horiz-adv-x="436" 
d="M90 0v274h232v-274h-232z" />
    <glyph glyph-name="slash" unicode="/" horiz-adv-x="1337" 
d="M184 -283l734 1901h198l-735 -1901h-197z" />
    <glyph glyph-name="zero" unicode="0" 
d="M88 578v272q0 279 157 441.5t433 162.5q277 0 433.5 -162t156.5 -440v-274q0 -277 -156 -437.5t-434 -160.5t-434 159t-156 439zM311 571q5 -196 98 -311t269 -115q177 0 271.5 115.5t94.5 310.5v289q0 188 -95.5 308t-270.5 120t-271 -119.5t-96 -306.5v-291z" />
    <glyph glyph-name="one" unicode="1" 
d="M211 915l528 519h193v-1434h-217v1171l-436 -415z" />
    <glyph glyph-name="two" unicode="2" 
d="M147 0v74q0 102 12.5 182t45 143t62 105t92 87.5t103.5 70t126 71.5q22 12 75 39.5t88.5 46t82.5 49.5t75.5 58.5t49 65t20.5 75.5q0 96 -86 153.5t-240 57.5q-81 0 -219 -29.5t-227 -64.5l-33 172q90 35 227.5 66.5t262.5 31.5q120 0 214.5 -20t167 -62t111.5 -113.5
t39 -168.5q0 -50 -14 -96t-33.5 -81t-55.5 -70.5t-65 -59t-78 -52.5t-78 -44t-81.5 -41.5t-73.5 -37.5q-19 -11 -52 -29.5t-52 -29t-48 -29t-46 -32t-40.5 -35t-37 -41.5t-28.5 -48t-23 -58t-13.5 -67.5t-5.5 -80.5h835v-158h-1059z" />
    <glyph glyph-name="three" unicode="3" 
d="M133 43l31 174q231 -63 432 -63q70 0 126.5 6.5t109.5 24t88.5 45t57 71.5t21.5 102q0 55 -16.5 100t-42 74.5t-63.5 51.5t-73.5 33.5t-79.5 18.5t-75 9t-65 2h-170l-27 142h221q81 0 151 26t116.5 82t46.5 131q0 106 -83 156.5t-231 50.5q-92 0 -220 -14.5t-187 -38.5
l-41 168q60 22 199.5 40.5t244.5 18.5q97 0 173 -8.5t145.5 -31.5t115 -60.5t72.5 -98t27 -141.5q0 -119 -78 -205t-199 -118q64 -18 113 -38t97.5 -53t80 -74.5t51 -103t19.5 -137.5q0 -96 -33.5 -168t-89.5 -116.5t-140 -72t-173.5 -38t-200.5 -10.5q-115 0 -263.5 24
t-187.5 39z" />
    <glyph glyph-name="four" unicode="4" 
d="M70 393v162l751 879h240v-871h156l-29 -170h-127v-393h-217v393h-774zM260 563h582v670z" />
    <glyph glyph-name="five" unicode="5" 
d="M133 57l29 162q88 -24 235 -51t265 -27q165 0 249 72.5t84 247.5q0 260 -295 260q-105 0 -243.5 -18t-237.5 -39l70 770h887l-15 -170h-690l-45 -437q56 14 170 26.5t199 12.5q60 0 110 -6.5t100.5 -22.5t88.5 -46t68 -73t45.5 -108t15.5 -147q0 -111 -28 -195.5
t-76 -138.5t-119.5 -88t-150 -47.5t-175.5 -13.5q-147 0 -319 29t-222 48z" />
    <glyph glyph-name="six" unicode="6" 
d="M143 561v295q0 127 34 229.5t90.5 170t133.5 113t160.5 65.5t173.5 20q268 0 486 -70q-6 -27 -41 -159q-65 25 -190.5 43t-233.5 18q-171 0 -281 -102.5t-110 -276.5v-129q51 33 162 63t204 33q102 4 174 -4q181 -20 279 -118.5t98 -302.5q0 -213 -150 -340t-409 -127
q-580 0 -580 579zM365 518q10 -200 98.5 -291.5t249.5 -91.5q152 0 249 82.5t97 231.5q0 77 -26 134t-71.5 90.5t-102.5 50t-126 17.5q-77 2 -192 -24.5t-176 -59.5v-139z" />
    <glyph glyph-name="seven" unicode="7" 
d="M125 1247v187h1104v-131q-77 -59 -153.5 -148.5t-149 -215t-128 -268t-89 -317.5t-33.5 -354h-252q0 184 35 358.5t89 307.5t126.5 250.5t140.5 195.5t137 135h-827z" />
    <glyph glyph-name="eight" unicode="8" 
d="M88 391q0 288 389 397q-327 104 -327 336q0 161 138 245.5t390 84.5t390 -84.5t138 -245.5q0 -242 -358 -336q84 -21 155 -53.5t132.5 -80t97 -115t35.5 -148.5q0 -111 -41 -191.5t-120.5 -128t-185 -69.5t-243.5 -22t-243.5 22t-185 69.5t-120.5 128t-41 191.5zM315 406
q0 -143 94 -212t269 -69q174 0 268 69t94 212q0 48 -26 89t-55 66t-93.5 53t-97.5 39t-110 35q-13 4 -19 6q-324 -84 -324 -288zM358 1112q0 -42 25.5 -80t57.5 -62.5t86.5 -50t84.5 -36.5t80 -27q305 107 305 256q0 107 -79 157t-240 50q-320 0 -320 -207z" />
    <glyph glyph-name="nine" unicode="9" 
d="M74 985q0 213 149.5 341t409.5 128q579 0 579 -582v-294q0 -127 -34 -229t-91 -169.5t-134.5 -113t-161 -65t-173.5 -19.5q-260 0 -485 67q33 127 41 160q65 -25 191.5 -43.5t234.5 -18.5q169 0 279 102.5t110 278.5v127q-58 -35 -185 -67.5t-237 -32.5q-113 0 -199 21
t-154 69t-104 133.5t-36 206.5zM295 985q0 -77 26 -134.5t71.5 -91t102.5 -50t126 -17.5q77 -2 192 24.5t176 59.5v148q-23 376 -348 376q-152 0 -249 -83t-97 -232z" />
    <glyph glyph-name="colon" unicode=":" horiz-adv-x="659" 
d="M184 0v274h248v-274h-248zM184 754v274h248v-274h-248z" />
    <glyph glyph-name="semicolon" unicode=";" horiz-adv-x="653" 
d="M184 0v274h248v-168q0 -121 -46.5 -229.5t-113.5 -191.5l-79 36q81 137 81 279h-90zM184 754v274h248v-274h-248z" />
    <glyph glyph-name="less" unicode="&#x3c;" horiz-adv-x="1353" 
d="M217 602v135q546 295 868 473v-202l-630 -338l630 -338v-205q-145 79 -434 237.5t-434 237.5z" />
    <glyph glyph-name="equal" unicode="=" 
d="M147 344v174h1024v-174h-1024zM147 760v174h1024v-174h-1024z" />
    <glyph glyph-name="greater" unicode="&#x3e;" 
d="M219 127v205q434 233 633 338l-633 338v202q283 -156 871 -473v-135q-145 -79 -435.5 -237.5t-435.5 -237.5z" />
    <glyph glyph-name="question" unicode="?" horiz-adv-x="1120" 
d="M145 1413q42 12 130.5 26.5t166.5 14.5q88 0 153.5 -7t138.5 -32.5t119.5 -69t77 -121.5t30.5 -186q0 -39 -5 -73.5t-17.5 -62.5t-24.5 -49.5t-34 -42t-37 -33.5t-43.5 -28.5t-42.5 -23t-46 -22t-43 -19.5q-70 -42 -93 -67q-36 -39 -36 -91v-127h-193v140q0 94 51.5 151
t149.5 105q92 48 124 76q72 62 72 167q0 152 -74 210.5t-227 58.5q-60 0 -146.5 -13.5t-127.5 -25.5zM326 0v274h231v-274h-231z" />
    <glyph glyph-name="at" unicode="@" horiz-adv-x="2369" 
d="M180 535q0 247 66 428.5t194.5 294.5t309 167t417.5 54q500 0 743.5 -197.5t243.5 -634.5q0 -301 -152 -461.5t-441 -160.5h-146v96q-65 -43 -156.5 -80t-168.5 -37q-197 0 -298.5 127.5t-101.5 380.5q0 277 121 417t356 140q60 0 130.5 -7.5t106.5 -13t108 -20t73 -14.5
v-862q59 2 107.5 14t98.5 45t84 86t55.5 142t21.5 208q0 191 -43 321.5t-139 214t-242.5 120t-360.5 36.5q-388 0 -587 -196.5t-199 -607.5q0 -218 49.5 -372t150.5 -248.5t244.5 -137.5t341.5 -43q237 0 462 54t394 122l43 -127q-172 -77 -408.5 -136t-490.5 -59
q-191 0 -342.5 31.5t-274 101.5t-203 179.5t-124 269t-43.5 365.5zM868 518q0 -92 15 -160.5t39 -109.5t59.5 -65.5t70.5 -33t78 -8.5q60 0 137.5 35t133.5 70v659q-135 33 -244 33q-45 0 -82.5 -9t-77 -36t-66.5 -72t-44.5 -122.5t-18.5 -180.5z" />
    <glyph glyph-name="A" unicode="A" horiz-adv-x="1271" 
d="M-2 0l483 1434h271l479 -1434h-230l-122 389h-529l-123 -389h-229zM387 537h457l-226 700z" />
    <glyph glyph-name="B" unicode="B" horiz-adv-x="1263" 
d="M174 0v1434h535q167 0 262.5 -82.5t95.5 -259.5q0 -119 -44.5 -196.5t-125.5 -107.5q240 -87 240 -372q0 -98 -21 -170.5t-69.5 -129.5t-137 -86.5t-215.5 -29.5h-520zM385 147h266q135 0 206 64.5t71 210.5q0 58 -16.5 104.5t-43.5 76t-64 49.5t-74.5 28t-78.5 8h-266
v-541zM385 836h281q35 0 66.5 11t61 36t47 73.5t17.5 116.5q0 98 -49.5 155.5t-142.5 57.5h-281v-450z" />
    <glyph glyph-name="C" unicode="C" horiz-adv-x="1144" 
d="M102 557v320q0 283 148.5 430t435.5 147q154 0 381 -78l-43 -178q-223 72 -338 72q-188 0 -275 -99.5t-87 -296.5v-317q0 -393 362 -393q121 0 344 72l37 -179q-224 -77 -381 -77q-287 0 -435.5 146.5t-148.5 430.5z" />
    <glyph glyph-name="D" unicode="D" horiz-adv-x="1439" 
d="M174 0v1434h488q110 0 195.5 -13t162 -43.5t131 -84t94 -132t59 -189.5t19.5 -255q0 -172 -29.5 -298t-82 -206t-137 -128t-182.5 -66.5t-230 -18.5h-488zM391 164h271q55 0 99 5t91 20t82.5 40t68.5 67t53.5 99t33 138.5t12.5 183.5q0 103 -12.5 185t-33 139.5t-53.5 99
t-68 65.5t-83 38.5t-91 19t-99 4.5h-271v-1104z" />
    <glyph glyph-name="E" unicode="E" horiz-adv-x="1175" 
d="M174 0v1434h887v-164h-670v-426h576v-154h-576v-526h670v-164h-887z" />
    <glyph glyph-name="F" unicode="F" horiz-adv-x="1163" 
d="M174 0v1434h887v-179h-670v-458h576v-166h-576v-631h-217z" />
    <glyph glyph-name="G" unicode="G" horiz-adv-x="1316" 
d="M102 549v332q0 283 150.5 428t447.5 145q245 0 445 -63l-43 -168q-183 61 -381 61q-210 0 -303.5 -101t-93.5 -309v-325q0 -196 91.5 -303t284.5 -107q147 0 301 43v434l-319 13v141h494v-709q-221 -81 -476 -81q-298 0 -448 143t-150 426z" />
    <glyph glyph-name="H" unicode="H" horiz-adv-x="1529" 
d="M174 0v1434h217v-578h707v578h217v-1434h-217v690h-707v-690h-217z" />
    <glyph glyph-name="I" unicode="I" horiz-adv-x="866" 
d="M74 0v166h229v1102h-223v166h665v-166h-225v-1102h232v-166h-678z" />
    <glyph glyph-name="J" unicode="J" horiz-adv-x="993" 
d="M-29 37l35 176q96 -61 236 -61q80 0 139 19t93.5 49t55 75.5t27 89.5t6.5 100v949h217v-965q0 -88 -13 -157.5t-47.5 -133.5t-90 -106t-144 -67t-206.5 -25q-180 0 -308 57z" />
    <glyph glyph-name="K" unicode="K" horiz-adv-x="1357" 
d="M174 0v1434h217v-629h27l596 629h264l-649 -658l655 -776h-254l-610 725h-29v-725h-217z" />
    <glyph glyph-name="L" unicode="L" horiz-adv-x="1130" 
d="M174 0v1434h217v-1244h711v-190h-928z" />
    <glyph glyph-name="M" unicode="M" horiz-adv-x="1978" 
d="M147 0l121 1434h244l457 -1196l452 1196h246l121 -1434h-211l-88 1153l-430 -1153h-185l-428 1153l-88 -1153h-211z" />
    <glyph glyph-name="N" unicode="N" horiz-adv-x="1626" 
d="M174 0v1434h229l816 -1112v1112h192v-1434h-225l-821 1118v-1118h-191z" />
    <glyph glyph-name="O" unicode="O" horiz-adv-x="1515" 
d="M102 545v338q0 255 168 413t467 158t467 -158t168 -413v-338q0 -255 -167 -410t-468 -155t-468 155t-167 410zM330 563q0 -190 108 -304t299 -114q199 0 303.5 112.5t104.5 305.5v305q0 88 -26 163.5t-75.5 133t-128.5 90.5t-178 33q-184 0 -295.5 -117t-111.5 -303v-305
z" />
    <glyph glyph-name="P" unicode="P" horiz-adv-x="1294" 
d="M174 0v1434h465q139 0 233.5 -21.5t161 -74t97 -141t30.5 -220.5q0 -261 -124.5 -372t-397.5 -111h-248v-494h-217zM391 659h248q37 0 67 3t61.5 12t56.5 24t47.5 39t37 57t23 79.5t8.5 103.5q0 163 -75 227t-226 64h-248v-609z" />
    <glyph glyph-name="Q" unicode="Q" horiz-adv-x="1515" 
d="M102 545v338q0 255 168 413t467 158t467 -158t168 -413v-338q0 -184 -89 -319t-257 -199l182 -330h-209l-151 289q-52 -6 -111 -6q-301 0 -468 155t-167 410zM330 563q0 -190 108 -304t299 -114q199 0 303.5 112.5t104.5 305.5v305q0 88 -26 163.5t-75.5 133t-128.5 90.5
t-178 33q-184 0 -295.5 -117t-111.5 -303v-305z" />
    <glyph glyph-name="R" unicode="R" horiz-adv-x="1361" 
d="M174 0v1434h500q276 0 399 -103t123 -338q0 -184 -87.5 -285.5t-217.5 -109.5l405 -598h-245l-367 594h-293v-594h-217zM391 725h289q150 0 222.5 57.5t72.5 210.5t-73 216t-222 63h-289v-547z" />
    <glyph glyph-name="S" unicode="S" horiz-adv-x="1271" 
d="M92 72l31 159q103 -42 243 -68t257 -26q71 0 126.5 13t88 36t54 47t30 52.5t11.5 45.5t3 34q0 93 -41.5 137.5t-157.5 83.5q-42 13 -113 33t-115.5 32.5t-106 35t-100.5 44t-82.5 55.5t-68 73t-41 94t-16.5 120q0 79 27 142.5t74.5 107.5t114 74t145 43.5t168.5 13.5
q243 0 497 -82l-33 -158q-252 89 -452 89q-86 0 -150.5 -19t-99.5 -51t-51.5 -68.5t-16.5 -77.5q0 -130 179 -206q57 -23 128 -46t123 -38t110.5 -35.5t100 -41t81.5 -52.5t64.5 -70.5t39 -94.5t14.5 -126q0 -102 -41.5 -179.5t-115.5 -124t-169 -70t-208 -23.5
q-135 0 -284.5 22.5t-246.5 69.5z" />
    <glyph glyph-name="T" unicode="T" horiz-adv-x="1187" 
d="M51 1241v193h1045v-193h-414v-1241h-217v1241h-414z" />
    <glyph glyph-name="U" unicode="U" horiz-adv-x="1419" 
d="M152 512v922h223v-942q0 -347 340 -347q162 0 236.5 83.5t74.5 263.5v942h201v-922q0 -532 -518 -532q-280 0 -418.5 136t-138.5 396z" />
    <glyph glyph-name="V" unicode="V" horiz-adv-x="1325" 
d="M33 1434h246l360 -1248h12l369 1248h240l-463 -1434h-305z" />
    <glyph glyph-name="W" unicode="W" horiz-adv-x="2072" 
d="M33 1434h229l293 -1180l352 1180h213l357 -1178l290 1178h244l-403 -1434h-246l-354 1186l-346 -1186h-246z" />
    <glyph glyph-name="X" unicode="X" horiz-adv-x="1353" 
d="M29 0l463 717l-463 717h268l365 -607l360 607h260l-463 -717l463 -717h-268l-363 602l-362 -602h-260z" />
    <glyph glyph-name="Y" unicode="Y" horiz-adv-x="1234" 
d="M-8 1434h246l364 -713l365 713h239l-497 -899v-535h-217v535z" />
    <glyph glyph-name="Z" unicode="Z" horiz-adv-x="1257" 
d="M84 0v154l805 1126h-770v154h1026v-154l-799 -1126h811v-154h-1073z" />
    <glyph glyph-name="bracketleft" unicode="[" horiz-adv-x="901" 
d="M176 -283v1901h496v-162h-279v-1583h279v-156h-496z" />
    <glyph glyph-name="backslash" unicode="\" horiz-adv-x="1335" 
d="M176 1616h199l743 -1899h-196z" />
    <glyph glyph-name="bracketright" unicode="]" horiz-adv-x="888" 
d="M176 -127h279v1583h-279v162h496v-1901h-496v156z" />
    <glyph glyph-name="asciicircum" unicode="^" horiz-adv-x="1480" 
d="M176 584l459 852h176l461 -852h-209l-336 649l-344 -649h-207z" />
    <glyph glyph-name="underscore" unicode="_" horiz-adv-x="1007" 
d="M-8 -72h1024v-180h-1024v180z" />
    <glyph glyph-name="grave" unicode="`" horiz-adv-x="567" 
d="M139 1516h183l67 -369h-119z" />
    <glyph glyph-name="a" unicode="a" horiz-adv-x="1159" 
d="M96 272q0 147 92.5 221t288.5 74h291v135q0 108 -42.5 153.5t-160.5 45.5q-145 0 -375 -53l-18 137q7 1 48.5 10t77.5 16t87.5 15.5t106 13t104.5 4.5q189 0 283 -85.5t94 -284.5v-674h-205v76q-54 -39 -137.5 -69t-181.5 -30q-179 0 -266 73t-87 222zM301 281
q0 -95 52.5 -139t168.5 -44q58 0 129.5 22.5t116.5 51.5v291h-246q-115 0 -168 -45t-53 -137z" />
    <glyph glyph-name="b" unicode="b" horiz-adv-x="1228" 
d="M150 0v1495h204v-547q150 94 312 94q227 0 330.5 -134.5t103.5 -395.5q0 -272 -102 -399t-332 -127q-150 0 -312 90v-76h-204zM354 193q111 -72 240 -72q297 0 297 391q0 385 -297 385q-113 0 -240 -72v-632z" />
    <glyph glyph-name="c" unicode="c" horiz-adv-x="987" 
d="M96 432v158q0 212 133.5 333t358.5 121q77 0 172 -20t168 -53l-33 -140q-169 72 -274 72q-154 0 -231 -82.5t-77 -242.5v-134q0 -160 77.5 -242.5t230.5 -82.5q14 0 29.5 1.5t27 2.5t28.5 5t25.5 5.5t28 8l25.5 8.5t28.5 10.5t26 10t29 11.5t28.5 11l31 -140
q-180 -73 -340 -73q-227 0 -359.5 116t-132.5 336z" />
    <glyph glyph-name="d" unicode="d" horiz-adv-x="1245" 
d="M104 512q0 268 107 400t340 132q164 0 299 -96v547h205v-1495h-205v76q-2 -1 -18 -10.5t-22.5 -13.5t-24.5 -13.5t-30 -14.5t-32 -13t-38 -12.5t-40 -9.5t-45.5 -7t-48.5 -2q-212 0 -329.5 133.5t-117.5 398.5zM313 512q0 -93 16.5 -162.5t43.5 -111t66.5 -67.5t79.5 -35
t89 -9q122 0 242 72v626q-132 72 -242 72q-49 0 -88.5 -8.5t-79.5 -33.5t-67 -66.5t-43.5 -111.5t-16.5 -165z" />
    <glyph glyph-name="e" unicode="e" horiz-adv-x="1155" 
d="M100 381v197q0 466 465 466q213 0 336 -100t123 -309v-176h-713v-88q0 -142 76.5 -201t224.5 -59q149 0 367 69l22 -131q-220 -69 -407 -69q-87 0 -158 11.5t-135 40t-107 73.5t-68.5 115t-25.5 161zM311 559h518v96q0 269 -262 269q-256 0 -256 -297v-68z" />
    <glyph glyph-name="f" unicode="f" horiz-adv-x="827" 
d="M27 877v147h186v82q0 430 358 430q177 0 320 -41l-29 -139q-133 28 -239 28q-111 0 -158 -69t-47 -223v-68h354v-147h-354v-877h-205v877h-186z" />
    <glyph glyph-name="g" unicode="g" horiz-adv-x="1230" 
d="M96 -82q0 195 187 279q-60 56 -60 127q0 82 62 137q-140 81 -140 258q0 325 461 325q37 0 69 -3.5t53 -7t45.5 -12t34.5 -13t32 -15.5l28 -14q39 45 39 147h207q-2 -80 -28.5 -134.5t-90.5 -78.5q74 -71 74 -194q0 -75 -24.5 -130.5t-65 -89t-102 -54t-126 -28
t-145.5 -7.5q-118 0 -176 12q-8 -13 -16 -42t-8 -54q0 -19 9 -47.5t21 -45.5q54 11 170 11q93 0 166 -8.5t139.5 -30.5t110.5 -58t70 -94t26 -135q0 -78 -25.5 -136t-69.5 -94.5t-111 -58.5t-140 -30.5t-166 -8.5t-165.5 8.5t-139 30.5t-110.5 58.5t-69.5 94.5t-25.5 136z
M299 -82q0 -45 13 -80t45.5 -65.5t95 -47t153.5 -16.5q92 0 155 16t95.5 46.5t45.5 65.5t13 81q0 52 -13 87.5t-46 63.5t-94.5 41t-155.5 13q-307 0 -307 -205zM348 719q0 -105 55 -155t203 -50q141 0 199.5 50.5t58.5 154.5v6q0 95 -62 153q-65 60 -196 60
q-75 0 -127 -17.5t-79.5 -49.5t-39 -68.5t-12.5 -83.5z" />
    <glyph glyph-name="h" unicode="h" horiz-adv-x="1267" 
d="M150 0v1495h204v-577q58 47 150.5 86.5t210.5 39.5q72 0 123 -7t99 -28.5t77.5 -59t47 -100t17.5 -149.5v-700h-205v672q0 120 -50.5 172.5t-178.5 52.5q-75 0 -157.5 -35.5t-133.5 -79.5v-782h-204z" />
    <glyph glyph-name="i" unicode="i" horiz-adv-x="546" 
d="M150 0v1024h204v-1024h-204zM150 1194v240h204v-240h-204z" />
    <glyph glyph-name="j" unicode="j" horiz-adv-x="557" 
d="M-195 -369l17 127q108 -32 170 -32q168 0 168 204v1094h205v-1094q0 -340 -330 -340q-92 0 -230 41zM160 1194v240h205v-240h-205z" />
    <glyph glyph-name="k" unicode="k" horiz-adv-x="1107" 
d="M150 0v1495h204v-909h8l445 438h254l-502 -489l502 -535h-242l-457 487h-8v-487h-204z" />
    <glyph glyph-name="l" unicode="l" horiz-adv-x="544" 
d="M150 0v1495h204v-1495h-204z" />
    <glyph glyph-name="m" unicode="m" horiz-adv-x="1716" 
d="M145 0v1024h199v-121q59 48 160.5 94.5t171.5 46.5q113 0 166.5 -38t79.5 -111q67 61 173.5 105t182.5 44q149 0 202.5 -73.5t53.5 -235.5v-735h-199v709q0 93 -28.5 134.5t-108.5 41.5q-49 0 -127.5 -32.5t-128.5 -72.5v-780h-199v709q0 89 -35 132.5t-116 43.5
q-52 0 -128 -34t-120 -77v-774h-199z" />
    <glyph glyph-name="n" unicode="n" horiz-adv-x="1261" 
d="M145 0v1024h205v-106q206 126 391 126q182 0 258 -88.5t76 -277.5v-678h-205v664q0 129 -50 181t-179 52q-78 0 -160 -35.5t-131 -79.5v-782h-205z" />
    <glyph glyph-name="o" unicode="o" horiz-adv-x="1208" 
d="M90 403v215q0 199 129.5 312.5t364.5 113.5q234 0 365.5 -113.5t131.5 -312.5v-215q0 -198 -131.5 -310.5t-365.5 -112.5q-235 0 -364.5 112t-129.5 311zM295 408q0 -135 75.5 -218.5t213.5 -83.5t213 84t75 218v208q0 133 -75 216t-213 83q-134 0 -211.5 -78.5
t-77.5 -205.5v-223z" />
    <glyph glyph-name="p" unicode="p" horiz-adv-x="1230" 
d="M152 -410v1434h204v-76q151 96 318 96q221 0 324.5 -132t103.5 -400t-103.5 -400t-324.5 -132q-168 0 -318 90v-480h-204zM356 193q127 -74 244 -74q159 0 226 99.5t67 293.5q0 195 -67 294t-226 99q-121 0 -244 -74v-638z" />
    <glyph glyph-name="q" unicode="q" horiz-adv-x="1232" 
d="M100 512q0 264 109.5 398t359.5 134q234 0 484 -63v-1391h-205v486q-46 -27 -79.5 -44t-99 -36t-128.5 -19q-231 0 -336 136t-105 399zM311 512q0 -94 17.5 -164.5t45 -112t68.5 -66.5t81 -33.5t89 -8.5q48 0 97.5 13.5t75 25.5t63.5 33v655q-98 43 -236 43q-49 0 -90 -9
t-81.5 -35t-68 -67.5t-44.5 -111t-17 -162.5z" />
    <glyph glyph-name="r" unicode="r" horiz-adv-x="833" 
d="M150 0v1024h204v-164q45 75 128.5 129.5t176.5 54.5h84l25 -174h-102q-118 0 -215 -92t-97 -174v-604h-204z" />
    <glyph glyph-name="s" unicode="s" horiz-adv-x="1075" 
d="M90 45l19 123q89 -22 136 -33t130 -23q77 -12 137 -12h10q65 0 112 11t71 25t37 36.5t15.5 37t2.5 34.5q0 93 -109 137q-46 17 -117.5 35t-127 29.5t-117 36t-102 55.5t-67 86.5t-26.5 130.5q0 78 33.5 135t95 90.5t140.5 49t178 15.5q178 0 387 -63l-29 -121
q-100 31 -181 47.5t-179 16.5q-67 0 -116.5 -16.5t-75 -43.5t-37 -54.5t-11.5 -55.5q0 -45 26.5 -77.5t71.5 -47.5q46 -14 122 -31t130 -28.5t118 -36.5t104 -57t67 -87t27 -129q0 -70 -21.5 -120.5t-57 -81t-92 -48.5t-116 -24t-139.5 -6q-219 0 -449 65z" />
    <glyph glyph-name="t" unicode="t" horiz-adv-x="821" 
d="M27 883v141h174v260l205 27v-287h348v-141h-348v-553q0 -114 42 -160.5t117 -48.5q27 0 49 1.5t43.5 6t30.5 6.5t32.5 9t27.5 8l30 -129q-114 -43 -252 -43q-168 0 -246.5 75.5t-78.5 243.5v584h-174z" />
    <glyph glyph-name="u" unicode="u" horiz-adv-x="1267" 
d="M150 307v717h204v-664q0 -233 203 -233q91 0 179 35t138 78v784h205v-1024h-205v106q-76 -49 -191.5 -87.5t-227.5 -38.5q-153 0 -229 87.5t-76 239.5z" />
    <glyph glyph-name="v" unicode="v" horiz-adv-x="1120" 
d="M33 1024h227l281 -877h8l278 877h222l-365 -1024h-285z" />
    <glyph glyph-name="w" unicode="w" horiz-adv-x="1728" 
d="M39 1024h223l207 -844h4l254 844h225l256 -846h4l209 846h213l-278 -1024h-252l-266 836l-269 -836h-252z" />
    <glyph glyph-name="x" unicode="x" horiz-adv-x="1140" 
d="M47 0l354 518l-354 506h236l284 -434l269 434h227l-352 -506l352 -518h-236l-280 434l-271 -434h-229z" />
    <glyph glyph-name="y" unicode="y" horiz-adv-x="1161" 
d="M25 1024h237l338 -899l272 899h222l-346 -1014q-92 -220 -140 -307q-49 -81 -117 -127.5t-174 -46.5q-135 0 -264 55l39 142q122 -45 201 -45q65 0 104.5 26t71.5 100l80 193q-43 3 -88.5 37t-63.5 86z" />
    <glyph glyph-name="z" unicode="z" horiz-adv-x="1075" 
d="M98 0v106l594 777h-561v141h823v-106l-587 -777h594v-141h-863z" />
    <glyph glyph-name="braceleft" unicode="{" horiz-adv-x="970" 
d="M176 614v189h70q24 0 46.5 23t22.5 67v477q0 268 297 268h127v-188h-114q-42 0 -67.5 -23.5t-25.5 -66.5v-506q0 -57 -21.5 -85t-64.5 -54q47 -34 66.5 -82.5t19.5 -147.5v-493q0 -42 25.5 -66t67.5 -24h114v-189h-127q-297 0 -297 279v532q0 45 -22 67.5t-47 22.5h-70z
" />
    <glyph glyph-name="bar" unicode="|" horiz-adv-x="618" 
d="M176 -410v1844h217v-1844h-217z" />
    <glyph glyph-name="braceright" unicode="}" horiz-adv-x="970" 
d="M176 -98h115q42 0 67 24t25 66v493q0 99 19.5 147.5t66.5 82.5q-28 17 -43.5 30t-29 41.5t-13.5 67.5v506q0 43 -25 66.5t-67 23.5h-115v188h127q297 0 297 -268v-477q0 -44 23 -67t47 -23h69v-189h-69q-25 0 -47.5 -22.5t-22.5 -67.5v-532q0 -279 -297 -279h-127v189z
" />
    <glyph glyph-name="asciitilde" unicode="~" horiz-adv-x="1435" 
d="M186 879q3 2 27 26.5t49 45.5t60.5 46t78.5 39.5t86 14.5q59 0 119.5 -20t104 -44.5t106 -44.5t125.5 -20q41 0 87 21t75 44.5t57.5 50t30.5 27.5l94 -158q-2 -2 -23.5 -29t-46 -52t-60.5 -53.5t-83 -46t-98 -17.5q-68 0 -133 20t-108 44.5t-100.5 44.5t-113.5 20
q-65 0 -141.5 -42.5t-116.5 -80.5z" />
    <glyph glyph-name="uni00A0" unicode="&#xa0;" horiz-adv-x="532" 
 />
    <glyph glyph-name="exclamdown" unicode="&#xa1;" horiz-adv-x="0" 
d="M184 -410l45 1031h172l45 -1031h-262zM199 750v274h231v-274h-231z" />
    <glyph glyph-name="cent" unicode="&#xa2;" horiz-adv-x="1042" 
d="M158 432v158q0 188 107 305.5t294 142.5v232h152v-230q156 -14 278 -69l-33 -140q-155 64 -245 70v-782q15 1 31.5 3.5t29.5 5t32 8.5l28.5 9t31.5 11t29.5 11t33 13.5t31.5 12.5l31 -140q-139 -57 -278 -69v-250h-152v252q-188 21 -294.5 134.5t-106.5 311.5zM375 444
q0 -251 184 -309v750q-184 -57 -184 -307v-134z" />
    <glyph glyph-name="sterling" unicode="&#xa3;" horiz-adv-x="1456" 
d="M127 125q88 58 176 92v488h-121v137h121v153q0 216 144.5 337.5t373.5 121.5q46 0 94.5 -4.5t91 -11.5t81.5 -15.5t72.5 -18t56 -16t39.5 -12.5l18 -6l-47 -147q-3 3 -63 19t-161.5 33t-181.5 17q-57 0 -108.5 -18t-95 -53.5t-70 -97.5t-27.5 -142v-139h588v-137h-588
v-455q74 11 129 6q63 -3 184 -51.5t197 -48.5q41 0 86.5 13.5t84 33.5t68 39t51.5 36t23 17l80 -133q-2 -1 -18 -16t-34 -29t-45.5 -34.5t-59.5 -37.5t-69 -32t-80 -24t-87 -9q-57 0 -119 17.5t-109 38.5t-114.5 38.5t-134.5 17.5q-92 0 -193 -29.5t-178 -76.5z" />
    <glyph glyph-name="yen" unicode="&#xa5;" horiz-adv-x="1419" 
d="M102 1434h246l365 -713l364 713h240l-449 -809h336v-154h-385v-471h-217v471h-385v154h334z" />
    <glyph glyph-name="brokenbar" unicode="&#xa6;" horiz-adv-x="569" 
d="M176 -410v861h217v-861h-217zM176 573v861h217v-861h-217z" />
    <glyph glyph-name="section" unicode="&#xa7;" horiz-adv-x="1521" 
d="M184 526q0 44 18.5 85t44 69.5t67 58t71.5 46t74 38.5q-117 31 -196 110t-79 183q0 108 79 185t203 112t277 35q251 0 547 -76l-37 -141q-92 24 -152.5 38t-161 27t-196.5 13q-93 0 -162.5 -18t-107 -47.5t-55 -61.5t-17.5 -64q0 -31 13.5 -57t41.5 -46.5t59.5 -36
t79 -30t87 -24t96.5 -21.5q186 -40 262 -68q215 -80 254 -243q9 -37 9 -80q0 -53 -24 -101t-65 -84.5t-86.5 -64t-97.5 -49.5q273 -88 273 -291q0 -69 -32 -125.5t-86 -94.5t-126.5 -63.5t-151.5 -37t-164 -11.5q-239 0 -548 74l38 141q312 -75 510 -75q93 0 162.5 18
t107 47t55 61t17.5 66q0 38 -22 69t-55.5 52.5t-88.5 40t-104 29.5t-119 24q-54 10 -94 18.5t-96.5 25.5t-98 35.5t-86 49t-72.5 66t-46.5 85.5t-18.5 109zM401 526q0 -34 11.5 -62.5t27 -49t45 -39t52.5 -29.5t64 -23t64.5 -17.5t69 -15.5t64.5 -14q53 22 87 37.5t76 39.5
t66 46t40.5 51.5t16.5 61.5q0 39 -14 71t-42.5 56t-61.5 42.5t-82.5 33.5t-92.5 25t-104 22q-56 -21 -103.5 -44.5t-91 -53.5t-68.5 -65.5t-24 -72.5z" />
    <glyph glyph-name="dieresis" unicode="&#xa8;" horiz-adv-x="868" 
d="M184 1188v280h150v-280h-150zM479 1188v280h150v-280h-150z" />
    <glyph glyph-name="copyright" unicode="&#xa9;" horiz-adv-x="2232" 
d="M184 522q0 218 56.5 388.5t169.5 292.5t291.5 186.5t414.5 64.5t414.5 -64.5t291.5 -186.5t169.5 -292.5t56.5 -388.5t-56.5 -388.5t-169.5 -292.5t-291.5 -186.5t-414.5 -64.5t-414.5 64.5t-291.5 186.5t-169.5 292.5t-56.5 388.5zM362 522q0 -398 192 -593t562 -195
q384 0 569 192.5t185 595.5q0 396 -184.5 593.5t-569.5 197.5q-376 0 -565 -199.5t-189 -591.5zM700 438v156q0 235 111.5 347t349.5 112q148 0 299 -52l-33 -133q-145 50 -266 50q-164 0 -230.5 -76t-66.5 -250v-152q0 -162 66 -237.5t231 -75.5q129 0 271 49l28 -131
q-154 -53 -299 -53q-240 0 -350.5 106t-110.5 340z" />
    <glyph glyph-name="ordfeminine" unicode="&#xaa;" horiz-adv-x="692" 
d="M63 909q0 209 269 209h207v94q0 76 -31 109t-113 33q-116 0 -264 -39l-14 98q2 0 45.5 9t75 15t83.5 11.5t95 5.5q133 0 199.5 -60.5t66.5 -201.5v-475h-143v53q-99 -70 -228 -70q-248 0 -248 209zM209 915q0 -67 37 -98t119 -31q39 0 90 16t84 36v206h-174
q-82 0 -119 -32t-37 -97z" />
    <glyph glyph-name="guillemotleft" unicode="&#xab;" horiz-adv-x="1075" 
d="M135 520l299 441h184l-276 -439l274 -416h-190zM481 520l299 441h185l-277 -439l275 -416h-191z" />
    <glyph glyph-name="logicalnot" unicode="&#xac;" 
d="M123 850v174h1061v-549h-162v375h-899z" />
    <glyph glyph-name="uni00AD" unicode="&#xad;" horiz-adv-x="942" 
d="M143 406v174h615v-174h-615z" />
    <glyph glyph-name="registered" unicode="&#xae;" horiz-adv-x="1312" 
d="M184 977q0 236 123 356.5t359 120.5q237 0 359 -120t122 -357t-122 -357t-359 -120q-236 0 -359 120.5t-123 356.5zM303 977q0 -199 91.5 -293t271.5 -94q187 0 275.5 93t88.5 294q0 198 -87.5 292.5t-276.5 94.5q-183 0 -273 -95.5t-90 -291.5zM489 711v538h181
q100 0 148 -38.5t48 -123.5q0 -69 -36.5 -107t-90.5 -40l160 -229h-100l-146 229h-84v-229h-80zM569 993h103q26 0 42.5 2.5t34 11t25.5 28.5t8 52q0 59 -28.5 79t-81.5 20h-103v-193z" />
    <glyph glyph-name="macron" unicode="&#xaf;" horiz-adv-x="980" 
d="M102 1268v125h658v-125h-658z" />
    <glyph glyph-name="degree" unicode="&#xb0;" horiz-adv-x="1259" 
d="M184 1063q0 164 117 280.5t281 116.5t280.5 -116.5t116.5 -280.5t-116.5 -280.5t-280.5 -116.5t-281 116.5t-117 280.5zM352 1063q0 -95 67.5 -162t162.5 -67t163 67t68 162t-68 163t-163 68t-162.5 -68t-67.5 -163z" />
    <glyph glyph-name="plusminus" unicode="&#xb1;" 
d="M143 0v174h1024v-174h-1024zM143 700v174h416v416h193v-416h415v-174h-415v-415h-193v415h-416z" />
    <glyph glyph-name="twosuperior" unicode="&#xb2;" horiz-adv-x="765" 
d="M100 713v59q0 72 12 120.5t43 84.5t68 59.5t103 53.5q13 6 50.5 22.5t60 27.5t50 27.5t41 35t13.5 38.5q0 43 -41.5 66.5t-112.5 23.5q-52 0 -128 -14t-122 -31l-24 117q47 19 130.5 36t145.5 17q133 0 215 -49.5t82 -157.5q0 -27 -6 -50t-14.5 -40.5t-27.5 -34.5
t-33 -27.5t-44 -26t-49 -23.5t-58.5 -25t-62.5 -27q-35 -17 -52.5 -26.5t-41.5 -29t-34.5 -44.5t-10.5 -59h432v-123h-584z" />
    <glyph glyph-name="threesuperior" unicode="&#xb3;" horiz-adv-x="765" 
d="M88 733l18 119q34 -10 105 -20.5t129 -10.5q52 0 94.5 8t75.5 33.5t33 65.5q0 123 -209 123h-92l-17 92h119q62 0 112 25.5t50 76.5q0 90 -162 90q-47 0 -120 -8.5t-109 -19.5l-21 114q35 10 117.5 22.5t132.5 12.5q44 0 79 -3t78.5 -13.5t72.5 -28.5t49 -52.5t20 -80.5
q0 -122 -129 -162q84 -23 130 -68.5t46 -136.5q0 -53 -20.5 -92.5t-53 -62t-81.5 -36t-96 -18t-107 -4.5q-57 0 -140.5 13.5t-103.5 21.5z" />
    <glyph glyph-name="acute" unicode="&#xb4;" horiz-adv-x="663" 
d="M184 1147l70 369h192l-143 -369h-119z" />
    <glyph glyph-name="mu" unicode="&#xb5;" horiz-adv-x="1546" 
d="M160 -410v1434h205v-784q110 -113 274 -113q104 0 175 57t71 176v664h205v-655q0 -117 58.5 -179.5t145.5 -62.5q65 0 127 35l35 -154q-63 -28 -151 -28q-101 0 -178 42t-109 119q-55 -74 -139.5 -117.5t-186.5 -43.5q-213 0 -327 118v-508h-205z" />
    <glyph glyph-name="paragraph" unicode="&#xb6;" horiz-adv-x="1658" 
d="M184 1012q0 198 97.5 310t273.5 112h821l39 -217h-198v-1389l-181 -37v1426h-276v-1489l-180 -33v895h-25q-176 0 -273.5 112t-97.5 310z" />
    <glyph glyph-name="periodcentered" unicode="&#xb7;" horiz-adv-x="571" 
d="M160 512q0 57 30 92t95 35t96 -35t31 -92q0 -55 -31 -90t-96 -35t-95 34.5t-30 90.5z" />
    <glyph glyph-name="cedilla" unicode="&#xb8;" horiz-adv-x="501" 
d="M92 -354l23 82q67 -15 127 -15q35 0 51 15t16 49q0 31 -17.5 44t-58.5 13q-22 0 -57 -1l-35 -1l39 191l94 -3l-18 -112h47q60 0 96.5 -34.5t36.5 -96.5q0 -154 -166 -154q-107 0 -178 23z" />
    <glyph glyph-name="onesuperior" unicode="&#xb9;" horiz-adv-x="765" 
d="M129 1180l303 264h117v-733h-146v559l-225 -195z" />
    <glyph glyph-name="ordmasculine" unicode="&#xba;" horiz-adv-x="909" 
d="M113 999v154q0 141 92 221t258 80t260 -80.5t94 -220.5v-154q0 -141 -93.5 -221t-260.5 -80q-166 0 -258 79.5t-92 221.5zM258 1001q0 -95 53.5 -154t151.5 -59t152.5 59.5t54.5 153.5v150q0 94 -54.5 153.5t-152.5 59.5q-95 0 -150 -56.5t-55 -146.5v-160z" />
    <glyph glyph-name="guillemotright" unicode="&#xbb;" horiz-adv-x="1075" 
d="M135 961h182l301 -441l-292 -414h-189l273 416zM481 961h183l301 -441l-293 -414h-189l273 416z" />
    <glyph glyph-name="onequarter" unicode="&#xbc;" horiz-adv-x="1675" 
d="M129 1180l303 264h117v-733h-146v559l-225 -195zM346 0q151 264 427 753t386 683h197q-680 -1197 -815 -1436h-195zM967 186v105l387 442h157v-436h91l-19 -111h-72v-186h-143v186h-401zM1090 297h278v305z" />
    <glyph glyph-name="onehalf" unicode="&#xbd;" horiz-adv-x="1765" 
d="M129 1180l303 264h117v-733h-143v559l-228 -195zM377 0q151 264 427 753t386 683h196q-680 -1197 -815 -1436h-194zM1133 0v59q0 72 12 120.5t42.5 84.5t68 59.5t102.5 53.5q13 6 51 22.5t60 27.5t49.5 28t41 36t13.5 39q0 42 -42 66.5t-112 24.5q-51 0 -126.5 -15
t-123.5 -33l-26 119q52 18 135 35.5t143 17.5q133 0 214 -49.5t81 -156.5q0 -28 -6 -51.5t-14.5 -40.5t-27 -34.5t-33 -28.5t-44 -25.5t-48.5 -23t-58 -25.5t-62 -27q-34 -16 -53 -26.5t-42 -29.5t-33.5 -44.5t-10.5 -59.5h432v-123h-583z" />
    <glyph glyph-name="threequarters" unicode="&#xbe;" horiz-adv-x="1738" 
d="M111 733l18 119q34 -10 105.5 -20.5t130.5 -10.5q38 0 71 5t64 16t49 33t18 53q0 123 -209 123h-94l-14 92h119q60 0 109.5 25.5t49.5 76.5q0 90 -159 90q-47 0 -121.5 -8.5t-108.5 -19.5l-22 114q35 10 118 22.5t134 12.5q44 0 79 -3t78.5 -13.5t72.5 -28.5t49 -52.5
t20 -80.5q0 -121 -131 -162q84 -23 130 -68.5t46 -136.5q0 -53 -20.5 -92.5t-52.5 -62t-81 -36t-96 -18t-107 -4.5q-57 0 -141 13.5t-104 21.5zM401 0q50 86 816 1436h194q-120 -212 -257 -454t-299.5 -529.5t-256.5 -452.5h-197zM1030 186v105l387 442h158v-436h90
l-18 -111h-72v-186h-143v186h-402zM1153 297h279v305z" />
    <glyph glyph-name="questiondown" unicode="&#xbf;" horiz-adv-x="1538" 
d="M518 -14q0 39 5 73.5t17.5 62.5t24.5 49.5t34 42t37 33.5t43.5 28.5t42.5 23t46 22t43 19.5q70 42 93 67q36 39 36 91v127h193v-140q0 -94 -51.5 -151t-149.5 -105q-93 -48 -124 -76q-73 -62 -73 -167q0 -152 74 -210.5t227 -58.5q60 0 147 13.5t128 25.5l22 -145
q-42 -12 -130.5 -26.5t-166.5 -14.5q-61 0 -110 3.5t-104.5 14t-97.5 28.5t-82.5 49.5t-66.5 74.5t-41.5 105.5t-15.5 140.5zM922 750v274h231v-274h-231z" />
    <glyph glyph-name="Agrave" unicode="&#xc0;" horiz-adv-x="1304" 
d="M12 0l484 1434h270l479 -1434h-229l-123 389h-528l-123 -389h-230zM401 537h457l-225 700zM436 1843h195l80 -287h-113z" />
    <glyph glyph-name="Aacute" unicode="&#xc1;" horiz-adv-x="1304" 
d="M12 0l484 1434h270l479 -1434h-229l-123 389h-528l-123 -389h-230zM401 537h457l-225 700zM565 1556l80 287h195l-162 -287h-113z" />
    <glyph glyph-name="Acircumflex" unicode="&#xc2;" horiz-adv-x="1304" 
d="M12 0l484 1434h270l479 -1434h-229l-123 389h-528l-123 -389h-230zM356 1556l183 287h184l186 -287h-155l-121 218l-121 -218h-156zM401 537h457l-225 700z" />
    <glyph glyph-name="Atilde" unicode="&#xc3;" horiz-adv-x="1304" 
d="M12 0l484 1434h270l479 -1434h-229l-123 389h-528l-123 -389h-230zM315 1694q106 84 203 84q53 0 121.5 -34t108.5 -34q76 0 151 70l51 -88q-27 -35 -82 -67t-120 -32q-49 0 -118.5 35t-113.5 35q-37 0 -68.5 -12t-45.5 -22.5t-40 -33.5zM401 537h457l-225 700z" />
    <glyph glyph-name="Adieresis" unicode="&#xc4;" horiz-adv-x="1304" 
d="M12 0l484 1434h270l479 -1434h-229l-123 389h-528l-123 -389h-230zM387 1556v287h156v-287h-156zM401 537h457l-225 700zM723 1556v287h156v-287h-156z" />
    <glyph glyph-name="Aring" unicode="&#xc5;" horiz-adv-x="1304" 
d="M12 0l484 1434h39q-51 22 -79 65t-28 100q0 81 56 134t151 53t151 -53t56 -134q0 -57 -28.5 -100t-80.5 -65h33l479 -1434h-229l-123 389h-528l-123 -389h-230zM401 537h457l-225 700zM526 1599q0 -46 30 -75t79 -29t78.5 29t29.5 75t-29.5 75.5t-78.5 29.5t-79 -29.5
t-30 -75.5z" />
    <glyph glyph-name="AE" unicode="&#xc6;" horiz-adv-x="1867" 
d="M20 0l713 1434h1024v-164h-670v-426h576v-154h-576v-526h670v-164h-887v389h-432l-188 -389h-230zM510 537h360v733h-6z" />
    <glyph glyph-name="Ccedilla" unicode="&#xc7;" horiz-adv-x="1153" 
d="M102 557v320q0 283 148.5 430t435.5 147q154 0 381 -78l-43 -178q-223 72 -338 72q-188 0 -275 -99.5t-87 -296.5v-317q0 -393 362 -393q121 0 344 72l37 -179q-202 -72 -365 -77l-10 -72h47q60 0 96.5 -34.5t36.5 -96.5q0 -154 -165 -154q-108 0 -179 23l23 82
q67 -15 127 -15q35 0 51 15t16 49q0 31 -17 44t-58 13q-22 0 -57 -1l-35 -1l30 152q-249 19 -377.5 164t-128.5 409z" />
    <glyph glyph-name="Egrave" unicode="&#xc8;" horiz-adv-x="1181" 
d="M184 0v1434h887v-164h-670v-426h576v-154h-576v-526h670v-164h-887zM444 1843h195l80 -287h-113z" />
    <glyph glyph-name="Eacute" unicode="&#xc9;" horiz-adv-x="1171" 
d="M174 0v1434h887v-164h-670v-426h576v-154h-576v-526h670v-164h-887zM532 1556l80 287h195l-162 -287h-113z" />
    <glyph glyph-name="Ecircumflex" unicode="&#xca;" horiz-adv-x="1171" 
d="M174 0v1434h887v-164h-670v-426h576v-154h-576v-526h670v-164h-887zM352 1556l183 287h184l186 -287h-155l-121 218l-121 -218h-156z" />
    <glyph glyph-name="Edieresis" unicode="&#xcb;" horiz-adv-x="1171" 
d="M174 0v1434h887v-164h-670v-426h576v-154h-576v-526h670v-164h-887zM391 1556v287h156v-287h-156zM727 1556v287h156v-287h-156z" />
    <glyph glyph-name="Igrave" unicode="&#xcc;" horiz-adv-x="866" 
d="M74 0v166h229v1102h-223v166h665v-166h-225v-1102h232v-166h-678zM225 1843h195l80 -287h-113z" />
    <glyph glyph-name="Iacute" unicode="&#xcd;" horiz-adv-x="866" 
d="M74 0v166h229v1102h-223v166h665v-166h-225v-1102h232v-166h-678zM313 1556l80 287h195l-162 -287h-113z" />
    <glyph glyph-name="Icircumflex" unicode="&#xce;" horiz-adv-x="866" 
d="M74 0v166h229v1102h-223v166h665v-166h-225v-1102h232v-166h-678zM135 1556l182 287h185l186 -287h-156l-120 218l-121 -218h-156z" />
    <glyph glyph-name="Idieresis" unicode="&#xcf;" horiz-adv-x="866" 
d="M74 0v166h229v1102h-223v166h665v-166h-225v-1102h232v-166h-678zM168 1556v287h156v-287h-156zM504 1556v287h155v-287h-155z" />
    <glyph glyph-name="Eth" unicode="&#xd0;" horiz-adv-x="1417" 
d="M37 690v154h133v590h487q133 0 231 -18.5t182.5 -66.5t137 -128t82 -206t29.5 -298t-29.5 -298t-82.5 -206t-137.5 -128t-182.5 -66.5t-230 -18.5h-487v690h-133zM387 164h270q55 0 99 5t91 20t83 40t68.5 67t53.5 99t33.5 138.5t12.5 183.5q0 103 -12.5 185t-33.5 139.5
t-54 99t-68 65.5t-82.5 38.5t-91 19t-99.5 4.5h-270v-424h320v-154h-320v-526z" />
    <glyph glyph-name="Ntilde" unicode="&#xd1;" horiz-adv-x="1626" 
d="M174 0v1434h229l816 -1112v1112h192v-1434h-225l-821 1118v-1118h-191zM471 1694q106 84 203 84q53 0 121 -34t108 -34q77 0 152 70l51 -88q-27 -35 -82.5 -67t-120.5 -32q-49 0 -118 35t-113 35q-37 0 -68.5 -12t-45.5 -22.5t-40 -33.5z" />
    <glyph glyph-name="Ograve" unicode="&#xd2;" horiz-adv-x="1515" 
d="M102 545v338q0 255 168 413t467 158t467 -158t168 -413v-338q0 -255 -167 -410t-468 -155t-468 155t-167 410zM330 563q0 -190 108 -304t299 -114q199 0 303.5 112.5t104.5 305.5v305q0 88 -26 163.5t-75.5 133t-128.5 90.5t-178 33q-184 0 -295.5 -117t-111.5 -303v-305
zM541 1843h194l80 -287h-113z" />
    <glyph glyph-name="Oacute" unicode="&#xd3;" horiz-adv-x="1515" 
d="M102 545v338q0 255 168 413t467 158t467 -158t168 -413v-338q0 -255 -167 -410t-468 -155t-468 155t-167 410zM330 563q0 -190 108 -304t299 -114q199 0 303.5 112.5t104.5 305.5v305q0 88 -26 163.5t-75.5 133t-128.5 90.5t-178 33q-184 0 -295.5 -117t-111.5 -303v-305
zM670 1556l80 287h194l-162 -287h-112z" />
    <glyph glyph-name="Ocircumflex" unicode="&#xd4;" horiz-adv-x="1515" 
d="M102 545v338q0 255 168 413t467 158t467 -158t168 -413v-338q0 -255 -167 -410t-468 -155t-468 155t-167 410zM330 563q0 -190 108 -304t299 -114q199 0 303.5 112.5t104.5 305.5v305q0 88 -26 163.5t-75.5 133t-128.5 90.5t-178 33q-184 0 -295.5 -117t-111.5 -303v-305
zM461 1556l182 287h184l187 -287h-156l-121 218l-121 -218h-155z" />
    <glyph glyph-name="Otilde" unicode="&#xd5;" horiz-adv-x="1515" 
d="M102 545v338q0 255 168 413t467 158t467 -158t168 -413v-338q0 -255 -167 -410t-468 -155t-468 155t-167 410zM330 563q0 -190 108 -304t299 -114q199 0 303.5 112.5t104.5 305.5v305q0 88 -26 163.5t-75.5 133t-128.5 90.5t-178 33q-184 0 -295.5 -117t-111.5 -303v-305
zM420 1694q106 84 203 84q53 0 121 -34t108 -34q77 0 152 70l51 -88q-27 -35 -82.5 -67t-120.5 -32q-49 0 -118 35t-113 35q-37 0 -68.5 -12t-45.5 -22.5t-40 -33.5z" />
    <glyph glyph-name="Odieresis" unicode="&#xd6;" horiz-adv-x="1515" 
d="M102 545v338q0 255 168 413t467 158t467 -158t168 -413v-338q0 -255 -167 -410t-468 -155t-468 155t-167 410zM330 563q0 -190 108 -304t299 -114q199 0 303.5 112.5t104.5 305.5v305q0 88 -26 163.5t-75.5 133t-128.5 90.5t-178 33q-184 0 -295.5 -117t-111.5 -303v-305
zM492 1556v287h155v-287h-155zM827 1556v287h156v-287h-156z" />
    <glyph glyph-name="multiply" unicode="&#xd7;" 
d="M236 387l299 297l-299 299l124 125l299 -301l297 301l125 -125l-299 -299l299 -297l-125 -125l-297 299l-299 -299z" />
    <glyph glyph-name="Oslash" unicode="&#xd8;" horiz-adv-x="1515" 
d="M102 545v338q0 255 168 413t467 158q162 0 289 -51l59 113h136l-86 -166q115 -75 176 -196t61 -271v-338q0 -255 -167 -410t-468 -155q-161 0 -291 49l-57 -111h-135l84 164q-115 73 -175.5 192.5t-60.5 270.5zM330 563q0 -189 104 -299l508 977q-83 47 -205 47
q-184 0 -295.5 -117t-111.5 -303v-305zM530 190q83 -45 207 -45q199 0 303.5 112.5t104.5 305.5v305q0 184 -105 301z" />
    <glyph glyph-name="Ugrave" unicode="&#xd9;" horiz-adv-x="1419" 
d="M152 512v922h223v-942q0 -347 340 -347q162 0 236.5 83.5t74.5 263.5v942h201v-922q0 -532 -518 -532q-280 0 -418.5 136t-138.5 396zM506 1843h194l80 -287h-112z" />
    <glyph glyph-name="Uacute" unicode="&#xda;" horiz-adv-x="1419" 
d="M152 512v922h223v-942q0 -347 340 -347q162 0 236.5 83.5t74.5 263.5v942h201v-922q0 -532 -518 -532q-280 0 -418.5 136t-138.5 396zM627 1556l80 287h194l-162 -287h-112z" />
    <glyph glyph-name="Ucircumflex" unicode="&#xdb;" horiz-adv-x="1419" 
d="M152 512v922h223v-942q0 -347 340 -347q162 0 236.5 83.5t74.5 263.5v942h201v-922q0 -532 -518 -532q-280 0 -418.5 136t-138.5 396zM422 1556l182 287h184l187 -287h-156l-121 218l-120 -218h-156z" />
    <glyph glyph-name="Udieresis" unicode="&#xdc;" horiz-adv-x="1419" 
d="M152 512v922h223v-942q0 -347 340 -347q162 0 236.5 83.5t74.5 263.5v942h201v-922q0 -532 -518 -532q-280 0 -418.5 136t-138.5 396zM451 1556v287h155v-287h-155zM786 1556v287h156v-287h-156z" />
    <glyph glyph-name="Yacute" unicode="&#xdd;" horiz-adv-x="1239" 
d="M12 1434h246l365 -713l364 713h240l-498 -899v-535h-217v535zM559 1556l80 287h195l-162 -287h-113z" />
    <glyph glyph-name="Thorn" unicode="&#xde;" horiz-adv-x="1312" 
d="M188 0v1434h218v-263h247q286 0 406.5 -105.5t120.5 -363.5t-121 -364.5t-408 -106.5h-245v-231h-218zM406 397h247q148 0 224.5 71.5t76.5 233.5t-76 233t-225 71h-247v-609z" />
    <glyph glyph-name="germandbls" unicode="&#xdf;" horiz-adv-x="1273" 
d="M158 -205v1252q0 201 121.5 304t328.5 103q198 0 320.5 -92.5t122.5 -269.5q0 -234 -183 -306q113 -31 182.5 -125t69.5 -245q0 -94 -21.5 -165.5t-72.5 -130t-145 -89.5t-230 -31h-125l-18 147h121q139 0 210.5 62t71.5 213q0 74 -24.5 128t-66.5 83t-89.5 42t-101.5 13
h-103v148h123q36 0 67.5 11.5t60 36.5t45 72.5t16.5 112.5q0 124 -59 177.5t-171 53.5q-114 0 -176.5 -57.5t-62.5 -191.5v-1256h-211z" />
    <glyph glyph-name="agrave" unicode="&#xe0;" horiz-adv-x="1175" 
d="M109 272q0 147 92 221t288 74h291v135q0 109 -42.5 154t-159.5 45q-145 0 -375 -53l-19 137q7 1 48.5 10t77.5 16t87.5 15.5t106 13t104.5 4.5q189 0 283 -85.5t94 -284.5v-674h-205v76q-54 -39 -137.5 -69t-181.5 -30q-178 0 -265 73t-87 222zM313 281q0 -94 53 -138.5
t169 -44.5q58 0 129 22.5t116 51.5v291h-245q-115 0 -168.5 -45t-53.5 -137zM395 1516h183l67 -369h-119z" />
    <glyph glyph-name="aacute" unicode="&#xe1;" horiz-adv-x="1175" 
d="M109 272q0 147 92 221t288 74h291v135q0 109 -42.5 154t-159.5 45q-145 0 -375 -53l-19 137q7 1 48.5 10t77.5 16t87.5 15.5t106 13t104.5 4.5q189 0 283 -85.5t94 -284.5v-674h-205v76q-54 -39 -137.5 -69t-181.5 -30q-178 0 -265 73t-87 222zM313 281q0 -94 53 -138.5
t169 -44.5q58 0 129 22.5t116 51.5v291h-245q-115 0 -168.5 -45t-53.5 -137zM477 1147l70 369h192l-143 -369h-119z" />
    <glyph glyph-name="acircumflex" unicode="&#xe2;" horiz-adv-x="1175" 
d="M109 272q0 147 92 221t288 74h291v135q0 109 -42.5 154t-159.5 45q-145 0 -375 -53l-19 137q7 1 48.5 10t77.5 16t87.5 15.5t106 13t104.5 4.5q189 0 283 -85.5t94 -284.5v-674h-205v76q-54 -39 -137.5 -69t-181.5 -30q-178 0 -265 73t-87 222zM309 1147l185 369h151
l189 -369h-150l-113 272l-114 -272h-148zM313 281q0 -94 53 -138.5t169 -44.5q58 0 129 22.5t116 51.5v291h-245q-115 0 -168.5 -45t-53.5 -137z" />
    <glyph glyph-name="atilde" unicode="&#xe3;" horiz-adv-x="1175" 
d="M109 272q0 147 92 221t288 74h291v135q0 109 -42.5 154t-159.5 45q-145 0 -375 -53l-19 137q7 1 48.5 10t77.5 16t87.5 15.5t106 13t104.5 4.5q189 0 283 -85.5t94 -284.5v-674h-205v76q-54 -39 -137.5 -69t-181.5 -30q-178 0 -265 73t-87 222zM227 1280
q29 61 90.5 120.5t122.5 59.5q31 0 60.5 -18t53 -44t45 -52t43.5 -44t42 -18q82 0 150 148l63 -70q-28 -69 -88.5 -130t-120.5 -61q-36 0 -72.5 27.5t-62.5 60t-58 60t-59 27.5q-78 0 -147 -142zM313 281q0 -94 53 -138.5t169 -44.5q58 0 129 22.5t116 51.5v291h-245
q-115 0 -168.5 -45t-53.5 -137z" />
    <glyph glyph-name="adieresis" unicode="&#xe4;" horiz-adv-x="1175" 
d="M109 272q0 147 92 221t288 74h291v135q0 109 -42.5 154t-159.5 45q-145 0 -375 -53l-19 137q7 1 48.5 10t77.5 16t87.5 15.5t106 13t104.5 4.5q189 0 283 -85.5t94 -284.5v-674h-205v76q-54 -39 -137.5 -69t-181.5 -30q-178 0 -265 73t-87 222zM313 281q0 -94 53 -138.5
t169 -44.5q58 0 129 22.5t116 51.5v291h-245q-115 0 -168.5 -45t-53.5 -137zM344 1188v280h150v-280h-150zM639 1188v280h149v-280h-149z" />
    <glyph glyph-name="aring" unicode="&#xe5;" horiz-adv-x="1112" 
d="M92 272q0 147 92.5 221t288.5 74h291v135q0 108 -42.5 153.5t-160.5 45.5q-145 0 -375 -53l-18 137q7 1 48.5 10t77.5 16t87.5 15.5t106 13t104.5 4.5q189 0 283 -85.5t94 -284.5v-674h-205v76q-54 -39 -138 -69t-182 -30q-178 0 -265 73t-87 222zM297 281
q0 -95 52.5 -139t168.5 -44q58 0 129.5 22.5t116.5 51.5v291h-246q-115 0 -168 -45t-53 -137zM346 1337q0 83 60 143t145 60t145 -60t60 -143q0 -85 -60 -144.5t-145 -59.5t-145 59.5t-60 144.5zM440 1337q0 -44 33.5 -77t77.5 -33t77.5 33t33.5 77q0 43 -33.5 76t-77.5 33
t-77.5 -33t-33.5 -76z" />
    <glyph glyph-name="ae" unicode="&#xe6;" horiz-adv-x="1832" 
d="M104 291q0 142 100.5 209t280.5 67h285v11q0 57 4 84v34q0 55 -8.5 91.5t-31.5 64.5t-65 40.5t-106 12.5q-132 0 -373 -53l-26 129q6 2 39 10t55 13.5t63.5 14t76.5 13t82 8.5t91 4q240 0 328 -106q115 106 336 106q213 0 336 -100t123 -309v-176h-713v-88
q0 -142 76.5 -201t224.5 -59q149 0 367 69l22 -131q-220 -69 -407 -69q-273 0 -394 118q-168 -121 -403 -121q-187 0 -275 78.5t-88 235.5zM303 293q0 -195 221 -195q91 0 164.5 25.5t118.5 62.5q-37 78 -37 195v82h-246q-113 -1 -167 -46.5t-54 -123.5zM981 559h518v96
q0 269 -262 269q-256 0 -256 -297v-68z" />
    <glyph glyph-name="ccedilla" unicode="&#xe7;" horiz-adv-x="1011" 
d="M109 432v158q0 212 133 333t358 121q77 0 172 -20t168 -53l-33 -140q-169 72 -274 72q-307 0 -307 -325v-134q0 -325 307 -325q14 0 29.5 1.5t27 2.5t28.5 5t25.5 5.5t28 8l25.5 8.5t28.5 10.5t26 10t29 11.5t28.5 11l31 -140q-162 -67 -322 -73l-10 -72h47
q60 0 96.5 -34.5t36.5 -96.5q0 -154 -165 -154q-108 0 -179 23l23 82q67 -15 127 -15q35 0 51.5 15t16.5 49q0 31 -17.5 44t-58.5 13q-22 0 -57 -1l-35 -1l30 152q-194 18 -304.5 132.5t-110.5 315.5z" />
    <glyph glyph-name="egrave" unicode="&#xe8;" horiz-adv-x="1155" 
d="M100 381v197q0 466 465 466q213 0 336 -100t123 -309v-176h-713v-88q0 -142 76.5 -201t224.5 -59q149 0 367 69l22 -131q-220 -69 -407 -69q-87 0 -158 11.5t-135 40t-107 73.5t-68.5 115t-25.5 161zM311 559h518v96q0 269 -262 269q-256 0 -256 -297v-68zM379 1516h182
l68 -369h-119z" />
    <glyph glyph-name="eacute" unicode="&#xe9;" horiz-adv-x="1155" 
d="M100 381v197q0 466 465 466q213 0 336 -100t123 -309v-176h-713v-88q0 -142 76.5 -201t224.5 -59q149 0 367 69l22 -131q-220 -69 -407 -69q-87 0 -158 11.5t-135 40t-107 73.5t-68.5 115t-25.5 161zM311 559h518v96q0 269 -262 269q-256 0 -256 -297v-68zM510 1147
l70 369h192l-143 -369h-119z" />
    <glyph glyph-name="ecircumflex" unicode="&#xea;" horiz-adv-x="1155" 
d="M100 381v197q0 466 465 466q213 0 336 -100t123 -309v-176h-713v-88q0 -142 76.5 -201t224.5 -59q149 0 367 69l22 -131q-220 -69 -407 -69q-87 0 -158 11.5t-135 40t-107 73.5t-68.5 115t-25.5 161zM307 1147l185 369h151l188 -369h-149l-113 272l-114 -272h-148z
M311 559h518v96q0 269 -262 269q-256 0 -256 -297v-68z" />
    <glyph glyph-name="edieresis" unicode="&#xeb;" horiz-adv-x="1155" 
d="M100 381v197q0 466 465 466q213 0 336 -100t123 -309v-176h-713v-88q0 -142 76.5 -201t224.5 -59q149 0 367 69l22 -131q-220 -69 -407 -69q-87 0 -158 11.5t-135 40t-107 73.5t-68.5 115t-25.5 161zM311 559h518v96q0 269 -262 269q-256 0 -256 -297v-68zM346 1188v280
h150v-280h-150zM641 1188v280h150v-280h-150z" />
    <glyph glyph-name="igrave" unicode="&#xec;" horiz-adv-x="546" 
d="M78 1516h182l68 -369h-119zM150 0v1024h204v-1024h-204z" />
    <glyph glyph-name="iacute" unicode="&#xed;" horiz-adv-x="546" 
d="M150 0v1024h204v-1024h-204zM182 1147l70 369h192l-143 -369h-119z" />
    <glyph glyph-name="icircumflex" unicode="&#xee;" horiz-adv-x="546" 
d="M-10 1147l184 369h152l188 -369h-149l-113 272l-115 -272h-147zM150 0v1024h204v-1024h-204z" />
    <glyph glyph-name="idieresis" unicode="&#xef;" horiz-adv-x="546" 
d="M31 1188v280h149v-280h-149zM150 0v1024h204v-1024h-204zM326 1188v280h149v-280h-149z" />
    <glyph glyph-name="eth" unicode="&#xf0;" horiz-adv-x="1224" 
d="M84 403v197q0 199 122.5 312.5t340.5 113.5q215 0 360 -102q-13 146 -104.5 238t-241.5 132l-59 -157l-86 32l55 146q-83 12 -172 12l20 127q98 0 199 -16l45 116l86 -32l-39 -103q215 -54 340 -194.5t125 -372.5v-449q0 -198 -131.5 -310.5t-365.5 -112.5
q-235 0 -364.5 112t-129.5 311zM289 408q0 -135 75.5 -218.5t213.5 -83.5t213 84t75 218v190q0 133 -75 216t-213 83q-134 0 -211.5 -79t-77.5 -206v-204z" />
    <glyph glyph-name="ntilde" unicode="&#xf1;" horiz-adv-x="1265" 
d="M150 0v1024h204v-106q206 126 391 126q182 0 258 -88.5t76 -277.5v-678h-205v664q0 129 -50 181t-179 52q-78 0 -160 -35.5t-131 -79.5v-782h-204zM274 1280q29 61 90.5 120.5t122.5 59.5q31 0 60.5 -18t53 -44t45 -52t43.5 -44t42 -18q82 0 150 148l63 -70
q-28 -69 -88.5 -130t-120.5 -61q-36 0 -72.5 27.5t-62.5 60t-58 60t-59 27.5q-78 0 -147 -142z" />
    <glyph glyph-name="ograve" unicode="&#xf2;" horiz-adv-x="1216" 
d="M98 403v215q0 199 129.5 312.5t364.5 113.5q234 0 366 -113.5t132 -312.5v-215q0 -198 -132 -310.5t-366 -112.5q-235 0 -364.5 112t-129.5 311zM303 408q0 -135 75.5 -218.5t213.5 -83.5t213.5 84t75.5 218v208q0 132 -75.5 215.5t-213.5 83.5q-134 0 -211.5 -78.5
t-77.5 -205.5v-223zM414 1516h182l68 -369h-119z" />
    <glyph glyph-name="oacute" unicode="&#xf3;" horiz-adv-x="1216" 
d="M98 403v215q0 199 129.5 312.5t364.5 113.5q234 0 366 -113.5t132 -312.5v-215q0 -198 -132 -310.5t-366 -112.5q-235 0 -364.5 112t-129.5 311zM303 408q0 -135 75.5 -218.5t213.5 -83.5t213.5 84t75.5 218v208q0 132 -75.5 215.5t-213.5 83.5q-134 0 -211.5 -78.5
t-77.5 -205.5v-223zM512 1147l70 369h192l-143 -369h-119z" />
    <glyph glyph-name="ocircumflex" unicode="&#xf4;" horiz-adv-x="1216" 
d="M98 403v215q0 199 129.5 312.5t364.5 113.5q234 0 366 -113.5t132 -312.5v-215q0 -198 -132 -310.5t-366 -112.5q-235 0 -364.5 112t-129.5 311zM303 408q0 -135 75.5 -218.5t213.5 -83.5t213.5 84t75.5 218v208q0 132 -75.5 215.5t-213.5 83.5q-134 0 -211.5 -78.5
t-77.5 -205.5v-223zM332 1147l184 369h152l188 -369h-149l-113 272l-115 -272h-147z" />
    <glyph glyph-name="otilde" unicode="&#xf5;" horiz-adv-x="1216" 
d="M98 403v215q0 199 129.5 312.5t364.5 113.5q234 0 366 -113.5t132 -312.5v-215q0 -198 -132 -310.5t-366 -112.5q-235 0 -364.5 112t-129.5 311zM254 1280q29 61 90.5 120.5t122.5 59.5q31 0 60.5 -18t53 -44t45 -52t43.5 -44t42 -18q81 0 149 148l64 -70
q-28 -69 -88.5 -130t-120.5 -61q-36 0 -72.5 27.5t-62.5 60t-58 60t-59 27.5q-79 0 -148 -142zM303 408q0 -135 75.5 -218.5t213.5 -83.5t213.5 84t75.5 218v208q0 132 -75.5 215.5t-213.5 83.5q-134 0 -211.5 -78.5t-77.5 -205.5v-223z" />
    <glyph glyph-name="odieresis" unicode="&#xf6;" horiz-adv-x="1216" 
d="M98 403v215q0 199 129.5 312.5t364.5 113.5q234 0 366 -113.5t132 -312.5v-215q0 -198 -132 -310.5t-366 -112.5q-235 0 -364.5 112t-129.5 311zM303 408q0 -135 75.5 -218.5t213.5 -83.5t213.5 84t75.5 218v208q0 132 -75.5 215.5t-213.5 83.5q-134 0 -211.5 -78.5
t-77.5 -205.5v-223zM371 1188v280h149v-280h-149zM666 1188v280h149v-280h-149z" />
    <glyph glyph-name="divide" unicode="&#xf7;" 
d="M143 629v176h1024v-176h-1024zM545 199v250h223v-250h-223zM545 983v254h223v-254h-223z" />
    <glyph glyph-name="oslash" unicode="&#xf8;" horiz-adv-x="1175" 
d="M92 403v215q0 199 129.5 312.5t364.5 113.5q148 0 262 -49l74 111h118l-106 -162q149 -115 149 -326v-215q0 -198 -131.5 -310.5t-365.5 -112.5q-143 0 -260 47l-72 -109h-119l105 158q-148 114 -148 327zM297 408q0 -108 45 -179l420 635q-74 51 -176 51
q-134 0 -211.5 -78.5t-77.5 -205.5v-223zM410 156q68 -50 176 -50q138 0 213 84t75 218v208q0 99 -45 172z" />
    <glyph glyph-name="ugrave" unicode="&#xf9;" horiz-adv-x="1284" 
d="M158 307v717h204v-664q0 -233 203 -233q91 0 179.5 35t138.5 78v784h204v-1024h-204v106q-76 -49 -192 -87.5t-228 -38.5q-153 0 -229 87.5t-76 239.5zM430 1516h182l68 -369h-119z" />
    <glyph glyph-name="uacute" unicode="&#xfa;" horiz-adv-x="1284" 
d="M158 307v717h204v-664q0 -233 203 -233q91 0 179.5 35t138.5 78v784h204v-1024h-204v106q-76 -49 -192 -87.5t-228 -38.5q-153 0 -229 87.5t-76 239.5zM565 1147l70 369h192l-143 -369h-119z" />
    <glyph glyph-name="ucircumflex" unicode="&#xfb;" horiz-adv-x="1284" 
d="M158 307v717h204v-664q0 -233 203 -233q91 0 179.5 35t138.5 78v784h204v-1024h-204v106q-76 -49 -192 -87.5t-228 -38.5q-153 0 -229 87.5t-76 239.5zM360 1147l185 369h151l189 -369h-150l-112 272l-115 -272h-148z" />
    <glyph glyph-name="udieresis" unicode="&#xfc;" horiz-adv-x="1284" 
d="M158 307v717h204v-664q0 -233 203 -233q91 0 179.5 35t138.5 78v784h204v-1024h-204v106q-76 -49 -192 -87.5t-228 -38.5q-153 0 -229 87.5t-76 239.5zM399 1188v280h150v-280h-150zM694 1188v280h150v-280h-150z" />
    <glyph glyph-name="yacute" unicode="&#xfd;" horiz-adv-x="1161" 
d="M25 1024h237l338 -899l272 899h222l-346 -1014q-92 -220 -140 -307q-49 -81 -117 -127.5t-174 -46.5q-135 0 -264 55l39 142q122 -45 201 -45q65 0 104.5 26t71.5 100l80 193q-43 3 -88.5 37t-63.5 86zM502 1147l69 369h193l-143 -369h-119z" />
    <glyph glyph-name="thorn" unicode="&#xfe;" horiz-adv-x="1169" 
d="M135 -410v1905h205v-547q151 96 317 96q221 0 324.5 -132t103.5 -400t-103.5 -400t-324.5 -132q-167 0 -317 90v-480h-205zM340 193q127 -74 244 -74q159 0 226 99.5t67 293.5q0 195 -67 294t-226 99q-121 0 -244 -74v-638z" />
    <glyph glyph-name="ydieresis" unicode="&#xff;" horiz-adv-x="1177" 
d="M33 1024h237l338 -899l273 899h221l-346 -1014q-92 -220 -140 -307q-49 -81 -116.5 -127.5t-173.5 -46.5q-136 0 -265 55l39 142q122 -45 201 -45q65 0 104.5 26t71.5 100l80 193q-43 3 -88 37t-63 86zM362 1188v280h150v-280h-150zM657 1188v280h150v-280h-150z" />
    <glyph glyph-name="Amacron" unicode="&#x100;" horiz-adv-x="1294" 
d="M29 0l483 1434h270l480 -1434h-230l-123 389h-528l-123 -389h-229zM287 1632v129h727v-129h-727zM418 537h456l-225 700z" />
    <glyph glyph-name="amacron" unicode="&#x101;" horiz-adv-x="1159" 
d="M96 272q0 147 92.5 221t288.5 74h291v135q0 108 -42.5 153.5t-160.5 45.5q-145 0 -375 -53l-18 137q7 1 48.5 10t77.5 16t87.5 15.5t106 13t104.5 4.5q189 0 283 -85.5t94 -284.5v-674h-205v76q-54 -39 -137.5 -69t-181.5 -30q-179 0 -266 73t-87 222zM233 1268v125h658
v-125h-658zM301 281q0 -95 52.5 -139t168.5 -44q58 0 129.5 22.5t116.5 51.5v291h-246q-115 0 -168 -45t-53 -137z" />
    <glyph glyph-name="Abreve" unicode="&#x102;" horiz-adv-x="1294" 
d="M29 0l483 1434h270l480 -1434h-230l-123 389h-528l-123 -389h-229zM270 1798v45h160q0 -101 47 -148t172 -46q67 0 111 12t68 38.5t33 60t9 83.5h160v-45q0 -119 -98.5 -180.5t-282.5 -61.5q-178 0 -278.5 62t-100.5 180zM418 537h456l-225 700z" />
    <glyph glyph-name="abreve" unicode="&#x103;" horiz-adv-x="1159" 
d="M96 272q0 147 92.5 221t288.5 74h291v135q0 108 -42.5 153.5t-160.5 45.5q-145 0 -375 -53l-18 137q7 1 48.5 10t77.5 16t87.5 15.5t106 13t104.5 4.5q189 0 283 -85.5t94 -284.5v-674h-205v76q-54 -39 -137.5 -69t-181.5 -30q-179 0 -266 73t-87 222zM211 1450v27h156
q0 -108 44 -154.5t150 -46.5t150.5 46.5t44.5 154.5h155v-27q0 -268 -350 -268t-350 268zM301 281q0 -95 52.5 -139t168.5 -44q58 0 129.5 22.5t116.5 51.5v291h-246q-115 0 -168 -45t-53 -137z" />
    <glyph glyph-name="Aogonek" unicode="&#x104;" horiz-adv-x="1294" 
d="M29 0l483 1434h270l480 -1434h-43q-177 -123 -177 -225q0 -64 60 -64q39 0 90 21l16 -103q-73 -26 -168 -26q-139 0 -139 123q0 135 223 274h-92l-123 389h-528l-123 -389h-229zM418 537h456l-225 700z" />
    <glyph glyph-name="aogonek" unicode="&#x105;" horiz-adv-x="1159" 
d="M96 272q0 147 92.5 221t288.5 74h291v135q0 108 -42.5 153.5t-160.5 45.5q-145 0 -375 -53l-18 137q7 1 48.5 10t77.5 16t87.5 15.5t106 13t104.5 4.5q189 0 283 -85.5t94 -284.5v-674h-90q-176 -122 -176 -225q0 -64 59 -64q39 0 90 21l16 -103q-73 -26 -167 -26
q-140 0 -140 123q0 135 223 274h-20v76q-54 -39 -137.5 -69t-181.5 -30q-179 0 -266 73t-87 222zM301 281q0 -95 52.5 -139t168.5 -44q58 0 129.5 22.5t116.5 51.5v291h-246q-115 0 -168 -45t-53 -137z" />
    <glyph glyph-name="Cacute" unicode="&#x106;" horiz-adv-x="1150" 
d="M106 557v320q0 283 148.5 430t435.5 147q154 0 381 -78l-43 -178q-223 72 -338 72q-188 0 -275 -99.5t-87 -296.5v-317q0 -393 362 -393q121 0 344 72l37 -179q-224 -77 -381 -77q-287 0 -435.5 146.5t-148.5 430.5zM559 1556l80 287h195l-162 -287h-113z" />
    <glyph glyph-name="cacute" unicode="&#x107;" horiz-adv-x="987" 
d="M96 432v158q0 212 133.5 333t358.5 121q77 0 172 -20t168 -53l-33 -140q-169 72 -274 72q-154 0 -231 -82.5t-77 -242.5v-134q0 -160 77.5 -242.5t230.5 -82.5q14 0 29.5 1.5t27 2.5t28.5 5t25.5 5.5t28 8l25.5 8.5t28.5 10.5t26 10t29 11.5t28.5 11l31 -140
q-180 -73 -340 -73q-227 0 -359.5 116t-132.5 336zM471 1147l70 369h192l-143 -369h-119z" />
    <glyph glyph-name="Ccaron" unicode="&#x10c;" horiz-adv-x="1153" 
d="M106 557v320q0 283 148.5 430t435.5 147q154 0 381 -78l-43 -178q-223 72 -338 72q-188 0 -275 -99.5t-87 -296.5v-317q0 -393 362 -393q121 0 344 72l37 -179q-224 -77 -381 -77q-287 0 -435.5 146.5t-148.5 430.5zM358 1843h156l123 -217l119 217h155l-180 -287h-184z
" />
    <glyph glyph-name="ccaron" unicode="&#x10d;" horiz-adv-x="987" 
d="M96 432v158q0 212 133.5 333t358.5 121q77 0 172 -20t168 -53l-33 -140q-169 72 -274 72q-154 0 -231 -82.5t-77 -242.5v-134q0 -160 77.5 -242.5t230.5 -82.5q14 0 29.5 1.5t27 2.5t28.5 5t25.5 5.5t28 8l25.5 8.5t28.5 10.5t26 10t29 11.5t28.5 11l31 -140
q-180 -73 -340 -73q-227 0 -359.5 116t-132.5 336zM283 1516h149l113 -273l112 273h150l-186 -369h-150z" />
    <glyph glyph-name="Dcaron" unicode="&#x10e;" horiz-adv-x="1411" 
d="M172 0v1434h487q133 0 231 -18.5t182.5 -66.5t137 -128t82 -206t29.5 -298t-29.5 -298t-82.5 -206t-137.5 -128t-182.5 -66.5t-230 -18.5h-487zM379 1843h156l122 -217l119 217h156l-180 -287h-185zM389 164h270q55 0 99 5t91 20t83 40t68.5 67t53.5 99t33.5 138.5
t12.5 183.5q0 103 -12.5 185t-33.5 139.5t-54 99t-68 65.5t-82.5 38.5t-91 19t-99.5 4.5h-270v-1104z" />
    <glyph glyph-name="dcaron" unicode="&#x10f;" horiz-adv-x="1540" 
d="M100 512q0 268 107 400t340 132q164 0 299 -96v547h205v-1495h-205v76q-2 -1 -18 -10.5t-22.5 -13.5t-24.5 -13.5t-30 -14.5t-32 -13t-38 -12.5t-40 -9.5t-45.5 -7t-48.5 -2q-212 0 -329.5 133.5t-117.5 398.5zM309 512q0 -93 16.5 -162.5t43.5 -111t66.5 -67.5t79.5 -35
t89 -9q122 0 242 72v626q-132 72 -242 72q-49 0 -88.5 -8.5t-79.5 -33.5t-67 -66.5t-43.5 -111.5t-16.5 -165zM1217 1221v274h247v-168q0 -122 -46.5 -231t-112.5 -191l-80 37q82 138 82 279h-90z" />
    <glyph glyph-name="Dcroat" unicode="&#x110;" horiz-adv-x="1427" 
d="M8 678v135h180v621h488q110 0 195.5 -13t162 -43.5t131 -84t94 -132t59 -189.5t19.5 -255q0 -172 -29.5 -298t-82 -206t-137 -128t-182.5 -66.5t-230 -18.5h-488v678h-180zM406 164h270q55 0 99 5t91 20t82.5 40t68.5 67t53.5 99t33 138.5t12.5 183.5q0 103 -12.5 185
t-33 139.5t-53.5 99t-68 65.5t-83 38.5t-91 19t-99 4.5h-270v-455h333v-135h-333v-514z" />
    <glyph glyph-name="dcroat" unicode="&#x111;" horiz-adv-x="1163" 
d="M100 512q0 268 107 400t340 132q164 0 299 -96v244h-289v123h289v180h205v-180h125v-123h-125v-1192h-205v76q-2 -1 -18 -10.5t-22.5 -13.5t-24.5 -13.5t-30 -14.5t-32 -13t-38 -12.5t-40 -9.5t-45.5 -7t-48.5 -2q-212 0 -329.5 133.5t-117.5 398.5zM309 512
q0 -93 16.5 -162.5t43.5 -111t66.5 -67.5t79.5 -35t89 -9q122 0 242 72v626q-132 72 -242 72q-49 0 -88.5 -8.5t-79.5 -33.5t-67 -66.5t-43.5 -111.5t-16.5 -165z" />
    <glyph glyph-name="Emacron" unicode="&#x112;" horiz-adv-x="1181" 
d="M184 0v1434h887v-164h-670v-426h576v-154h-576v-526h670v-164h-887zM270 1632v129h727v-129h-727z" />
    <glyph glyph-name="emacron" unicode="&#x113;" horiz-adv-x="1146" 
d="M96 381v197q0 466 465 466q213 0 336 -100t123 -309v-176h-713v-88q0 -142 76.5 -201t224.5 -59q149 0 367 69l22 -131q-220 -69 -407 -69q-87 0 -158 11.5t-135 40t-107 73.5t-68.5 115t-25.5 161zM227 1268v125h658v-125h-658zM307 559h518v96q0 269 -262 269
q-256 0 -256 -297v-68z" />
    <glyph glyph-name="Edotaccent" unicode="&#x116;" horiz-adv-x="1181" 
d="M184 0v1434h887v-164h-670v-426h576v-154h-576v-526h670v-164h-887zM524 1556v287h205v-287h-205z" />
    <glyph glyph-name="edotaccent" unicode="&#x117;" horiz-adv-x="1146" 
d="M96 381v197q0 466 465 466q213 0 336 -100t123 -309v-176h-713v-88q0 -142 76.5 -201t224.5 -59q149 0 367 69l22 -131q-220 -69 -407 -69q-87 0 -158 11.5t-135 40t-107 73.5t-68.5 115t-25.5 161zM307 559h518v96q0 269 -262 269q-256 0 -256 -297v-68zM463 1188v280
h205v-280h-205z" />
    <glyph glyph-name="Eogonek" unicode="&#x118;" horiz-adv-x="1181" 
d="M184 0v1434h887v-164h-670v-426h576v-154h-576v-526h670v-164h-2q-176 -122 -176 -225q0 -64 59 -64q39 0 90 21l17 -103q-73 -26 -168 -26q-139 0 -139 123q0 135 223 274h-791z" />
    <glyph glyph-name="eogonek" unicode="&#x119;" horiz-adv-x="1146" 
d="M96 381v197q0 466 465 466q213 0 336 -100t123 -309v-176h-713v-88q0 -142 76.5 -201t224.5 -59q149 0 367 69l22 -131q-99 -32 -186 -49h2q-176 -122 -176 -225q0 -64 59 -64q39 0 90 21l17 -103q-73 -26 -168 -26q-139 0 -139 123q0 126 200 260q-52 -6 -106 -6
q-87 0 -158 11.5t-135 40t-107 73.5t-68.5 115t-25.5 161zM307 559h518v96q0 269 -262 269q-256 0 -256 -297v-68z" />
    <glyph glyph-name="Ecaron" unicode="&#x11a;" horiz-adv-x="1181" 
d="M184 0v1434h887v-164h-670v-426h576v-154h-576v-526h670v-164h-887zM377 1843h155l123 -217l119 217h156l-180 -287h-185z" />
    <glyph glyph-name="ecaron" unicode="&#x11b;" horiz-adv-x="1146" 
d="M96 381v197q0 466 465 466q213 0 336 -100t123 -309v-176h-713v-88q0 -142 76.5 -201t224.5 -59q149 0 367 69l22 -131q-220 -69 -407 -69q-87 0 -158 11.5t-135 40t-107 73.5t-68.5 115t-25.5 161zM295 1516h149l113 -273l113 273h149l-186 -369h-150zM307 559h518v96
q0 269 -262 269q-256 0 -256 -297v-68z" />
    <glyph glyph-name="Gbreve" unicode="&#x11e;" horiz-adv-x="1294" 
d="M90 549v332q0 283 150.5 428t447.5 145q245 0 445 -63l-43 -168q-183 61 -381 61q-211 0 -304.5 -101t-93.5 -309v-325q0 -196 92 -303t285 -107q147 0 301 43v434l-319 13v141h493v-709q-221 -81 -475 -81q-298 0 -448 143t-150 426zM295 1798v45h160q0 -101 47 -148
t172 -46q67 0 111 12t68 38.5t33 60t9 83.5h160v-45q0 -119 -98.5 -180.5t-282.5 -61.5q-178 0 -278.5 62t-100.5 180z" />
    <glyph glyph-name="gbreve" unicode="&#x11f;" horiz-adv-x="1243" 
d="M111 -82q0 195 186 279q-59 55 -59 127q0 83 61 137q-139 81 -139 258q0 325 461 325q37 0 69 -3.5t53 -7t45.5 -12t34.5 -13t32 -15.5l28 -14q39 45 39 147h206q-2 -80 -28 -134.5t-90 -78.5q73 -70 73 -194q0 -75 -24.5 -130.5t-65 -89t-101.5 -54t-125.5 -28
t-145.5 -7.5q-119 0 -177 12q-8 -13 -16 -42t-8 -54q0 -19 9.5 -47.5t21.5 -45.5q54 11 170 11q93 0 166 -8.5t139.5 -30.5t110.5 -58t70 -94t26 -135q0 -78 -25.5 -136t-69.5 -94.5t-111 -58.5t-140 -30.5t-166 -8.5t-165.5 8.5t-139 30.5t-110.5 58.5t-69.5 94.5
t-25.5 136zM270 1450v27h156q0 -108 44.5 -154.5t150.5 -46.5t150 46.5t44 154.5h156v-27q0 -268 -350 -268q-351 0 -351 268zM313 -82q0 -45 13.5 -80t45.5 -65.5t95 -47t154 -16.5q92 0 155 16t95.5 46.5t45.5 65.5t13 81q0 52 -13 87.5t-46 63.5t-94.5 41t-155.5 13
q-308 0 -308 -205zM362 719q0 -105 55.5 -155t203.5 -50q141 0 199.5 50.5t58.5 154.5q2 99 -62.5 159t-195.5 60q-75 0 -127 -17.5t-79.5 -49.5t-39.5 -68.5t-13 -83.5z" />
    <glyph glyph-name="Gcommaaccent" unicode="&#x122;" horiz-adv-x="1316" 
d="M106 549v332q0 283 151 428t448 145q244 0 444 -63l-43 -168q-183 61 -381 61q-210 0 -303.5 -101t-93.5 -309v-325q0 -196 92 -303t285 -107q147 0 301 43v434l-320 13v141h494v-709q-221 -81 -475 -81q-298 0 -448.5 143t-150.5 426zM573 -94h248v-90q0 -89 -49 -156.5
t-102 -101.5l-74 41q68 65 68 151h-91v156z" />
    <glyph glyph-name="gcommaaccent" unicode="&#x123;" horiz-adv-x="1267" 
d="M123 -82q0 195 186 279q-59 55 -59 127q0 83 61 137q-139 81 -139 258q0 325 461 325q37 0 69 -3.5t53 -7t45.5 -12t34.5 -13t32 -15.5l28 -14q39 45 39 147h207q-2 -80 -28.5 -134.5t-90.5 -78.5q74 -71 74 -194q0 -75 -24.5 -130.5t-65 -89t-102 -54t-126 -28
t-145.5 -7.5q-117 0 -176 12q-9 -14 -17 -43t-8 -53q0 -19 9.5 -47.5t21.5 -45.5q54 11 170 11q93 0 166 -8.5t139.5 -30.5t110.5 -58t70 -94t26 -135q0 -78 -25.5 -136t-69.5 -94.5t-111 -58.5t-140 -30.5t-166 -8.5t-165.5 8.5t-139 30.5t-110.5 58.5t-69.5 94.5
t-25.5 136zM326 -82q0 -45 13 -80t45.5 -65.5t95 -47t153.5 -16.5q92 0 155 16t95.5 46.5t45.5 65.5t13 81q0 52 -13 87.5t-46 63.5t-94.5 41t-155.5 13q-307 0 -307 -205zM375 719q0 -105 55 -155t203 -50q141 0 199.5 50.5t58.5 154.5q2 99 -62.5 159t-195.5 60
q-75 0 -127 -17.5t-79.5 -49.5t-39 -68.5t-12.5 -83.5zM522 1188v90q0 89 49.5 156.5t102.5 101.5l74 -41q-68 -65 -68 -152h90v-155h-248z" />
    <glyph glyph-name="Imacron" unicode="&#x12a;" horiz-adv-x="841" 
d="M61 0v166h230v1102h-223v166h665v-166h-225v-1102h231v-166h-678zM72 1677v125h657v-125h-657z" />
    <glyph glyph-name="imacron" unicode="&#x12b;" horiz-adv-x="565" 
d="M-61 1268v125h657v-125h-657zM166 0v1024h205v-1024h-205z" />
    <glyph glyph-name="Iogonek" unicode="&#x12e;" horiz-adv-x="841" 
d="M61 0v166h230v1102h-223v166h665v-166h-225v-1102h231v-166h-6q-176 -122 -176 -225q0 -64 59 -64q40 0 91 21l16 -103q-73 -26 -168 -26q-139 0 -139 123q0 135 223 274h-578z" />
    <glyph glyph-name="iogonek" unicode="&#x12f;" horiz-adv-x="589" 
d="M78 -274q0 135 223 274h-108v1024h204v-1024h-2q-176 -122 -176 -225q0 -64 60 -64q39 0 90 21l16 -103q-73 -26 -168 -26q-139 0 -139 123zM193 1194v240h204v-240h-204z" />
    <glyph glyph-name="Idotaccent" unicode="&#x130;" horiz-adv-x="841" 
d="M61 0v166h230v1102h-223v166h665v-166h-225v-1102h231v-166h-678zM297 1556v287h205v-287h-205z" />
    <glyph glyph-name="dotlessi" unicode="&#x131;" horiz-adv-x="546" 
d="M150 0v1024h204v-1024h-204z" />
    <glyph glyph-name="Kcommaaccent" unicode="&#x136;" horiz-adv-x="1363" 
d="M184 0v1434h217v-629h27l596 629h264l-649 -658l655 -776h-254l-610 725h-29v-725h-217zM553 -94h248v-90q0 -89 -49.5 -156.5t-102.5 -101.5l-74 41q68 65 68 151h-90v156z" />
    <glyph glyph-name="kcommaaccent" unicode="&#x137;" horiz-adv-x="1075" 
d="M143 0v1495h205v-909h8l445 438h254l-502 -489l502 -535h-242l-457 487h-8v-487h-205zM420 -94h248v-90q0 -89 -49.5 -156.5t-102.5 -101.5l-74 41q68 65 68 151h-90v156z" />
    <glyph glyph-name="Lacute" unicode="&#x139;" horiz-adv-x="1128" 
d="M172 0v1434h217v-1244h711v-190h-928zM229 1556l80 287h195l-162 -287h-113z" />
    <glyph glyph-name="lacute" unicode="&#x13a;" horiz-adv-x="583" 
d="M145 0v1495h205v-1495h-205zM178 1530l70 354h192l-143 -354h-119z" />
    <glyph glyph-name="Lcommaaccent" unicode="&#x13b;" horiz-adv-x="1140" 
d="M184 0v1434h217v-1244h711v-190h-928zM514 -94h248v-90q0 -89 -49.5 -156.5t-102.5 -101.5l-73 41q67 64 67 151h-90v156z" />
    <glyph glyph-name="lcommaaccent" unicode="&#x13c;" horiz-adv-x="575" 
d="M145 -94h248v-90q0 -89 -49 -156.5t-102 -101.5l-74 41q68 65 68 151h-91v156zM168 0v1495h205v-1495h-205z" />
    <glyph glyph-name="Lcaron" unicode="&#x13d;" horiz-adv-x="1128" 
d="M172 0v1434h217v-1244h711v-190h-928zM805 1161v273h237v-168q0 -120 -44.5 -228t-108.5 -190l-76 37q78 134 78 276h-86z" />
    <glyph glyph-name="lcaron" unicode="&#x13e;" horiz-adv-x="839" 
d="M131 0v1495h205v-1495h-205zM522 1221v274h248v-168q0 -121 -46.5 -230t-113.5 -192l-80 37q82 138 82 279h-90z" />
    <glyph glyph-name="Lslash" unicode="&#x141;" horiz-adv-x="1118" 
d="M23 582v180l147 55v617h217v-535l440 168v-180l-440 -168v-529h711v-190h-928v637z" />
    <glyph glyph-name="lslash" unicode="&#x142;" horiz-adv-x="452" 
d="M10 582v180l115 80v653h205v-508l112 80v-180l-112 -80v-807h-205v662z" />
    <glyph glyph-name="Nacute" unicode="&#x143;" horiz-adv-x="1646" 
d="M184 0v1434h230l815 -1112v1112h192v-1434h-225l-821 1118v-1118h-191zM739 1556l80 287h195l-162 -287h-113z" />
    <glyph glyph-name="nacute" unicode="&#x144;" horiz-adv-x="1257" 
d="M145 0v1024h205v-106q206 126 391 126q182 0 258 -88.5t76 -277.5v-678h-205v664q0 129 -50 181t-179 52q-78 0 -160 -35.5t-131 -79.5v-782h-205zM508 1147l70 369h192l-143 -369h-119z" />
    <glyph glyph-name="Ncommaaccent" unicode="&#x145;" horiz-adv-x="1646" 
d="M184 0v1434h230l815 -1112v1112h192v-1434h-225l-821 1118v-1118h-191zM678 -94h248v-90q0 -89 -49.5 -156.5t-102.5 -101.5l-74 41q68 65 68 151h-90v156z" />
    <glyph glyph-name="ncommaaccent" unicode="&#x146;" horiz-adv-x="1257" 
d="M145 0v1024h205v-106q206 126 391 126q182 0 258 -88.5t76 -277.5v-678h-205v664q0 129 -50 181t-179 52q-78 0 -160 -35.5t-131 -79.5v-782h-205zM485 -94h248v-90q0 -89 -49 -156.5t-102 -101.5l-74 41q67 64 67 151h-90v156z" />
    <glyph glyph-name="Ncaron" unicode="&#x147;" horiz-adv-x="1646" 
d="M184 0v1434h230l815 -1112v1112h192v-1434h-225l-821 1118v-1118h-191zM547 1843h155l123 -217l119 217h156l-180 -287h-185z" />
    <glyph glyph-name="ncaron" unicode="&#x148;" horiz-adv-x="1257" 
d="M145 0v1024h205v-106q206 126 391 126q182 0 258 -88.5t76 -277.5v-678h-205v664q0 129 -50 181t-179 52q-78 0 -160 -35.5t-131 -79.5v-782h-205zM348 1516h150l112 -273l113 273h149l-186 -369h-149z" />
    <glyph glyph-name="Omacron" unicode="&#x14c;" horiz-adv-x="1531" 
d="M111 545v338q0 125 42 229.5t121.5 180.5t200 118.5t270.5 42.5q299 0 467 -158t168 -413v-338q0 -255 -167 -410t-468 -155t-467.5 155t-166.5 410zM338 563q0 -190 108 -304t299 -114q199 0 303.5 112.5t104.5 305.5v305q0 88 -26 163.5t-75.5 133t-128.5 90.5t-178 33
q-184 0 -295.5 -117t-111.5 -303v-305zM383 1632v129h727v-129h-727z" />
    <glyph glyph-name="omacron" unicode="&#x14d;" horiz-adv-x="1208" 
d="M94 403v215q0 199 129.5 312.5t364.5 113.5q234 0 365.5 -113.5t131.5 -312.5v-215q0 -198 -131.5 -310.5t-365.5 -112.5q-235 0 -364.5 112t-129.5 311zM262 1268v125h658v-125h-658zM299 408q0 -135 75.5 -218.5t213.5 -83.5t213.5 84t75.5 218v208q0 132 -75.5 215.5
t-213.5 83.5q-134 0 -211.5 -78.5t-77.5 -205.5v-223z" />
    <glyph glyph-name="Ohungarumlaut" unicode="&#x150;" horiz-adv-x="1531" 
d="M111 545v338q0 125 42 229.5t121.5 180.5t200 118.5t270.5 42.5q299 0 467 -158t168 -413v-338q0 -255 -167 -410t-468 -155t-467.5 155t-166.5 410zM338 563q0 -190 108 -304t299 -114q199 0 303.5 112.5t104.5 305.5v305q0 88 -26 163.5t-75.5 133t-128.5 90.5t-178 33
q-184 0 -295.5 -117t-111.5 -303v-305zM504 1556l145 369h193l-221 -369h-117zM836 1556l147 369h193l-224 -369h-116z" />
    <glyph glyph-name="ohungarumlaut" unicode="&#x151;" horiz-adv-x="1208" 
d="M94 403v215q0 199 129.5 312.5t364.5 113.5q234 0 365.5 -113.5t131.5 -312.5v-215q0 -198 -131.5 -310.5t-365.5 -112.5q-235 0 -364.5 112t-129.5 311zM299 408q0 -135 75.5 -218.5t213.5 -83.5t213.5 84t75.5 218v208q0 132 -75.5 215.5t-213.5 83.5
q-134 0 -211.5 -78.5t-77.5 -205.5v-223zM322 1147l145 369h192l-221 -369h-116zM653 1147l148 369h192l-223 -369h-117z" />
    <glyph glyph-name="OE" unicode="&#x152;" horiz-adv-x="2152" 
d="M102 545v338q0 255 168 413t467 158q255 0 418 -119v99h887v-164h-670v-363v-24v-39h576v-154h-576v-145v-25v-356h670v-164h-887v94q-160 -114 -418 -114q-301 0 -468 155t-167 410zM330 563q0 -190 108 -304t299 -114q199 0 303.5 112.5t104.5 305.5v305
q0 88 -26 163.5t-75.5 133t-128.5 90.5t-178 33q-184 0 -295.5 -117t-111.5 -303v-305z" />
    <glyph glyph-name="oe" unicode="&#x153;" horiz-adv-x="1935" 
d="M106 403v215q0 199 129.5 312.5t364.5 113.5q254 0 389 -135q116 135 365 135q213 0 335.5 -100t122.5 -309v-176h-712v-88q0 -142 76.5 -201t224.5 -59t366 69l23 -131q-220 -69 -408 -69q-280 0 -401 126q-129 -126 -381 -126q-235 0 -364.5 112t-129.5 311zM311 408
q0 -135 75.5 -218.5t213.5 -83.5t213.5 84t75.5 218v170v20v18q0 132 -75.5 215.5t-213.5 83.5q-134 0 -211.5 -78.5t-77.5 -205.5v-223zM1100 559h518v96q0 269 -262 269q-256 0 -256 -297v-68z" />
    <glyph glyph-name="Racute" unicode="&#x154;" horiz-adv-x="1302" 
d="M172 0v1434h500q276 0 399 -103t123 -338q0 -184 -87.5 -285.5t-217.5 -109.5l405 -598h-245l-367 594h-293v-594h-217zM389 725h289q150 0 222.5 57.5t72.5 210.5t-73 216t-222 63h-289v-547zM551 1556l80 287h194l-161 -287h-113z" />
    <glyph glyph-name="racute" unicode="&#x155;" horiz-adv-x="825" 
d="M145 0v1024h205v-164q45 75 128.5 129.5t176.5 54.5h84l25 -174h-102q-118 0 -215 -92t-97 -174v-604h-205zM338 1147l70 369h192l-143 -369h-119z" />
    <glyph glyph-name="Rcommaaccent" unicode="&#x156;" horiz-adv-x="1302" 
d="M172 0v1434h500q276 0 399 -103t123 -338q0 -184 -87.5 -285.5t-217.5 -109.5l405 -598h-245l-367 594h-293v-594h-217zM389 725h289q150 0 222.5 57.5t72.5 210.5t-73 216t-222 63h-289v-547zM541 -94h247v-90q0 -89 -49 -156.5t-102 -101.5l-74 41q68 65 68 151h-90
v156z" />
    <glyph glyph-name="rcommaaccent" unicode="&#x157;" horiz-adv-x="808" 
d="M115 -94h247v-90q0 -89 -49 -156.5t-102 -101.5l-74 41q68 65 68 151h-90v156zM129 0v1024h205v-164q45 75 128.5 129.5t176.5 54.5h84l25 -174h-103q-118 0 -214.5 -92t-96.5 -174v-604h-205z" />
    <glyph glyph-name="Rcaron" unicode="&#x158;" horiz-adv-x="1302" 
d="M172 0v1434h500q276 0 399 -103t123 -338q0 -184 -87.5 -285.5t-217.5 -109.5l405 -598h-245l-367 594h-293v-594h-217zM332 1843h155l123 -217l119 217h156l-180 -287h-185zM389 725h289q150 0 222.5 57.5t72.5 210.5t-73 216t-222 63h-289v-547z" />
    <glyph glyph-name="rcaron" unicode="&#x159;" horiz-adv-x="823" 
d="M143 0v1024h205v-164q45 75 128.5 129.5t176.5 54.5h84l25 -174h-103q-118 0 -214.5 -92t-96.5 -174v-604h-205zM145 1516h150l113 -273l112 273h150l-187 -369h-149z" />
    <glyph glyph-name="Sacute" unicode="&#x15a;" horiz-adv-x="1245" 
d="M90 72l31 159q103 -42 243 -68t257 -26q71 0 126.5 13t88 36t54 47t30 52.5t11.5 45.5t3 34q0 93 -41.5 137.5t-157.5 83.5q-42 13 -113 33t-115.5 32.5t-106 35t-100.5 44t-82.5 55.5t-68 73t-41 94t-16.5 120q0 79 27 142.5t74.5 107.5t114 74t145 43.5t168.5 13.5
q243 0 497 -82l-33 -158q-252 89 -452 89q-86 0 -150.5 -19t-99.5 -51t-51.5 -68.5t-16.5 -77.5q0 -130 179 -206q57 -23 128 -46t123 -38t110.5 -35.5t100 -41t81.5 -52.5t64.5 -70.5t39 -94.5t14.5 -126q0 -102 -41.5 -179.5t-115.5 -124t-169 -70t-208 -23.5
q-135 0 -284.5 22.5t-246.5 69.5zM489 1556l70 369h193l-144 -369h-119z" />
    <glyph glyph-name="sacute" unicode="&#x15b;" horiz-adv-x="1034" 
d="M80 45l18 123q88 -22 136 -33t131 -23.5t147 -11.5q65 0 112 11t71 25t37 36.5t15.5 37t2.5 34.5q0 93 -109 137q-46 17 -117.5 35t-127 29.5t-117 36t-102 55.5t-67 86.5t-26.5 130.5q0 103 59.5 169.5t156 93.5t230.5 27q179 0 388 -63l-29 -121q-100 31 -181.5 47.5
t-179.5 16.5q-67 0 -116 -16.5t-74.5 -43.5t-37 -54.5t-11.5 -55.5q0 -45 26.5 -77.5t71.5 -47.5q46 -14 122 -31t130 -28.5t117.5 -36.5t103.5 -57t67 -87t27 -129q0 -70 -21.5 -120.5t-57 -81t-92 -48.5t-116 -24t-139.5 -6q-218 0 -448 65zM463 1147l69 369h193
l-143 -369h-119z" />
    <glyph glyph-name="Scedilla" unicode="&#x15e;" horiz-adv-x="1304" 
d="M109 72l30 159q103 -42 243 -68t257 -26q71 0 126.5 13t88 36t54 47t30 52.5t11.5 45.5t3 34q0 93 -41.5 137.5t-156.5 83.5q-42 13 -113 33t-115.5 32.5t-106 35t-100.5 44t-82.5 55.5t-68 73t-41 94t-16.5 120q0 98 40.5 172.5t113.5 119t167 67t207 22.5
q244 0 498 -82l-33 -158q-252 89 -453 89q-86 0 -150 -19t-99 -51t-51.5 -68.5t-16.5 -77.5q0 -71 46 -120.5t132 -85.5q57 -23 128 -46t123 -38t111 -35.5t100.5 -41t81.5 -52.5t64 -70.5t39 -94.5t15 -126q0 -96 -37 -170.5t-103 -121.5t-152 -72.5t-190 -30.5l-12 -74h47
q60 0 96.5 -34.5t36.5 -96.5q0 -154 -166 -154q-107 0 -178 23l23 82q67 -15 127 -15q35 0 51 15t16 49q0 31 -17.5 44t-58.5 13q-22 0 -57 -1l-35 -1l29 148q-129 3 -263 26.5t-222 65.5z" />
    <glyph glyph-name="scedilla" unicode="&#x15f;" horiz-adv-x="1034" 
d="M80 45l18 123q88 -22 136 -33t131 -23.5t147 -11.5q65 0 112 11t71 25t37 36.5t15.5 37t2.5 34.5q0 93 -109 137q-46 17 -117.5 35t-127 29.5t-117 36t-102 55.5t-67 86.5t-26.5 130.5q0 103 59.5 169.5t156 93.5t230.5 27q179 0 388 -63l-29 -121q-100 31 -181.5 47.5
t-179.5 16.5q-67 0 -116 -16.5t-74.5 -43.5t-37 -54.5t-11.5 -55.5q0 -45 26.5 -77.5t71.5 -47.5q46 -14 122 -31t130 -28.5t117.5 -36.5t103.5 -57t67 -87t27 -129q0 -70 -21.5 -120.5t-57 -81t-92 -48.5t-116 -24t-139.5 -6h-12l-10 -72h47q60 0 96.5 -34.5t36.5 -96.5
q0 -154 -166 -154q-107 0 -178 23l23 82q67 -15 127 -15q35 0 51 15t16 49q0 31 -17.5 44t-58.5 13q-22 0 -57 -1l-35 -1l31 152q-177 14 -342 61z" />
    <glyph glyph-name="Scaron" unicode="&#x160;" horiz-adv-x="1312" 
d="M113 72l30 159q103 -42 243 -68t257 -26q71 0 126.5 13t88 36t54 47t30 52.5t11.5 45.5t3 34q0 93 -41.5 137.5t-156.5 83.5q-42 13 -113 33t-115.5 32.5t-106 35t-100.5 44t-82.5 55.5t-68 73t-41 94t-16.5 120q0 98 40.5 172.5t113.5 119t167 67t207 22.5
q244 0 498 -82l-33 -158q-252 89 -453 89q-86 0 -150 -19t-99 -51t-51.5 -68.5t-16.5 -77.5q0 -71 46 -120.5t132 -85.5q57 -23 128 -46t123 -38t111 -35.5t100.5 -41t81.5 -52.5t64 -70.5t39 -94.5t15 -126q0 -82 -27.5 -148.5t-76 -112t-116 -76.5t-146.5 -45.5
t-169 -14.5q-135 0 -284 22.5t-246 69.5zM381 1843h156l122 -217l119 217h156l-180 -287h-185z" />
    <glyph glyph-name="scaron" unicode="&#x161;" horiz-adv-x="1042" 
d="M84 45l18 123q88 -22 136 -33t131 -23.5t147 -11.5q65 0 112 11t71 25t37 36.5t15.5 37t2.5 34.5q0 93 -109 137q-46 17 -117.5 35t-127 29.5t-117 36t-102 55.5t-67 86.5t-26.5 130.5q0 78 33.5 135t95 90.5t140.5 49t178 15.5q178 0 387 -63l-29 -121
q-100 31 -181.5 47.5t-179.5 16.5q-67 0 -116 -16.5t-74.5 -43.5t-37 -54.5t-11.5 -55.5q0 -45 26.5 -77.5t71.5 -47.5q46 -14 122 -31t130 -28.5t117.5 -36.5t103.5 -57t67 -87t27 -129q0 -70 -21.5 -120.5t-57 -81t-92 -48.5t-116 -24t-139.5 -6q-218 0 -448 65zM272 1516
h150l113 -273l112 273h150l-187 -369h-149z" />
    <glyph glyph-name="Tcommaaccent" unicode="&#x162;" horiz-adv-x="1142" 
d="M49 1241v193h1045v-193h-414v-1241h-217v1241h-414zM446 -94h248v-90q0 -89 -49 -156.5t-102 -101.5l-74 41q68 65 68 151h-91v156z" />
    <glyph glyph-name="tcommaaccent" unicode="&#x163;" horiz-adv-x="813" 
d="M23 883v141h174v260l204 27v-287h349v-141h-349v-553q0 -113 42.5 -160t117.5 -49q27 0 49 1.5t43 5.5t30.5 6.5t32 9t27.5 8.5l31 -129q-114 -43 -252 -43q-168 0 -246.5 75.5t-78.5 243.5v584h-174zM395 -94h248v-90q0 -89 -49 -156.5t-102 -101.5l-74 41q67 64 67 151
h-90v156z" />
    <glyph glyph-name="Tcaron" unicode="&#x164;" horiz-adv-x="1142" 
d="M49 1241v193h1045v-193h-414v-1241h-217v1241h-414zM293 1843h156l122 -217l119 217h156l-180 -287h-185z" />
    <glyph glyph-name="tcaron" unicode="&#x165;" horiz-adv-x="1097" 
d="M29 883v141h174v260l205 27v-287h348v-141h-348v-553q0 -114 42 -160.5t117 -48.5q27 0 49 1.5t43.5 6t30.5 6.5t32.5 9t27.5 8l30 -129q-114 -43 -252 -43q-168 0 -246.5 75.5t-78.5 243.5v584h-174zM821 1190v274h248v-168q0 -121 -46.5 -230t-113.5 -192l-80 37
q82 138 82 279h-90z" />
    <glyph glyph-name="Umacron" unicode="&#x16a;" horiz-adv-x="1419" 
d="M156 512v922h223v-942q0 -347 340 -347q162 0 236.5 83.5t74.5 263.5v942h201v-922q0 -532 -518 -532q-280 0 -418.5 136t-138.5 396zM365 1677v125h657v-125h-657z" />
    <glyph glyph-name="umacron" unicode="&#x16b;" horiz-adv-x="1257" 
d="M143 307v717h205v-664q0 -233 203 -233q91 0 179 35t138 78v784h205v-1024h-205v106q-76 -49 -191.5 -87.5t-227.5 -38.5q-153 0 -229.5 87.5t-76.5 239.5zM279 1268v125h657v-125h-657z" />
    <glyph glyph-name="Uring" unicode="&#x16e;" horiz-adv-x="1419" 
d="M156 512v922h223v-942q0 -347 340 -347q162 0 236.5 83.5t74.5 263.5v942h201v-922q0 -532 -518 -532q-280 0 -418.5 136t-138.5 396zM494 1649q0 81 55.5 133.5t150.5 52.5t151 -52.5t56 -133.5t-56 -133t-151 -52t-150.5 52t-55.5 133zM592 1649q0 -46 29.5 -75.5
t78.5 -29.5t79 29.5t30 75.5t-30 75t-79 29t-78.5 -29t-29.5 -75z" />
    <glyph glyph-name="uring" unicode="&#x16f;" horiz-adv-x="1259" 
d="M145 307v717h205v-664q0 -233 203 -233q91 0 179 35t138 78v784h205v-1024h-205v106q-76 -49 -191.5 -87.5t-227.5 -38.5q-153 0 -229.5 87.5t-76.5 239.5zM406 1337q0 83 60 143t144 60q85 0 145 -60t60 -143q0 -85 -60 -144.5t-145 -59.5t-144.5 59.5t-59.5 144.5z
M500 1337q0 -44 33 -77t77 -33t77.5 33t33.5 77q0 43 -33.5 76t-77.5 33t-77 -33t-33 -76z" />
    <glyph glyph-name="Uhungarumlaut" unicode="&#x170;" horiz-adv-x="1419" 
d="M156 512v922h223v-942q0 -347 340 -347q162 0 236.5 83.5t74.5 263.5v942h201v-922q0 -532 -518 -532q-280 0 -418.5 136t-138.5 396zM432 1556l146 369h192l-221 -369h-117zM764 1556l147 369h193l-223 -369h-117z" />
    <glyph glyph-name="uhungarumlaut" unicode="&#x171;" horiz-adv-x="1259" 
d="M145 307v717h205v-664q0 -233 203 -233q91 0 179 35t138 78v784h205v-1024h-205v106q-76 -49 -191.5 -87.5t-227.5 -38.5q-153 0 -229.5 87.5t-76.5 239.5zM356 1147l146 369h192l-221 -369h-117zM688 1147l148 369h192l-223 -369h-117z" />
    <glyph glyph-name="Uogonek" unicode="&#x172;" horiz-adv-x="1419" 
d="M156 512v922h223v-942q0 -347 340 -347q162 0 236.5 83.5t74.5 263.5v942h201v-922q0 -451 -371 -520q-164 -115 -164 -217q0 -64 60 -64q39 0 90 21l16 -103q-73 -26 -168 -26q-139 0 -139 123q0 125 195 254h-37q-280 0 -418.5 136t-138.5 396z" />
    <glyph glyph-name="uogonek" unicode="&#x173;" horiz-adv-x="1257" 
d="M143 307v717h205v-664q0 -233 203 -233q91 0 179 35t138 78v784h205v-1024h-94q-176 -122 -176 -225q0 -64 59 -64q39 0 90 21l17 -103q-73 -26 -168 -26q-139 0 -139 123q0 135 223 274h-17v106q-76 -49 -191.5 -87.5t-227.5 -38.5q-153 0 -229.5 87.5t-76.5 239.5z" />
    <glyph glyph-name="Ydieresis" unicode="&#x178;" horiz-adv-x="1255" 
d="M20 1434h246l365 -713l364 713h240l-498 -899v-535h-217v535zM385 1556v287h156v-287h-156zM721 1556v287h156v-287h-156z" />
    <glyph glyph-name="Zacute" unicode="&#x179;" horiz-adv-x="1253" 
d="M90 0v154l805 1126h-770v154h1026v-154l-799 -1126h811v-154h-1073zM555 1556l80 287h194l-161 -287h-113z" />
    <glyph glyph-name="zacute" unicode="&#x17a;" horiz-adv-x="1021" 
d="M80 0v106l594 777h-561v141h823v-106l-588 -777h594v-141h-862zM444 1147l70 369h193l-144 -369h-119z" />
    <glyph glyph-name="Zdotaccent" unicode="&#x17b;" horiz-adv-x="1253" 
d="M90 0v154l805 1126h-770v154h1026v-154l-799 -1126h811v-154h-1073zM532 1556v287h205v-287h-205z" />
    <glyph glyph-name="zdotaccent" unicode="&#x17c;" horiz-adv-x="1021" 
d="M80 0v106l594 777h-561v141h823v-106l-588 -777h594v-141h-862zM412 1188v280h204v-280h-204z" />
    <glyph glyph-name="Zcaron" unicode="&#x17d;" horiz-adv-x="1261" 
d="M94 0v154l805 1126h-770v154h1026v-154l-799 -1126h811v-154h-1073zM360 1843h156l123 -217l119 217h155l-180 -287h-184z" />
    <glyph glyph-name="zcaron" unicode="&#x17e;" horiz-adv-x="1030" 
d="M84 0v106l594 777h-561v141h823v-106l-588 -777h594v-141h-862zM258 1516h150l112 -273l113 273h149l-186 -369h-150z" />
    <glyph glyph-name="florin" unicode="&#x192;" horiz-adv-x="1073" 
d="M20 -369l29 140q89 -29 150 -29q100 0 136.5 59t39.5 199v877h-187v147h187v82q0 430 358 430q177 0 320 -41l-29 -139q-133 28 -240 28q-111 0 -157.5 -68.5t-46.5 -223.5v-68h354v-147h-354v-857q0 -224 -77.5 -327t-252.5 -103q-104 0 -230 41z" />
    <glyph glyph-name="Ohorn" unicode="&#x1a0;" horiz-adv-x="1536" 
d="M66 545v338q0 125 42 229.5t121.5 180.5t200 118.5t270.5 42.5q206 0 353 -79t219 -218q60 18 89.5 80.5t29.5 196.5h135q0 -77 -20 -137t-55 -96.5t-74 -58t-85 -30.5q43 -104 43 -229v-338q0 -255 -167 -410t-468 -155t-467.5 155t-166.5 410zM293 563q0 -190 108 -304
t299 -114q199 0 303.5 112.5t104.5 305.5v305q0 88 -26 163.5t-75.5 133t-128.5 90.5t-178 33q-184 0 -295.5 -117t-111.5 -303v-305z" />
    <glyph glyph-name="ohorn" unicode="&#x1a1;" horiz-adv-x="1286" 
d="M106 403v215q0 199 129.5 312.5t364.5 113.5q185 0 307.5 -73t167.5 -205q80 52 80 258h135q0 -135 -56.5 -210.5t-143.5 -102.5q8 -58 8 -93v-215q0 -198 -132 -310.5t-366 -112.5q-235 0 -364.5 112t-129.5 311zM311 408q0 -135 75.5 -218.5t213.5 -83.5t213.5 84
t75.5 218v208q0 132 -75.5 215.5t-213.5 83.5q-134 0 -211.5 -78.5t-77.5 -205.5v-223z" />
    <glyph glyph-name="Uhorn" unicode="&#x1af;" horiz-adv-x="1507" 
d="M156 512v922h223v-942q0 -347 340 -347q162 0 236.5 83.5t74.5 263.5v942h201v-277q62 16 92.5 78.5t30.5 198.5h135q0 -83 -23 -146t-62 -99t-82 -55.5t-91 -25.5v-596q0 -532 -518 -532q-280 0 -418.5 136t-138.5 396z" />
    <glyph glyph-name="uhorn" unicode="&#x1b0;" horiz-adv-x="1349" 
d="M158 307v717h204v-664q0 -233 203 -233q91 0 179.5 35t138.5 78v784h204v-281q67 14 100.5 76.5t33.5 204.5h135q0 -85 -24.5 -149t-65.5 -100.5t-85 -55t-94 -23.5v-696h-204v106q-76 -49 -192 -87.5t-228 -38.5q-153 0 -229 87.5t-76 239.5z" />
    <glyph glyph-name="Scommaaccent" unicode="&#x218;" horiz-adv-x="1245" 
d="M90 72l31 159q103 -42 243 -68t257 -26q71 0 126.5 13t88 36t54 47t30 52.5t11.5 45.5t3 34q0 93 -41.5 137.5t-157.5 83.5q-42 13 -113 33t-115.5 32.5t-106 35t-100.5 44t-82.5 55.5t-68 73t-41 94t-16.5 120q0 79 27 142.5t74.5 107.5t114 74t145 43.5t168.5 13.5
q243 0 497 -82l-33 -158q-252 89 -452 89q-86 0 -150.5 -19t-99.5 -51t-51.5 -68.5t-16.5 -77.5q0 -130 179 -206q57 -23 128 -46t123 -38t110.5 -35.5t100 -41t81.5 -52.5t64.5 -70.5t39 -94.5t14.5 -126q0 -102 -41.5 -179.5t-115.5 -124t-169 -70t-208 -23.5
q-135 0 -284.5 22.5t-246.5 69.5zM518 -94h248v-90q0 -89 -49.5 -156.5t-102.5 -101.5l-73 41q67 64 67 151h-90v156z" />
    <glyph glyph-name="scommaaccent" unicode="&#x219;" horiz-adv-x="1067" 
d="M86 45l18 123q88 -22 136 -33t131 -23.5t147 -11.5q65 0 112 11t71 25t37 36.5t15.5 37t2.5 34.5q0 93 -109 137q-46 17 -117.5 35t-127 29.5t-117 36t-102 55.5t-67 86.5t-26.5 130.5q0 78 33.5 135t95 90.5t140.5 49t178 15.5q178 0 387 -63l-29 -121
q-100 31 -181 47.5t-179 16.5q-67 0 -116.5 -16.5t-75 -43.5t-37 -54.5t-11.5 -55.5q0 -45 26.5 -77.5t71.5 -47.5q46 -14 122 -31t130 -28.5t118 -36.5t104 -57t67 -87t27 -129q0 -70 -21.5 -120.5t-57 -81t-92 -48.5t-116 -24t-139.5 -6q-219 0 -449 65zM397 -94h248v-90
q0 -89 -49 -156.5t-102 -101.5l-74 41q67 64 67 151h-90v156z" />
    <glyph glyph-name="circumflex" unicode="&#x2c6;" horiz-adv-x="890" 
d="M186 1147l185 369h151l189 -369h-150l-112 272l-115 -272h-148z" />
    <glyph glyph-name="caron" unicode="&#x2c7;" horiz-adv-x="890" 
d="M186 1516h150l113 -273l112 273h150l-187 -369h-149z" />
    <glyph glyph-name="breve" unicode="&#x2d8;" horiz-adv-x="1206" 
d="M254 1450v27h156q0 -108 44 -154.5t150 -46.5t150.5 46.5t44.5 154.5h155v-27q0 -268 -350 -268t-350 268z" />
    <glyph glyph-name="dotaccent" unicode="&#x2d9;" horiz-adv-x="454" 
d="M125 1188v280h205v-280h-205z" />
    <glyph glyph-name="ring" unicode="&#x2da;" horiz-adv-x="761" 
d="M176 1337q0 83 60 143t145 60t145 -60t60 -143q0 -85 -60 -144.5t-145 -59.5t-145 59.5t-60 144.5zM270 1337q0 -44 33.5 -77t77.5 -33t77.5 33t33.5 77q0 43 -33.5 76t-77.5 33t-77.5 -33t-33.5 -76z" />
    <glyph glyph-name="ogonek" unicode="&#x2db;" horiz-adv-x="1083" 
d="M543 -274q0 145 278 307l39 -33q-176 -122 -176 -225q0 -64 59 -64q40 0 91 21l16 -103q-73 -26 -168 -26q-139 0 -139 123z" />
    <glyph glyph-name="tilde" unicode="&#x2dc;" horiz-adv-x="983" 
d="M123 1280q29 61 90.5 120.5t122.5 59.5q31 0 60.5 -18t53 -44t45 -52t43.5 -44t42 -18q81 0 149 148l64 -70q-28 -69 -88.5 -130t-120.5 -61q-36 0 -72.5 27.5t-62.5 60t-58 60t-59 27.5q-79 0 -148 -142z" />
    <glyph glyph-name="hungarumlaut" unicode="&#x2dd;" horiz-adv-x="1136" 
d="M152 1147l145 369h192l-221 -369h-116zM483 1147l148 369h192l-223 -369h-117z" />
    <glyph glyph-name="gravecomb" unicode="&#x300;" horiz-adv-x="0" 
d="M233 1516h183l67 -369h-118z" />
    <glyph glyph-name="acutecomb" unicode="&#x301;" horiz-adv-x="0" 
d="M227 1147l70 369h192l-143 -369h-119z" />
    <glyph glyph-name="tildecomb" unicode="&#x303;" horiz-adv-x="0" 
d="M57 1280q29 61 90.5 120.5t122.5 59.5q31 0 60.5 -18t53 -44t45 -52t43.5 -44t42 -18q82 0 150 148l63 -70q-28 -69 -88.5 -130t-120.5 -61q-36 0 -72.5 27.5t-62.5 60t-58 60t-59 27.5q-78 0 -147 -142z" />
    <glyph glyph-name="hookabovecomb" unicode="&#x309;" horiz-adv-x="0" 
d="M217 1151q51 6 83 31t51.5 87t19.5 165h135q0 -71 -18 -128t-46 -93t-66.5 -60t-76.5 -34.5t-78 -12.5z" />
    <glyph glyph-name="dotbelowcomb" unicode="&#x323;" horiz-adv-x="0" 
d="M201 -166h205v-240h-205v240z" />
    <glyph glyph-name="pi" unicode="&#x3c0;" horiz-adv-x="1353" 
d="M-25 858q26 38 46 62.5t50 51t67 39.5t81 13h1086v-143h-168v-545q0 -7 -0.5 -30t-0.5 -35t2 -34t5.5 -34.5t11.5 -29t19 -25t28 -15t39 -6.5q54 0 84 12l8 -137q-61 -22 -157 -22q-57 0 -99 16.5t-67.5 44t-41 70.5t-21 88.5t-5.5 105.5v576h-500v-881h-194v881h-27
q-29 0 -54.5 -11.5t-47 -35.5t-35.5 -44t-33 -53z" />
    <glyph glyph-name="rho" unicode="&#x3c1;" horiz-adv-x="1159" 
d="M125 -410v1078q0 107 63.5 195t164.5 136t214 48q261 0 384.5 -130.5t123.5 -404.5q0 -266 -103 -396t-325 -130q-70 0 -138 17.5t-98 31.5t-81 41v-486h-205zM330 199q137 -72 248 -72q46 1 84.5 10t77.5 35t65.5 67.5t43.5 111t17 161.5q0 114 -25 193.5t-70 119.5
t-94.5 56t-111.5 16q-98 0 -166.5 -61t-68.5 -166v-471z" />
    <glyph glyph-name="afii10023" unicode="&#x401;" horiz-adv-x="1171" 
d="M174 0v1434h887v-164h-670v-426h576v-154h-576v-526h670v-164h-887zM399 1556v287h156v-287h-156zM735 1556v287h156v-287h-156z" />
    <glyph glyph-name="afii10051" unicode="&#x402;" horiz-adv-x="1529" 
d="M41 1241v193h1044v-193h-413v-383h258q53 0 143 -4q192 -18 274.5 -125t82.5 -305q0 -70 -9.5 -126t-33.5 -107.5t-63 -87.5t-100.5 -61.5t-144.5 -35.5q-53 -6 -118 -6h-130l-6 141h107q139 0 210.5 67.5t71.5 221.5q0 156 -71 222.5t-211 66.5h-260v-719h-217v1241
h-414z" />
    <glyph glyph-name="afii10052" unicode="&#x403;" horiz-adv-x="1054" 
d="M174 0v1434h830v-189h-613v-1245h-217zM504 1556l69 369h193l-143 -369h-119z" />
    <glyph glyph-name="afii10053" unicode="&#x404;" horiz-adv-x="1210" 
d="M111 557v320q0 152 41.5 264t119.5 180t183 100.5t239 32.5q119 0 235.5 -25t180.5 -53l-41 -166q-82 32 -196 55t-195 23q-170 0 -258 -110.5t-88 -323.5v-29h549v-141h-549v-45q0 -82 8.5 -147.5t32 -131t62.5 -109.5t105 -71.5t154 -27.5q184 0 375 71l41 -166
q-68 -32 -182 -54.5t-234 -22.5q-273 0 -428 148.5t-155 428.5z" />
    <glyph glyph-name="afii10054" unicode="&#x405;" horiz-adv-x="1271" 
d="M92 72l31 159q103 -42 243 -68t257 -26q71 0 126.5 13t88 36t54 47t30 52.5t11.5 45.5t3 34q0 93 -41.5 137.5t-157.5 83.5q-42 13 -113 33t-115.5 32.5t-106 35t-100.5 44t-82.5 55.5t-68 73t-41 94t-16.5 120q0 79 27 142.5t74.5 107.5t114 74t145 43.5t168.5 13.5
q243 0 497 -82l-33 -158q-252 89 -452 89q-86 0 -150.5 -19t-99.5 -51t-51.5 -68.5t-16.5 -77.5q0 -130 179 -206q57 -23 128 -46t123 -38t110.5 -35.5t100 -41t81.5 -52.5t64.5 -70.5t39 -94.5t14.5 -126q0 -102 -41.5 -179.5t-115.5 -124t-169 -70t-208 -23.5
q-135 0 -284.5 22.5t-246.5 69.5z" />
    <glyph glyph-name="afii10055" unicode="&#x406;" horiz-adv-x="866" 
d="M74 0v166h229v1102h-223v166h665v-166h-225v-1102h232v-166h-678z" />
    <glyph glyph-name="afii10056" unicode="&#x407;" horiz-adv-x="866" 
d="M74 0v166h229v1102h-223v166h665v-166h-225v-1102h232v-166h-678zM195 1597v281h149v-281h-149zM489 1597v281h150v-281h-150z" />
    <glyph glyph-name="afii10057" unicode="&#x408;" horiz-adv-x="985" 
d="M-33 37l35 176q96 -61 236 -61q80 0 139 19t93.5 49t55 75.5t27 89.5t6.5 100v949h217v-965q0 -88 -13 -157.5t-47.5 -133.5t-90.5 -106t-144.5 -67t-206.5 -25q-179 0 -307 57z" />
    <glyph glyph-name="afii10058" unicode="&#x409;" horiz-adv-x="2111" 
d="M6 172q31 -4 66 -2q144 6 203 317t59 947h903v-564q165 23 248 23q275 10 399.5 -101t124.5 -348q0 -233 -122.5 -338.5t-401.5 -105.5h-465v1249h-492q-2 -135 -6.5 -247t-16 -247t-29 -240.5t-48 -209.5t-70 -172.5t-97 -110.5t-128.5 -42q-46 0 -94 10zM1237 147h248
q150 0 225.5 65.5t75.5 233.5q0 154 -73 225.5t-222 71.5q-131 0 -254 -20v-576z" />
    <glyph glyph-name="afii10059" unicode="&#x40a;" horiz-adv-x="2187" 
d="M174 0v1434h217v-578h707v578h217v-564q161 23 248 23q274 10 398 -101t124 -348q0 -233 -122 -338.5t-400 -105.5h-465v690h-707v-690h-217zM1315 147h248q152 0 226.5 64.5t74.5 232.5q0 87 -20 146t-61 91.5t-93.5 46t-126.5 13.5q-119 0 -248 -18v-576z" />
    <glyph glyph-name="afii10060" unicode="&#x40b;" horiz-adv-x="1730" 
d="M41 1241v193h1044v-193h-413v-379q79 45 194.5 83t243.5 38q416 0 416 -373v-610h-217v580q0 112 -72.5 168.5t-192.5 56.5q-187 0 -372 -115v-690h-217v1241h-414z" />
    <glyph glyph-name="afii10061" unicode="&#x40c;" horiz-adv-x="1316" 
d="M174 0v1434h217v-629h27l596 629h264l-649 -658l655 -776h-254l-610 725h-29v-725h-217zM608 1556l70 369h192l-143 -369h-119z" />
    <glyph glyph-name="afii10062" unicode="&#x40e;" horiz-adv-x="1351" 
d="M55 1434h252l387 -983h6l342 983h224l-412 -1108q-72 -177 -170 -261.5t-229 -84.5q-90 0 -186.5 17t-155.5 38l43 160q134 -56 262 -56q73 0 122 38.5t87 127.5q-35 6 -80 38t-70 85zM313 1798v45h160q0 -101 47 -148t172 -46q67 0 111 12t68 38.5t33 60t9 83.5h160v-45
q0 -119 -98.5 -180.5t-282.5 -61.5q-178 0 -278.5 62t-100.5 180z" />
    <glyph glyph-name="afii10145" unicode="&#x40f;" horiz-adv-x="1558" 
d="M174 0v1434h217v-1256h735v1256h217v-1434h-475l-12 -365h-203v365h-479z" />
    <glyph glyph-name="afii10017" unicode="&#x410;" horiz-adv-x="1275" 
d="M2 0l483 1434h271l479 -1434h-229l-123 389h-529l-123 -389h-229zM391 537h457l-225 700z" />
    <glyph glyph-name="afii10018" unicode="&#x411;" horiz-adv-x="1265" 
d="M174 0v1434h854v-166h-637v-398h318q123 0 208.5 -28.5t136 -85.5t73 -135t22.5 -185q0 -64 -8 -116.5t-26 -103.5t-51.5 -89t-81 -67.5t-117 -44.5t-158.5 -15h-533zM391 154h266q137 0 207 63.5t70 218.5t-70 219t-207 64h-266v-565z" />
    <glyph glyph-name="afii10019" unicode="&#x412;" horiz-adv-x="1277" 
d="M174 0v1434h535q167 0 262.5 -82.5t95.5 -259.5q0 -119 -44.5 -196.5t-125.5 -107.5q240 -87 240 -372q0 -98 -21 -170.5t-69.5 -129.5t-137 -86.5t-215.5 -29.5h-520zM385 147h266q135 0 206 64.5t71 210.5q0 58 -16.5 104.5t-43.5 76t-64 49.5t-74.5 28t-78.5 8h-266
v-541zM385 836h281q35 0 66.5 11t61 36t47 73.5t17.5 116.5q0 98 -49.5 155.5t-142.5 57.5h-281v-450z" />
    <glyph glyph-name="afii10020" unicode="&#x413;" horiz-adv-x="1048" 
d="M174 0v1434h830v-189h-613v-1245h-217z" />
    <glyph glyph-name="afii10021" unicode="&#x414;" horiz-adv-x="1478" 
d="M6 166h119q41 56 73 140t52.5 167.5t35 198.5t21.5 200t10.5 208.5t4 185.5t0.5 168h901v-1268h163l-24 -576h-193v410h-946l-18 -410h-199v576zM334 166h672v1089h-484q-1 -87 -1.5 -112t-3 -117.5t-5.5 -134t-10 -129t-16 -137.5t-23.5 -125.5t-32 -127t-42 -107.5
t-54.5 -99z" />
    <glyph glyph-name="afii10022" unicode="&#x415;" horiz-adv-x="1171" 
d="M174 0v1434h887v-164h-670v-426h576v-154h-576v-526h670v-164h-887z" />
    <glyph glyph-name="afii10024" unicode="&#x416;" horiz-adv-x="1722" 
d="M10 0l502 774l-502 660h240l450 -629h33v629h217v-629h33l449 629h241l-504 -660l502 -774h-229l-461 741h-31v-741h-217v741h-33l-460 -741h-230z" />
    <glyph glyph-name="afii10025" unicode="&#x417;" horiz-adv-x="1218" 
d="M86 57l31 168q13 -3 64 -20t93 -29.5t108 -23.5t126 -11q176 0 267 57t91 199q0 56 -14 101t-36 75t-55 52.5t-66.5 35t-75.5 20t-76 9.5t-74 2h-147v142h198q121 0 196 58.5t75 172.5q0 225 -271 225q-171 0 -368 -71l-37 157q71 31 181.5 54.5t229.5 23.5
q120 0 205.5 -17t149 -56.5t94.5 -109t31 -171.5q0 -250 -226 -312q79 -21 132 -49t94.5 -73.5t61 -114.5t19.5 -166q0 -96 -27.5 -167.5t-75.5 -116.5t-122.5 -72.5t-159 -38t-194.5 -10.5q-124 0 -246 28t-176 49z" />
    <glyph glyph-name="afii10026" unicode="&#x418;" horiz-adv-x="1574" 
d="M174 0v1434h217v-1125l778 1125h191v-1434h-217v1124l-778 -1124h-191z" />
    <glyph glyph-name="afii10027" unicode="&#x419;" horiz-adv-x="1574" 
d="M174 0v1434h217v-1125l778 1125h191v-1434h-217v1124l-778 -1124h-191zM387 1798v45h160q0 -101 47 -148t172 -46q67 0 111 12t68 38.5t33 60t9 83.5h160v-45q0 -119 -98.5 -180.5t-282.5 -61.5q-178 0 -278.5 62t-100.5 180z" />
    <glyph glyph-name="afii10028" unicode="&#x41a;" horiz-adv-x="1292" 
d="M174 0v1434h217v-629h27l596 629h264l-649 -658l655 -776h-254l-610 725h-29v-725h-217z" />
    <glyph glyph-name="afii10029" unicode="&#x41b;" horiz-adv-x="1452" 
d="M6 172q31 -4 66 -2q144 6 203 317t59 947h903v-1434h-217v1249h-492q-2 -135 -6.5 -247t-16 -247t-29 -240.5t-48 -209.5t-70 -172.5t-97 -110.5t-128.5 -42q-46 0 -94 10z" />
    <glyph glyph-name="afii10030" unicode="&#x41c;" horiz-adv-x="1976" 
d="M150 0l120 1434h244l457 -1196l452 1196h246l121 -1434h-211l-88 1153l-430 -1153h-184l-428 1153l-89 -1153h-210z" />
    <glyph glyph-name="afii10031" unicode="&#x41d;" horiz-adv-x="1529" 
d="M174 0v1434h217v-578h707v578h217v-1434h-217v690h-707v-690h-217z" />
    <glyph glyph-name="afii10032" unicode="&#x41e;" horiz-adv-x="1515" 
d="M102 545v338q0 255 168 413t467 158t467 -158t168 -413v-338q0 -255 -167 -410t-468 -155t-468 155t-167 410zM330 563q0 -190 108 -304t299 -114q199 0 303.5 112.5t104.5 305.5v305q0 88 -26 163.5t-75.5 133t-128.5 90.5t-178 33q-184 0 -295.5 -117t-111.5 -303v-305
z" />
    <glyph glyph-name="afii10033" unicode="&#x41f;" horiz-adv-x="1558" 
d="M174 0v1434h1169v-1434h-217v1255h-735v-1255h-217z" />
    <glyph glyph-name="afii10034" unicode="&#x420;" horiz-adv-x="1290" 
d="M174 0v1434h465q139 0 233.5 -21.5t161 -74t97 -141t30.5 -220.5q0 -261 -124.5 -372t-397.5 -111h-248v-494h-217zM391 659h248q37 0 67 3t61.5 12t56.5 24t47.5 39t37 57t23 79.5t8.5 103.5q0 163 -75 227t-226 64h-248v-609z" />
    <glyph glyph-name="afii10035" unicode="&#x421;" horiz-adv-x="1146" 
d="M111 557v320q0 283 148 430t435 147q154 0 381 -78l-43 -178q-223 72 -338 72q-188 0 -275 -99.5t-87 -296.5v-317q0 -393 362 -393q121 0 344 72l37 -179q-224 -77 -381 -77q-287 0 -435 146.5t-148 430.5z" />
    <glyph glyph-name="afii10036" unicode="&#x422;" horiz-adv-x="1167" 
d="M41 1241v193h1044v-193h-413v-1241h-217v1241h-414z" />
    <glyph glyph-name="afii10037" unicode="&#x423;" horiz-adv-x="1329" 
d="M55 1434h252l387 -983h6l342 983h224l-412 -1108q-72 -177 -170 -261.5t-229 -84.5q-90 0 -186.5 17t-155.5 38l43 160q134 -56 262 -56q73 0 122 38.5t87 127.5q-35 6 -80 38t-70 85z" />
    <glyph glyph-name="afii10038" unicode="&#x424;" horiz-adv-x="1785" 
d="M92 698v117q0 263 137.5 391.5t413.5 128.5h121v166h217v-166h121q276 0 413.5 -128.5t137.5 -391.5v-117q0 -518 -551 -518h-121v-180h-217v180h-121q-551 0 -551 518zM313 684q0 -181 80 -265.5t250 -84.5h121v846h-121q-171 0 -250.5 -85.5t-79.5 -265.5v-145z
M981 334h121q170 0 250 84.5t80 265.5v145q0 179 -80 266t-250 87h-121v-848z" />
    <glyph glyph-name="afii10039" unicode="&#x425;" horiz-adv-x="1314" 
d="M10 0l463 717l-463 717h269l364 -607l361 607h260l-463 -717l463 -717h-269l-362 602l-363 -602h-260z" />
    <glyph glyph-name="afii10040" unicode="&#x426;" horiz-adv-x="1533" 
d="M174 0v1434h217v-1268h688v1268h217v-1268h168l-18 -531h-203v365h-1069z" />
    <glyph glyph-name="afii10041" unicode="&#x427;" horiz-adv-x="1343" 
d="M133 889v545h217v-533q0 -134 61.5 -182.5t194.5 -48.5q190 0 305 12v752h217v-1434h-217v508q-153 -14 -315 -14q-57 0 -106.5 6t-105 20.5t-98.5 43t-78.5 70.5t-55 107t-19.5 148z" />
    <glyph glyph-name="afii10042" unicode="&#x428;" horiz-adv-x="1957" 
d="M174 0v1434h217v-1268h459v1268h217v-1268h459v1268h217v-1434h-1569z" />
    <glyph glyph-name="afii10043" unicode="&#x429;" horiz-adv-x="2009" 
d="M174 0v1434h217v-1268h459v1268h217v-1268h459v1268h217v-1268h164l-19 -531h-198v365h-1516z" />
    <glyph glyph-name="afii10044" unicode="&#x42a;" horiz-adv-x="1392" 
d="M27 1276l18 158h475v-564q161 23 248 23q273 10 397.5 -101.5t124.5 -347.5q0 -233 -122 -338.5t-400 -105.5h-465v1276h-276zM520 147h248q74 0 126.5 13.5t93 46t60 91.5t19.5 146t-20 146t-60.5 91.5t-92.5 46t-126 13.5q-119 0 -248 -18v-576z" />
    <glyph glyph-name="afii10045" unicode="&#x42b;" horiz-adv-x="1785" 
d="M174 0v1434h217v-564q161 23 248 23q274 10 398 -101t124 -348q0 -233 -122 -338.5t-400 -105.5h-465zM391 147h248q152 0 226.5 64.5t74.5 232.5q0 87 -20 146t-61 91.5t-93.5 46t-126.5 13.5q-119 0 -248 -18v-576zM1354 0v1434h217v-1434h-217z" />
    <glyph glyph-name="afii10046" unicode="&#x42c;" horiz-adv-x="1263" 
d="M174 0v1434h217v-564q161 23 248 23q274 10 398 -101t124 -348q0 -233 -122 -338.5t-400 -105.5h-465zM391 147h248q152 0 226.5 64.5t74.5 232.5q0 87 -20 146t-61 91.5t-93.5 46t-126.5 13.5q-119 0 -248 -18v-576z" />
    <glyph glyph-name="afii10047" unicode="&#x42d;" horiz-adv-x="1222" 
d="M80 57l41 166q191 -71 375 -71q88 0 154 27.5t105 71.5t62.5 109.5t32 131t8.5 147.5v45h-549v141h549v29q0 213 -88 323.5t-258 110.5q-81 0 -195 -23t-196 -55l-41 166q64 28 180.5 53t235.5 25q134 0 239 -32.5t183 -100.5t119.5 -180t41.5 -264v-320
q0 -280 -155 -428.5t-428 -148.5q-120 0 -234 22.5t-182 54.5z" />
    <glyph glyph-name="afii10048" unicode="&#x42e;" horiz-adv-x="1988" 
d="M174 0v1434h217v-611h268v117q0 231 160 372.5t432 141.5q276 0 435 -146.5t159 -398.5v-399q0 -251 -158 -390.5t-436 -139.5q-275 0 -433.5 135.5t-158.5 369.5v191h-268v-676h-217zM874 492q0 -152 105 -252.5t272 -100.5q168 0 273.5 100t105.5 253v450
q0 153 -105.5 252.5t-273.5 99.5q-162 0 -269.5 -100.5t-107.5 -251.5v-450z" />
    <glyph glyph-name="afii10049" unicode="&#x42f;" horiz-adv-x="1441" 
d="M145 991q0 210 129 326.5t400 116.5h553v-1434h-217v541h-271l-336 -541h-245l368 557q-190 15 -285.5 130t-95.5 304zM373 977q0 -154 76 -218.5t225 -64.5h336v568h-336q-150 0 -225.5 -64.5t-75.5 -220.5z" />
    <glyph glyph-name="afii10065" unicode="&#x430;" horiz-adv-x="1150" 
d="M96 272q0 147 92.5 221t288.5 74h291v135q0 108 -42.5 153.5t-160.5 45.5q-145 0 -375 -53l-18 137q7 1 48.5 10t77.5 16t87.5 15.5t106 13t104.5 4.5q189 0 283 -85.5t94 -284.5v-674h-205v76q-54 -39 -137.5 -69t-181.5 -30q-179 0 -266 73t-87 222zM301 281
q0 -95 52.5 -139t168.5 -44q58 0 129.5 22.5t116.5 51.5v291h-246q-115 0 -168 -45t-53 -137z" />
    <glyph glyph-name="afii10066" unicode="&#x431;" horiz-adv-x="1247" 
d="M125 444v512q0 200 84.5 318t247.5 147l377 64q20 3 41.5 9t36.5 11t38 14.5t32 14t33.5 16t28.5 13.5l60 -174q-30 -19 -84.5 -39.5t-93.5 -26.5l-385 -61q-72 -11 -124 -56t-77 -106t-27 -133l-2 -248q25 102 129 179t248 77q97 0 174 -23t136 -70.5t90.5 -128.5
t31.5 -190v-153q0 -199 -124.5 -316t-372.5 -117q-249 0 -373.5 122.5t-124.5 344.5zM334 414q0 -135 76 -213t213 -78q134 0 211 79.5t77 211.5v141q0 130 -77 208.5t-211 78.5q-132 0 -210.5 -97.5t-78.5 -234.5v-96z" />
    <glyph glyph-name="afii10067" unicode="&#x432;" horiz-adv-x="1134" 
d="M145 0v1024h494q152 0 227.5 -54.5t75.5 -187.5q0 -155 -139 -217q223 -33 223 -266q0 -88 -25.5 -147.5t-77.5 -92t-119.5 -46t-164.5 -13.5h-494zM338 115h254q124 0 180.5 43t56.5 147q0 88 -58 131t-183 43h-250v-364zM338 586h246q161 0 161 172q0 71 -39.5 112
t-121.5 41h-246v-325z" />
    <glyph glyph-name="afii10068" unicode="&#x433;" horiz-adv-x="886" 
d="M145 0v1024h680v-162h-475v-862h-205z" />
    <glyph glyph-name="afii10069" unicode="&#x434;" horiz-adv-x="1243" 
d="M8 141h98q49 51 83 139t50.5 170t25.5 204.5t10 189.5t1 180h750v-883h123l-16 -469h-177v328h-755l-17 -328h-176v469zM313 141h508v754h-354q0 -113 -4 -192.5t-18 -185t-47 -200t-85 -176.5z" />
    <glyph glyph-name="afii10070" unicode="&#x435;" horiz-adv-x="1122" 
d="M84 381v197q0 466 465 466q213 0 336 -100t123 -309v-176h-713v-88q0 -142 76.5 -201t224.5 -59q149 0 367 69l22 -131q-220 -69 -407 -69q-87 0 -158 11.5t-135 40t-107 73.5t-68.5 115t-25.5 161zM295 559h518v96q0 269 -262 269q-256 0 -256 -297v-68z" />
    <glyph glyph-name="afii10072" unicode="&#x436;" horiz-adv-x="1515" 
d="M29 0l413 532l-411 492h217l375 -469h22v469h199v-469h20l371 469h221l-405 -492l403 -532h-219l-371 510h-20v-510h-199v510h-22l-379 -510h-215z" />
    <glyph glyph-name="afii10073" unicode="&#x437;" horiz-adv-x="1044" 
d="M78 55l35 125q194 -67 315 -67q144 0 216.5 51t72.5 145q0 97 -74.5 143t-202.5 46h-207v116h195q215 0 215 152q0 69 -58.5 107t-170.5 38q-113 0 -291 -65l-33 127q171 71 377 71q95 0 161.5 -11t119 -37.5t78.5 -75.5t26 -121q0 -150 -176 -203q54 -15 93 -33
t79.5 -50t62 -83.5t21.5 -120.5q0 -77 -24 -134.5t-65 -94t-102 -59t-127 -31t-149 -8.5q-190 0 -387 73z" />
    <glyph glyph-name="afii10074" unicode="&#x438;" horiz-adv-x="1288" 
d="M145 0v1024h205v-782l568 782h184v-1024h-205v780l-567 -780h-185z" />
    <glyph glyph-name="afii10075" unicode="&#x439;" horiz-adv-x="1288" 
d="M145 0v1024h205v-782l568 782h184v-1024h-205v780l-567 -780h-185zM272 1450v27h156q0 -108 44.5 -154.5t150.5 -46.5t150 46.5t44 154.5h156v-27q0 -268 -350 -268q-351 0 -351 268z" />
    <glyph glyph-name="afii10076" unicode="&#x43a;" horiz-adv-x="1105" 
d="M145 0v1024h205v-451h8l445 451h260l-514 -489l514 -535h-248l-457 494h-8v-494h-205z" />
    <glyph glyph-name="afii10077" unicode="&#x43b;" horiz-adv-x="1222" 
d="M2 158q40 -6 68 -6q52 0 91.5 50.5t64 132t40 197.5t21.5 235t6 257h743v-1024h-205v889h-362q0 -78 -1 -134.5t-4.5 -136t-10.5 -137.5t-20 -128t-31 -119.5t-45 -99t-61 -80t-80.5 -49.5t-102.5 -19q-46 0 -90 14z" />
    <glyph glyph-name="afii10078" unicode="&#x43c;" horiz-adv-x="1622" 
d="M115 0l94 1024h231l353 -877l350 877h231l94 -1024h-186l-68 825l-340 -825h-178l-327 825l-66 -825h-188z" />
    <glyph glyph-name="afii10079" unicode="&#x43d;" horiz-adv-x="1273" 
d="M145 0v1024h205v-420h533v420h204v-1024h-204v469h-533v-469h-205z" />
    <glyph glyph-name="afii10080" unicode="&#x43e;" horiz-adv-x="1200" 
d="M84 403v215q0 199 129.5 312.5t364.5 113.5q234 0 365.5 -113.5t131.5 -312.5v-215q0 -198 -131.5 -310.5t-365.5 -112.5q-235 0 -364.5 112t-129.5 311zM289 408q0 -135 75.5 -218.5t213.5 -83.5t213 84t75 218v208q0 133 -75 216t-213 83q-134 0 -211.5 -78.5
t-77.5 -205.5v-223z" />
    <glyph glyph-name="afii10081" unicode="&#x43f;" horiz-adv-x="1259" 
d="M145 0v1024h928v-1024h-205v883h-518v-883h-205z" />
    <glyph glyph-name="afii10082" unicode="&#x440;" horiz-adv-x="1220" 
d="M147 -410v1434h205v-76q159 101 318 101q428 0 428 -537q0 -266 -103 -396t-325 -130q-25 0 -48.5 1.5t-46.5 6t-40 8t-39 11.5t-33.5 11.5t-33.5 14t-27.5 12.5t-27 13.5t-22.5 11.5v-486h-205zM352 199q137 -72 248 -72q289 4 289 385q0 114 -25 193.5t-70 119.5
t-94.5 56t-111.5 16q-125 0 -236 -72v-626z" />
    <glyph glyph-name="afii10083" unicode="&#x441;" horiz-adv-x="995" 
d="M84 432v158q0 212 133 333t358 121q77 0 172 -20t168 -53l-32 -140q-169 72 -275 72q-307 0 -307 -325v-134q0 -325 307 -325q46 0 99 12.5t79.5 22.5t98.5 39l30 -140q-180 -73 -340 -73q-227 0 -359 116t-132 336z" />
    <glyph glyph-name="afii10084" unicode="&#x442;" horiz-adv-x="1024" 
d="M39 862v162h905v-162h-348v-862h-205v862h-352z" />
    <glyph glyph-name="afii10085" unicode="&#x443;" horiz-adv-x="1153" 
d="M20 1024h238l338 -899l272 899h222l-347 -1014q-95 -228 -139 -307q-49 -81 -117 -127.5t-174 -46.5q-135 0 -264 55l39 142q123 -45 201 -45q65 0 104.5 26t71.5 100l80 193q-43 3 -88.5 37t-63.5 86z" />
    <glyph glyph-name="afii10086" unicode="&#x444;" horiz-adv-x="1685" 
d="M82 526q0 120 25 213.5t77.5 162.5t138 105.5t201.5 36.5q78 0 197 -45v496h205v-496q98 45 196 45q228 0 334.5 -135.5t106.5 -382.5q0 -258 -107.5 -402t-333.5 -144q-53 0 -108.5 14.5t-87.5 30.5v-435h-205v435q-93 -45 -197 -45q-228 0 -335 143t-107 403zM293 526
q0 -411 293 -411q14 0 26.5 1t24.5 3.5t19.5 4.5t19.5 6.5l16 6t16 7t13 6.5v722q-4 2 -17.5 8t-19 8.5t-19 7.5t-23.5 7t-25 4t-31 2q-147 0 -220 -102.5t-73 -280.5zM926 150q62 -35 133 -35q295 0 295 411q0 181 -75.5 282t-219.5 101q-67 0 -133 -37v-722z" />
    <glyph glyph-name="afii10087" unicode="&#x445;" horiz-adv-x="1105" 
d="M29 0l354 518l-354 506h235l285 -434l268 434h227l-352 -506l352 -518h-235l-281 434l-270 -434h-229z" />
    <glyph glyph-name="afii10088" unicode="&#x446;" horiz-adv-x="1259" 
d="M145 0v1024h205v-883h492v883h205v-883h122l-20 -469h-184v328h-820z" />
    <glyph glyph-name="afii10089" unicode="&#x447;" horiz-adv-x="1171" 
d="M102 729v295h205v-326q0 -126 47.5 -178.5t177.5 -52.5q87 0 246 27v530h205v-1024h-205v354q-177 -28 -295 -28q-197 0 -289 93.5t-92 309.5z" />
    <glyph glyph-name="afii10090" unicode="&#x448;" horiz-adv-x="1708" 
d="M145 0v1024h199v-883h393v883h193v-883h393v883h199v-1024h-1377z" />
    <glyph glyph-name="afii10091" unicode="&#x449;" horiz-adv-x="1777" 
d="M145 0v1024h199v-883h434v883h193v-883h393v883h199v-883h123l-19 -469h-186v328h-1336z" />
    <glyph glyph-name="afii10092" unicode="&#x44a;" horiz-adv-x="1206" 
d="M29 891l12 133h453v-371l219 2q103 2 175 -11t127 -48.5t82 -100.5t27 -161q0 -81 -20.5 -140t-56 -96t-91.5 -59t-118 -30.5t-144 -8.5h-405v891h-260zM494 125h213q118 0 163 48.5t45 160.5q0 96 -46.5 147t-166.5 51h-208v-407z" />
    <glyph glyph-name="afii10093" unicode="&#x44b;" horiz-adv-x="1548" 
d="M145 0v1024h205v-371l217 2q103 2 176 -11t128.5 -48.5t82.5 -100.5t27 -161q0 -81 -20.5 -140t-56.5 -96t-92 -59t-118.5 -30.5t-144.5 -8.5h-404zM350 125h213q117 0 163 48.5t46 160.5q0 96 -46.5 147t-166.5 51h-209v-407zM1153 0v1024h209v-1024h-209z" />
    <glyph glyph-name="afii10094" unicode="&#x44c;" horiz-adv-x="1052" 
d="M145 0v1024h205v-371l217 2q103 2 176 -11t128.5 -48.5t82.5 -100.5t27 -161q0 -81 -20.5 -140t-56.5 -96t-92 -59t-118.5 -30.5t-144.5 -8.5h-404zM350 125h213q117 0 163 48.5t46 160.5q0 96 -46.5 147t-166.5 51h-209v-407z" />
    <glyph glyph-name="afii10095" unicode="&#x44d;" horiz-adv-x="1042" 
d="M70 57l32 127q188 -71 304 -71q149 0 225 78t76 221v57h-478v117h478v22q0 146 -74 224.5t-219 78.5q-135 0 -303 -73l-35 129q175 77 356 77q227 0 356.5 -116t129.5 -338v-158q0 -221 -129.5 -336.5t-356.5 -115.5q-184 0 -362 77z" />
    <glyph glyph-name="afii10096" unicode="&#x44e;" horiz-adv-x="1685" 
d="M145 0v1024h193v-440h237v69q0 184 137.5 287.5t356.5 103.5q227 0 360.5 -112.5t133.5 -319.5v-202q0 -207 -133 -318.5t-361 -111.5q-140 0 -250 48t-175.5 146t-65.5 232v49h-240v-455h-193zM782 397q0 -127 76.5 -205.5t210.5 -78.5q131 0 208 78.5t77 205.5v217
q0 135 -74.5 215t-210.5 80q-133 0 -210 -80.5t-77 -214.5v-217z" />
    <glyph glyph-name="afii10097" unicode="&#x44f;" horiz-adv-x="1224" 
d="M94 0l324 375q-72 2 -125.5 16t-99.5 46.5t-70.5 94t-24.5 150.5q0 348 412 342h530v-1024h-204v362h-215l-291 -362h-236zM315 682q0 -105 54 -152t178 -47h289v414h-289q-122 0 -177 -53.5t-55 -161.5z" />
    <glyph glyph-name="afii10071" unicode="&#x451;" horiz-adv-x="1122" 
d="M84 381v197q0 466 465 466q213 0 336 -100t123 -309v-176h-713v-88q0 -142 76.5 -201t224.5 -59q149 0 367 69l22 -131q-220 -69 -407 -69q-87 0 -158 11.5t-135 40t-107 73.5t-68.5 115t-25.5 161zM295 559h518v96q0 269 -262 269q-256 0 -256 -297v-68zM319 1188v280
h150v-280h-150zM614 1188v280h150v-280h-150z" />
    <glyph glyph-name="afii10099" unicode="&#x452;" horiz-adv-x="1265" 
d="M12 1155v152h133v127h205v-127h309v-152h-309v-237q58 47 150.5 86.5t210.5 39.5q72 0 123 -7t99 -28.5t77.5 -59t47 -100t17.5 -149.5v-770q0 -340 -330 -340q-82 0 -231 41l18 127q108 -32 168 -32q170 0 170 204v742q0 120 -50.5 172.5t-178.5 52.5
q-75 0 -157.5 -35.5t-133.5 -79.5v-782h-205v1155h-133z" />
    <glyph glyph-name="afii10100" unicode="&#x453;" horiz-adv-x="886" 
d="M145 0v1024h680v-162h-475v-862h-205zM410 1147l69 369h193l-144 -369h-118z" />
    <glyph glyph-name="afii10101" unicode="&#x454;" horiz-adv-x="993" 
d="M84 432v158q0 222 129 338t356 116q182 0 357 -77l-35 -129q-168 73 -303 73q-145 0 -219 -78.5t-74 -224.5v-22h477v-117h-477v-57q0 -143 76 -221t225 -78q115 0 303 71l33 -127q-178 -77 -363 -77q-226 0 -355.5 115.5t-129.5 336.5z" />
    <glyph glyph-name="afii10102" unicode="&#x455;" horiz-adv-x="1034" 
d="M96 45l19 123q89 -22 136 -33t130 -23.5t147 -11.5q65 0 112 11t71 25t37 36.5t15.5 37t2.5 34.5q0 93 -109 137q-46 17 -117.5 35t-127 29.5t-117 36t-102 55.5t-67 86.5t-26.5 130.5q0 78 33.5 135t95 90.5t140.5 49t178 15.5q178 0 387 -63l-29 -121
q-100 31 -181 47.5t-179 16.5q-67 0 -116.5 -16.5t-75 -43.5t-37 -54.5t-11.5 -55.5q0 -45 26.5 -77.5t71.5 -47.5q46 -14 122 -31t130 -28.5t118 -36.5t104 -57t67 -87t27 -129q0 -70 -21.5 -120.5t-57 -81t-92 -48.5t-116 -24t-139.5 -6q-219 0 -449 65z" />
    <glyph glyph-name="afii10103" unicode="&#x456;" horiz-adv-x="538" 
d="M145 0v1024h205v-1024h-205zM145 1194v240h205v-240h-205z" />
    <glyph glyph-name="afii10104" unicode="&#x457;" horiz-adv-x="534" 
d="M31 1194v270h157v-270h-157zM143 0v1024h205v-1024h-205zM303 1194v270h160v-270h-160z" />
    <glyph glyph-name="afii10105" unicode="&#x458;" horiz-adv-x="550" 
d="M-195 -369l17 127q108 -32 170 -32q168 0 168 204v1094h205v-1094q0 -340 -330 -340q-92 0 -230 41zM160 1194v240h205v-240h-205z" />
    <glyph glyph-name="afii10106" unicode="&#x459;" horiz-adv-x="1738" 
d="M2 158q40 -6 68 -6q52 0 91.5 50.5t64 132t40 197.5t21.5 235t6 257h743v-371l217 2q103 2 176 -11t128.5 -48.5t82.5 -100.5t27 -161q0 -81 -20.5 -140t-56.5 -96t-92 -59t-118.5 -30.5t-144.5 -8.5h-404v889h-362q0 -78 -1 -134.5t-4.5 -136t-10.5 -137.5t-20 -128
t-31 -119.5t-45 -99t-61 -80t-80.5 -49.5t-102.5 -19q-46 0 -90 14zM1036 125h213q117 0 163 48.5t46 160.5q0 96 -46.5 147t-166.5 51h-209v-407z" />
    <glyph glyph-name="afii10107" unicode="&#x45a;" horiz-adv-x="1789" 
d="M145 0v1024h205v-391h533v391h204v-371l218 2q103 2 176 -11t128 -48.5t82 -100t27 -161.5q0 -81 -20.5 -140t-56.5 -96t-92 -59t-118.5 -30.5t-144.5 -8.5h-403v492h-533v-492h-205zM1087 125h213q117 0 163 48.5t46 160.5q0 96 -46.5 147t-166.5 51h-209v-407z" />
    <glyph glyph-name="afii10108" unicode="&#x45b;" horiz-adv-x="1261" 
d="M12 1155v152h133v127h205v-127h309v-152h-309v-237q58 47 150.5 86.5t210.5 39.5q72 0 123 -7t99 -28.5t77.5 -59t47 -100t17.5 -149.5v-700h-205v672q0 120 -50.5 172.5t-178.5 52.5q-75 0 -157.5 -35.5t-133.5 -79.5v-782h-205v1155h-133z" />
    <glyph glyph-name="afii10109" unicode="&#x45c;" horiz-adv-x="1105" 
d="M145 0v1024h205v-451h8l445 451h260l-514 -489l514 -535h-248l-457 494h-8v-494h-205zM504 1147l69 369h193l-143 -369h-119z" />
    <glyph glyph-name="afii10110" unicode="&#x45e;" horiz-adv-x="1153" 
d="M20 1024h238l338 -899l272 899h222l-347 -1014q-95 -228 -139 -307q-49 -81 -117 -127.5t-174 -46.5q-135 0 -264 55l39 142q123 -45 201 -45q65 0 104.5 26t71.5 100l80 193q-43 3 -88.5 37t-63.5 86zM231 1450v27h156q0 -108 44.5 -154.5t150.5 -46.5t150 46.5
t44 154.5h156v-27q0 -268 -350 -268q-351 0 -351 268z" />
    <glyph glyph-name="afii10193" unicode="&#x45f;" horiz-adv-x="1259" 
d="M145 0v1024h205v-883h518v883h205v-1024h-358l-15 -365h-202v365h-353z" />
    <glyph glyph-name="afii10147" unicode="&#x472;" horiz-adv-x="1515" 
d="M102 545v338q0 255 168 413t467 158t467 -158t168 -413v-338q0 -255 -167 -410t-468 -155t-468 155t-167 410zM330 563q0 -190 108 -304t299 -114q199 0 303.5 112.5t104.5 305.5v82h-815v-82zM330 795h815v73q0 88 -26 163.5t-75.5 133t-128.5 90.5t-178 33
q-184 0 -295.5 -117t-111.5 -303v-73z" />
    <glyph glyph-name="afii10195" unicode="&#x473;" horiz-adv-x="1200" 
d="M84 403v215q0 199 129.5 312.5t364.5 113.5q234 0 365.5 -113.5t131.5 -312.5v-215q0 -198 -131.5 -310.5t-365.5 -112.5q-235 0 -364.5 112t-129.5 311zM289 408q0 -135 75.5 -218.5t213.5 -83.5t213 84t75 218v51h-577v-51zM289 578h577v38q0 133 -75 216t-213 83
q-134 0 -211.5 -78.5t-77.5 -205.5v-53z" />
    <glyph glyph-name="afii10050" unicode="&#x490;" horiz-adv-x="1093" 
d="M174 0v1434h690l13 303h165v-492h-651v-1245h-217z" />
    <glyph glyph-name="afii10098" unicode="&#x491;" horiz-adv-x="886" 
d="M145 0v1024h521l12 299h147v-461h-475v-862h-205z" />
    <glyph glyph-name="uni0492" unicode="&#x492;" horiz-adv-x="1044" 
d="M49 653v125h137v656h830v-189h-613v-467h414v-125h-414v-653h-217v653h-137z" />
    <glyph glyph-name="uni0493" unicode="&#x493;" horiz-adv-x="892" 
d="M49 432v119h103v473h679v-162h-475v-311h332v-119h-332v-432h-204v432h-103z" />
    <glyph glyph-name="uni0496" unicode="&#x496;" horiz-adv-x="1792" 
d="M31 0l501 774l-501 660h239l451 -629h33v629h217v-629h33l448 629h242l-504 -660l393 -608h170l-18 -531h-197v365h-76l-461 741h-30v-741h-217v741h-33l-461 -741h-229z" />
    <glyph glyph-name="uni0497" unicode="&#x497;" horiz-adv-x="1548" 
d="M23 0l413 532l-411 492h217l374 -469h23v469h199v-469h20l371 469h221l-406 -492l295 -391h154l-20 -469h-179v328h-65l-371 510h-20v-510h-199v510h-23l-378 -510h-215z" />
    <glyph glyph-name="uni0498" unicode="&#x498;" horiz-adv-x="1239" 
d="M106 57l31 168q13 -3 64 -20t93 -29.5t108 -23.5t126 -11q86 0 149 12.5t112 41t73.5 79t24.5 123.5q0 65 -17.5 115t-50 81t-69.5 52t-85.5 30.5t-88 13t-87.5 3.5h-147v142h199q121 0 195.5 58.5t74.5 172.5q0 112 -65.5 168.5t-204.5 56.5q-172 0 -369 -71l-37 157
q71 31 182 54.5t230 23.5q120 0 205 -17t148.5 -56.5t94.5 -109t31 -171.5q0 -250 -225 -312q79 -21 132 -49t94.5 -73.5t61 -114.5t19.5 -166q0 -107 -32 -183t-95.5 -121t-145.5 -68t-194 -29q55 -105 55 -215q0 -88 -43.5 -133.5t-138.5 -45.5q-98 0 -190 27l18 115
q97 -21 133 -21q40 0 60 21t20 73q0 78 -41 175q-121 3 -241.5 30.5t-166.5 46.5z" />
    <glyph glyph-name="uni0499" unicode="&#x499;" horiz-adv-x="1046" 
d="M80 55l35 125q194 -67 315 -67q144 0 216.5 51t72.5 145q0 97 -74.5 143t-202.5 46h-206v116h194q215 0 215 152q0 69 -58.5 107t-170.5 38q-113 0 -291 -65l-33 127q171 71 377 71q95 0 161.5 -11t119 -37.5t78.5 -75.5t26 -121q0 -150 -176 -203q54 -15 93 -33
t79.5 -50t62 -83.5t21.5 -120.5q0 -87 -29.5 -149.5t-85.5 -99t-125 -54t-159 -22.5q57 -105 57 -215q0 -88 -43.5 -133.5t-138.5 -45.5q-99 0 -191 27l19 115q97 -21 133 -21q40 0 60 21t20 73q0 74 -43 179q-77 5 -155.5 21.5t-115 28.5t-57.5 21z" />
    <glyph glyph-name="uni049A" unicode="&#x49a;" horiz-adv-x="1345" 
d="M174 0v1434h217v-629h27l596 629h264l-649 -658l514 -610h174l-19 -531h-196v365h-72l-610 725h-29v-725h-217z" />
    <glyph glyph-name="uni049B" unicode="&#x49b;" horiz-adv-x="1128" 
d="M145 0v1024h205v-451h8l445 451h260l-514 -489l377 -394h159l-20 -469h-178v328h-72l-457 494h-8v-494h-205z" />
    <glyph glyph-name="uni049C" unicode="&#x49c;" horiz-adv-x="1396" 
d="M174 0v1434h217v-598h139v352h109v-352h80l399 598h264l-456 -660l463 -774h-254l-416 694h-80v-448h-109v448h-139v-694h-217z" />
    <glyph glyph-name="uni049D" unicode="&#x49d;" horiz-adv-x="1222" 
d="M145 0v1024h205v-444h115v227h96v-227h90l291 444h238l-340 -485l340 -539h-232l-299 487h-88v-270h-96v270h-115v-487h-205z" />
    <glyph glyph-name="uni04A0" unicode="&#x4a0;" horiz-adv-x="1384" 
d="M-10 1276l18 158h475v-629h27l596 629h264l-649 -658l655 -776h-254l-610 725h-29v-725h-217v1276h-276z" />
    <glyph glyph-name="uni04A1" unicode="&#x4a1;" horiz-adv-x="1222" 
d="M6 891l19 133h446v-451h8l445 451h260l-514 -489l514 -535h-248l-457 494h-8v-494h-205v891h-260z" />
    <glyph glyph-name="uni04A2" unicode="&#x4a2;" horiz-adv-x="1556" 
d="M174 0v1434h217v-578h707v578h217v-1268h96l-18 -531h-203v365h-92v690h-707v-690h-217z" />
    <glyph glyph-name="uni04A3" unicode="&#x4a3;" horiz-adv-x="1316" 
d="M145 0v1024h205v-420h533v420h204v-883h80l-20 -469h-176v328h-88v469h-533v-469h-205z" />
    <glyph glyph-name="uni04AA" unicode="&#x4aa;" horiz-adv-x="1146" 
d="M111 557v320q0 283 148 430t435 147q154 0 381 -78l-43 -178q-223 72 -338 72q-188 0 -275 -99.5t-87 -296.5v-317q0 -393 362 -393q121 0 344 72l37 -179q-192 -68 -348 -75q53 -97 53 -213q0 -179 -180 -179q-100 0 -192 27l18 115q102 -21 133 -21q41 0 60.5 21
t19.5 73q0 70 -41 179q-241 23 -364 168t-123 405z" />
    <glyph glyph-name="uni04AB" unicode="&#x4ab;" horiz-adv-x="987" 
d="M96 432v158q0 212 133.5 333t358.5 121q77 0 172 -20t168 -53l-33 -140q-169 72 -274 72q-154 0 -231 -82.5t-77 -242.5v-134q0 -160 77.5 -242.5t230.5 -82.5q14 0 29.5 1.5t27 2.5t28.5 5t25.5 5.5t28 8l25.5 8.5t28.5 10.5t26 10t29 11.5t28.5 11l31 -140
q-145 -58 -295 -71q55 -101 55 -213q0 -179 -180 -179q-101 0 -193 27l19 115q102 -21 133 -21q41 0 60.5 21t19.5 73q0 79 -41 179q-191 19 -300.5 134t-109.5 314z" />
    <glyph glyph-name="uni04AE" unicode="&#x4ae;" horiz-adv-x="1234" 
d="M-8 1434h246l364 -713l365 713h239l-497 -899v-535h-217v535z" />
    <glyph glyph-name="uni04AF" unicode="&#x4af;" horiz-adv-x="1087" 
d="M20 1024h213l295 -836h9l286 836h213l-401 -1036v-428h-205v428z" />
    <glyph glyph-name="uni04B0" unicode="&#x4b0;" horiz-adv-x="1306" 
d="M29 1434h245l365 -713l365 713h239l-475 -859h276v-143h-299v-432h-217v432h-297v143h275z" />
    <glyph glyph-name="uni04B1" unicode="&#x4b1;" horiz-adv-x="1136" 
d="M45 1024h213l295 -836h8l287 836h213l-332 -858h234v-166h-299l-5 -12v-428h-204v428l-6 12h-299v166h233z" />
    <glyph glyph-name="uni04B2" unicode="&#x4b2;" horiz-adv-x="1398" 
d="M29 0l463 717l-463 717h268l365 -607l360 607h260l-463 -717l355 -551h149l-20 -531h-197v365h-92l-363 602l-362 -602h-260z" />
    <glyph glyph-name="uni04B3" unicode="&#x4b3;" horiz-adv-x="1163" 
d="M43 0l354 518l-354 506h236l284 -434l268 434h228l-352 -506l256 -377h127l-21 -469h-178v328h-68l-280 434l-271 -434h-229z" />
    <glyph glyph-name="uni04B8" unicode="&#x4b8;" horiz-adv-x="1396" 
d="M143 936v498h217v-486q0 -134 61.5 -182.5t194.5 -48.5h7v471h110v-471q171 4 232 12v705h217v-1434h-217v555q-135 -12 -232 -14v-295h-110v295h-17q-57 0 -106.5 6t-105 20.5t-98.5 43t-78.5 70.5t-55 107t-19.5 148z" />
    <glyph glyph-name="uni04B9" unicode="&#x4b9;" horiz-adv-x="1198" 
d="M92 797v227h205v-266q0 -121 47.5 -176.5t149.5 -55.5h18v281h98v-277q115 6 195 23v471h205v-1024h-205v422q-142 -19 -195 -23v-182h-98v174h-68q-177 0 -264.5 96t-87.5 310z" />
    <glyph glyph-name="uni04BA" unicode="&#x4ba;" horiz-adv-x="1449" 
d="M174 0v1434h217v-510q78 44 193.5 82t244.5 38q416 0 416 -372v-672h-217v641q0 112 -72 168.5t-192 56.5q-190 0 -373 -114v-752h-217z" />
    <glyph glyph-name="uni04BB" unicode="&#x4bb;" horiz-adv-x="1263" 
d="M145 0v1495h205v-577q58 47 150.5 86.5t210.5 39.5q72 0 123 -7t99 -28.5t77.5 -59t47 -100t17.5 -149.5v-700h-205v672q0 120 -50.5 172.5t-178.5 52.5q-75 0 -157.5 -35.5t-133.5 -79.5v-782h-205z" />
    <glyph glyph-name="uni04D8" unicode="&#x4d8;" horiz-adv-x="1458" 
d="M98 545v280h996v54q0 205 -91.5 307t-287.5 102q-234 0 -498 -78l-35 166q309 78 527 78q300 0 453 -154t153 -430v-313q0 -121 -38 -225t-111.5 -183t-191 -124t-267.5 -45q-149 0 -267 45t-192 123t-112 179t-38 218zM326 543q0 -189 102.5 -295.5t282.5 -106.5
q187 0 285 105.5t98 296.5v141h-768v-141z" />
    <glyph glyph-name="afii10846" unicode="&#x4d9;" horiz-adv-x="1142" 
d="M94 389v176h715v88q0 141 -77 200.5t-224 59.5q-149 0 -367 -69l-22 131q220 69 407 69q492 0 492 -401v-199q0 -464 -463 -464q-214 0 -337.5 99.5t-123.5 309.5zM291 369q0 -269 260 -269q131 0 194.5 73.5t63.5 223.5v68h-518v-96z" />
    <glyph glyph-name="uni2000" unicode="&#x2000;" horiz-adv-x="962" 
 />
    <glyph glyph-name="uni2001" unicode="&#x2001;" horiz-adv-x="1925" 
 />
    <glyph glyph-name="uni2002" unicode="&#x2002;" horiz-adv-x="962" 
 />
    <glyph glyph-name="uni2003" unicode="&#x2003;" horiz-adv-x="1925" 
 />
    <glyph glyph-name="uni2004" unicode="&#x2004;" horiz-adv-x="641" 
 />
    <glyph glyph-name="uni2005" unicode="&#x2005;" horiz-adv-x="481" 
 />
    <glyph glyph-name="uni2006" unicode="&#x2006;" horiz-adv-x="320" 
 />
    <glyph glyph-name="uni2007" unicode="&#x2007;" horiz-adv-x="320" 
 />
    <glyph glyph-name="uni2008" unicode="&#x2008;" horiz-adv-x="240" 
 />
    <glyph glyph-name="uni2009" unicode="&#x2009;" horiz-adv-x="385" 
 />
    <glyph glyph-name="uni200A" unicode="&#x200a;" horiz-adv-x="106" 
 />
    <glyph glyph-name="uni2010" unicode="&#x2010;" horiz-adv-x="942" 
d="M143 406v174h615v-174h-615z" />
    <glyph glyph-name="uni2011" unicode="&#x2011;" horiz-adv-x="942" 
d="M143 406v174h615v-174h-615z" />
    <glyph glyph-name="figuredash" unicode="&#x2012;" horiz-adv-x="942" 
d="M143 406v174h615v-174h-615z" />
    <glyph glyph-name="endash" unicode="&#x2013;" horiz-adv-x="1511" 
d="M115 446v181h1241v-181h-1241z" />
    <glyph glyph-name="emdash" unicode="&#x2014;" horiz-adv-x="1863" 
d="M92 446v181h1639v-181h-1639z" />
    <glyph glyph-name="quoteleft" unicode="&#x2018;" horiz-adv-x="491" 
d="M119 946v168q0 122 45.5 231t111.5 191l80 -37q-82 -138 -82 -278h91v-275h-246z" />
    <glyph glyph-name="quoteright" unicode="&#x2019;" horiz-adv-x="493" 
d="M123 1159v275h248v-168q0 -121 -46.5 -230t-113.5 -192l-80 37q82 138 82 278h-90z" />
    <glyph glyph-name="quotesinglbase" unicode="&#x201a;" horiz-adv-x="555" 
d="M154 0v274h247v-168q0 -121 -46.5 -229.5t-112.5 -191.5l-80 36q82 138 82 279h-90z" />
    <glyph glyph-name="quotedblleft" unicode="&#x201c;" horiz-adv-x="829" 
d="M119 946v168q0 122 45.5 231t111.5 191l80 -37q-82 -138 -82 -278h91v-275h-246zM473 946v168q0 122 46 231t112 191l80 -37q-82 -138 -82 -278h90v-275h-246z" />
    <glyph glyph-name="quotedblright" unicode="&#x201d;" horiz-adv-x="831" 
d="M123 1159v275h248v-168q0 -121 -46.5 -230t-113.5 -192l-80 37q82 138 82 278h-90zM477 1159v275h248v-168q0 -121 -46.5 -230t-113.5 -192l-80 37q82 138 82 278h-90z" />
    <glyph glyph-name="quotedblbase" unicode="&#x201e;" horiz-adv-x="911" 
d="M154 0v274h247v-168q0 -121 -46.5 -229.5t-112.5 -191.5l-80 36q82 138 82 279h-90zM508 0v274h248v-168q0 -121 -46.5 -229.5t-113.5 -191.5l-80 36q82 138 82 279h-90z" />
    <glyph glyph-name="dagger" unicode="&#x2020;" horiz-adv-x="999" 
d="M102 862v162h289v410h217v-410h289v-162h-289v-1272h-217v1272h-289z" />
    <glyph glyph-name="daggerdbl" unicode="&#x2021;" horiz-adv-x="974" 
d="M90 0v162h289v700h-289v162h289v410h217v-410h289v-162h-289v-700h289v-162h-289v-410h-217v410h-289z" />
    <glyph glyph-name="bullet" unicode="&#x2022;" horiz-adv-x="800" 
d="M176 586q0 93 49 150t156 57t157 -57.5t50 -149.5q0 -94 -49.5 -150.5t-157.5 -56.5q-107 0 -156 56.5t-49 150.5z" />
    <glyph glyph-name="ellipsis" unicode="&#x2026;" horiz-adv-x="1343" 
d="M123 0v274h248v-274h-248zM549 0v274h246v-274h-246zM973 0v274h248v-274h-248z" />
    <glyph glyph-name="uni202F" unicode="&#x202f;" horiz-adv-x="385" 
 />
    <glyph glyph-name="perthousand" unicode="&#x2030;" horiz-adv-x="2631" 
d="M160 997v154q0 140 81.5 221.5t233.5 81.5q154 0 236 -81.5t82 -221.5v-154q0 -138 -82 -218.5t-236 -80.5q-153 0 -234 80.5t-81 218.5zM311 1006q0 -86 43.5 -140.5t120.5 -54.5q79 0 121.5 52t42.5 132v152q0 79 -42 135.5t-122 56.5q-76 0 -120 -53t-44 -129v-151z
M420 0l817 1436h201l-813 -1436h-205zM1071 279v153q0 140 81 221.5t234 81.5t234.5 -81t81.5 -222v-153q0 -138 -81.5 -218.5t-234.5 -80.5q-154 0 -234.5 80t-80.5 219zM1223 276q0 -81 43 -132.5t120 -51.5q78 0 120 52.5t42 131.5v162q0 77 -42 131t-120 54t-120.5 -59
t-42.5 -146v-142zM1839 279v153q0 140 81.5 221.5t233.5 81.5q154 0 236 -81t82 -222v-153q0 -138 -82 -218.5t-236 -80.5q-153 0 -234 80.5t-81 218.5zM1993 276q0 -81 42.5 -132.5t118.5 -51.5q79 0 121.5 52t42.5 132v162q0 78 -42.5 131.5t-121.5 53.5q-78 0 -119.5 -59
t-41.5 -146v-142z" />
    <glyph glyph-name="guilsinglleft" unicode="&#x2039;" horiz-adv-x="745" 
d="M160 520l299 441h184l-276 -439l274 -416h-190z" />
    <glyph glyph-name="guilsinglright" unicode="&#x203a;" horiz-adv-x="802" 
d="M160 961h182l301 -441l-293 -414h-188l272 416z" />
    <glyph glyph-name="fraction" unicode="&#x2044;" horiz-adv-x="536" 
d="M-141 -82q109 250 344.5 791.5t361.5 830.5h201l-711 -1622h-196z" />
    <glyph glyph-name="uni205F" unicode="&#x205f;" horiz-adv-x="481" 
 />
    <glyph glyph-name="zerosuperior" unicode="&#x2070;" horiz-adv-x="782" 
d="M66 1008v137q0 146 86.5 228.5t238.5 82.5q150 0 239 -82t89 -229v-137q0 -146 -87 -229t-241 -83q-150 0 -237 82t-88 230zM215 1004q0 -88 45.5 -141.5t130.5 -53.5q88 0 133 53.5t45 141.5v147q0 83 -45.5 135.5t-132.5 52.5q-84 0 -130 -53t-46 -135v-147z" />
    <glyph glyph-name="foursuperior" unicode="&#x2074;" horiz-adv-x="782" 
d="M63 897v104l388 443h159v-434h90l-18 -113h-72v-186h-143v186h-404zM186 1010h281v305z" />
    <glyph glyph-name="fivesuperior" unicode="&#x2075;" horiz-adv-x="782" 
d="M96 739l21 117q153 -33 254 -33q81 0 124.5 28.5t43.5 102.5q0 37 -12.5 62t-35 36.5t-45 16t-51.5 4.5q-103 0 -254 -24l37 401h490l-4 -117h-363l-20 -180q117 18 176 18q39 0 72 -6.5t63 -21.5t51.5 -39t34 -62t12.5 -86q0 -74 -23 -126t-66 -80t-95 -40t-119 -12
q-79 0 -169 15t-122 26z" />
    <glyph glyph-name="sixsuperior" unicode="&#x2076;" horiz-adv-x="782" 
d="M88 1004v141q0 81 27.5 143t76 97.5t108 53t128.5 17.5q74 0 146.5 -11t109.5 -24l-18 -114q-34 12 -105.5 20t-130.5 8q-82 0 -136 -41.5t-54 -117.5v-39q34 16 92 27.5t110 11.5q136 0 204.5 -54t68.5 -182q0 -113 -79.5 -177.5t-223.5 -64.5q-324 0 -324 306zM240 981
q0 -172 166 -172q72 0 116.5 35.5t44.5 103.5q0 72 -42.5 100.5t-116.5 28.5q-86 0 -168 -37v-59z" />
    <glyph glyph-name="sevensuperior" unicode="&#x2077;" horiz-adv-x="782" 
d="M111 1321v123h569v-94q-103 -76 -185.5 -253t-82.5 -386h-162q1 185 76.5 351.5t177.5 258.5h-393z" />
    <glyph glyph-name="eightsuperior" unicode="&#x2078;" horiz-adv-x="782" 
d="M102 909q0 81 48.5 128t128.5 77q-29 12 -50 23.5t-46 31.5t-38.5 49.5t-13.5 65.5q0 89 76 130.5t194 41.5q121 0 197 -41t76 -131q0 -112 -158 -170q189 -59 189 -205q0 -59 -23.5 -101.5t-66.5 -66t-96 -34.5t-118 -11q-62 0 -112.5 10.5t-94 33.5t-68 66t-24.5 103z
M246 924q0 -63 41.5 -93t113.5 -30q73 0 115.5 30t42.5 93q0 28 -14.5 49t-44.5 36.5t-52.5 24t-62.5 19.5q-65 -21 -102 -50t-37 -79zM268 1274q0 -74 144 -117q24 9 41 17t40 22.5t35.5 34.5t12.5 43q0 90 -140 90q-133 0 -133 -90z" />
    <glyph glyph-name="ninesuperior" unicode="&#x2079;" horiz-adv-x="782" 
d="M74 1217q0 135 110 198q70 43 193 43q155 0 233 -67q90 -77 90 -238v-141q0 -169 -118 -252q-92 -60 -222 -60q-162 3 -256 35l19 115q35 -12 106 -20.5t129 -8.5q97 0 150 53q41 44 41 107v39q-34 -16 -92.5 -27.5t-110.5 -11.5q-86 0 -135 16q-137 45 -137 220z
M221 1208q0 -76 51 -106q39 -23 109 -23q86 0 168 37v60q0 88 -41 129q-40 43 -125 43q-65 0 -109 -29q-53 -37 -53 -111z" />
    <glyph glyph-name="parenleftsuperior" unicode="&#x207d;" horiz-adv-x="624" 
d="M143 1079q0 84 16 164.5t48 157.5t55 123.5t62 115.5l145 -14q-170 -274 -170 -547q0 -58 7.5 -116t21 -108t27.5 -91.5t33.5 -82.5t32 -64.5t29.5 -53t19 -33.5l-143 -14q-37 62 -63.5 113t-57 125t-46.5 156.5t-16 168.5z" />
    <glyph glyph-name="parenrightsuperior" unicode="&#x207e;" horiz-adv-x="624" 
d="M156 530q1 2 17 29t25 43t27.5 53t30 66t27 74.5t24 87t15 93.5t6.5 103q0 276 -168 547l143 14q36 -63 61.5 -114.5t55.5 -125.5t45.5 -155.5t15.5 -165.5q0 -86 -16 -169t-45.5 -156t-56 -125t-62.5 -113z" />
    <glyph glyph-name="zeroinferior" unicode="&#x2080;" horiz-adv-x="782" 
d="M66 293v137q0 146 86.5 228.5t238.5 82.5q150 0 239 -82t89 -229v-137q0 -146 -87 -228.5t-241 -82.5q-151 0 -237.5 81.5t-87.5 229.5zM215 289q0 -88 45.5 -141.5t130.5 -53.5q88 0 133 53.5t45 141.5v147q0 83 -45.5 136t-132.5 53q-84 0 -130 -53.5t-46 -135.5v-147z
" />
    <glyph glyph-name="oneinferior" unicode="&#x2081;" horiz-adv-x="782" 
d="M137 469l303 264h119v-733h-147v559l-226 -197z" />
    <glyph glyph-name="twoinferior" unicode="&#x2082;" horiz-adv-x="782" 
d="M143 0v59q0 72 12 120.5t42 84.5t68 59.5t104 53.5q12 6 50.5 22.5t59.5 27.5t49 28t41 36t13 39q0 42 -42 66.5t-110 24.5q-52 0 -128 -15t-122 -33l-26 119q52 18 134.5 35.5t143.5 17.5q131 0 213 -49.5t82 -156.5q0 -28 -6 -51.5t-14.5 -40.5t-27 -34.5t-33 -28.5
t-44.5 -26t-49 -23t-58.5 -25t-62.5 -27q-34 -16 -52.5 -26.5t-41 -29.5t-33 -44.5t-10.5 -59.5h430v-123h-582z" />
    <glyph glyph-name="threeinferior" unicode="&#x2083;" horiz-adv-x="782" 
d="M119 23l18 116q31 -9 103 -18.5t131 -9.5q204 0 204 106q0 28 -10 50t-30 34.5t-39 20.5t-47 11t-44.5 4t-39.5 1h-93l-16 94h119q61 0 110.5 26t49.5 77q0 90 -160 90q-47 0 -120.5 -9t-109.5 -22l-20 117q32 10 115.5 22t134.5 12q299 0 299 -178q0 -120 -129 -161
q84 -23 130 -68.5t46 -136.5q0 -54 -21 -93.5t-53 -62t-81.5 -36t-96.5 -17.5t-107 -4q-57 0 -140 13.5t-103 21.5z" />
    <glyph glyph-name="fourinferior" unicode="&#x2084;" horiz-adv-x="782" 
d="M63 186v105l388 442h159v-436h90l-18 -111h-72v-186h-143v186h-404zM186 297h281v305z" />
    <glyph glyph-name="fiveinferior" unicode="&#x2085;" horiz-adv-x="782" 
d="M113 31l20 116q148 -32 254 -32q81 0 124.5 28.5t43.5 102.5q0 49 -23 77t-51.5 35t-68.5 7q-96 0 -254 -25l37 401h489l-4 -116h-363l-20 -181q124 19 176 19q49 0 89 -10.5t73.5 -34t52.5 -67t19 -103.5q0 -74 -23 -126t-66.5 -80t-95.5 -40t-119 -12q-79 0 -168.5 15
t-121.5 26z" />
    <glyph glyph-name="sixinferior" unicode="&#x2086;" horiz-adv-x="782" 
d="M96 293v141q0 81 27.5 143t76 97.5t108 53t128.5 17.5q75 0 147.5 -11t108.5 -23l-18 -115q-35 12 -106.5 20.5t-129.5 8.5q-82 0 -136 -42t-54 -118v-39q34 16 92.5 27.5t110.5 11.5q136 0 204 -54t68 -182q0 -113 -79.5 -177t-223.5 -64q-324 0 -324 305zM248 270
q0 -172 166 -172q72 0 116.5 36t44.5 104q0 72 -42.5 100.5t-116.5 28.5q-86 0 -168 -37v-60z" />
    <glyph glyph-name="seveninferior" unicode="&#x2087;" horiz-adv-x="782" 
d="M111 608v125h569v-96q-102 -74 -185 -251t-83 -386h-162q1 185 76.5 349.5t177.5 258.5h-393z" />
    <glyph glyph-name="eightinferior" unicode="&#x2088;" horiz-adv-x="782" 
d="M98 199q0 139 181 204q-148 56 -148 170q0 88 76 130t194 42q119 0 196 -42t77 -130q0 -111 -158 -170q189 -60 189 -204q0 -59 -24.5 -101.5t-68 -66t-96 -34.5t-115.5 -11q-62 0 -113.5 10.5t-95.5 34t-69 66.5t-25 102zM246 207q0 -59 42.5 -90t112.5 -31q72 0 115 31
t43 92q0 24 -12 43.5t-24.5 31t-43.5 25t-43.5 17.5t-50.5 16q-64 -21 -101.5 -51.5t-37.5 -83.5zM268 563q0 -74 144 -117q24 9 41 17t40 22.5t35.5 34.5t12.5 43q0 92 -140 92q-133 0 -133 -92z" />
    <glyph glyph-name="nineinferior" unicode="&#x2089;" horiz-adv-x="782" 
d="M74 504q0 135 110 198q70 43 193 43q155 0 233 -67q90 -77 90 -238v-141q0 -169 -118 -252q-91 -59 -222 -59q-162 3 -256 35l19 114q34 -12 105 -20t130 -8q97 0 150 53q41 44 41 106v39q-34 -16 -92.5 -27.5t-110.5 -11.5q-83 0 -135 17q-137 45 -137 219zM221 496
q0 -77 51 -107q37 -22 109 -22q88 0 168 36v60q0 88 -41 129q-40 43 -125 43q-65 0 -109 -29q-53 -37 -53 -110z" />
    <glyph glyph-name="parenleftinferior" unicode="&#x208d;" horiz-adv-x="624" 
d="M143 385q0 84 16 164.5t48 157.5t55 123.5t62 115.5l145 -14q-170 -274 -170 -547q0 -68 11 -136.5t25 -117.5t37.5 -104.5t37 -81.5t36.5 -66t23 -41l-143 -16q-37 62 -63.5 113t-57 125t-46.5 156.5t-16 168.5z" />
    <glyph glyph-name="parenrightinferior" unicode="&#x208e;" horiz-adv-x="626" 
d="M156 -162q2 3 17.5 29t24.5 42.5t27.5 52.5t30 66t26.5 74.5t24 86t15.5 93.5t6.5 103q0 266 -168 547l143 14q38 -68 61.5 -115t55 -123.5t47.5 -157.5t16 -165q0 -86 -16 -168.5t-46 -156.5t-56.5 -125t-63.5 -113z" />
    <glyph glyph-name="dong" unicode="&#x20ab;" horiz-adv-x="1234" 
d="M72 -102h1050v-164h-1050v164zM117 512q0 268 106.5 400t339.5 132q164 0 299 -96v244h-289v123h289v180h205v-180h125v-123h-125v-1192h-205v76q-2 -1 -18 -10.5t-22.5 -13.5t-24.5 -13.5t-30 -14.5t-32 -13t-38 -12.5t-40 -9.5t-45.5 -7t-48.5 -2q-212 0 -329 133
t-117 399zM326 512q0 -93 16.5 -162.5t43.5 -111t66.5 -67.5t79.5 -35t89 -9q121 0 241 72v626q-132 72 -241 72q-49 0 -88.5 -8.5t-79.5 -33.5t-67 -66.5t-43.5 -111.5t-16.5 -165z" />
    <glyph glyph-name="Euro" unicode="&#x20ac;" horiz-adv-x="1396" 
d="M147 651h109v146h-82l-27 114h111v27q0 516 557 516q114 0 226 -23.5t190 -56.5l-41 -155q-62 27 -160 47.5t-186 21.5q-175 0 -273 -87.5t-98 -262.5v-27h662l-21 -114h-641v-146h614l-18 -112h-596v-41q0 -163 100.5 -258t270.5 -95q179 3 354 70l37 -158
q-201 -77 -420 -77q-261 0 -409 131.5t-148 386.5v41h-84z" />
    <glyph glyph-name="uni20B4" unicode="&#x20b4;" horiz-adv-x="1386" 
d="M178 524v109h244q82 64 248 168l88 57h-580v109h715q57 66 57 159q0 177 -278 177q-118 0 -210.5 -22t-217.5 -67l-33 158q123 40 233 61t258 21q243 0 355 -77.5t112 -231.5q0 -100 -43 -178h138v-109h-230q-57 -49 -258 -182l-67 -43h555v-109h-703
q-53 -48 -77.5 -98.5t-24.5 -116.5q0 -88 65 -130t209 -42q136 0 241 23t234 71l31 -159q-128 -45 -245.5 -68.5t-274.5 -23.5q-237 0 -357 72.5t-120 240.5q0 135 71 231h-135z" />
    <glyph glyph-name="uni20BD" unicode="&#x20bd;" horiz-adv-x="1458" 
d="M150 242v135h139v160h-139v135h139v762h465q139 0 233.5 -20.5t161 -70t97 -134t30.5 -210.5q0 -251 -121.5 -356.5t-394.5 -105.5h-254v-160h575v-135h-575v-242h-217v242h-139zM506 672h248q52 0 92.5 7t80.5 27t66.5 53.5t43 90t16.5 133.5q0 156 -75 220.5t-224 64.5
h-248v-596z" />
    <glyph glyph-name="afii61352" unicode="&#x2116;" horiz-adv-x="2539" 
d="M184 0v1434h230l661 -1112v774q0 169 101 253.5t266 84.5h190l23 -142h-164q-107 0 -165 -72t-58 -190v-1030h-226l-667 1118v-1118h-191zM1446 719v80q0 164 99 253t306 89q209 0 310.5 -89.5t101.5 -252.5v-80q0 -163 -101 -251.5t-311 -88.5q-405 0 -405 340z
M1614 721q0 -111 54 -169t183 -58q130 0 185 58t55 169v76q0 111 -55 170t-185 59q-127 0 -182 -59t-55 -170v-76z" />
    <glyph glyph-name="trademark" unicode="&#x2122;" horiz-adv-x="1902" 
d="M121 1323v111h522v-111h-201v-604h-123v604h-198zM805 719l61 715h150l227 -582l227 582h152l59 -715h-118l-45 559l-213 -559h-121l-213 559l-45 -559h-121z" />
    <glyph glyph-name="onethird" unicode="&#x2153;" horiz-adv-x="1779" 
d="M137 1180l303 264h117v-733h-145v559l-226 -195zM344 0q151 264 427 753t386 683h197q-150 -267 -429 -757t-386 -679h-195zM1079 23l19 116q31 -9 102.5 -18.5t130.5 -9.5q203 0 203 106q0 28 -10 50t-29.5 34.5t-38.5 20.5t-47 11t-44.5 4t-39.5 1h-92l-16 94h118
q61 0 110.5 26t49.5 77q0 90 -160 90q-47 0 -120 -9t-109 -22l-21 117q32 10 115.5 22t134.5 12q299 0 299 -178q0 -121 -129 -161q84 -23 130 -68.5t46 -136.5q0 -54 -20.5 -93.5t-53 -62t-81.5 -36t-96 -17.5t-107 -4q-57 0 -140.5 13.5t-103.5 21.5z" />
    <glyph glyph-name="twothirds" unicode="&#x2154;" horiz-adv-x="1953" 
d="M143 713v59q0 59 10 102.5t26 74t48.5 57t65 45t88.5 45.5q21 10 58.5 26.5t57.5 26.5t43 25t33.5 31t10.5 36q0 42 -42.5 66t-111.5 24q-52 0 -127 -14.5t-123 -32.5l-24 119q52 18 134 35.5t142 17.5q131 0 212 -50t81 -157q0 -28 -6 -51.5t-14 -40.5t-27 -34.5
t-33 -28t-44 -26t-48.5 -23.5t-58.5 -25t-62 -27l-41 -20.5t-35.5 -22t-33 -29.5t-19 -36t-8.5 -49h430v-123h-582zM432 0q121 211 258 452.5t300 529.5t257 454h195q-120 -212 -257 -454t-299.5 -529.5t-256.5 -452.5h-197zM1171 23l19 110q34 -10 105 -20.5t130 -10.5
q203 0 203 109q0 43 -21.5 71t-59.5 39t-65 14t-63 3h-104l-15 94h130q61 0 110 26.5t49 78.5q0 92 -159 92q-49 0 -120.5 -8.5t-105.5 -20.5l-20 111q35 10 115 22t131 12q299 0 299 -178q0 -119 -130 -161q84 -23 130.5 -68.5t46.5 -136.5q0 -54 -21 -93.5t-53 -62
t-81.5 -36t-96.5 -17.5t-107 -4q-57 0 -139.5 13.5t-106.5 21.5z" />
    <glyph glyph-name="oneeighth" unicode="&#x215b;" horiz-adv-x="1742" 
d="M137 1180l303 264h117v-733h-145v559l-226 -195zM344 0q151 264 427 753t386 683h197q-150 -267 -429 -757t-386 -679h-195zM1001 199q0 43 15 77t42.5 58t55.5 39.5t66 29.5q-29 12 -50 23.5t-46.5 32t-39.5 49.5t-14 65q0 88 77 130t196 42q120 0 195 -41.5t75 -130.5
q0 -114 -158 -170q191 -59 191 -204q0 -213 -301 -213q-62 0 -113.5 10.5t-96 33.5t-69.5 66t-25 103zM1147 213q0 -63 42 -93t114 -30q155 0 155 123q0 19 -6 34.5t-22.5 28.5t-27 21t-39 18.5t-37.5 13.5t-42 13q-64 -21 -100.5 -50t-36.5 -79zM1169 563q0 -72 142 -117
q131 48 131 117q0 88 -142 88q-131 0 -131 -88z" />
    <glyph glyph-name="threeeighths" unicode="&#x215c;" horiz-adv-x="1787" 
d="M123 733l18 119q34 -10 105 -20.5t129 -10.5q52 0 94.5 8t75.5 33.5t33 65.5q0 123 -209 123h-93l-16 92h119q62 0 111 25.5t49 76.5q0 90 -160 90q-47 0 -120 -8.5t-109 -19.5l-21 114q33 10 116.5 22.5t133.5 12.5q44 0 79 -3t78.5 -13.5t72.5 -28.5t49 -52.5t20 -80.5
q0 -62 -35.5 -102.5t-93.5 -59.5q84 -23 130 -68.5t46 -136.5q0 -53 -20.5 -92.5t-53 -62t-81.5 -36t-96 -18t-107 -4.5q-57 0 -140.5 13.5t-103.5 21.5zM395 0q151 264 427 753t386 683h197q-120 -214 -394.5 -697t-418.5 -739h-197zM1106 199q0 43 14.5 77t42 58t56 39.5
t65.5 29.5q-23 9 -39.5 17.5t-38.5 24t-36.5 32t-24.5 42t-10 54.5q0 60 39 99.5t98 56t135 16.5q120 0 195 -41.5t75 -130.5q0 -114 -157 -170q190 -59 190 -204q0 -213 -303 -213q-62 0 -113 10.5t-95 33.5t-68.5 66t-24.5 103zM1251 213q0 -63 42 -93t114 -30
q156 0 156 123q0 19 -6 34.5t-22.5 28.5t-27 21t-39 18.5t-37.5 13.5t-42 13q-64 -21 -101 -50t-37 -79zM1274 563q0 -74 143 -117q24 9 41 17t40 22.5t35.5 34.5t12.5 43q0 88 -141 88q-131 0 -131 -88z" />
    <glyph glyph-name="fiveeighths" unicode="&#x215d;" horiz-adv-x="1767" 
d="M119 739l20 117q153 -33 254 -33q81 0 124.5 28.5t43.5 102.5q0 49 -23 77t-51.5 35t-68.5 7q-103 0 -254 -24l37 401h489l-4 -117h-362l-21 -180q117 18 176 18q49 0 89 -10.5t73.5 -34t52.5 -67t19 -103.5q0 -74 -23 -126t-66 -80t-95 -40t-119 -12q-80 0 -169.5 15
t-121.5 26zM387 0q151 264 427 753t386 683h197q-120 -214 -394.5 -697t-418.5 -739h-197zM1085 199q0 43 15 77t42.5 58t55.5 39.5t66 29.5q-29 12 -50 23.5t-46.5 32t-39.5 49.5t-14 65q0 88 76.5 130t195.5 42q120 0 195.5 -41.5t75.5 -130.5q0 -114 -158 -170
q191 -59 191 -204q0 -59 -23.5 -101.5t-66.5 -66t-96 -34.5t-118 -11q-62 0 -113.5 10.5t-95 33.5t-68 66t-24.5 103zM1231 213q0 -63 41.5 -93t113.5 -30q156 0 156 123q0 19 -6 34.5t-22.5 28.5t-27 21t-39 18.5t-37.5 13.5t-42 13q-64 -21 -100.5 -50t-36.5 -79z
M1253 563q0 -74 142 -117q131 48 131 117q0 88 -142 88q-131 0 -131 -88z" />
    <glyph glyph-name="seveneighths" unicode="&#x215e;" horiz-adv-x="1638" 
d="M111 1313v131h569v-94q-103 -76 -185.5 -253t-82.5 -386h-162q1 185 74.5 346.5t175.5 255.5h-389zM252 0q151 264 427 753t386 683h197q-77 -136 -368.5 -648t-447.5 -788h-194zM958 199q0 43 15 77.5t43 58t56.5 39.5t64.5 29q-150 57 -150 170q0 88 77 130t196 42
t194.5 -42t75.5 -130q0 -112 -158 -170q189 -60 189 -204q0 -213 -301 -213q-62 0 -113.5 10.5t-95.5 34t-68.5 66.5t-24.5 102zM1102 213q0 -64 43 -95.5t115 -31.5t113.5 31.5t41.5 95.5q0 19 -6 34.5t-22.5 28.5t-27 21t-39 18.5t-37.5 13.5t-42 13q-64 -20 -101.5 -50
t-37.5 -79zM1124 563q0 -74 144 -117q129 47 129 117q0 49 -34 70.5t-103 21.5q-67 0 -101.5 -21.5t-34.5 -70.5z" />
    <glyph glyph-name="arrowleft" unicode="&#x2190;" horiz-adv-x="1638" 
d="M102 557v180q151 79 397.5 228.5t370.5 216.5v-213l-454 -234q135 17 196 17h924v-209h-924q-27 0 -76 4t-84 8l-36 4l454 -233v-213q-123 67 -370 216t-398 228z" />
    <glyph glyph-name="arrowup" unicode="&#x2191;" horiz-adv-x="1273" 
d="M102 666q67 124 216.5 370.5t228.5 397.5h180q79 -151 228 -398t216 -370h-213l-233 454q16 -135 16 -196v-924h-209v924q0 27 4 76t8 84l5 36l-234 -454h-213z" />
    <glyph glyph-name="arrowright" unicode="&#x2192;" horiz-adv-x="1638" 
d="M102 543v209h924q27 0 76.5 -4t85.5 -8l35 -5l-455 234v213q124 -67 370.5 -216.5t397.5 -228.5v-180q-151 -79 -398 -228t-370 -216v213l455 233q-136 -16 -197 -16h-924z" />
    <glyph glyph-name="arrowdown" unicode="&#x2193;" horiz-adv-x="1273" 
d="M102 768h213l234 -455q-17 136 -17 197v924h209v-924q0 -27 -4 -76.5t-8 -85.5l-4 -35l233 455h213q-67 -123 -216 -370t-228 -398h-180q-79 151 -228.5 397.5t-216.5 370.5z" />
    <glyph glyph-name="uni2196" unicode="&#x2196;" 
d="M102 1143l127 127l858 -230l-151 -149l-485 156q106 -84 149 -127l653 -654l-147 -147l-653 653q-19 19 -51 56.5t-54 65.5l-22 28l155 -486l-149 -151z" />
    <glyph glyph-name="uni2197" unicode="&#x2197;" 
d="M102 266l654 654q19 19 56.5 51t65.5 54l27 22l-485 -156l-152 149l858 230l127 -127l-229 -858l-150 151l156 486q-84 -107 -127 -150l-653 -653z" />
    <glyph glyph-name="uni2198" unicode="&#x2198;" 
d="M102 1122l148 148l653 -654q19 -19 51 -56.5t54 -65.5l22 -27l-156 485l150 152l229 -858l-127 -127l-858 229l152 150l485 -156q-106 84 -149 127z" />
    <glyph glyph-name="uni2199" unicode="&#x2199;" 
d="M102 246l230 858l149 -152l-155 -485q84 106 127 149l653 654l147 -148l-653 -653q-19 -19 -56.5 -51t-65.5 -54l-27 -22l485 156l151 -150l-858 -229z" />
    <glyph glyph-name="Delta" unicode="&#x2206;" horiz-adv-x="1433" 
d="M53 0l484 1434h270l479 -1434h-1003h-230zM336 170h668l-330 1067z" />
    <glyph glyph-name="product" unicode="&#x220f;" horiz-adv-x="1705" 
d="M160 -410v1844h1169v-1844h-217v1665h-735v-1665h-217z" />
    <glyph glyph-name="summation" unicode="&#x2211;" horiz-adv-x="1705" 
d="M141 -410l2 78l775 924l-738 764l27 78h1079v-179h-745l641 -663l-699 -823h803v-179h-1145z" />
    <glyph glyph-name="minus" unicode="&#x2212;" 
d="M145 629v174h1024v-174h-1024z" />
    <glyph glyph-name="radical" unicode="&#x221a;" horiz-adv-x="1384" 
d="M4 813v145h520l234 -716l428 1263h207l-516 -1505h-240l-275 813h-358z" />
    <glyph glyph-name="infinity" unicode="&#x221e;" 
d="M90 717q0 111 71 194.5t193 83.5q43 0 83 -14.5t83 -49t67 -57.5t72 -73q39 45 67.5 73.5t67.5 59t82 45t91 14.5q123 0 190.5 -82t67.5 -200q0 -111 -70 -195t-192 -84q-42 0 -82.5 15t-83.5 48t-69.5 57.5t-72.5 70.5q-85 -93 -155 -141t-152 -48q-123 0 -190.5 81.5
t-67.5 201.5zM223 717q0 -56 33 -96.5t98 -40.5q58 0 104 31t109 96l-35 30t-39 33t-36 27.5t-40 26.5t-35 15t-36 7q-59 0 -91 -39t-32 -90zM748 713q1 -1 16.5 -15t19.5 -17t20 -16.5t22.5 -18t22 -16t24.5 -16t23.5 -12.5t25.5 -11t24 -6t25 -3q57 0 89 39t32 90
q0 56 -34.5 95.5t-99.5 39.5q-55 0 -98.5 -31t-111.5 -102z" />
    <glyph glyph-name="approxequal" unicode="&#x2248;" 
d="M137 473q3 3 25 26t46.5 44t58 45t74.5 38.5t81 14.5q59 0 117.5 -20.5t100 -45t100 -45t116.5 -20.5q33 0 68.5 13.5t66 34t54 39.5t42.5 38t21 20l55 -137q-2 -2 -22 -27.5t-43.5 -49t-57 -50t-77.5 -43t-91 -16.5q-67 0 -132 20.5t-108 45t-95.5 45t-96.5 20.5
q-64 0 -137 -45.5t-115 -87.5zM154 862q1 1 25 26t47 44.5t57 44.5t74.5 39t80.5 14q58 0 116.5 -20.5t100 -45t100 -45t117.5 -20.5q40 0 85.5 21.5t75.5 46t58.5 50.5t30.5 27l56 -135q-2 -2 -22 -27.5t-43.5 -49t-56.5 -50t-77 -43t-90 -16.5q-67 0 -132.5 20.5t-108 45
t-95.5 45t-98 20.5q-62 0 -134 -44.5t-118 -88.5z" />
    <glyph glyph-name="notequal" unicode="&#x2260;" horiz-adv-x="1325" 
d="M141 332v174h359l112 256h-471v172h547l162 354h162l-160 -354h313v-172h-389l-112 -256h501v-174h-579l-158 -357h-162l158 357h-283z" />
    <glyph glyph-name="lessequal" unicode="&#x2264;" 
d="M217 326v198l868 -465v-196zM217 688v135q92 49 397.5 210t472.5 253v-199l-643 -333l643 -334v-197q-668 358 -870 465z" />
    <glyph glyph-name="greaterequal" unicode="&#x2265;" 
d="M219 223v197l643 334l-643 333v199q160 -88 455.5 -243t415.5 -220v-135q-600 -320 -871 -465zM221 59l871 465v-198l-871 -463v196z" />
    <glyph glyph-name="uni25FC" unicode="&#x25fc;" horiz-adv-x="1024" 
d="M0 0v1024h1024v-1024h-1024z" />
    <glyph glyph-name="commaaccent" unicode="&#xf6c3;" horiz-adv-x="452" 
d="M102 -94h248v-90q0 -89 -49 -156.5t-102 -101.5l-74 41q68 65 68 151h-91v156z" />
    <glyph glyph-name="Acute" unicode="&#xf6c9;" horiz-adv-x="479" 
d="M102 1556l80 287h195l-162 -287h-113z" />
    <glyph glyph-name="Caron" unicode="&#xf6ca;" horiz-adv-x="1136" 
d="M291 1843h155l123 -217l119 217h156l-180 -287h-185z" />
    <glyph glyph-name="Dieresis" unicode="&#xf6cb;" horiz-adv-x="1083" 
d="M295 1556v287h156v-287h-156zM631 1556v287h155v-287h-155z" />
    <glyph glyph-name="Grave" unicode="&#xf6ce;" horiz-adv-x="479" 
d="M102 1843h195l80 -287h-113z" />
    <glyph glyph-name="Macron" unicode="&#xf6d0;" horiz-adv-x="1095" 
d="M102 1632v129h727v-129h-727z" />
    <glyph glyph-name="Breve" horiz-adv-x="1468" 
d="M362 1798v45h160q0 -101 47 -148t172 -46q129 0 175.5 46.5t46.5 147.5h159v-45q0 -119 -98.5 -180.5t-282.5 -61.5q-178 0 -278.5 62t-100.5 180z" />
    <glyph glyph-name="Circumflex" horiz-adv-x="1136" 
d="M291 1556l182 287h184l187 -287h-156l-121 218l-121 -218h-155z" />
    <glyph glyph-name="Tilde" horiz-adv-x="829" 
d="M96 1694q106 84 203 84q53 0 121 -34t108 -34q77 0 152 70l51 -88q-27 -35 -82.5 -67t-120.5 -32q-49 0 -118 35t-113 35q-37 0 -68.5 -12t-45.5 -22.5t-40 -33.5z" />
    <glyph glyph-name="Ring" horiz-adv-x="794" 
d="M195 1649q0 81 55.5 133.5t150.5 52.5t151 -52.5t56 -133.5t-56 -133t-151 -52t-150.5 52t-55.5 133zM293 1649q0 -46 29.5 -75.5t78.5 -29.5t79 29.5t30 75.5t-30 75t-79 29t-78.5 -29t-29.5 -75z" />
    <glyph glyph-name="Dotaccent" horiz-adv-x="454" 
d="M125 1556v287h205v-287h-205z" />
    </font>
</defs>
</svg>
