<?xml version="1.0" standalone="no"?>
<!DOCTYPE svg PUBLIC "-//W3C//DTD SVG 1.1//EN" "http://www.w3.org/Graphics/SVG/1.1/DTD/svg11.dtd" >
<svg>
<metadata>
Created by FontForge 20120731 at Wed Aug 28 00:14:55 2019
 By www
Copyright (c) 2006 by Zakhar Yashchin. All rights reserved.
</metadata>
<defs>
<font id="ALSEkibastuz" horiz-adv-x="1107" >
  <font-face 
    font-family="ALS Ekibastuz"
    font-weight="400"
    font-stretch="normal"
    units-per-em="2048"
    panose-1="2 0 5 3 0 0 0 2 0 4"
    ascent="1638"
    descent="-410"
    x-height="1024"
    cap-height="1434"
    bbox="-659 -471 2322 1925"
    underline-thickness="102"
    underline-position="-102"
    unicode-range="U+000A-F6D0"
  />
<missing-glyph horiz-adv-x="573" 
 />
    <glyph glyph-name=".notdef" horiz-adv-x="573" 
 />
    <glyph glyph-name=".null" horiz-adv-x="0" 
 />
    <glyph glyph-name="nonmarkingreturn" horiz-adv-x="682" 
 />
    <glyph glyph-name="NULL" horiz-adv-x="0" 
 />
    <glyph glyph-name="NULL" horiz-adv-x="0" 
 />
    <glyph glyph-name="LF" unicode="&#xa;" horiz-adv-x="0" 
 />
    <glyph glyph-name="CR" unicode="&#xd;" horiz-adv-x="573" 
 />
    <glyph glyph-name="space" unicode=" " horiz-adv-x="573" 
 />
    <glyph glyph-name="exclam" unicode="!" horiz-adv-x="581" 
d="M180 1434h178l-34 -1065h-109zM195 0v236h149v-236h-149z" />
    <glyph glyph-name="quotedbl" unicode="&#x22;" horiz-adv-x="792" 
d="M180 1434h148l-21 -471h-106zM434 1434h148l-21 -471h-106z" />
    <glyph glyph-name="numbersign" unicode="#" horiz-adv-x="1351" 
d="M180 348v123h123l94 492h-217v122h242l67 349h136l-70 -349h303l68 349h133l-68 -349h94v-122h-118l-97 -492h215v-123h-237l-70 -348h-131l68 348h-303l-68 -348h-133l68 348h-99zM436 471h303l95 492h-302z" />
    <glyph glyph-name="dollar" unicode="$" horiz-adv-x="1341" 
d="M160 74l22 100q191 -85 434 -98v596q-55 17 -97 31t-91 36t-85 44.5t-71 55t-57 68.5t-35.5 84t-13.5 103q0 83 35 150t97 110t142.5 68t175.5 30v186h121v-186q191 -10 408 -88l-25 -100q-106 42 -193 65.5t-190 28.5v-586q176 -56 235 -84q133 -64 178 -170
q28 -67 28 -160q0 -167 -124 -264.5t-317 -111.5v-187h-121v187q-303 9 -456 92zM303 1100q0 -154 207 -246q58 -27 106 -43v547q-85 -6 -148 -32t-97.5 -63.5t-51 -78t-16.5 -84.5zM737 78q83 8 144.5 35.5t91 58.5t46.5 72.5t20 64t3 45.5q0 76 -22 122t-68 75.5
t-137 60.5l-78 25v-559z" />
    <glyph glyph-name="percent" unicode="%" horiz-adv-x="1843" 
d="M180 1006v165q0 124 75.5 203.5t219.5 79.5q145 0 221 -79.5t76 -203.5v-165q0 -125 -75.5 -204t-221.5 -79t-220.5 78.5t-74.5 204.5zM287 1008q0 -89 51 -147t137 -58q88 0 138.5 58t50.5 143v165q0 83 -50.5 144t-138.5 61q-87 0 -139 -59t-49 -141v-166zM381 0
l866 1438h135q-347 -575 -864 -1438h-137zM993 262v166q0 124 75.5 203.5t219.5 79.5q146 0 221.5 -79t75.5 -204v-166q0 -125 -75.5 -203.5t-221.5 -78.5t-220.5 78.5t-74.5 203.5zM1100 260q0 -86 51.5 -143.5t136.5 -57.5q89 0 139 57.5t50 143.5v170q0 84 -50.5 142.5
t-138.5 58.5q-87 0 -137.5 -62t-50.5 -155v-154z" />
    <glyph glyph-name="ampersand" unicode="&#x26;" horiz-adv-x="1538" 
d="M180 375q0 91 21.5 164t63 125.5t86 87.5t106.5 69q-142 171 -142 301q0 165 114.5 248.5t309.5 83.5q88 0 187 -26.5t174 -61.5l-33 -109q-180 95 -311 95q-59 0 -108 -10.5t-96 -36t-74 -76t-27 -123.5q0 -49 31.5 -108.5t68.5 -102.5l502 -616q87 117 129 309l118 -10
q-16 -98 -66 -197.5t-116 -179.5l164 -201h-154l-100 123q-69 -69 -156.5 -106t-222.5 -37q-134 0 -237.5 42t-167.5 132.5t-64 220.5zM309 377q0 -141 98.5 -224t243.5 -83q83 0 171 34.5t143 90.5l-447 548q-24 -10 -54.5 -34t-67.5 -66.5t-62 -113t-25 -152.5z" />
    <glyph glyph-name="quotesingle" unicode="'" horiz-adv-x="536" 
d="M180 1434h144l-21 -471h-102z" />
    <glyph glyph-name="parenleft" unicode="(" horiz-adv-x="843" 
d="M180 666q0 117 21 236.5t50.5 213.5t75.5 197.5t82 169.5t85 149l118 -18q-28 -41 -60 -95.5t-77 -151.5t-79.5 -199t-59.5 -236.5t-25 -265.5t26 -265.5t61.5 -235t83.5 -199t79.5 -150.5t61.5 -95l-119 -20q-52 87 -86.5 149t-84 168t-79 198t-52 212.5t-22.5 237.5z
" />
    <glyph glyph-name="parenright" unicode=")" horiz-adv-x="843" 
d="M180 1610l119 20q52 -87 86 -148.5t84 -168t79.5 -198t52 -212t22.5 -237.5t-21 -237t-50.5 -214t-75.5 -197.5t-82 -169.5t-85 -149l-119 18q28 41 60 95.5t77.5 151.5t80 199t59.5 237t25 266t-26 265.5t-61.5 235t-83.5 198.5t-79.5 150t-61.5 95z" />
    <glyph glyph-name="asterisk" unicode="*" horiz-adv-x="1433" 
d="M180 737l426 226l-426 225l56 102l417 -256l-14 482h117l-13 -482l418 256l56 -102l-424 -225l424 -226l-56 -102l-418 256l13 -481h-117l14 479l-417 -254z" />
    <glyph glyph-name="plus" unicode="+" horiz-adv-x="1351" 
d="M143 659v115h451v451h121v-451h452v-115h-452v-450h-121v450h-451z" />
    <glyph glyph-name="comma" unicode="," horiz-adv-x="366" 
d="M82 -295q76 160 76 295h-70v236h168v-146q0 -197 -117 -405z" />
    <glyph glyph-name="hyphen" unicode="-" horiz-adv-x="933" 
d="M139 451v116h615v-116h-615z" />
    <glyph glyph-name="period" unicode="." horiz-adv-x="344" 
d="M86 0v236h147v-236h-147z" />
    <glyph glyph-name="slash" unicode="/" horiz-adv-x="1265" 
d="M180 -283l740 1901h129l-742 -1901h-127z" />
    <glyph glyph-name="zero" unicode="0" horiz-adv-x="1310" 
d="M88 567v297q0 171 65 303.5t194 209.5t306 77t307 -76.5t195.5 -209t65.5 -304.5v-297q0 -262 -150.5 -424.5t-417.5 -162.5q-177 0 -306 76t-194 207.5t-65 303.5zM221 567q6 -222 118 -354.5t314 -132.5q203 0 318.5 134t115.5 353v299q0 139 -50 248.5t-149.5 174.5
t-234.5 65q-201 0 -316.5 -137t-115.5 -349v-301z" />
    <glyph glyph-name="one" unicode="1" horiz-adv-x="1310" 
d="M336 911l518 523h119v-1434h-131v1276l-453 -457z" />
    <glyph glyph-name="two" unicode="2" horiz-adv-x="1310" 
d="M147 0v63q0 113 24 202.5t51 144t98 115.5t110.5 86t143.5 86q31 19 47 28q22 13 77 43t90.5 50.5t84.5 55.5t78.5 66t51 73.5t21.5 86.5q0 112 -101 182t-280 70q-91 0 -229.5 -34t-210.5 -71l-27 99q68 35 209 71.5t262 36.5q238 0 374 -85t136 -261q0 -62 -25 -118
t-61 -96t-93.5 -82t-103 -67t-111 -61t-97.5 -55q-20 -13 -57.5 -35t-58 -34.5t-53.5 -35t-51.5 -38.5t-44.5 -42t-41 -49.5t-32 -57t-26 -68.5t-15 -79t-6 -94h882v-96h-1016z" />
    <glyph glyph-name="three" unicode="3" horiz-adv-x="1310" 
d="M125 43l22 111q62 -21 191.5 -45.5t249.5 -24.5q97 0 175.5 14.5t145 47t103.5 92.5t37 143q0 67 -20 121t-50.5 89.5t-75.5 61.5t-86.5 40t-92 22t-84 10t-69.5 2h-153l-19 90h205q86 0 166.5 32t137.5 99.5t57 155.5q0 124 -97 186t-264 62q-89 0 -225 -17t-191 -43
l-30 101q61 24 199.5 42.5t244.5 18.5q86 0 156 -8.5t135.5 -31t109.5 -59t70.5 -96.5t26.5 -139q0 -113 -86.5 -205.5t-216.5 -126.5q68 -18 120.5 -38.5t104.5 -54t86 -76t55 -105t21 -139.5q0 -395 -602 -395q-121 0 -272.5 24.5t-184.5 38.5z" />
    <glyph glyph-name="four" unicode="4" horiz-adv-x="1310" 
d="M104 422v102l816 910h139v-912h147l-18 -100h-129v-422h-131v422h-824zM229 522h697v781z" />
    <glyph glyph-name="five" unicode="5" horiz-adv-x="1310" 
d="M127 61l20 105q43 -13 112.5 -30t187.5 -36.5t204 -19.5q192 0 291.5 85.5t99.5 289.5q0 309 -333 309q-115 0 -260.5 -22.5t-233.5 -47.5l70 740h848l-11 -101h-725l-53 -520q61 19 180 34t217 15q72 0 130 -9t118 -35t101 -69.5t66.5 -117.5t25.5 -174
q0 -477 -527 -477q-139 0 -311.5 32t-216.5 49z" />
    <glyph glyph-name="six" unicode="6" horiz-adv-x="1310" 
d="M98 549v317q0 128 34.5 230.5t91 168t132.5 109.5t155 62t163 18q146 0 272 -20.5t195 -44.5l-31 -99q-62 24 -190.5 44t-237.5 20q-187 0 -316.5 -121.5t-129.5 -319.5v-151q62 43 197.5 79t244.5 36q66 2 170 -9q174 -25 269 -124t95 -293q0 -206 -153.5 -337.5
t-401.5 -131.5q-92 0 -170.5 16t-151.5 56t-124.5 103t-82 163t-30.5 229zM236 524q25 -448 419 -448q182 0 301 99t119 276q0 91 -31.5 158t-87.5 105.5t-124.5 57t-151.5 19.5q-97 0 -235 -32t-209 -73v-162z" />
    <glyph glyph-name="seven" unicode="7" horiz-adv-x="1310" 
d="M121 1323v111h1069v-74q-109 -82 -212 -217t-189 -308t-138.5 -392.5t-52.5 -442.5h-147q0 198 39.5 387.5t99 331.5t137.5 266.5t148 204t137 133.5h-891z" />
    <glyph glyph-name="eight" unicode="8" horiz-adv-x="1310" 
d="M88 393q0 74 26.5 135.5t66.5 102t98.5 74t109.5 52.5t113 36q-44 13 -84.5 29t-92 46t-88 64.5t-62 86t-25.5 109.5q0 156 130.5 241t372.5 85q243 0 374.5 -85t131.5 -241q0 -232 -393 -337q69 -16 131 -38.5t122.5 -57.5t104 -77t70.5 -100t27 -125
q0 -217 -144.5 -315t-423.5 -98t-422 98t-143 315zM225 399q0 -327 428 -327t428 327q0 40 -14.5 76t-35.5 62.5t-58.5 52t-70 42t-84 36t-87 30.5t-91.5 28l-30 9q-174 -42 -279.5 -124.5t-105.5 -211.5zM281 1124q0 -34 15.5 -66t36 -55.5t59.5 -48t64.5 -38.5t74 -32.5
t66.5 -25t62 -20.5q46 13 86.5 27.5t95 40.5t92.5 55.5t65.5 72.5t27.5 90q0 126 -92 184t-281 58q-187 0 -279.5 -58.5t-92.5 -183.5z" />
    <glyph glyph-name="nine" unicode="9" horiz-adv-x="1310" 
d="M98 983q0 207 153 339t400 132q92 0 170.5 -16t152 -56.5t125 -103.5t82.5 -163t31 -230v-316q0 -128 -34.5 -230.5t-90.5 -167.5t-132.5 -109t-155.5 -62t-164 -18q-145 0 -270.5 20.5t-194.5 44.5l31 98q61 -25 188 -44t240 -19q187 0 316.5 120t129.5 320v150
q-65 -42 -206.5 -78.5t-256.5 -36.5q-116 0 -205.5 21t-161 68.5t-109.5 132t-38 204.5zM236 985q0 -91 31.5 -158.5t87.5 -106t125 -57t151 -18.5q96 0 234.5 32.5t209.5 72.5v163q-33 447 -420 447q-184 0 -301.5 -99t-117.5 -276z" />
    <glyph glyph-name="colon" unicode=":" horiz-adv-x="571" 
d="M180 0v236h168v-236h-168zM180 791v235h168v-235h-168z" />
    <glyph glyph-name="semicolon" unicode=";" horiz-adv-x="571" 
d="M180 -295q76 160 76 295h-70v236h168v-146q0 -199 -116 -405zM186 791v235h168v-235h-168z" />
    <glyph glyph-name="less" unicode="&#x3c;" horiz-adv-x="1351" 
d="M221 539v112q646 336 866 451v-129q-73 -38 -226.5 -115.5t-270.5 -137.5t-225 -118v-8q84 -43 361 -188.5t361 -188.5v-129q-73 38 -385 201.5t-481 249.5z" />
    <glyph glyph-name="equal" unicode="=" horiz-adv-x="1351" 
d="M143 461v110h1024v-110h-1024zM143 780v111h1024v-111h-1024z" />
    <glyph glyph-name="greater" unicode="&#x3e;" horiz-adv-x="1351" 
d="M221 88v129q84 43 361.5 188.5t361.5 188.5v8q-108 58 -226.5 118.5t-268.5 136.5t-228 116v131q220 -115 866 -451v-114q-169 -86 -481 -249.5t-385 -201.5z" />
    <glyph glyph-name="question" unicode="?" horiz-adv-x="1148" 
d="M180 1413q159 41 281 41q54 0 97 -3t94 -13.5t90 -28.5t77 -49.5t62.5 -73.5t39.5 -104.5t15 -139.5q0 -42 -7.5 -78.5t-16.5 -63t-29.5 -52.5t-34 -41t-42.5 -35t-42.5 -28t-47 -26t-44.5 -24q-25 -14 -31.5 -18t-29 -18t-30 -21.5l-22.5 -22.5t-20.5 -27.5t-11 -30.5
t-5.5 -38v-151h-123v141q0 50 15 90t47 71t61.5 51.5t77.5 47.5q94 52 127 82q78 70 78 192q0 92 -23 155t-69.5 99t-107 51t-144.5 15q-61 0 -144 -14.5t-120 -26.5zM387 0v236h148v-236h-148z" />
    <glyph glyph-name="at" unicode="@" horiz-adv-x="2306" 
d="M180 526q0 936 957 936q495 0 724.5 -204t229.5 -631q0 -141 -33.5 -253t-100.5 -194.5t-175 -127t-250 -44.5h-105v107q-79 -49 -176 -88t-176 -39q-411 0 -411 510q0 569 466 569q38 0 77 -2.5t76 -7t67 -9t63.5 -11.5t52 -11t45 -10.5t31.5 -7.5v-914q67 1 122.5 14
t112.5 49t96 93t64 153.5t25 223.5q0 391 -194.5 568t-630.5 177q-416 0 -622 -209.5t-206 -636.5q0 -441 200 -642t628 -201q133 0 267.5 20t245.5 52.5t186.5 60.5t139.5 57l39 -80q-66 -32 -146.5 -62.5t-195.5 -64.5t-256 -55t-280 -21q-234 0 -408.5 51.5t-299 162.5
t-187 291t-62.5 431zM786 502q0 -104 17 -181.5t44.5 -123t68.5 -73t82 -37t92 -9.5q74 0 171.5 44.5t161.5 86.5v731q-173 41 -297 41q-53 0 -97.5 -10t-91 -41.5t-78.5 -82.5t-52.5 -139t-20.5 -206z" />
    <glyph glyph-name="A" unicode="A" horiz-adv-x="1277" 
d="M37 0l500 1434h161l496 -1434h-139l-148 438h-583l-146 -438h-141zM352 530h531l-265 789z" />
    <glyph glyph-name="B" unicode="B" horiz-adv-x="1243" 
d="M193 0v1434h477q160 0 253 -85t93 -251q0 -246 -170 -310q248 -94 248 -376q0 -73 -11.5 -131t-42.5 -112t-81 -90t-130.5 -57.5t-187.5 -21.5h-448zM322 92h305q165 0 249.5 72.5t84.5 249.5q0 71 -20 126.5t-52.5 90t-77.5 57t-90 31t-94 8.5h-305v-635zM322 819h331
q33 0 62.5 6t61.5 24t54.5 47t37 79.5t14.5 116.5q0 117 -58.5 183t-171.5 66h-331v-522z" />
    <glyph glyph-name="C" unicode="C" horiz-adv-x="1144" 
d="M119 547v340q0 567 555 567q91 0 178 -20.5t203 -61.5l-31 -104q-176 58 -244 70q-55 10 -106 10q-221 0 -320.5 -115t-99.5 -348v-336q0 -463 420 -463q54 0 119.5 13.5t102 24.5t130.5 42l29 -105q-115 -40 -202.5 -60.5t-178.5 -20.5q-555 0 -555 567z" />
    <glyph glyph-name="D" unicode="D" horiz-adv-x="1431" 
d="M193 0v1434h462q86 0 155.5 -8.5t136.5 -30.5t118 -57.5t94.5 -91t71.5 -129.5t43.5 -174.5t15.5 -225.5t-15.5 -225.5t-43.5 -174.5t-71.5 -129.5t-94.5 -91t-118 -57.5t-136.5 -30.5t-155.5 -8.5h-462zM324 98h331q59 0 107 5.5t101 21.5t94 43.5t79.5 74.5t63.5 111
t40 156t15 207t-15 207.5t-40 156t-63.5 110.5t-79 74.5t-94.5 43.5t-101.5 21t-106.5 5h-331v-1237z" />
    <glyph glyph-name="E" unicode="E" horiz-adv-x="1155" 
d="M193 0v1434h843v-99h-712v-508h624v-94h-624v-635h712v-98h-843z" />
    <glyph glyph-name="F" unicode="F" horiz-adv-x="1171" 
d="M193 0v1434h843v-105h-712v-545h624v-98h-624v-686h-131z" />
    <glyph glyph-name="G" unicode="G" horiz-adv-x="1280" 
d="M115 545v342q0 275 134.5 421t424.5 146q238 0 430 -63l-31 -101q-198 64 -391 64q-229 0 -330.5 -115.5t-101.5 -353.5v-340q0 -108 24 -192.5t73.5 -147t132 -96t194.5 -33.5q164 0 344 53v512l-350 12v97h467v-695q-216 -75 -461 -75q-559 0 -559 565z" />
    <glyph glyph-name="H" unicode="H" horiz-adv-x="1490" 
d="M193 0v1434h131v-600h802v600h131v-1434h-131v733h-802v-733h-131z" />
    <glyph glyph-name="I" unicode="I" horiz-adv-x="768" 
d="M57 0v100h240v1233h-238v101h609v-101h-240v-1233h242v-100h-613z" />
    <glyph glyph-name="J" unicode="J" horiz-adv-x="958" 
d="M-25 37l31 110q87 -65 240 -65q69 0 124 12.5t92.5 32.5t65 51.5t43 63.5t25 74t12 78t2.5 81v959h131v-963q0 -57 -4.5 -104t-17.5 -99t-35 -92.5t-58.5 -78t-86 -62.5t-120.5 -40t-159 -15q-164 0 -285 57z" />
    <glyph glyph-name="K" unicode="K" horiz-adv-x="1271" 
d="M193 0v1434h131v-639h24l709 639h174l-750 -656l754 -778h-164l-723 745h-24v-745h-131z" />
    <glyph glyph-name="L" unicode="L" horiz-adv-x="1110" 
d="M193 0v1434h131v-1319h753v-115h-884z" />
    <glyph glyph-name="M" unicode="M" horiz-adv-x="1906" 
d="M152 0l120 1434h144l516 -1295l514 1295h143l123 -1434h-129l-100 1249l-492 -1249h-123l-487 1249l-100 -1249h-129z" />
    <glyph glyph-name="N" unicode="N" horiz-adv-x="1630" 
d="M193 0v1434h149l940 -1254v1254h115v-1434h-150l-940 1255v-1255h-114z" />
    <glyph glyph-name="O" unicode="O" horiz-adv-x="1503" 
d="M119 543v346q0 90 24 173t74 154.5t121.5 124.5t172.5 83t220 30t220 -30t172.5 -83t121.5 -124.5t74 -154.5t24 -173v-346q0 -113 -39 -213.5t-112.5 -179t-192.5 -124.5t-268 -46t-268 46t-192.5 124.5t-112.5 179t-39 213.5zM258 551q0 -214 129.5 -342.5
t343.5 -128.5q224 0 349.5 127t125.5 344v332q0 202 -127.5 336.5t-347.5 134.5q-205 0 -339 -132.5t-134 -338.5v-332z" />
    <glyph glyph-name="P" unicode="P" horiz-adv-x="1259" 
d="M193 0v1434h428q127 0 212.5 -19t148.5 -67t91.5 -131t28.5 -209q0 -250 -116 -356.5t-365 -106.5h-297v-545h-131zM324 643h297q48 0 87 5t80 18.5t71.5 40t55 65.5t37.5 99t13 137q0 94 -23 158.5t-69 100.5t-106.5 51t-145.5 15h-297v-690z" />
    <glyph glyph-name="Q" unicode="Q" horiz-adv-x="1503" 
d="M119 543v346q0 90 24 173t74 154.5t121.5 124.5t172.5 83t220 30t220 -30t172.5 -83t121.5 -124.5t74 -154.5t24 -173v-346q0 -176 -90.5 -317t-261.5 -203l183 -326h-136l-159 297q-79 -14 -148 -14q-149 0 -268 46t-192.5 124.5t-112.5 179t-39 213.5zM258 551
q0 -214 129.5 -342.5t343.5 -128.5q224 0 349.5 127t125.5 344v332q0 202 -127.5 336.5t-347.5 134.5q-205 0 -339 -132.5t-134 -338.5v-332z" />
    <glyph glyph-name="R" unicode="R" horiz-adv-x="1327" 
d="M193 0v1434h466q252 0 367 -100t115 -322q0 -183 -94 -285.5t-234 -105.5l444 -621h-153l-420 621h-360v-621h-131zM324 707h338q85 0 144 13t106 45.5t69.5 93.5t22.5 153q0 180 -85 251.5t-257 71.5h-338v-628z" />
    <glyph glyph-name="S" unicode="S" horiz-adv-x="1273" 
d="M117 74l22 100q104 -46 234.5 -72t255.5 -26q74 0 133.5 13t97.5 32.5t65.5 48t41.5 53t21.5 54.5t9 45.5t1.5 31.5q0 76 -22 122t-68 75.5t-137 60.5q-39 13 -106 32.5t-112 33t-106.5 36.5t-103.5 45t-87 56t-72 72.5t-44.5 91.5t-17.5 115q0 90 40.5 160.5t111 113
t160.5 64.5t194 22q127 0 237 -23t236 -67l-25 -100q-119 47 -219.5 71.5t-224.5 24.5q-101 0 -176 -23.5t-116.5 -62.5t-61 -82.5t-19.5 -91.5q0 -154 207 -246q63 -28 142.5 -55t138.5 -44.5t123 -41t108.5 -52t81.5 -68.5t55.5 -99t18.5 -136q0 -93 -40.5 -166
t-110.5 -118.5t-160.5 -69.5t-194.5 -24q-128 0 -273 22t-239 72z" />
    <glyph glyph-name="T" unicode="T" horiz-adv-x="1114" 
d="M33 1319v115h1005v-115h-438v-1319h-131v1319h-436z" />
    <glyph glyph-name="U" unicode="U" horiz-adv-x="1396" 
d="M164 512v922h133v-942q0 -209 103.5 -310.5t295.5 -101.5q186 0 274.5 100t88.5 312v942h121v-922q0 -125 -26 -220.5t-82 -166.5t-151 -108t-227 -37q-270 0 -400 140t-130 392z" />
    <glyph glyph-name="V" unicode="V" horiz-adv-x="1259" 
d="M37 1434h151l418 -1328h12l429 1328h143l-481 -1434h-193z" />
    <glyph glyph-name="W" unicode="W" horiz-adv-x="2062" 
d="M41 1434h141l357 -1264l403 1264h139l412 -1264l352 1264h144l-420 -1434h-150l-413 1274l-404 -1274h-149z" />
    <glyph glyph-name="X" unicode="X" horiz-adv-x="1292" 
d="M37 0l493 717l-493 717h168l424 -639l420 639h159l-493 -717l493 -717h-168l-424 637l-421 -637h-158z" />
    <glyph glyph-name="Y" unicode="Y" horiz-adv-x="1263" 
d="M37 1434h156l428 -744l421 744h150l-512 -859v-575h-131v578z" />
    <glyph glyph-name="Z" unicode="Z" horiz-adv-x="1232" 
d="M88 0v90l879 1249h-840v95h997v-91l-876 -1249h880v-94h-1040z" />
    <glyph glyph-name="bracketleft" unicode="[" horiz-adv-x="815" 
d="M180 -283v1901h402v-100h-271v-1702h271v-99h-402z" />
    <glyph glyph-name="backslash" unicode="\" horiz-adv-x="1273" 
d="M180 1616h131l742 -1899h-127z" />
    <glyph glyph-name="bracketright" unicode="]" horiz-adv-x="743" 
d="M170 -184h270v1702h-270v100h401v-1901h-401v99z" />
    <glyph glyph-name="asciicircum" unicode="^" horiz-adv-x="1429" 
d="M180 598l457 838h121l459 -838h-138l-381 705l-383 -705h-135z" />
    <glyph glyph-name="underscore" unicode="_" horiz-adv-x="1015" 
d="M-4 -82h1024v-117h-1024v117z" />
    <glyph glyph-name="grave" unicode="`" horiz-adv-x="536" 
d="M152 1516h131l75 -369h-84z" />
    <glyph glyph-name="a" unicode="a" 
d="M100 268q0 144 91.5 217.5t285.5 73.5h316v160q0 125 -48.5 176t-181.5 51q-147 0 -375 -57l-16 94q1 0 29.5 7.5t44.5 11t50.5 11t63 12t65 9.5t74 7.5t74.5 2.5q188 0 266.5 -82t78.5 -278v-684h-125v80q-53 -39 -138 -71t-188 -32q-189 0 -278 72t-89 219zM231 270
q0 -108 62.5 -158.5t200.5 -50.5q70 0 156 28.5t143 64.5v327h-299q-137 0 -200 -51t-63 -160z" />
    <glyph glyph-name="b" unicode="b" horiz-adv-x="1183" 
d="M154 0v1495h127v-551q55 35 139 65.5t180 30.5q451 0 451 -528q0 -258 -107 -394t-344 -136q-163 0 -319 98v-80h-127zM281 162q141 -92 294 -92q343 0 343 442q0 440 -343 440q-61 0 -124 -17.5t-94 -33t-76 -41.5v-698z" />
    <glyph glyph-name="c" unicode="c" horiz-adv-x="980" 
d="M104 430v162q0 213 124.5 332.5t344.5 119.5q85 0 176 -21.5t164 -57.5l-24 -95q-70 29 -99 40t-92.5 27.5t-111.5 16.5q-171 0 -258.5 -96t-87.5 -270v-152q0 -176 87.5 -271t258.5 -95q50 0 107 14t93.5 27.5t104.5 42.5l22 -95q-195 -79 -340 -79q-221 0 -345 117
t-124 333z" />
    <glyph glyph-name="d" unicode="d" horiz-adv-x="1198" 
d="M109 512q0 258 106.5 395t345.5 137q159 0 318 -100v551h125v-1495h-125v80q-163 -100 -318 -100q-223 0 -337.5 136.5t-114.5 395.5zM240 512q0 -107 20.5 -187.5t52.5 -128t78.5 -76t91.5 -38.5t99 -10q149 0 297 92v696q-166 92 -297 92q-54 0 -99 -9.5t-91.5 -38.5
t-78.5 -76t-52.5 -127.5t-20.5 -188.5z" />
    <glyph glyph-name="e" unicode="e" 
d="M104 373v215q0 215 106 335.5t329 120.5q211 0 322.5 -103t111.5 -306v-162h-735v-104q0 -161 86.5 -232t257.5 -71q117 0 354 84l16 -93q-228 -77 -377 -77q-110 0 -193 20t-147 64t-97.5 122t-33.5 187zM238 543h608v112q0 150 -77 228t-230 78q-301 0 -301 -343v-75z
" />
    <glyph glyph-name="f" unicode="f" horiz-adv-x="808" 
d="M31 932v92h198v94q0 418 342 418q165 0 297 -41l-20 -90q-134 33 -258 33q-126 0 -180 -78.5t-54 -257.5v-78h389v-92h-389v-932h-127v932h-198z" />
    <glyph glyph-name="g" unicode="g" horiz-adv-x="1193" 
d="M100 -92q0 190 201 276q-65 61 -65 133q0 84 63 140q-65 35 -106 99t-41 161q0 91 34 156t95.5 101.5t137 53t169.5 16.5q77 0 137 -13t87.5 -26.5t63.5 -35.5l9 -6q47 44 47 163h131q-2 -79 -26 -130t-87 -74q74 -81 74 -205q0 -72 -23 -126.5t-61 -88t-95.5 -54.5
t-118.5 -28.5t-138 -7.5q-135 0 -201 16q-11 -13 -22 -47.5t-11 -63.5q0 -21 12.5 -53.5t26.5 -52.5q49 12 195 12q87 0 156 -8t133 -29t106.5 -55.5t68 -91t25.5 -131.5q0 -76 -25 -132.5t-67.5 -91.5t-106.5 -56.5t-133 -29.5t-157 -8q-87 0 -156 8t-133 29.5t-106.5 56
t-67.5 91.5t-25 133zM229 -92q0 -51 15.5 -90.5t53 -74t111 -53t179.5 -18.5t179.5 18.5t111.5 53t53.5 74t15.5 90.5q0 60 -15.5 100.5t-54.5 71.5t-110.5 45t-179.5 14q-359 0 -359 -231zM281 717q0 -60 13.5 -101t47.5 -72.5t94.5 -46t151.5 -14.5q165 0 235 58t70 176v6
q0 109 -75 177q-78 69 -230 69q-307 0 -307 -252z" />
    <glyph glyph-name="h" unicode="h" horiz-adv-x="1204" 
d="M154 0v1495h127v-594q56 52 152 97.5t214 45.5q74 0 126.5 -8t100 -30t76.5 -60.5t45.5 -100t16.5 -147.5v-698h-125v688q0 140 -57.5 202t-206.5 62q-90 0 -188 -44t-154 -97v-811h-127z" />
    <glyph glyph-name="i" unicode="i" horiz-adv-x="477" 
d="M154 0v1024h127v-1024h-127zM154 1194v240h127v-240h-127z" />
    <glyph glyph-name="j" unicode="j" horiz-adv-x="483" 
d="M-223 -367l12 86q135 -41 193 -41q192 0 192 244v1102h127v-1102q0 -332 -303 -332q-65 0 -221 43zM174 1194v240h127v-240h-127z" />
    <glyph glyph-name="k" unicode="k" horiz-adv-x="1026" 
d="M154 0v1434h127v-871h4l528 461h176l-577 -487l577 -537h-166l-538 506h-4v-506h-127z" />
    <glyph glyph-name="l" unicode="l" horiz-adv-x="475" 
d="M154 0v1495h127v-1495h-127z" />
    <glyph glyph-name="m" unicode="m" horiz-adv-x="1630" 
d="M154 0v1024h122v-125q50 47 150 96t168 49q63 0 107.5 -12t71.5 -37t41.5 -50t27.5 -62q64 65 168.5 113t179.5 48q141 0 195.5 -75t54.5 -232v-737h-125v727q0 110 -31.5 158.5t-122.5 48.5q-58 0 -152 -38t-149 -85v-811h-125v727q0 106 -38.5 156.5t-133.5 50.5
q-61 0 -149 -38.5t-138 -86.5v-809h-122z" />
    <glyph glyph-name="n" unicode="n" horiz-adv-x="1202" 
d="M154 0v1024h127v-123q200 143 381 143q193 0 271.5 -86t78.5 -268v-690h-125v684q0 147 -56.5 207.5t-207.5 60.5q-91 0 -188.5 -43.5t-153.5 -95.5v-813h-127z" />
    <glyph glyph-name="o" unicode="o" horiz-adv-x="1175" 
d="M102 397v230q0 191 125 304t344 113q221 0 347 -113t126 -304v-230q0 -191 -126 -304t-347 -113q-219 0 -344 113t-125 304zM233 397q0 -149 90.5 -240t247.5 -91q159 0 249.5 91t90.5 240v228q0 149 -91 241t-249 92q-155 0 -246.5 -90.5t-91.5 -236.5v-234z" />
    <glyph glyph-name="p" unicode="p" horiz-adv-x="1185" 
d="M156 -410v1434h127v-80q154 100 323 100q234 0 340.5 -135.5t106.5 -396.5t-106.5 -396.5t-340.5 -135.5q-172 0 -323 98v-488h-127zM283 162q152 -92 297 -92q185 0 262.5 112t77.5 330q0 219 -77.5 330.5t-262.5 111.5q-156 0 -297 -92v-700z" />
    <glyph glyph-name="q" unicode="q" horiz-adv-x="1185" 
d="M104 512q0 256 109 394t352 138q129 0 229 -19.5t207 -55.5v-1379h-127v490q-159 -100 -319 -100q-451 0 -451 532zM238 512q0 -108 20.5 -188.5t53 -127.5t79.5 -76t92 -38.5t99 -9.5q60 0 121.5 17t94.5 33.5t76 41.5v733q-124 55 -292 55q-54 0 -99 -9.5t-92 -38.5
t-79.5 -76.5t-53 -128t-20.5 -187.5z" />
    <glyph glyph-name="r" unicode="r" horiz-adv-x="774" 
d="M154 0v1024h127v-184q44 83 133 143.5t184 60.5h86l21 -114h-80q-67 0 -132.5 -29t-110.5 -71t-73 -87.5t-28 -78.5v-664h-127z" />
    <glyph glyph-name="s" unicode="s" horiz-adv-x="1028" 
d="M94 51l17 86q241 -76 393 -76q58 0 103.5 7.5t74.5 18t50 27t31 30.5t15.5 34t6.5 31.5t1 28.5q0 103 -116 157q-44 20 -112.5 38t-126.5 29.5t-121 34.5t-107 52.5t-72.5 83.5t-28.5 127q0 76 32 132t90 88.5t130 48t160 15.5q77 0 152.5 -12t114 -23.5t98.5 -31.5
l-25 -82q-66 23 -100.5 33.5t-102 21.5t-139.5 11q-79 0 -137.5 -20t-88.5 -52.5t-43.5 -64.5t-13.5 -64q0 -50 29.5 -87t79.5 -57q46 -17 119 -35t130 -30.5t121 -37t106.5 -55.5t70.5 -85.5t28 -128.5q0 -67 -21.5 -115.5t-56 -76.5t-89 -44.5t-108.5 -22t-126 -5.5
q-201 0 -418 71z" />
    <glyph glyph-name="t" unicode="t" horiz-adv-x="798" 
d="M31 934v90h192v264l127 23v-287h387v-90h-387v-619q0 -245 189 -245q50 0 90.5 7t53 11.5t44.5 17.5l25 -81q-87 -45 -228 -45q-153 0 -227 79t-74 246v629h-192z" />
    <glyph glyph-name="u" unicode="u" horiz-adv-x="1204" 
d="M154 319v705h127v-684q0 -268 227 -268q110 0 215 43t164 96v813h125v-1024h-125v123q-70 -54 -189 -98.5t-229 -44.5q-159 0 -237 89.5t-78 249.5z" />
    <glyph glyph-name="v" unicode="v" horiz-adv-x="1058" 
d="M37 1024h145l330 -932h6l330 932h135l-383 -1024h-176z" />
    <glyph glyph-name="w" unicode="w" horiz-adv-x="1662" 
d="M43 1024h143l246 -903h2l297 903h154l299 -905h2l246 905h133l-301 -1024h-148l-311 901l-313 -901h-146z" />
    <glyph glyph-name="x" unicode="x" horiz-adv-x="1089" 
d="M51 0l389 514l-389 510h158l334 -455l317 455h148l-390 -510l390 -514h-158l-328 455l-321 -455h-150z" />
    <glyph glyph-name="y" unicode="y" horiz-adv-x="1105" 
d="M29 1024h151l402 -948l315 948h137l-348 -979q-89 -234 -135 -332q-39 -84 -101 -134t-163 -50q-121 0 -224 49l31 92q100 -41 176 -41q68 0 111 30t78 112l92 229q-31 5 -62.5 29.5t-44.5 56.5z" />
    <glyph glyph-name="z" unicode="z" horiz-adv-x="1058" 
d="M102 0v72l676 862h-637v90h799v-72l-674 -862h672v-90h-836z" />
    <glyph glyph-name="braceleft" unicode="{" horiz-adv-x="880" 
d="M180 649v121h51q26 0 52 24.5t26 73.5v543q0 227 226 227h110v-120h-106q-44 0 -71.5 -26.5t-27.5 -72.5v-565q0 -55 -17.5 -82.5t-57.5 -56.5q47 -35 61 -80.5t14 -157.5v-545q0 -46 27.5 -72t71.5 -26h106v-121h-110q-226 0 -226 244v594q0 49 -25.5 73.5t-50.5 24.5
h-53z" />
    <glyph glyph-name="bar" unicode="|" horiz-adv-x="540" 
d="M180 -410v1844h131v-1844h-131z" />
    <glyph glyph-name="braceright" unicode="}" horiz-adv-x="880" 
d="M180 -166h107q44 0 71 26t27 72v545q0 111 14 157t60 81q-27 20 -39.5 33.5t-23.5 40.5t-11 65v565q0 46 -27 72.5t-71 26.5h-107v120h111q225 0 225 -227v-543q0 -49 26 -73.5t50 -24.5h53v-121h-55q-24 0 -49 -24.5t-25 -73.5v-594q0 -117 -55.5 -180.5t-169.5 -63.5
h-111v121z" />
    <glyph glyph-name="asciitilde" unicode="~" horiz-adv-x="1361" 
d="M190 868l6 8q7 8 13.5 16t18.5 21t24 24.5t28.5 25.5t33 25.5t36.5 22.5t40 19t43 12.5t46 4.5q52 0 106.5 -21.5t94.5 -47.5t99.5 -47.5t121.5 -21.5q26 0 52 8t49 21.5t43.5 29t37 32.5t28 30t19.5 23l9 10l69 -80q-1 -1 -13.5 -20t-28 -39.5t-43 -47.5t-57 -48
t-70 -35.5t-83.5 -14.5q-61 0 -120 22t-99.5 48t-95.5 48t-109 22q-61 0 -134 -48.5t-109 -89.5z" />
    <glyph glyph-name="uni00A0" unicode="&#xa0;" horiz-adv-x="573" 
 />
    <glyph glyph-name="exclamdown" unicode="&#xa1;" horiz-adv-x="0" 
d="M180 -410l35 1065h109l34 -1065h-178zM195 788v236h149v-236h-149z" />
    <glyph glyph-name="cent" unicode="&#xa2;" horiz-adv-x="1011" 
d="M154 430v162q0 196 105.5 312.5t295.5 135.5v230h107v-228q159 -9 301 -77l-25 -95q-4 1 -47.5 18.5t-59 23t-51 17t-63.5 16.5t-55 7v-882q45 3 99.5 18t80.5 25.5t98 40.5l23 -95q-171 -70 -301 -77v-248h-107v250q-191 17 -296 132t-105 314zM289 436q0 -154 67 -246
t199 -114v872q-133 -21 -199.5 -114.5t-66.5 -245.5v-152z" />
    <glyph glyph-name="sterling" unicode="&#xa3;" horiz-adv-x="1363" 
d="M123 66q73 55 170 100v573h-121v88h121v174q0 206 132.5 329.5t342.5 123.5q61 0 126.5 -8.5t118 -21t94 -24t68.5 -20.5l27 -10l-35 -90q-3 3 -59 20.5t-155.5 36.5t-184.5 19q-63 0 -121 -20.5t-109 -61.5t-82 -113t-32 -166v-168h631v-88h-631v-544q69 16 139 16
q47 -1 102 -19t97.5 -39.5t100.5 -39t112 -17.5q32 0 65.5 8.5t61.5 22t54.5 29.5t47.5 33t36.5 30.5t25.5 22.5l10 10l59 -78l-51 -51q-158 -142 -309 -143q-59 0 -133.5 29.5t-156 59t-157.5 29.5q-99 0 -194 -32t-168 -84z" />
    <glyph glyph-name="yen" unicode="&#xa5;" horiz-adv-x="1351" 
d="M98 1434h156l428 -744l422 744h149l-465 -779h355v-100h-402v-94h402v-101h-402v-360h-131v360h-399v101h399v94h-399v100h352z" />
    <glyph glyph-name="brokenbar" unicode="&#xa6;" horiz-adv-x="491" 
d="M180 -410v861h131v-861h-131zM180 573v861h131v-861h-131z" />
    <glyph glyph-name="section" unicode="&#xa7;" horiz-adv-x="1429" 
d="M180 -334l23 90q103 -24 167 -37.5t155 -25.5t171 -12q103 0 181 21t120.5 55.5t63 72t20.5 76.5q0 44 -22 79.5t-56.5 59.5t-90 44.5t-109.5 33.5t-129 27q-52 10 -92 18.5t-94 25t-94 35t-82.5 48t-69.5 64t-44.5 83t-17.5 104.5q0 48 21 91t49 72.5t75 60.5t78.5 46.5
t79.5 37.5q-126 28 -214.5 109t-88.5 192q0 102 72.5 175t187 106.5t256.5 33.5q242 0 518 -78l-22 -90q-94 25 -149.5 38t-154 26.5t-192.5 13.5q-102 0 -180 -21t-121 -55.5t-63.5 -72t-20.5 -76.5q0 -36 14 -65.5t43 -53t62 -41t84.5 -33.5t95 -26.5t107.5 -24.5
q186 -40 267 -73q207 -86 226 -267q2 -19 2 -39q0 -45 -18 -87t-47 -74.5t-69 -61.5t-80 -49.5t-83 -36.5q135 -37 216 -110.5t81 -188.5q0 -81 -44.5 -143.5t-119 -99t-164 -55t-188.5 -18.5q-199 0 -516 76zM311 528q1 -40 14.5 -74t33 -58t52.5 -45t62 -33.5t73.5 -25.5
t74 -19t76 -16t69.5 -15q50 21 80 34.5t72 35.5t66.5 41.5t49.5 44.5t36 54t11 62q0 40 -14 74.5t-35.5 59.5t-58 46.5t-71 36t-85.5 28t-90.5 22t-97.5 18.5q-131 -48 -225 -118.5t-93 -152.5z" />
    <glyph glyph-name="dieresis" unicode="&#xa8;" horiz-adv-x="772" 
d="M180 1188v280h101v-280h-101zM436 1188v280h101v-280h-101z" />
    <glyph glyph-name="copyright" unicode="&#xa9;" horiz-adv-x="2224" 
d="M180 522q0 451 232.5 691.5t699.5 240.5q466 0 699 -241t233 -691t-233 -691t-699 -241q-467 0 -699.5 240.5t-232.5 691.5zM297 522q0 -415 203 -627t612 -212q413 0 614 211.5t201 627.5q0 413 -201.5 627.5t-613.5 214.5q-411 0 -613 -214.5t-202 -627.5zM694 440v148
q0 242 104 357.5t353 115.5q86 0 154 -12t155 -41l-24 -88q-89 32 -150.5 44.5t-134.5 12.5q-195 0 -271.5 -89.5t-76.5 -299.5v-148q0 -194 77 -283t271 -89q73 0 136 12.5t151 44.5l22 -84q-88 -31 -156 -44t-153 -13q-128 0 -215.5 27t-141 84.5t-77 141t-23.5 203.5z
" />
    <glyph glyph-name="ordfeminine" unicode="&#xaa;" horiz-adv-x="643" 
d="M59 907q0 205 267 205h223v113q0 88 -34.5 123.5t-127.5 35.5q-115 0 -264 -38l-12 65q176 43 282 43q133 0 188.5 -58t55.5 -196v-483h-88v57q-100 -74 -230 -74q-134 0 -197 51t-63 156zM152 907q0 -76 44.5 -111.5t141.5 -35.5q51 0 111.5 19.5t99.5 45.5v232h-211
q-97 0 -141.5 -36.5t-44.5 -113.5z" />
    <glyph glyph-name="guillemotleft" unicode="&#xab;" horiz-adv-x="1144" 
d="M180 514l314 447h122l-297 -443l297 -412h-129zM475 514l316 447h120l-297 -443l297 -412h-129z" />
    <glyph glyph-name="logicalnot" unicode="&#xac;" horiz-adv-x="1234" 
d="M98 915v109h1039v-526h-105v417h-934z" />
    <glyph glyph-name="uni00AD" unicode="&#xad;" horiz-adv-x="933" 
d="M139 451v116h615v-116h-615z" />
    <glyph glyph-name="registered" unicode="&#xae;" horiz-adv-x="1339" 
d="M180 961q0 493 498 493q243 0 371.5 -121.5t128.5 -371.5t-128.5 -371t-371.5 -121q-498 0 -498 492zM281 961q0 -213 97.5 -316.5t299.5 -103.5q206 0 302.5 103t96.5 317q0 213 -96 317t-303 104q-203 0 -300 -104.5t-97 -316.5zM496 674v581h186q102 0 152.5 -41
t50.5 -129q0 -73 -42.5 -114t-103.5 -43l185 -254h-88l-170 254h-107v-254h-63zM559 977h125q26 0 41 1t34.5 7t30 17t18 32t7.5 51q0 72 -33.5 94.5t-97.5 22.5h-125v-225z" />
    <glyph glyph-name="macron" unicode="&#xaf;" horiz-adv-x="954" 
d="M98 1286v86h615v-86h-615z" />
    <glyph glyph-name="degree" unicode="&#xb0;" horiz-adv-x="1187" 
d="M180 1090q0 152 107 259t258 107q152 0 259 -107t107 -259q0 -151 -107 -258t-259 -107q-151 0 -258 107t-107 258zM293 1090q0 -104 74 -178t178 -74q106 0 180 74t74 178q0 106 -74 179.5t-180 73.5q-105 0 -178.5 -73.5t-73.5 -179.5z" />
    <glyph glyph-name="plusminus" unicode="&#xb1;" horiz-adv-x="1351" 
d="M143 0v115h1024v-115h-1024zM143 684v117h451v450h121v-450h452v-117h-452v-451h-121v451h-451z" />
    <glyph glyph-name="twosuperior" unicode="&#xb2;" horiz-adv-x="745" 
d="M109 737v45q0 68 13 115.5t44.5 82.5t66.5 58t97 54q12 6 49.5 22.5t62 29.5t54.5 32t45.5 41.5t15.5 46.5q0 50 -47.5 78t-130.5 28q-46 0 -123 -13.5t-115 -27.5l-22 76q50 18 125.5 35.5t136.5 17.5q129 0 205 -46.5t76 -143.5q0 -27 -6.5 -49t-22.5 -41.5t-31 -33
t-46.5 -31t-52.5 -28.5t-64.5 -31.5t-69.5 -33.5q-39 -19 -60.5 -32.5t-47.5 -37t-38 -54.5t-12 -71h453v-88h-555z" />
    <glyph glyph-name="threesuperior" unicode="&#xb3;" horiz-adv-x="747" 
d="M78 756l14 78q30 -9 100 -20t130 -11q221 0 221 127q0 149 -228 149h-92l-10 70h115q68 0 121 31t53 88q0 108 -174 108q-50 0 -119.5 -8t-102.5 -22l-14 77q35 10 111.5 21.5t126.5 11.5q272 0 272 -170q0 -57 -37 -99t-98 -61q88 -24 136 -68t48 -134q0 -60 -27 -101.5
t-76.5 -62.5t-105.5 -30t-127 -9q-59 0 -140 13.5t-97 21.5z" />
    <glyph glyph-name="acute" unicode="&#xb4;" horiz-adv-x="606" 
d="M180 1147l76 369h137l-129 -369h-84z" />
    <glyph glyph-name="mu" unicode="&#xb5;" horiz-adv-x="1513" 
d="M156 -410v1434h127v-813q126 -139 321 -139q56 0 105.5 15.5t90.5 46.5t65 84t24 122v684h125v-672q0 -132 70.5 -206t172.5 -74q75 0 146 41l24 -107q-81 -26 -157 -26q-107 0 -189.5 48t-113.5 136q-49 -84 -138 -134t-202 -50q-225 0 -344 133v-523h-127z" />
    <glyph glyph-name="paragraph" unicode="&#xb6;" horiz-adv-x="1544" 
d="M180 1020q0 190 94 302t263 112h741l27 -131h-203v-1475l-117 -27v1502h-309v-1582l-119 -26v911h-20q-169 0 -263 112t-94 302z" />
    <glyph glyph-name="periodcentered" unicode="&#xb7;" horiz-adv-x="575" 
d="M172 512q0 106 104 106q107 0 107 -106q0 -104 -107 -104q-104 0 -104 104z" />
    <glyph glyph-name="cedilla" unicode="&#xb8;" horiz-adv-x="475" 
d="M102 -348l19 67q58 -14 129 -14q37 0 53 16t16 54q0 34 -17.5 48.5t-61.5 14.5h-23t-24 -0.5t-21 -1t-16 -0.5h-6l38 187l70 -3l-20 -120h45q58 0 93.5 -32t35.5 -93q0 -144 -154 -144q-75 0 -156 21z" />
    <glyph glyph-name="onesuperior" unicode="&#xb9;" horiz-adv-x="544" 
d="M41 1188l295 258h82v-711h-99v590l-241 -211z" />
    <glyph glyph-name="ordmasculine" unicode="&#xba;" horiz-adv-x="864" 
d="M109 995v162q0 136 88 216.5t243 80.5q157 0 246.5 -80.5t89.5 -216.5v-162q0 -136 -89.5 -216.5t-246.5 -80.5q-155 0 -243 80.5t-88 216.5zM201 995q0 -106 63.5 -170.5t175.5 -64.5q114 0 178 64.5t64 170.5v162q0 105 -64.5 170.5t-177.5 65.5q-109 0 -174 -64.5
t-65 -167.5v-166z" />
    <glyph glyph-name="guillemotright" unicode="&#xbb;" horiz-adv-x="1144" 
d="M180 106l297 412l-297 443h121l315 -447l-309 -408h-127zM475 106l297 412l-297 443h121l315 -447l-309 -408h-127z" />
    <glyph glyph-name="onequarter" unicode="&#xbc;" horiz-adv-x="1605" 
d="M139 1188l295 258h82v-711h-98v590l-242 -211zM299 -12q168 284 478.5 817t373.5 641h137q-182 -313 -850 -1458h-139zM901 193v73l397 443h105v-439h84l-17 -77h-67v-193h-98v193h-404zM995 270h310v340z" />
    <glyph glyph-name="onehalf" unicode="&#xbd;" horiz-adv-x="1597" 
d="M78 1188l295 258h84v-711h-101v590l-241 -211zM295 -12q156 265 442.5 758t407.5 700h139q-123 -212 -410 -703.5t-440 -754.5h-139zM1028 0v45q0 54 10 95.5t25 70t46 54.5t60.5 43t79.5 42q10 5 49 22.5t63 30.5t54.5 33t46 43t15.5 47q0 50 -47.5 80.5t-129.5 30.5
q-46 0 -123.5 -15.5t-115.5 -31.5l-23 78q50 18 125.5 35.5t136.5 17.5q129 0 205 -47t76 -144q0 -27 -6.5 -49t-22.5 -41t-31.5 -33t-46 -31.5t-52.5 -28.5t-64.5 -31.5t-69.5 -34.5q-39 -19 -61.5 -33t-48 -37t-37 -55t-11.5 -74h453v-82h-555z" />
    <glyph glyph-name="threequarters" unicode="&#xbe;" horiz-adv-x="1671" 
d="M111 756l14 78q30 -9 99.5 -20t129.5 -11q221 0 221 127q0 149 -227 149h-92l-10 70h114q68 0 121.5 31t53.5 88q0 108 -175 108q-49 0 -118.5 -8t-102.5 -22l-14 77q35 10 111 21.5t126 11.5q273 0 273 -170q0 -57 -37 -99t-98 -61q88 -24 136 -68t48 -134
q0 -60 -27 -101.5t-76.5 -62.5t-105.5 -30t-127 -9q-59 0 -140 13.5t-97 21.5zM377 -12q153 258 850 1458h139q-123 -212 -410 -703.5t-440 -754.5h-139zM967 193v73l397 443h104v-439h84l-14 -77h-70v-193h-98v193h-403zM1061 270h309v340z" />
    <glyph glyph-name="questiondown" unicode="&#xbf;" horiz-adv-x="1470" 
d="M514 -18q0 42 7.5 78.5t16.5 63t29.5 52.5t34 41t42.5 35t42.5 28t47 26t44.5 24q25 14 31.5 18t29 18t30 21.5l22.5 22.5t20.5 27.5t11 30.5t5.5 38v151h123v-141q0 -50 -15 -90t-47 -71t-61.5 -51.5t-77.5 -47.5q-94 -52 -127 -82q-78 -70 -78 -192q0 -92 23 -155
t69.5 -99t107 -51t144.5 -15q61 0 144 14.5t120 26.5l17 -92q-159 -41 -281 -41q-54 0 -97 3t-94 13.5t-90 28.5t-77 49.5t-62.5 73.5t-39.5 104.5t-15 139.5zM915 788v236h148v-236h-148z" />
    <glyph glyph-name="Agrave" unicode="&#xc0;" horiz-adv-x="1275" 
d="M37 0l500 1434h161l496 -1434h-139l-148 438h-583l-146 -438h-141zM352 530h531l-265 789zM449 1843h137l80 -287h-82z" />
    <glyph glyph-name="Aacute" unicode="&#xc1;" horiz-adv-x="1275" 
d="M37 0l500 1434h161l496 -1434h-139l-148 438h-583l-146 -438h-141zM352 530h531l-265 789zM582 1556l80 287h137l-135 -287h-82z" />
    <glyph glyph-name="Acircumflex" unicode="&#xc2;" horiz-adv-x="1275" 
d="M37 0l500 1434h161l496 -1434h-139l-148 438h-583l-146 -438h-141zM352 530h531l-265 789zM381 1556l176 287h119l180 -287h-106l-132 234l-133 -234h-104z" />
    <glyph glyph-name="Atilde" unicode="&#xc3;" horiz-adv-x="1275" 
d="M37 0l500 1434h161l496 -1434h-139l-148 438h-583l-146 -438h-141zM311 1679q93 82 193 82q51 0 118 -35.5t107 -35.5q82 0 150 73l43 -63q-23 -32 -76.5 -64t-116.5 -32q-43 0 -112 35.5t-115 35.5q-14 0 -26 -1t-23.5 -4.5t-19.5 -5.5t-18 -8.5t-15 -8.5t-14.5 -10.5
t-11.5 -10t-11.5 -10.5t-10.5 -10zM352 530h531l-265 789z" />
    <glyph glyph-name="Adieresis" unicode="&#xc4;" horiz-adv-x="1275" 
d="M37 0l500 1434h161l496 -1434h-139l-148 438h-583l-146 -438h-141zM352 530h531l-265 789zM420 1556v287h102v-287h-102zM717 1556v287h102v-287h-102z" />
    <glyph glyph-name="Aring" unicode="&#xc5;" horiz-adv-x="1275" 
d="M37 0l500 1432q-48 22 -75.5 64t-27.5 97q0 78 52.5 128.5t134.5 50.5q80 0 132 -50.5t52 -128.5q0 -56 -28.5 -98.5t-78.5 -64.5l496 -1430h-139l-148 438h-583l-146 -438h-141zM352 530h531l-265 789zM506 1593q0 -48 32.5 -80t82.5 -32q49 0 80.5 32t31.5 80
q0 50 -31.5 81.5t-80.5 31.5q-51 0 -83 -31.5t-32 -81.5z" />
    <glyph glyph-name="AE" unicode="&#xc6;" horiz-adv-x="1847" 
d="M37 0l756 1434h923v-99h-712v-508h624v-94h-624v-635h712v-98h-844v438h-471l-225 -438h-139zM451 530h421v805h-6z" />
    <glyph glyph-name="Ccedilla" unicode="&#xc7;" horiz-adv-x="1144" 
d="M119 547v340q0 567 555 567q91 0 178 -20.5t203 -61.5l-31 -104q-176 58 -244 70q-55 10 -106 10q-221 0 -320.5 -115t-99.5 -348v-336q0 -463 420 -463q54 0 119.5 13.5t102 24.5t130.5 42l29 -105q-218 -76 -365 -81l-12 -80h45q58 0 93.5 -32t35.5 -93
q0 -144 -154 -144q-74 0 -155 21l18 67q58 -14 129 -14q37 0 53.5 16t16.5 54q0 34 -18 48.5t-62 14.5h-23t-24 -0.5t-21 -1t-16 -0.5h-6l31 146q-502 25 -502 565z" />
    <glyph glyph-name="Egrave" unicode="&#xc8;" horiz-adv-x="1155" 
d="M193 0v1434h843v-99h-712v-508h624v-94h-624v-635h712v-98h-843zM463 1843h137l80 -287h-82z" />
    <glyph glyph-name="Eacute" unicode="&#xc9;" horiz-adv-x="1155" 
d="M193 0v1434h843v-99h-712v-508h624v-94h-624v-635h712v-98h-843zM549 1556l80 287h137l-135 -287h-82z" />
    <glyph glyph-name="Ecircumflex" unicode="&#xca;" horiz-adv-x="1155" 
d="M193 0v1434h843v-99h-712v-508h624v-94h-624v-635h712v-98h-843zM387 1556l176 287h119l180 -287h-106l-131 234l-133 -234h-105z" />
    <glyph glyph-name="Edieresis" unicode="&#xcb;" horiz-adv-x="1155" 
d="M193 0v1434h843v-99h-712v-508h624v-94h-624v-635h712v-98h-843zM436 1556v287h103v-287h-103zM733 1556v287h103v-287h-103z" />
    <glyph glyph-name="Igrave" unicode="&#xcc;" horiz-adv-x="768" 
d="M57 0v100h240v1233h-238v101h609v-101h-240v-1233h242v-100h-613zM209 1843h137l80 -287h-82z" />
    <glyph glyph-name="Iacute" unicode="&#xcd;" horiz-adv-x="768" 
d="M57 0v100h240v1233h-238v101h609v-101h-240v-1233h242v-100h-613zM295 1556l80 287h137l-135 -287h-82z" />
    <glyph glyph-name="Icircumflex" unicode="&#xce;" horiz-adv-x="768" 
d="M57 0v100h240v1233h-238v101h609v-101h-240v-1233h242v-100h-613zM127 1556l176 287h119l180 -287h-106l-131 234l-134 -234h-104z" />
    <glyph glyph-name="Idieresis" unicode="&#xcf;" horiz-adv-x="768" 
d="M57 0v100h240v1233h-238v101h609v-101h-240v-1233h242v-100h-613zM164 1556v287h102v-287h-102zM461 1556v287h102v-287h-102z" />
    <glyph glyph-name="Eth" unicode="&#xd0;" horiz-adv-x="1374" 
d="M16 705v90h197v639h463q86 0 155.5 -8.5t136.5 -30.5t118 -57.5t94.5 -91t71.5 -129.5t43.5 -174.5t15.5 -225.5t-15.5 -225.5t-43.5 -174.5t-71.5 -129.5t-94.5 -91t-118 -57.5t-136.5 -30.5t-155.5 -8.5h-463v705h-197zM344 98h332q59 0 107 5.5t101 21.5t94 43.5
t79.5 74.5t63.5 111t40 156t15 207t-15 207.5t-40 156t-63.5 110.5t-79 74.5t-94.5 43.5t-101.5 21t-106.5 5h-332v-540h391v-90h-391v-607z" />
    <glyph glyph-name="Ntilde" unicode="&#xd1;" horiz-adv-x="1630" 
d="M193 0v1434h149l940 -1254v1254h115v-1434h-150l-940 1255v-1255h-114zM487 1679q93 82 193 82q51 0 118 -35.5t107 -35.5q82 0 150 73l43 -63q-23 -32 -76.5 -64t-116.5 -32q-43 0 -112 35.5t-115 35.5q-14 0 -26 -1t-23.5 -4.5t-19.5 -5.5t-18 -8.5t-15 -8.5
t-14.5 -10.5t-11.5 -10t-11.5 -10.5t-10.5 -10z" />
    <glyph glyph-name="Ograve" unicode="&#xd2;" horiz-adv-x="1503" 
d="M119 543v346q0 90 24 173t74 154.5t121.5 124.5t172.5 83t220 30t220 -30t172.5 -83t121.5 -124.5t74 -154.5t24 -173v-346q0 -113 -39 -213.5t-112.5 -179t-192.5 -124.5t-268 -46t-268 46t-192.5 124.5t-112.5 179t-39 213.5zM258 551q0 -214 129.5 -342.5
t343.5 -128.5q224 0 349.5 127t125.5 344v332q0 202 -127.5 336.5t-347.5 134.5q-205 0 -339 -132.5t-134 -338.5v-332zM575 1843h138l80 -287h-82z" />
    <glyph glyph-name="Oacute" unicode="&#xd3;" horiz-adv-x="1503" 
d="M119 543v346q0 90 24 173t74 154.5t121.5 124.5t172.5 83t220 30t220 -30t172.5 -83t121.5 -124.5t74 -154.5t24 -173v-346q0 -113 -39 -213.5t-112.5 -179t-192.5 -124.5t-268 -46t-268 46t-192.5 124.5t-112.5 179t-39 213.5zM258 551q0 -214 129.5 -342.5
t343.5 -128.5q224 0 349.5 127t125.5 344v332q0 202 -127.5 336.5t-347.5 134.5q-205 0 -339 -132.5t-134 -338.5v-332zM684 1556l80 287h137l-135 -287h-82z" />
    <glyph glyph-name="Ocircumflex" unicode="&#xd4;" horiz-adv-x="1503" 
d="M119 543v346q0 90 24 173t74 154.5t121.5 124.5t172.5 83t220 30t220 -30t172.5 -83t121.5 -124.5t74 -154.5t24 -173v-346q0 -113 -39 -213.5t-112.5 -179t-192.5 -124.5t-268 -46t-268 46t-192.5 124.5t-112.5 179t-39 213.5zM258 551q0 -214 129.5 -342.5
t343.5 -128.5q224 0 349.5 127t125.5 344v332q0 202 -127.5 336.5t-347.5 134.5q-205 0 -339 -132.5t-134 -338.5v-332zM494 1556l176 287h118l181 -287h-107l-131 234l-133 -234h-104z" />
    <glyph glyph-name="Otilde" unicode="&#xd5;" horiz-adv-x="1503" 
d="M119 543v346q0 90 24 173t74 154.5t121.5 124.5t172.5 83t220 30t220 -30t172.5 -83t121.5 -124.5t74 -154.5t24 -173v-346q0 -113 -39 -213.5t-112.5 -179t-192.5 -124.5t-268 -46t-268 46t-192.5 124.5t-112.5 179t-39 213.5zM258 551q0 -214 129.5 -342.5
t343.5 -128.5q224 0 349.5 127t125.5 344v332q0 202 -127.5 336.5t-347.5 134.5q-205 0 -339 -132.5t-134 -338.5v-332zM426 1679q93 82 192 82q51 0 118.5 -35.5t107.5 -35.5q81 0 149 73l43 -63q-23 -33 -76 -64.5t-116 -31.5q-43 0 -112.5 35.5t-115.5 35.5q-14 0 -26 -1
t-23 -4.5t-19.5 -6t-18 -8t-15 -8.5t-14 -10.5t-11.5 -10t-11.5 -10.5t-10.5 -10z" />
    <glyph glyph-name="Odieresis" unicode="&#xd6;" horiz-adv-x="1503" 
d="M119 543v346q0 90 24 173t74 154.5t121.5 124.5t172.5 83t220 30t220 -30t172.5 -83t121.5 -124.5t74 -154.5t24 -173v-346q0 -113 -39 -213.5t-112.5 -179t-192.5 -124.5t-268 -46t-268 46t-192.5 124.5t-112.5 179t-39 213.5zM258 551q0 -214 129.5 -342.5
t343.5 -128.5q224 0 349.5 127t125.5 344v332q0 202 -127.5 336.5t-347.5 134.5q-205 0 -339 -132.5t-134 -338.5v-332zM532 1556v287h103v-287h-103zM829 1556v287h103v-287h-103z" />
    <glyph glyph-name="multiply" unicode="&#xd7;" horiz-adv-x="1351" 
d="M254 381l321 321l-321 322l80 80l321 -322l322 322l80 -80l-322 -322l322 -321l-80 -80l-322 322l-321 -322z" />
    <glyph glyph-name="Oslash" unicode="&#xd8;" horiz-adv-x="1503" 
d="M119 543v346q0 90 24 173t74 154.5t121.5 124.5t172.5 83t220 30q155 0 283 -53l57 115h100l-75 -158q120 -76 183.5 -200t63.5 -269v-346q0 -113 -39 -213.5t-112.5 -179t-192.5 -124.5t-268 -46q-161 0 -285 51l-55 -113h-100l76 156q-121 75 -184.5 198.5t-63.5 270.5
zM258 551q0 -118 42 -213t118 -158l549 1120q-105 54 -236 54q-205 0 -339 -132.5t-134 -338.5v-332zM496 131q105 -51 235 -51q224 0 349.5 127t125.5 344v332q0 113 -42.5 208.5t-121.5 159.5z" />
    <glyph glyph-name="Ugrave" unicode="&#xd9;" horiz-adv-x="1396" 
d="M164 512v922h133v-942q0 -209 103.5 -310.5t295.5 -101.5q186 0 274.5 100t88.5 312v942h121v-922q0 -125 -26 -220.5t-82 -166.5t-151 -108t-227 -37q-270 0 -400 140t-130 392zM528 1843h138l79 -287h-81z" />
    <glyph glyph-name="Uacute" unicode="&#xda;" horiz-adv-x="1396" 
d="M164 512v922h133v-942q0 -209 103.5 -310.5t295.5 -101.5q186 0 274.5 100t88.5 312v942h121v-922q0 -125 -26 -220.5t-82 -166.5t-151 -108t-227 -37q-270 0 -400 140t-130 392zM621 1556l79 287h138l-136 -287h-81z" />
    <glyph glyph-name="Ucircumflex" unicode="&#xdb;" horiz-adv-x="1396" 
d="M164 512v922h133v-942q0 -209 103.5 -310.5t295.5 -101.5q186 0 274.5 100t88.5 312v942h121v-922q0 -125 -26 -220.5t-82 -166.5t-151 -108t-227 -37q-270 0 -400 140t-130 392zM438 1556l176 287h119l180 -287h-106l-131 234l-133 -234h-105z" />
    <glyph glyph-name="Udieresis" unicode="&#xdc;" horiz-adv-x="1376" 
d="M164 512v922h133v-942q0 -209 103.5 -310.5t295.5 -101.5q186 0 274.5 100t88.5 312v942h121v-922q0 -125 -26 -220.5t-82 -166.5t-151 -108t-227 -37q-270 0 -400 140t-130 392zM475 1556v287h103v-287h-103zM772 1556v287h102v-287h-102z" />
    <glyph glyph-name="Yacute" unicode="&#xdd;" horiz-adv-x="1187" 
d="M16 1434h156l428 -744l422 744h149l-512 -859v-575h-131v578zM551 1556l80 287h137l-135 -287h-82z" />
    <glyph glyph-name="Thorn" unicode="&#xde;" horiz-adv-x="1241" 
d="M193 0v1434h131v-291h297q255 0 369 -100t114 -345q0 -125 -28 -210t-89.5 -137t-149.5 -74.5t-216 -22.5h-297v-254h-131zM324 352h297q169 0 256.5 82t87.5 264q0 183 -87.5 264.5t-256.5 81.5h-297v-692z" />
    <glyph glyph-name="germandbls" unicode="&#xdf;" horiz-adv-x="1204" 
d="M154 -205v1270q0 190 107.5 289.5t307.5 99.5q195 0 301.5 -93t106.5 -263q0 -128 -48 -202t-136 -110q121 -35 191.5 -130.5t70.5 -243.5q0 -72 -12 -130t-43.5 -112t-82 -90.5t-132.5 -58t-191 -21.5h-131l-14 92h137q164 0 250 72t86 250q0 72 -20.5 127.5t-53 90
t-77.5 56.5t-90 30.5t-95 8.5h-119v92h147q43 0 80.5 12.5t73 41t56 84.5t20.5 133q0 145 -71 207.5t-204 62.5q-135 0 -210.5 -68t-75.5 -229v-1268h-129z" />
    <glyph glyph-name="agrave" unicode="&#xe0;" 
d="M100 268q0 144 91.5 217.5t285.5 73.5h316v160q0 125 -48.5 176t-181.5 51q-147 0 -375 -57l-16 94q1 0 29.5 7.5t44.5 11t50.5 11t63 12t65 9.5t74 7.5t74.5 2.5q188 0 266.5 -82t78.5 -278v-684h-125v80q-53 -39 -138 -71t-188 -32q-189 0 -278 72t-89 219zM231 270
q0 -108 62.5 -158.5t200.5 -50.5q70 0 156 28.5t143 64.5v327h-299q-137 0 -200 -51t-63 -160zM387 1516h131l76 -369h-84z" />
    <glyph glyph-name="aacute" unicode="&#xe1;" 
d="M100 268q0 144 91.5 217.5t285.5 73.5h316v160q0 125 -48.5 176t-181.5 51q-147 0 -375 -57l-16 94q1 0 29.5 7.5t44.5 11t50.5 11t63 12t65 9.5t74 7.5t74.5 2.5q188 0 266.5 -82t78.5 -278v-684h-125v80q-53 -39 -138 -71t-188 -32q-189 0 -278 72t-89 219zM231 270
q0 -108 62.5 -158.5t200.5 -50.5q70 0 156 28.5t143 64.5v327h-299q-137 0 -200 -51t-63 -160zM469 1147l76 369h137l-129 -369h-84z" />
    <glyph glyph-name="acircumflex" unicode="&#xe2;" 
d="M100 268q0 144 91.5 217.5t285.5 73.5h316v160q0 125 -48.5 176t-181.5 51q-147 0 -375 -57l-16 94q1 0 29.5 7.5t44.5 11t50.5 11t63 12t65 9.5t74 7.5t74.5 2.5q188 0 266.5 -82t78.5 -278v-684h-125v80q-53 -39 -138 -71t-188 -32q-189 0 -278 72t-89 219zM231 270
q0 -108 62.5 -158.5t200.5 -50.5q70 0 156 28.5t143 64.5v327h-299q-137 0 -200 -51t-63 -160zM322 1147l170 369h98l170 -369h-103l-116 293l-119 -293h-100z" />
    <glyph glyph-name="atilde" unicode="&#xe3;" 
d="M100 268q0 144 91.5 217.5t285.5 73.5h316v160q0 125 -48.5 176t-181.5 51q-147 0 -375 -57l-16 94q1 0 29.5 7.5t44.5 11t50.5 11t63 12t65 9.5t74 7.5t74.5 2.5q188 0 266.5 -82t78.5 -278v-684h-125v80q-53 -39 -138 -71t-188 -32q-189 0 -278 72t-89 219zM209 1266
q24 60 84.5 121t116.5 61q29 0 58 -19t52.5 -46.5t45 -55t43.5 -46.5t42 -19q48 0 87 46.5t61 104.5l53 -41q-26 -66 -85 -131t-114 -65q-28 0 -56 19t-51 46.5t-45.5 55t-47.5 46.5t-47 19q-81 0 -148 -143zM231 270q0 -108 62.5 -158.5t200.5 -50.5q70 0 156 28.5
t143 64.5v327h-299q-137 0 -200 -51t-63 -160z" />
    <glyph glyph-name="adieresis" unicode="&#xe4;" 
d="M100 268q0 144 91.5 217.5t285.5 73.5h316v160q0 125 -48.5 176t-181.5 51q-147 0 -375 -57l-16 94q1 0 29.5 7.5t44.5 11t50.5 11t63 12t65 9.5t74 7.5t74.5 2.5q188 0 266.5 -82t78.5 -278v-684h-125v80q-53 -39 -138 -71t-188 -32q-189 0 -278 72t-89 219zM231 270
q0 -108 62.5 -158.5t200.5 -50.5q70 0 156 28.5t143 64.5v327h-299q-137 0 -200 -51t-63 -160zM354 1188v280h101v-280h-101zM610 1188v280h101v-280h-101z" />
    <glyph glyph-name="aring" unicode="&#xe5;" 
d="M100 268q0 144 91.5 217.5t285.5 73.5h316v160q0 125 -48.5 176t-181.5 51q-147 0 -375 -57l-16 94q1 0 29.5 7.5t44.5 11t50.5 11t63 12t65 9.5t74 7.5t74.5 2.5q188 0 266.5 -82t78.5 -278v-684h-125v80q-53 -39 -138 -71t-188 -32q-189 0 -278 72t-89 219zM231 270
q0 -108 62.5 -158.5t200.5 -50.5q70 0 156 28.5t143 64.5v327h-299q-137 0 -200 -51t-63 -160zM342 1333q0 79 56 135t134 56q80 0 136.5 -56t56.5 -135t-56.5 -135.5t-136.5 -56.5q-78 0 -134 56.5t-56 135.5zM420 1333q0 -46 34 -80t78 -34q46 0 80.5 34t34.5 80
q0 45 -35 80t-80 35q-44 0 -78 -35t-34 -80z" />
    <glyph glyph-name="ae" unicode="&#xe6;" horiz-adv-x="1789" 
d="M100 287q0 92 50 154.5t132.5 90t194.5 27.5h309v29q0 41 2 59v68q0 128 -47 180.5t-182 52.5q-141 0 -375 -57l-16 92q7 1 58.5 14t93.5 21.5t110.5 17t130.5 8.5q128 0 203 -33t110 -106q111 139 347 139q211 0 322.5 -103t111.5 -306v-162h-735v-104q0 -161 86.5 -232
t257.5 -71q117 0 354 84l16 -93q-228 -77 -377 -77q-276 0 -389 129q-157 -132 -397 -132q-371 0 -371 310zM229 287q0 -226 263 -226q203 0 331 115q-37 75 -37 197v108h-294q-134 0 -198.5 -51t-64.5 -143zM920 543h608v112q0 150 -77 228t-230 78q-301 0 -301 -343v-75z
" />
    <glyph glyph-name="ccedilla" unicode="&#xe7;" horiz-adv-x="980" 
d="M104 430v162q0 213 124.5 332.5t344.5 119.5q85 0 176 -21.5t164 -57.5l-24 -95q-70 29 -99 40t-92.5 27.5t-111.5 16.5q-171 0 -258.5 -96t-87.5 -270v-152q0 -176 87.5 -271t258.5 -95q50 0 107 14t93.5 27.5t104.5 42.5l22 -95q-184 -74 -323 -79l-12 -80h45
q58 0 93.5 -32t35.5 -93q0 -144 -154 -144q-75 0 -156 21l19 67q58 -14 129 -14q37 0 53 16t16 54q0 34 -17.5 48.5t-61.5 14.5h-23t-24.5 -0.5t-21 -1t-15.5 -0.5h-7l31 146q-197 14 -306.5 130t-109.5 318z" />
    <glyph glyph-name="egrave" unicode="&#xe8;" 
d="M104 373v215q0 215 106 335.5t329 120.5q211 0 322.5 -103t111.5 -306v-162h-735v-104q0 -161 86.5 -232t257.5 -71q117 0 354 84l16 -93q-228 -77 -377 -77q-110 0 -193 20t-147 64t-97.5 122t-33.5 187zM238 543h608v112q0 150 -77 228t-230 78q-301 0 -301 -343v-75z
M375 1516h131l76 -369h-84z" />
    <glyph glyph-name="eacute" unicode="&#xe9;" 
d="M104 373v215q0 215 106 335.5t329 120.5q211 0 322.5 -103t111.5 -306v-162h-735v-104q0 -161 86.5 -232t257.5 -71q117 0 354 84l16 -93q-228 -77 -377 -77q-110 0 -193 20t-147 64t-97.5 122t-33.5 187zM238 543h608v112q0 150 -77 228t-230 78q-301 0 -301 -343v-75z
M500 1147l75 369h138l-129 -369h-84z" />
    <glyph glyph-name="ecircumflex" unicode="&#xea;" 
d="M104 373v215q0 215 106 335.5t329 120.5q211 0 322.5 -103t111.5 -306v-162h-735v-104q0 -161 86.5 -232t257.5 -71q117 0 354 84l16 -93q-228 -77 -377 -77q-110 0 -193 20t-147 64t-97.5 122t-33.5 187zM238 543h608v112q0 150 -77 228t-230 78q-301 0 -301 -343v-75z
M322 1147l170 369h98l170 -369h-103l-116 293l-119 -293h-100z" />
    <glyph glyph-name="edieresis" unicode="&#xeb;" 
d="M104 373v215q0 215 106 335.5t329 120.5q211 0 322.5 -103t111.5 -306v-162h-735v-104q0 -161 86.5 -232t257.5 -71q117 0 354 84l16 -93q-228 -77 -377 -77q-110 0 -193 20t-147 64t-97.5 122t-33.5 187zM238 543h608v112q0 150 -77 228t-230 78q-301 0 -301 -343v-75z
M362 1188v280h101v-280h-101zM618 1188v280h101v-280h-101z" />
    <glyph glyph-name="igrave" unicode="&#xec;" horiz-adv-x="460" 
d="M47 1516h131l76 -369h-84zM141 0v1024h127v-1024h-127z" />
    <glyph glyph-name="iacute" unicode="&#xed;" horiz-adv-x="464" 
d="M154 0v1024h127v-1024h-127zM172 1147l76 369h137l-129 -369h-84z" />
    <glyph glyph-name="icircumflex" unicode="&#xee;" horiz-adv-x="477" 
d="M0 1147l170 369h98l170 -369h-102l-117 293l-119 -293h-100zM156 0v1024h127v-1024h-127z" />
    <glyph glyph-name="idieresis" unicode="&#xef;" horiz-adv-x="479" 
d="M43 1188v280h100v-280h-100zM158 0v1024h127v-1024h-127zM299 1188v280h100v-280h-100z" />
    <glyph glyph-name="eth" unicode="&#xf0;" horiz-adv-x="1183" 
d="M88 397v224q0 191 122 304t337 113q120 0 217.5 -37t161.5 -104v8q-7 167 -109 274.5t-266 153.5l-66 -172l-69 27l61 164q-94 16 -182 16l12 86q104 0 203 -18l47 120l70 -24l-43 -113q97 -26 175.5 -71t140.5 -110.5t96 -159t34 -206.5v-475q0 -191 -126 -304
t-347 -113q-219 0 -344 113t-125 304zM219 397q0 -149 90.5 -240t247.5 -91q159 0 249.5 91t90.5 240v221q0 149 -91 241.5t-249 92.5q-155 0 -246.5 -90.5t-91.5 -236.5v-228z" />
    <glyph glyph-name="ntilde" unicode="&#xf1;" horiz-adv-x="1150" 
d="M154 0v1024h127v-123q200 143 381 143q193 0 271.5 -86t78.5 -268v-690h-125v684q0 147 -56.5 207.5t-207.5 60.5q-91 0 -188.5 -43.5t-153.5 -95.5v-813h-127zM258 1266q24 60 84.5 121t116.5 61q29 0 58 -19t52.5 -46.5t45 -55t43.5 -46.5t42 -19q48 0 87 46.5
t61 104.5l53 -41q-26 -66 -85 -131t-114 -65q-28 0 -56 19t-51 46.5t-45.5 55t-47.5 46.5t-47 19q-81 0 -148 -143z" />
    <glyph glyph-name="ograve" unicode="&#xf2;" horiz-adv-x="1175" 
d="M102 397v230q0 191 125 304t344 113q221 0 347 -113t126 -304v-230q0 -191 -126 -304t-347 -113q-219 0 -344 113t-125 304zM233 397q0 -149 90.5 -240t247.5 -91q159 0 249.5 91t90.5 240v228q0 149 -91 241t-249 92q-155 0 -246.5 -90.5t-91.5 -236.5v-234zM418 1516
h131l76 -369h-84z" />
    <glyph glyph-name="oacute" unicode="&#xf3;" horiz-adv-x="1175" 
d="M102 397v230q0 191 125 304t344 113q221 0 347 -113t126 -304v-230q0 -191 -126 -304t-347 -113q-219 0 -344 113t-125 304zM233 397q0 -149 90.5 -240t247.5 -91q159 0 249.5 91t90.5 240v228q0 149 -91 241t-249 92q-155 0 -246.5 -90.5t-91.5 -236.5v-234zM510 1147
l76 369h137l-129 -369h-84z" />
    <glyph glyph-name="ocircumflex" unicode="&#xf4;" horiz-adv-x="1175" 
d="M102 397v230q0 191 125 304t344 113q221 0 347 -113t126 -304v-230q0 -191 -126 -304t-347 -113q-219 0 -344 113t-125 304zM233 397q0 -149 90.5 -240t247.5 -91q159 0 249.5 91t90.5 240v228q0 149 -91 241t-249 92q-155 0 -246.5 -90.5t-91.5 -236.5v-234zM354 1147
l170 369h99l170 -369h-103l-117 293l-118 -293h-101z" />
    <glyph glyph-name="otilde" unicode="&#xf5;" horiz-adv-x="1175" 
d="M102 397v230q0 191 125 304t344 113q221 0 347 -113t126 -304v-230q0 -191 -126 -304t-347 -113q-219 0 -344 113t-125 304zM233 397q0 -149 90.5 -240t247.5 -91q159 0 249.5 91t90.5 240v228q0 149 -91 241t-249 92q-155 0 -246.5 -90.5t-91.5 -236.5v-234zM250 1266
q24 60 84.5 121t116.5 61q29 0 58 -19t52.5 -46.5t45 -55t43.5 -46.5t42 -19q48 0 87 46.5t61 104.5l53 -41q-26 -66 -85 -131t-114 -65q-28 0 -56 19t-51.5 46.5t-46 55t-47.5 46.5t-47 19q-80 0 -147 -143z" />
    <glyph glyph-name="odieresis" unicode="&#xf6;" horiz-adv-x="1175" 
d="M102 397v230q0 191 125 304t344 113q221 0 347 -113t126 -304v-230q0 -191 -126 -304t-347 -113q-219 0 -344 113t-125 304zM233 397q0 -149 90.5 -240t247.5 -91q159 0 249.5 91t90.5 240v228q0 149 -91 241t-249 92q-155 0 -246.5 -90.5t-91.5 -236.5v-234zM395 1188
v280h101v-280h-101zM651 1188v280h101v-280h-101z" />
    <glyph glyph-name="divide" unicode="&#xf7;" horiz-adv-x="1351" 
d="M143 600v109h1024v-109h-1024zM578 131v227h157v-227h-157zM578 950v228h157v-228h-157z" />
    <glyph glyph-name="oslash" unicode="&#xf8;" horiz-adv-x="1118" 
d="M88 397v230q0 191 125 304t344 113q148 0 258 -55l76 117h98l-102 -160q143 -115 143 -319v-230q0 -191 -126 -304t-347 -113q-144 0 -256 53l-74 -115h-98l102 160q-143 115 -143 319zM219 397q0 -133 74 -223l467 729q-83 55 -203 55q-155 0 -246.5 -90.5t-91.5 -236.5
v-234zM354 119q80 -53 203 -53q159 0 249.5 91t90.5 240v228q0 131 -74 221z" />
    <glyph glyph-name="ugrave" unicode="&#xf9;" horiz-adv-x="1204" 
d="M154 319v705h127v-684q0 -268 227 -268q110 0 215 43t164 96v813h125v-1024h-125v123q-70 -54 -189 -98.5t-229 -44.5q-159 0 -237 89.5t-78 249.5zM416 1516h131l76 -369h-84z" />
    <glyph glyph-name="uacute" unicode="&#xfa;" horiz-adv-x="1204" 
d="M154 319v705h127v-684q0 -268 227 -268q110 0 215 43t164 96v813h125v-1024h-125v123q-70 -54 -189 -98.5t-229 -44.5q-159 0 -237 89.5t-78 249.5zM543 1147l75 369h138l-129 -369h-84z" />
    <glyph glyph-name="ucircumflex" unicode="&#xfb;" horiz-adv-x="1204" 
d="M154 319v705h127v-684q0 -268 227 -268q110 0 215 43t164 96v813h125v-1024h-125v123q-70 -54 -189 -98.5t-229 -44.5q-159 0 -237 89.5t-78 249.5zM365 1147l170 369h98l170 -369h-103l-116 293l-119 -293h-100z" />
    <glyph glyph-name="udieresis" unicode="&#xfc;" horiz-adv-x="1204" 
d="M154 319v705h127v-684q0 -268 227 -268q110 0 215 43t164 96v813h125v-1024h-125v123q-70 -54 -189 -98.5t-229 -44.5q-159 0 -237 89.5t-78 249.5zM403 1188v280h101v-280h-101zM659 1188v280h101v-280h-101z" />
    <glyph glyph-name="yacute" unicode="&#xfd;" horiz-adv-x="1105" 
d="M29 1024h151l402 -948l315 948h137l-348 -979q-89 -234 -135 -332q-39 -84 -101 -134t-163 -50q-121 0 -224 49l31 92q100 -41 176 -41q68 0 111 30t78 112l92 229q-31 5 -62.5 29.5t-44.5 56.5zM492 1147l75 369h138l-130 -369h-83z" />
    <glyph glyph-name="thorn" unicode="&#xfe;" horiz-adv-x="1124" 
d="M139 -410v1905h127v-551q154 100 324 100q234 0 340 -135.5t106 -396.5t-106 -396.5t-340 -135.5q-173 0 -324 98v-488h-127zM266 162q152 -92 297 -92q185 0 262.5 112t77.5 330q0 219 -77.5 330.5t-262.5 111.5q-156 0 -297 -92v-700z" />
    <glyph glyph-name="ydieresis" unicode="&#xff;" horiz-adv-x="1105" 
d="M29 1024h151l402 -948l315 948h137l-348 -979q-89 -234 -135 -332q-39 -84 -101 -134t-163 -50q-121 0 -224 49l31 92q100 -41 176 -41q68 0 111 30t78 112l92 229q-31 5 -62.5 29.5t-44.5 56.5zM373 1188v280h100v-280h-100zM629 1188v280h100v-280h-100z" />
    <glyph glyph-name="Amacron" unicode="&#x100;" horiz-adv-x="1275" 
d="M37 0l500 1434h161l496 -1434h-139l-148 438h-583l-146 -438h-141zM272 1651v90h693v-90h-693zM352 530h531l-265 789z" />
    <glyph glyph-name="amacron" unicode="&#x101;" 
d="M100 268q0 144 91.5 217.5t285.5 73.5h316v160q0 125 -48.5 176t-181.5 51q-147 0 -375 -57l-16 94q1 0 29.5 7.5t44.5 11t50.5 11t63 12t65 9.5t74 7.5t74.5 2.5q188 0 266.5 -82t78.5 -278v-684h-125v80q-53 -39 -138 -71t-188 -32q-189 0 -278 72t-89 219zM229 1286
v86h615v-86h-615zM231 270q0 -108 62.5 -158.5t200.5 -50.5q70 0 156 28.5t143 64.5v327h-299q-137 0 -200 -51t-63 -160z" />
    <glyph glyph-name="Abreve" unicode="&#x102;" horiz-adv-x="1234" 
d="M37 0l500 1434h161l496 -1434h-139l-148 438h-583l-146 -438h-141zM258 1800v43h111q0 -110 54 -164t195 -53q75 1 124.5 15.5t76.5 44t38 66.5t11 91h109v-43q0 -114 -91 -179t-268 -65q-174 0 -267 65.5t-93 178.5zM352 530h531l-265 789z" />
    <glyph glyph-name="abreve" unicode="&#x103;" 
d="M100 268q0 144 91.5 217.5t285.5 73.5h316v160q0 125 -48.5 176t-181.5 51q-147 0 -375 -57l-16 94q1 0 29.5 7.5t44.5 11t50.5 11t63 12t65 9.5t74 7.5t74.5 2.5q188 0 266.5 -82t78.5 -278v-684h-125v80q-53 -39 -138 -71t-188 -32q-189 0 -278 72t-89 219zM213 1450
v20h109q0 -112 48.5 -161t166.5 -49t166.5 49t48.5 161h108v-20q0 -264 -323 -264q-324 0 -324 264zM231 270q0 -108 62.5 -158.5t200.5 -50.5q70 0 156 28.5t143 64.5v327h-299q-137 0 -200 -51t-63 -160z" />
    <glyph glyph-name="Aogonek" unicode="&#x104;" horiz-adv-x="1275" 
d="M37 0l500 1434h161l496 -1434h-27q-73 -54 -124.5 -120t-51.5 -130q0 -63 60 -63q43 0 92 22l12 -78q-55 -24 -131 -24q-64 0 -95.5 31.5t-31.5 85.5q0 127 201 276h-43l-148 438h-583l-146 -438h-141zM352 530h531l-265 789z" />
    <glyph glyph-name="aogonek" unicode="&#x105;" 
d="M100 268q0 144 91.5 217.5t285.5 73.5h316v160q0 125 -48.5 176t-181.5 51q-147 0 -375 -57l-16 94q1 0 29.5 7.5t44.5 11t50.5 11t63 12t65 9.5t74 7.5t74.5 2.5q188 0 266.5 -82t78.5 -278v-684h-39q-74 -55 -125.5 -120.5t-51.5 -129.5q0 -63 60 -63q43 0 92 22
l12 -78q-56 -24 -131 -24q-63 0 -95 31.5t-32 85.5q0 127 201 276h-16v80q-53 -39 -138 -71t-188 -32q-189 0 -278 72t-89 219zM231 270q0 -108 62.5 -158.5t200.5 -50.5q70 0 156 28.5t143 64.5v327h-299q-137 0 -200 -51t-63 -160z" />
    <glyph glyph-name="Cacute" unicode="&#x106;" horiz-adv-x="1138" 
d="M115 547v340q0 567 555 567q91 0 178 -20.5t203 -61.5l-31 -104q-176 58 -244 70q-55 10 -106 10q-221 0 -320.5 -115t-99.5 -348v-336q0 -463 420 -463q54 0 119.5 13.5t102 24.5t130.5 42l29 -105q-115 -40 -202.5 -60.5t-178.5 -20.5q-555 0 -555 567zM565 1556
l80 287h137l-135 -287h-82z" />
    <glyph glyph-name="cacute" unicode="&#x107;" horiz-adv-x="933" 
d="M88 430v162q0 213 124.5 332.5t344.5 119.5q85 0 176 -21.5t164 -57.5l-25 -95q-70 29 -99 40t-92.5 27.5t-111.5 16.5q-171 0 -258.5 -96t-87.5 -270v-152q0 -176 87.5 -271t258.5 -95q50 0 107 14t93.5 27.5t104.5 42.5l23 -95q-195 -79 -340 -79q-221 0 -345 117
t-124 333zM469 1147l76 369h137l-129 -369h-84z" />
    <glyph glyph-name="Ccaron" unicode="&#x10c;" horiz-adv-x="1140" 
d="M115 547v340q0 567 555 567q91 0 178 -20.5t203 -61.5l-31 -104q-176 58 -244 70q-55 10 -106 10q-221 0 -320.5 -115t-99.5 -348v-336q0 -463 420 -463q54 0 119.5 13.5t102 24.5t130.5 42l29 -105q-115 -40 -202.5 -60.5t-178.5 -20.5q-555 0 -555 567zM395 1843h105
l133 -233l131 233h106l-178 -287h-119z" />
    <glyph glyph-name="ccaron" unicode="&#x10d;" horiz-adv-x="933" 
d="M88 430v162q0 213 124.5 332.5t344.5 119.5q85 0 176 -21.5t164 -57.5l-25 -95q-70 29 -99 40t-92.5 27.5t-111.5 16.5q-171 0 -258.5 -96t-87.5 -270v-152q0 -176 87.5 -271t258.5 -95q50 0 107 14t93.5 27.5t104.5 42.5l23 -95q-195 -79 -340 -79q-221 0 -345 117
t-124 333zM309 1516h103l114 -293l119 293h103l-173 -369h-98z" />
    <glyph glyph-name="Dcaron" unicode="&#x10e;" horiz-adv-x="1388" 
d="M193 0v1434h462q86 0 155.5 -8.5t136.5 -30.5t118 -57.5t94.5 -91t71.5 -129.5t43.5 -174.5t15.5 -225.5t-15.5 -225.5t-43.5 -174.5t-71.5 -129.5t-94.5 -91t-118 -57.5t-136.5 -30.5t-155.5 -8.5h-462zM324 98h331q59 0 107 5.5t101 21.5t94 43.5t79.5 74.5t63.5 111
t40 156t15 207t-15 207.5t-40 156t-63.5 110.5t-79 74.5t-94.5 43.5t-101.5 21t-106.5 5h-331v-1237zM412 1843h104l133 -233l131 233h107l-178 -287h-119z" />
    <glyph glyph-name="dcaron" unicode="&#x10f;" horiz-adv-x="1449" 
d="M109 512q0 258 106.5 395t345.5 137q159 0 318 -100v551h125v-1495h-125v80q-163 -100 -318 -100q-223 0 -337.5 136.5t-114.5 395.5zM240 512q0 -107 20.5 -187.5t52.5 -128t78.5 -76t91.5 -38.5t99 -10q149 0 297 92v696q-166 92 -297 92q-54 0 -99 -9.5t-91.5 -38.5
t-78.5 -76t-52.5 -127.5t-20.5 -188.5zM1178 967q75 154 75 293h-69v235h168v-145q0 -198 -117 -406z" />
    <glyph glyph-name="Dcroat" unicode="&#x110;" horiz-adv-x="1409" 
d="M16 705v90h197v639h463q86 0 155.5 -8.5t136.5 -30.5t118 -57.5t94.5 -91t71.5 -129.5t43.5 -174.5t15.5 -225.5t-15.5 -225.5t-43.5 -174.5t-71.5 -129.5t-94.5 -91t-118 -57.5t-136.5 -30.5t-155.5 -8.5h-463v705h-197zM344 98h332q59 0 107 5.5t101 21.5t94 43.5
t79.5 74.5t63.5 111t40 156t15 207t-15 207.5t-40 156t-63.5 110.5t-79 74.5t-94.5 43.5t-101.5 21t-106.5 5h-332v-540h391v-90h-391v-607z" />
    <glyph glyph-name="dcroat" unicode="&#x111;" horiz-adv-x="1157" 
d="M109 512q0 258 106.5 395t345.5 137q159 0 318 -100v266h-316v93h316v192h125v-192h137v-93h-137v-1210h-125v80q-163 -100 -318 -100q-223 0 -337.5 136.5t-114.5 395.5zM240 512q0 -107 20.5 -187.5t52.5 -128t78.5 -76t91.5 -38.5t99 -10q149 0 297 92v696
q-166 92 -297 92q-54 0 -99 -9.5t-91.5 -38.5t-78.5 -76t-52.5 -127.5t-20.5 -188.5z" />
    <glyph glyph-name="Emacron" unicode="&#x112;" horiz-adv-x="1142" 
d="M180 0v1434h844v-99h-713v-508h625v-94h-625v-635h713v-98h-844zM264 1651v90h692v-90h-692z" />
    <glyph glyph-name="emacron" unicode="&#x113;" 
d="M104 373v215q0 215 106 335.5t329 120.5q211 0 322.5 -103t111.5 -306v-162h-735v-104q0 -161 86.5 -232t257.5 -71q117 0 354 84l16 -93q-228 -77 -377 -77q-110 0 -193 20t-147 64t-97.5 122t-33.5 187zM231 1286v86h615v-86h-615zM238 543h608v112q0 150 -77 228
t-230 78q-301 0 -301 -343v-75z" />
    <glyph glyph-name="Edotaccent" unicode="&#x116;" horiz-adv-x="1155" 
d="M193 0v1434h843v-99h-712v-508h624v-94h-624v-635h712v-98h-843zM551 1556v287h127v-287h-127z" />
    <glyph glyph-name="edotaccent" unicode="&#x117;" 
d="M104 373v215q0 215 106 335.5t329 120.5q211 0 322.5 -103t111.5 -306v-162h-735v-104q0 -161 86.5 -232t257.5 -71q117 0 354 84l16 -93q-228 -77 -377 -77q-110 0 -193 20t-147 64t-97.5 122t-33.5 187zM238 543h608v112q0 150 -77 228t-230 78q-301 0 -301 -343v-75z
M479 1188v280h127v-280h-127z" />
    <glyph glyph-name="Eogonek" unicode="&#x118;" horiz-adv-x="1155" 
d="M193 0v1434h843v-99h-712v-508h624v-94h-624v-635h712v-98h-2q-73 -54 -124.5 -120t-51.5 -130q0 -63 60 -63q43 0 92 22l12 -78q-55 -24 -131 -24q-63 0 -95 31.5t-32 85.5q0 127 201 276h-772z" />
    <glyph glyph-name="eogonek" unicode="&#x119;" 
d="M104 373v215q0 215 106 335.5t329 120.5q211 0 322.5 -103t111.5 -306v-162h-735v-104q0 -161 86.5 -232t257.5 -71q117 0 354 84l16 -93q-108 -37 -200 -57q-74 -55 -125.5 -120.5t-51.5 -129.5q0 -63 60 -63q43 0 92 22l12 -78q-55 -24 -131 -24q-64 0 -95.5 31.5
t-31.5 85.5q0 119 181 262q-44 -6 -87 -6q-110 0 -193 20t-147 64t-97.5 122t-33.5 187zM238 543h608v112q0 150 -77 228t-230 78q-301 0 -301 -343v-75z" />
    <glyph glyph-name="Ecaron" unicode="&#x11a;" horiz-adv-x="1155" 
d="M193 0v1434h843v-99h-712v-508h624v-94h-624v-635h712v-98h-843zM406 1843h104l133 -233l131 233h107l-179 -287h-118z" />
    <glyph glyph-name="ecaron" unicode="&#x11b;" 
d="M104 373v215q0 215 106 335.5t329 120.5q211 0 322.5 -103t111.5 -306v-162h-735v-104q0 -161 86.5 -232t257.5 -71q117 0 354 84l16 -93q-228 -77 -377 -77q-110 0 -193 20t-147 64t-97.5 122t-33.5 187zM238 543h608v112q0 150 -77 228t-230 78q-301 0 -301 -343v-75z
M319 1516h103l115 -293l118 293h103l-172 -369h-99z" />
    <glyph glyph-name="Gbreve" unicode="&#x11e;" horiz-adv-x="1280" 
d="M115 545v342q0 275 134.5 421t424.5 146q238 0 430 -63l-31 -101q-198 64 -391 64q-229 0 -330.5 -115.5t-101.5 -353.5v-340q0 -108 24 -192.5t73.5 -147t132 -96t194.5 -33.5q164 0 344 53v512l-350 12v97h467v-695q-216 -75 -461 -75q-559 0 -559 565zM313 1800v43
h111q0 -53 11.5 -91.5t39 -68t77 -44t122.5 -13.5q75 1 124.5 15.5t76.5 44t38 66.5t11 91h108v-43q0 -114 -90.5 -179t-267.5 -65q-174 0 -267.5 65.5t-93.5 178.5z" />
    <glyph glyph-name="gbreve" unicode="&#x11f;" horiz-adv-x="1193" 
d="M100 -92q0 190 201 276q-65 61 -65 133q0 84 63 140q-65 35 -106 99t-41 161q0 91 34 156t95.5 101.5t137 53t169.5 16.5q77 0 137 -13t87.5 -26.5t63.5 -35.5l9 -6q47 44 47 163h131q-2 -79 -26 -130t-87 -74q74 -81 74 -205q0 -72 -23 -126.5t-61 -88t-95.5 -54.5
t-118.5 -28.5t-138 -7.5q-135 0 -201 16q-11 -13 -22 -47.5t-11 -63.5q0 -21 12.5 -53.5t26.5 -52.5q49 12 195 12q87 0 156 -8t133 -29t106.5 -55.5t68 -91t25.5 -131.5q0 -76 -25 -132.5t-67.5 -91.5t-106.5 -56.5t-133 -29.5t-157 -8q-87 0 -156 8t-133 29.5t-106.5 56
t-67.5 91.5t-25 133zM229 -92q0 -51 15.5 -90.5t53 -74t111 -53t179.5 -18.5t179.5 18.5t111.5 53t53.5 74t15.5 90.5q0 60 -15.5 100.5t-54.5 71.5t-110.5 45t-179.5 14q-359 0 -359 -231zM264 1450v20h109q0 -112 48.5 -161t166.5 -49t166.5 49t48.5 161h108v-20
q0 -264 -323 -264q-324 0 -324 264zM281 717q0 -60 13.5 -101t47.5 -72.5t94.5 -46t151.5 -14.5q165 0 235 58t70 176q2 113 -75.5 182.5t-229.5 69.5q-307 0 -307 -252z" />
    <glyph glyph-name="Gcommaaccent" unicode="&#x122;" horiz-adv-x="1257" 
d="M98 545v342q0 275 134.5 421t424.5 146q238 0 430 -63l-30 -101q-198 64 -391 64q-230 0 -331.5 -115.5t-101.5 -353.5v-340q0 -108 24 -192.5t73.5 -147t132 -96t194.5 -33.5q164 0 344 53v512l-350 12v97h467v-695q-216 -75 -461 -75q-559 0 -559 565zM569 -94h170v-90
q0 -81 -32.5 -146t-69.5 -100l-53 31q57 69 57 166h-72v139z" />
    <glyph glyph-name="gcommaaccent" unicode="&#x123;" horiz-adv-x="1193" 
d="M100 -92q0 190 201 276q-65 61 -65 133q0 84 63 140q-65 35 -106 99t-41 161q0 91 34 156t95.5 101.5t137 53t169.5 16.5q77 0 137 -13t87.5 -26.5t63.5 -35.5l9 -6q47 44 47 163h131q-2 -79 -26 -130t-87 -74q74 -81 74 -205q0 -72 -23 -126.5t-61 -88t-95.5 -54.5
t-118.5 -28.5t-138 -7.5q-135 0 -201 16q-11 -13 -22 -47.5t-11 -63.5q0 -21 12.5 -53.5t26.5 -52.5q49 12 195 12q87 0 156 -8t133 -29t106.5 -55.5t68 -91t25.5 -131.5q0 -76 -25 -132.5t-67.5 -91.5t-106.5 -56.5t-133 -29.5t-157 -8q-87 0 -156 8t-133 29.5t-106.5 56
t-67.5 91.5t-25 133zM229 -92q0 -51 15.5 -90.5t53 -74t111 -53t179.5 -18.5t179.5 18.5t111.5 53t53.5 74t15.5 90.5q0 60 -15.5 100.5t-54.5 71.5t-110.5 45t-179.5 14q-359 0 -359 -231zM281 717q0 -60 13.5 -101t47.5 -72.5t94.5 -46t151.5 -14.5q165 0 235 58t70 176
q2 113 -75.5 182.5t-229.5 69.5q-307 0 -307 -252zM512 1188v90q0 81 32.5 146t69.5 100l54 -31q-58 -71 -58 -166h72v-139h-170z" />
    <glyph glyph-name="Imacron" unicode="&#x12a;" horiz-adv-x="770" 
d="M57 1696v86h615v-86h-615zM59 0v100h240v1233h-238v101h609v-101h-240v-1233h242v-100h-613z" />
    <glyph glyph-name="imacron" unicode="&#x12b;" horiz-adv-x="477" 
d="M-90 1286v86h614v-86h-614zM154 0v1024h127v-1024h-127z" />
    <glyph glyph-name="Iogonek" unicode="&#x12e;" horiz-adv-x="768" 
d="M57 0v100h240v1233h-238v101h609v-101h-240v-1233h242v-100h-6q-74 -55 -125.5 -120.5t-51.5 -129.5q0 -63 60 -63q43 0 92 22l12 -78q-55 -24 -131 -24q-64 0 -95.5 31.5t-31.5 85.5q0 127 201 276h-537z" />
    <glyph glyph-name="iogonek" unicode="&#x12f;" horiz-adv-x="389" 
d="M-23 -276q0 127 201 276h-55v1024h127v-1024h-2q-73 -54 -124.5 -120t-51.5 -130q0 -63 59 -63q43 0 92 22l13 -78q-56 -24 -132 -24q-64 0 -95.5 31.5t-31.5 85.5zM123 1194v240h127v-240h-127z" />
    <glyph glyph-name="Idotaccent" unicode="&#x130;" horiz-adv-x="768" 
d="M57 0v100h240v1233h-238v101h609v-101h-240v-1233h242v-100h-613zM301 1556v287h127v-287h-127z" />
    <glyph glyph-name="dotlessi" unicode="&#x131;" horiz-adv-x="477" 
d="M154 0v1024h127v-1024h-127z" />
    <glyph glyph-name="Kcommaaccent" unicode="&#x136;" horiz-adv-x="1241" 
d="M180 0v1434h131v-639h25l708 639h175l-750 -656l754 -778h-164l-723 745h-25v-745h-131zM541 -94h170v-90q0 -80 -32.5 -145t-70.5 -101l-53 31q57 69 57 166h-71v139z" />
    <glyph glyph-name="kcommaaccent" unicode="&#x137;" horiz-adv-x="1026" 
d="M154 0v1495h127v-932h4l528 461h176l-577 -487l577 -537h-166l-538 506h-4v-506h-127zM426 -94h170v-90q0 -81 -32.5 -146t-69.5 -100l-54 31q58 71 58 166h-72v139z" />
    <glyph glyph-name="Lacute" unicode="&#x139;" horiz-adv-x="1114" 
d="M193 0v1434h131v-1319h753v-115h-884zM223 1556l80 287h137l-135 -287h-82z" />
    <glyph glyph-name="lacute" unicode="&#x13a;" horiz-adv-x="475" 
d="M154 0v1495h127v-1495h-127zM172 1534l76 364h137l-129 -364h-84z" />
    <glyph glyph-name="Lcommaaccent" unicode="&#x13b;" horiz-adv-x="1101" 
d="M180 0v1434h131v-1319h754v-115h-885zM532 -94h170v-90q0 -81 -32.5 -146t-69.5 -100l-53 31q57 69 57 166h-72v139z" />
    <glyph glyph-name="lcommaaccent" unicode="&#x13c;" horiz-adv-x="481" 
d="M117 -94h170v-90q0 -80 -32.5 -145t-70.5 -101l-53 31q57 69 57 166h-71v139zM139 0v1495h127v-1495h-127z" />
    <glyph glyph-name="Lcaron" unicode="&#x13d;" horiz-adv-x="1101" 
d="M180 0v1434h131v-1319h754v-115h-885zM813 907q74 160 74 291h-68v236h164v-146q0 -199 -115 -403z" />
    <glyph glyph-name="lcaron" unicode="&#x13e;" horiz-adv-x="720" 
d="M139 0v1495h127v-1495h-127zM469 967q76 156 76 293h-70v235h168v-145q0 -198 -117 -406z" />
    <glyph glyph-name="Lslash" unicode="&#x141;" horiz-adv-x="1095" 
d="M27 629v116l159 62v627h131v-578l476 184v-118l-476 -183v-624h754v-115h-885v690z" />
    <glyph glyph-name="lslash" unicode="&#x142;" horiz-adv-x="397" 
d="M14 629v116l121 97v653h127v-553l121 98v-118l-121 -97v-825h-127v725z" />
    <glyph glyph-name="Nacute" unicode="&#x143;" horiz-adv-x="1630" 
d="M193 0v1434h149l940 -1254v1254h115v-1434h-150l-940 1255v-1255h-114zM752 1556l79 287h138l-135 -287h-82z" />
    <glyph glyph-name="nacute" unicode="&#x144;" horiz-adv-x="1202" 
d="M154 0v1024h127v-123q200 143 381 143q193 0 271.5 -86t78.5 -268v-690h-125v684q0 147 -56.5 207.5t-207.5 60.5q-91 0 -188.5 -43.5t-153.5 -95.5v-813h-127zM514 1147l76 369h137l-129 -369h-84z" />
    <glyph glyph-name="Ncommaaccent" unicode="&#x145;" horiz-adv-x="1630" 
d="M193 0v1434h149l940 -1254v1254h115v-1434h-150l-940 1255v-1255h-114zM709 -94h170v-90q0 -80 -32.5 -145t-70.5 -101l-53 31q57 69 57 166h-71v139z" />
    <glyph glyph-name="ncommaaccent" unicode="&#x146;" horiz-adv-x="1202" 
d="M154 0v1024h127v-123q200 143 381 143q193 0 271.5 -86t78.5 -268v-690h-125v684q0 147 -56.5 207.5t-207.5 60.5q-91 0 -188.5 -43.5t-153.5 -95.5v-813h-127zM498 -94h170v-90q0 -80 -32.5 -145t-70.5 -101l-53 31q57 69 57 166h-71v139z" />
    <glyph glyph-name="Ncaron" unicode="&#x147;" horiz-adv-x="1630" 
d="M193 0v1434h149l940 -1254v1254h115v-1434h-150l-940 1255v-1255h-114zM586 1843h104l133 -233l131 233h107l-178 -287h-119z" />
    <glyph glyph-name="ncaron" unicode="&#x148;" horiz-adv-x="1187" 
d="M139 0v1024h127v-123q200 143 381 143q193 0 271.5 -86t78.5 -268v-690h-125v684q0 147 -56.5 207.5t-207.5 60.5q-91 0 -188.5 -43.5t-153.5 -95.5v-813h-127zM350 1516h103l114 -293l119 293h102l-172 -369h-98z" />
    <glyph glyph-name="Omacron" unicode="&#x14c;" horiz-adv-x="1503" 
d="M119 543v346q0 90 24 173t74 154.5t121.5 124.5t172.5 83t220 30t220 -30t172.5 -83t121.5 -124.5t74 -154.5t24 -173v-346q0 -113 -39 -213.5t-112.5 -179t-192.5 -124.5t-268 -46t-268 46t-192.5 124.5t-112.5 179t-39 213.5zM258 551q0 -214 129.5 -342.5
t343.5 -128.5q224 0 349.5 127t125.5 344v332q0 202 -127.5 336.5t-347.5 134.5q-205 0 -339 -132.5t-134 -338.5v-332zM385 1651v90h692v-90h-692z" />
    <glyph glyph-name="omacron" unicode="&#x14d;" horiz-adv-x="1175" 
d="M102 397v230q0 191 125 304t344 113q221 0 347 -113t126 -304v-230q0 -191 -126 -304t-347 -113q-219 0 -344 113t-125 304zM233 397q0 -149 90.5 -240t247.5 -91q159 0 249.5 91t90.5 240v228q0 149 -91 241t-249 92q-155 0 -246.5 -90.5t-91.5 -236.5v-234zM266 1286
v86h615v-86h-615z" />
    <glyph glyph-name="Obreve" unicode="&#x14e;" horiz-adv-x="1503" 
d="M119 543v346q0 90 24 173t74 154.5t121.5 124.5t172.5 83t220 30t220 -30t172.5 -83t121.5 -124.5t74 -154.5t24 -173v-346q0 -113 -39 -213.5t-112.5 -179t-192.5 -124.5t-268 -46t-268 46t-192.5 124.5t-112.5 179t-39 213.5zM258 551q0 -214 129.5 -342.5
t343.5 -128.5q224 0 349.5 127t125.5 344v332q0 202 -127.5 336.5t-347.5 134.5q-205 0 -339 -132.5t-134 -338.5v-332zM365 1800v43h110q0 -53 11.5 -91.5t39 -68t77 -44t122.5 -13.5q75 1 124.5 15.5t76.5 44t38 66.5t11 91h108v-43q0 -114 -90.5 -179t-267.5 -65
q-174 0 -267 65.5t-93 178.5z" />
    <glyph glyph-name="Ohungarumlaut" unicode="&#x150;" horiz-adv-x="1503" 
d="M119 543v346q0 90 24 173t74 154.5t121.5 124.5t172.5 83t220 30t220 -30t172.5 -83t121.5 -124.5t74 -154.5t24 -173v-346q0 -113 -39 -213.5t-112.5 -179t-192.5 -124.5t-268 -46t-268 46t-192.5 124.5t-112.5 179t-39 213.5zM258 551q0 -214 129.5 -342.5
t343.5 -128.5q224 0 349.5 127t125.5 344v332q0 202 -127.5 336.5t-347.5 134.5q-205 0 -339 -132.5t-134 -338.5v-332zM526 1556l156 369h137l-213 -369h-80zM817 1556l156 369h135l-211 -369h-80z" />
    <glyph glyph-name="ohungarumlaut" unicode="&#x151;" horiz-adv-x="1175" 
d="M102 397v230q0 191 125 304t344 113q221 0 347 -113t126 -304v-230q0 -191 -126 -304t-347 -113q-219 0 -344 113t-125 304zM233 397q0 -149 90.5 -240t247.5 -91q159 0 249.5 91t90.5 240v228q0 149 -91 241t-249 92q-155 0 -246.5 -90.5t-91.5 -236.5v-234zM346 1147
l156 369h137l-213 -369h-80zM637 1147l156 369h135l-211 -369h-80z" />
    <glyph glyph-name="OE" unicode="&#x152;" horiz-adv-x="2177" 
d="M119 543v346q0 90 24 173t74 154.5t121.5 124.5t172.5 83t220 30q312 0 483 -199v179h844v-99h-712v-508h624v-94h-624v-635h712v-98h-844v176q-168 -196 -483 -196q-149 0 -268 46t-192.5 124.5t-112.5 179t-39 213.5zM258 551q0 -214 129.5 -342.5t343.5 -128.5
q224 0 349.5 127t125.5 344v332q0 202 -127.5 336.5t-347.5 134.5q-205 0 -339 -132.5t-134 -338.5v-332z" />
    <glyph glyph-name="oe" unicode="&#x153;" horiz-adv-x="1900" 
d="M102 397v230q0 191 125 304t344 113q139 0 242.5 -47t161.5 -133q105 180 373 180q211 0 322.5 -103t111.5 -306v-162h-735v-104q0 -161 86.5 -232t257.5 -71q117 0 354 84l16 -93q-228 -77 -377 -77q-153 0 -257.5 38.5t-159.5 128.5q-59 -80 -160.5 -123.5
t-235.5 -43.5q-219 0 -344 113t-125 304zM233 397q0 -149 90.5 -240t247.5 -91q159 0 249.5 91t90.5 240v228q0 149 -91 241t-249 92q-155 0 -246.5 -90.5t-91.5 -236.5v-234zM1047 543h608v112q0 150 -77 228t-230 78q-301 0 -301 -343v-75z" />
    <glyph glyph-name="Racute" unicode="&#x154;" horiz-adv-x="1327" 
d="M193 0v1434h466q252 0 367 -100t115 -322q0 -183 -94 -285.5t-234 -105.5l444 -621h-153l-420 621h-360v-621h-131zM324 707h338q85 0 144 13t106 45.5t69.5 93.5t22.5 153q0 180 -85 251.5t-257 71.5h-338v-628zM547 1556l80 287h137l-135 -287h-82z" />
    <glyph glyph-name="racute" unicode="&#x155;" horiz-adv-x="774" 
d="M154 0v1024h127v-184q44 83 133 143.5t184 60.5h86l21 -114h-80q-67 0 -132.5 -29t-110.5 -71t-73 -87.5t-28 -78.5v-664h-127zM322 1147l75 369h138l-129 -369h-84z" />
    <glyph glyph-name="Rcommaaccent" unicode="&#x156;" horiz-adv-x="1273" 
d="M193 0v1434h466q252 0 367 -100t115 -322q0 -183 -94 -285.5t-234 -105.5l444 -621h-153l-420 621h-360v-621h-131zM324 707h338q85 0 144 13t106 45.5t69.5 93.5t22.5 153q0 180 -85 251.5t-257 71.5h-338v-628zM563 -94h170v-90q0 -81 -32.5 -146t-69.5 -100l-53 31
q57 69 57 166h-72v139z" />
    <glyph glyph-name="rcommaaccent" unicode="&#x157;" horiz-adv-x="790" 
d="M154 -94h170v-90q0 -80 -32.5 -145t-70.5 -101l-53 31q57 69 57 166h-71v139zM170 0v1024h127v-184q44 83 133 143.5t184 60.5h86l21 -114h-80q-67 0 -132.5 -29t-110.5 -71t-73 -87.5t-28 -78.5v-664h-127z" />
    <glyph glyph-name="Rcaron" unicode="&#x158;" horiz-adv-x="1273" 
d="M193 0v1434h466q252 0 367 -100t115 -322q0 -183 -94 -285.5t-234 -105.5l444 -621h-153l-420 621h-360v-621h-131zM324 707h338q85 0 144 13t106 45.5t69.5 93.5t22.5 153q0 180 -85 251.5t-257 71.5h-338v-628zM358 1843h105l133 -233l131 233h107l-179 -287h-118z" />
    <glyph glyph-name="rcaron" unicode="&#x159;" horiz-adv-x="727" 
d="M139 0v1024h127v-184q44 83 133.5 143.5t184.5 60.5h86l20 -114h-80q-67 0 -132.5 -29t-110.5 -71t-73 -87.5t-28 -78.5v-664h-127zM147 1516h103l115 -293l118 293h103l-172 -369h-99z" />
    <glyph glyph-name="Sacute" unicode="&#x15a;" horiz-adv-x="1273" 
d="M117 74l22 100q104 -46 234.5 -72t255.5 -26q74 0 133.5 13t97.5 32.5t65.5 48t41.5 53t21.5 54.5t9 45.5t1.5 31.5q0 76 -22 122t-68 75.5t-137 60.5q-39 13 -106 32.5t-112 33t-106.5 36.5t-103.5 45t-87 56t-72 72.5t-44.5 91.5t-17.5 115q0 90 40.5 160.5t111 113
t160.5 64.5t194 22q127 0 237 -23t236 -67l-25 -100q-119 47 -219.5 71.5t-224.5 24.5q-101 0 -176 -23.5t-116.5 -62.5t-61 -82.5t-19.5 -91.5q0 -154 207 -246q63 -28 142.5 -55t138.5 -44.5t123 -41t108.5 -52t81.5 -68.5t55.5 -99t18.5 -136q0 -93 -40.5 -166
t-110.5 -118.5t-160.5 -69.5t-194.5 -24q-128 0 -273 22t-239 72zM518 1556l76 369h137l-129 -369h-84z" />
    <glyph glyph-name="sacute" unicode="&#x15b;" horiz-adv-x="995" 
d="M88 51l16 86q241 -76 394 -76q58 0 103.5 7.5t74.5 18t50 27t31 30.5t15.5 34t6.5 31.5t1 28.5q0 103 -116 157q-44 20 -112.5 38t-126.5 29.5t-121 34.5t-107 52.5t-72.5 83.5t-28.5 127q0 76 32 132t90 88.5t130 48t160 15.5q77 0 152 -12t113 -23.5t99 -31.5l-24 -82
q-66 23 -100.5 33.5t-102 21.5t-139.5 11q-79 0 -137.5 -20t-88.5 -52.5t-43.5 -64.5t-13.5 -64q0 -50 29.5 -87t79.5 -57q46 -17 119 -35t130 -30.5t121 -37t106.5 -55.5t70.5 -85.5t28 -128.5q0 -67 -21.5 -115.5t-56 -76.5t-89 -44.5t-108.5 -22t-126 -5.5
q-201 0 -418 71zM459 1147l76 369h137l-129 -369h-84z" />
    <glyph glyph-name="Scedilla" unicode="&#x15e;" horiz-adv-x="1273" 
d="M117 74l22 100q104 -46 234.5 -72t255.5 -26q74 0 133.5 13t97.5 32.5t65.5 48t41.5 53t21.5 54.5t9 45.5t1.5 31.5q0 76 -22 122t-68 75.5t-137 60.5q-39 13 -106 32.5t-112 33t-106.5 36.5t-103.5 45t-87 56t-72 72.5t-44.5 91.5t-17.5 115q0 90 40.5 160.5t111 113
t160.5 64.5t194 22q127 0 237 -23t236 -67l-25 -100q-119 47 -219.5 71.5t-224.5 24.5q-101 0 -176 -23.5t-116.5 -62.5t-61 -82.5t-19.5 -91.5q0 -154 207 -246q63 -28 142.5 -55t138.5 -44.5t123 -41t108.5 -52t81.5 -68.5t55.5 -99t18.5 -136q0 -116 -63 -200.5
t-165 -127t-233 -48.5l-12 -82h45q58 0 93.5 -32t35.5 -93q0 -144 -154 -144q-75 0 -156 21l19 67q58 -14 129 -14q37 0 53 16t16 54q0 34 -17.5 48.5t-61.5 14.5h-23t-24.5 -0.5t-21 -1t-15.5 -0.5h-7l29 144q-126 2 -261 24.5t-224 69.5z" />
    <glyph glyph-name="scedilla" unicode="&#x15f;" horiz-adv-x="1028" 
d="M94 51l17 86q241 -76 393 -76q58 0 103.5 7.5t74.5 18t50 27t31 30.5t15.5 34t6.5 31.5t1 28.5q0 103 -116 157q-44 20 -112.5 38t-126.5 29.5t-121 34.5t-107 52.5t-72.5 83.5t-28.5 127q0 76 32 132t90 88.5t130 48t160 15.5q77 0 152.5 -12t114 -23.5t98.5 -31.5
l-25 -82q-66 23 -100.5 33.5t-102 21.5t-139.5 11q-79 0 -137.5 -20t-88.5 -52.5t-43.5 -64.5t-13.5 -64q0 -50 29.5 -87t79.5 -57q46 -17 119 -35t130 -30.5t121 -37t106.5 -55.5t70.5 -85.5t28 -128.5q0 -67 -21.5 -115.5t-56 -76.5t-89 -44.5t-108.5 -22t-126 -5.5h-16
l-13 -80h45q58 0 93.5 -32t35.5 -93q0 -144 -153 -144q-75 0 -156 21l19 67q58 -14 129 -14q37 0 53 16t16 54q0 34 -18 48.5t-62 14.5h-23t-24 -0.5t-21 -1t-16 -0.5h-6l31 148q-164 11 -332 67z" />
    <glyph glyph-name="Scaron" unicode="&#x160;" horiz-adv-x="1273" 
d="M117 74l22 100q104 -46 234.5 -72t255.5 -26q74 0 133.5 13t97.5 32.5t65.5 48t41.5 53t21.5 54.5t9 45.5t1.5 31.5q0 76 -22 122t-68 75.5t-137 60.5q-39 13 -106 32.5t-112 33t-106.5 36.5t-103.5 45t-87 56t-72 72.5t-44.5 91.5t-17.5 115q0 90 40.5 160.5t111 113
t160.5 64.5t194 22q127 0 237 -23t236 -67l-25 -100q-119 47 -219.5 71.5t-224.5 24.5q-101 0 -176 -23.5t-116.5 -62.5t-61 -82.5t-19.5 -91.5q0 -154 207 -246q63 -28 142.5 -55t138.5 -44.5t123 -41t108.5 -52t81.5 -68.5t55.5 -99t18.5 -136q0 -93 -40.5 -166
t-110.5 -118.5t-160.5 -69.5t-194.5 -24q-128 0 -273 22t-239 72zM408 1843h104l133 -233l131 233h107l-178 -287h-119z" />
    <glyph glyph-name="scaron" unicode="&#x161;" horiz-adv-x="995" 
d="M88 51l16 86q241 -76 394 -76q58 0 103.5 7.5t74.5 18t50 27t31 30.5t15.5 34t6.5 31.5t1 28.5q0 103 -116 157q-44 20 -112.5 38t-126.5 29.5t-121 34.5t-107 52.5t-72.5 83.5t-28.5 127q0 76 32 132t90 88.5t130 48t160 15.5q77 0 152 -12t113 -23.5t99 -31.5l-24 -82
q-66 23 -100.5 33.5t-102 21.5t-139.5 11q-79 0 -137.5 -20t-88.5 -52.5t-43.5 -64.5t-13.5 -64q0 -50 29.5 -87t79.5 -57q46 -17 119 -35t130 -30.5t121 -37t106.5 -55.5t70.5 -85.5t28 -128.5q0 -67 -21.5 -115.5t-56 -76.5t-89 -44.5t-108.5 -22t-126 -5.5
q-201 0 -418 71zM297 1516h102l115 -293l119 293h102l-172 -369h-98z" />
    <glyph glyph-name="Tcommaaccent" unicode="&#x162;" horiz-adv-x="1120" 
d="M57 1319v115h1006v-115h-438v-1319h-131v1319h-437zM473 -94h170v-90q0 -81 -32.5 -146t-69.5 -100l-54 31q58 71 58 166h-72v139z" />
    <glyph glyph-name="tcommaaccent" unicode="&#x163;" horiz-adv-x="798" 
d="M31 934v90h192v264l127 23v-287h387v-90h-387v-619q0 -245 189 -245q50 0 90.5 7t53 11.5t44.5 17.5l25 -81q-87 -45 -228 -45q-153 0 -227 79t-74 246v629h-192zM438 -94h170v-90q0 -81 -32.5 -146t-69.5 -100l-53 31q57 69 57 166h-72v139z" />
    <glyph glyph-name="Tcaron" unicode="&#x164;" horiz-adv-x="1120" 
d="M57 1319v115h1006v-115h-438v-1319h-131v1319h-437zM324 1843h104l133 -233l131 233h107l-178 -287h-119z" />
    <glyph glyph-name="tcaron" unicode="&#x165;" horiz-adv-x="1038" 
d="M37 934v90h192v264l127 23v-287h387v-90h-387v-619q0 -245 189 -245q50 0 90.5 7t53 11.5t44.5 17.5l25 -81q-87 -45 -228 -45q-153 0 -227 79t-74 246v629h-192zM827 915q76 156 76 293h-69v236h167v-146q0 -199 -116 -405z" />
    <glyph glyph-name="Umacron" unicode="&#x16a;" horiz-adv-x="1376" 
d="M164 512v922h133v-942q0 -209 103.5 -310.5t295.5 -101.5q186 0 274.5 100t88.5 312v942h121v-922q0 -125 -26 -220.5t-82 -166.5t-151 -108t-227 -37q-270 0 -400 140t-130 392zM365 1696v86h614v-86h-614z" />
    <glyph glyph-name="umacron" unicode="&#x16b;" horiz-adv-x="1136" 
d="M139 319v705h127v-684q0 -268 228 -268q110 0 214.5 43t163.5 96v813h125v-1024h-125v123q-70 -54 -189 -98.5t-228 -44.5q-159 0 -237.5 90t-78.5 249zM262 1286v86h615v-86h-615z" />
    <glyph glyph-name="Uring" unicode="&#x16e;" horiz-adv-x="1376" 
d="M164 512v922h133v-942q0 -209 103.5 -310.5t295.5 -101.5q186 0 274.5 100t88.5 312v942h121v-922q0 -125 -26 -220.5t-82 -166.5t-151 -108t-227 -37q-270 0 -400 140t-130 392zM489 1651q0 78 52.5 128t134.5 50q80 0 132 -50t52 -128q0 -77 -52.5 -127.5t-131.5 -50.5
q-81 0 -134 50.5t-53 127.5zM561 1651q0 -48 32.5 -80.5t82.5 -32.5q49 0 80.5 32.5t31.5 80.5q0 49 -31 80.5t-81 31.5q-51 0 -83 -31t-32 -81z" />
    <glyph glyph-name="uring" unicode="&#x16f;" horiz-adv-x="1204" 
d="M154 319v705h127v-684q0 -268 227 -268q110 0 215 43t164 96v813h125v-1024h-125v123q-70 -54 -189 -98.5t-229 -44.5q-159 0 -237 89.5t-78 249.5zM391 1333q0 79 56.5 135t134.5 56q80 0 136 -56t56 -135t-56 -135.5t-136 -56.5q-78 0 -134.5 56.5t-56.5 135.5z
M469 1333q0 -45 34.5 -79.5t78.5 -34.5q46 0 80 34t34 80q0 45 -34.5 80t-79.5 35q-44 0 -78.5 -35.5t-34.5 -79.5z" />
    <glyph glyph-name="Uhungarumlaut" unicode="&#x170;" horiz-adv-x="1376" 
d="M164 512v922h133v-942q0 -209 103.5 -310.5t295.5 -101.5q186 0 274.5 100t88.5 312v942h121v-922q0 -125 -26 -220.5t-82 -166.5t-151 -108t-227 -37q-270 0 -400 140t-130 392zM446 1556l156 369h137l-213 -369h-80zM737 1556l156 369h135l-211 -369h-80z" />
    <glyph glyph-name="uhungarumlaut" unicode="&#x171;" horiz-adv-x="1204" 
d="M154 319v705h127v-684q0 -268 227 -268q110 0 215 43t164 96v813h125v-1024h-125v123q-70 -54 -189 -98.5t-229 -44.5q-159 0 -237 89.5t-78 249.5zM373 1147l155 369h138l-213 -369h-80zM664 1147l155 369h135l-211 -369h-79z" />
    <glyph glyph-name="Uogonek" unicode="&#x172;" horiz-adv-x="1376" 
d="M164 512v922h133v-942q0 -209 103.5 -310.5t295.5 -101.5q186 0 274.5 100t88.5 312v942h121v-922q0 -453 -342 -520q-166 -127 -166 -242q0 -63 59 -63q43 0 92 22l13 -78q-56 -24 -131 -24q-63 0 -95 31.5t-32 85.5q0 123 176 258q-10 0 -30 -1t-30 -1q-270 0 -400 140
t-130 392z" />
    <glyph glyph-name="uogonek" unicode="&#x173;" horiz-adv-x="1136" 
d="M139 319v705h127v-684q0 -268 228 -268q110 0 214.5 43t163.5 96v813h125v-1024h-41q-73 -54 -124.5 -120t-51.5 -130q0 -63 60 -63q43 0 92 22l12 -78q-56 -24 -131 -24q-63 0 -95 31.5t-32 85.5q0 127 201 276h-15v123q-70 -54 -189 -98.5t-228 -44.5q-159 0 -237.5 90
t-78.5 249z" />
    <glyph glyph-name="Ydieresis" unicode="&#x178;" horiz-adv-x="1187" 
d="M16 1434h156l428 -744l422 744h149l-512 -859v-575h-131v578zM401 1556v287h103v-287h-103zM698 1556v287h103v-287h-103z" />
    <glyph glyph-name="Zacute" unicode="&#x179;" horiz-adv-x="1232" 
d="M88 0v90l879 1249h-840v95h997v-91l-876 -1249h880v-94h-1040zM549 1556l80 287h137l-135 -287h-82z" />
    <glyph glyph-name="zacute" unicode="&#x17a;" horiz-adv-x="1013" 
d="M88 0v72l676 862h-637v90h799v-72l-674 -862h672v-90h-836zM465 1147l76 369h137l-129 -369h-84z" />
    <glyph glyph-name="Zdotaccent" unicode="&#x17b;" horiz-adv-x="1232" 
d="M88 0v90l879 1249h-840v95h997v-91l-876 -1249h880v-94h-1040zM561 1556v287h127v-287h-127z" />
    <glyph glyph-name="zdotaccent" unicode="&#x17c;" horiz-adv-x="1013" 
d="M88 0v72l676 862h-637v90h799v-72l-674 -862h672v-90h-836zM446 1188v280h127v-280h-127z" />
    <glyph glyph-name="Zcaron" unicode="&#x17d;" horiz-adv-x="1236" 
d="M98 0v90l879 1249h-840v95h998v-91l-877 -1249h881v-94h-1041zM391 1843h105l133 -233l131 233h106l-178 -287h-119z" />
    <glyph glyph-name="zcaron" unicode="&#x17e;" horiz-adv-x="1013" 
d="M88 0v72l676 862h-637v90h799v-72l-674 -862h672v-90h-836zM293 1516h102l115 -293l119 293h102l-172 -369h-98z" />
    <glyph glyph-name="florin" unicode="&#x192;" horiz-adv-x="1052" 
d="M16 -369l21 90q85 -32 162 -32q50 0 84.5 13t57 36.5t34 66t16 93.5t4.5 127v741h2v166h-198v92h198v94q0 418 342 418q165 0 297 -41l-20 -90q-134 33 -258 33q-126 0 -180 -78.5t-54 -257.5v-78h389v-92h-389v-932h-2q-2 -213 -72 -311.5t-233 -98.5q-17 0 -34 1.5
t-30 3t-29.5 5t-26 5.5t-24.5 7t-21 6.5t-20 6.5t-16 6z" />
    <glyph glyph-name="Ohorn" unicode="&#x1a0;" horiz-adv-x="1587" 
d="M119 543v346q0 90 24 173t74 154.5t121.5 124.5t172.5 83t220 30q201 0 341 -81.5t210 -219.5q45 10 73 36t45 86.5t17 158.5h90q0 -79 -18 -138t-49 -94t-65.5 -54.5t-76.5 -27.5q45 -105 45 -231v-346q0 -113 -39 -213.5t-112.5 -179t-192.5 -124.5t-268 -46t-268 46
t-192.5 124.5t-112.5 179t-39 213.5zM258 551q0 -214 129.5 -342.5t343.5 -128.5q224 0 349.5 127t125.5 344v332q0 202 -127.5 336.5t-347.5 134.5q-205 0 -339 -132.5t-134 -338.5v-332z" />
    <glyph glyph-name="ohorn" unicode="&#x1a1;" horiz-adv-x="1193" 
d="M102 397v230q0 191 125 304t344 113q178 0 295.5 -75t157.5 -207q88 53 88 262h90q0 -242 -168 -301q10 -52 10 -96v-230q0 -191 -126 -304t-347 -113q-219 0 -344 113t-125 304zM233 397q0 -149 90.5 -240t247.5 -91q159 0 249.5 91t90.5 240v228q0 149 -91 241t-249 92
q-155 0 -246.5 -90.5t-91.5 -236.5v-234z" />
    <glyph glyph-name="Uhorn" unicode="&#x1af;" horiz-adv-x="1386" 
d="M164 512v922h133v-942q0 -209 103.5 -310.5t295.5 -101.5q186 0 274.5 100t88.5 312v942h121v-279q66 14 98.5 76.5t32.5 202.5h90q0 -81 -19 -142t-52.5 -96t-70 -53t-79.5 -25v-606q0 -125 -26 -220.5t-82 -166.5t-151 -108t-227 -37q-270 0 -400 140t-130 392z" />
    <glyph glyph-name="uhorn" unicode="&#x1b0;" horiz-adv-x="1232" 
d="M154 319v705h127v-684q0 -268 227 -268q110 0 215 43t164 96v813h125v-281q47 9 76.5 34.5t47 86.5t17.5 160h90q0 -287 -231 -317v-707h-125v123q-70 -54 -189 -98.5t-229 -44.5q-159 0 -237 89.5t-78 249.5z" />
    <glyph glyph-name="Scommaaccent" unicode="&#x218;" horiz-adv-x="1273" 
d="M117 74l22 100q104 -46 234.5 -72t255.5 -26q74 0 133.5 13t97.5 32.5t65.5 48t41.5 53t21.5 54.5t9 45.5t1.5 31.5q0 76 -22 122t-68 75.5t-137 60.5q-39 13 -106 32.5t-112 33t-106.5 36.5t-103.5 45t-87 56t-72 72.5t-44.5 91.5t-17.5 115q0 90 40.5 160.5t111 113
t160.5 64.5t194 22q127 0 237 -23t236 -67l-25 -100q-119 47 -219.5 71.5t-224.5 24.5q-101 0 -176 -23.5t-116.5 -62.5t-61 -82.5t-19.5 -91.5q0 -154 207 -246q63 -28 142.5 -55t138.5 -44.5t123 -41t108.5 -52t81.5 -68.5t55.5 -99t18.5 -136q0 -93 -40.5 -166
t-110.5 -118.5t-160.5 -69.5t-194.5 -24q-128 0 -273 22t-239 72zM557 -94h170v-90q0 -81 -32.5 -146t-69.5 -100l-54 31q58 71 58 166h-72v139z" />
    <glyph glyph-name="scommaaccent" unicode="&#x219;" horiz-adv-x="1028" 
d="M94 51l17 86q241 -76 393 -76q58 0 103.5 7.5t74.5 18t50 27t31 30.5t15.5 34t6.5 31.5t1 28.5q0 103 -116 157q-44 20 -112.5 38t-126.5 29.5t-121 34.5t-107 52.5t-72.5 83.5t-28.5 127q0 76 32 132t90 88.5t130 48t160 15.5q77 0 152.5 -12t114 -23.5t98.5 -31.5
l-25 -82q-66 23 -100.5 33.5t-102 21.5t-139.5 11q-79 0 -137.5 -20t-88.5 -52.5t-43.5 -64.5t-13.5 -64q0 -50 29.5 -87t79.5 -57q46 -17 119 -35t130 -30.5t121 -37t106.5 -55.5t70.5 -85.5t28 -128.5q0 -67 -21.5 -115.5t-56 -76.5t-89 -44.5t-108.5 -22t-126 -5.5
q-201 0 -418 71zM418 -94h170v-90q0 -80 -32.5 -145t-70.5 -101l-53 31q57 69 57 166h-71v139z" />
    <glyph glyph-name="circumflex" unicode="&#x2c6;" horiz-adv-x="843" 
d="M180 1147l170 369h99l169 -369h-102l-117 293l-118 -293h-101z" />
    <glyph glyph-name="caron" unicode="&#x2c7;" horiz-adv-x="839" 
d="M201 1516h102l115 -293l119 293h102l-172 -369h-98z" />
    <glyph glyph-name="breve" unicode="&#x2d8;" horiz-adv-x="1150" 
d="M254 1450v20h108q0 -112 49 -161t167 -49t166.5 49t48.5 161h108v-20q0 -264 -323 -264q-324 0 -324 264z" />
    <glyph glyph-name="dotaccent" unicode="&#x2d9;" horiz-adv-x="405" 
d="M139 1188v280h127v-280h-127z" />
    <glyph glyph-name="ring" unicode="&#x2da;" horiz-adv-x="673" 
d="M145 1333q0 79 56.5 135t134.5 56q80 0 136 -56t56 -135t-56 -135.5t-136 -56.5q-78 0 -134.5 56.5t-56.5 135.5zM223 1333q0 -45 34.5 -79.5t78.5 -34.5q46 0 80.5 34t34.5 80q0 45 -35 80t-80 35q-44 0 -78.5 -35.5t-34.5 -79.5z" />
    <glyph glyph-name="ogonek" unicode="&#x2db;" horiz-adv-x="1038" 
d="M545 -276q0 46 23 91.5t65 87t75.5 69t79.5 59.5l27 -31q-73 -54 -124.5 -120t-51.5 -130q0 -63 59 -63q44 0 93 22l12 -78q-55 -24 -131 -24q-64 0 -95.5 31.5t-31.5 85.5z" />
    <glyph glyph-name="tilde" unicode="&#x2dc;" horiz-adv-x="1046" 
d="M180 1266q24 60 84.5 121t116.5 61q36 0 72.5 -29t61.5 -64t54.5 -64t53.5 -29q48 0 86.5 46.5t60.5 104.5l53 -41q-26 -66 -84.5 -131t-113.5 -65q-28 0 -56 19t-51.5 46.5t-46 55t-47.5 46.5t-47 19q-81 0 -148 -143z" />
    <glyph glyph-name="hungarumlaut" unicode="&#x2dd;" horiz-adv-x="1105" 
d="M160 1147l155 369h138l-213 -369h-80zM451 1147l155 369h135l-211 -369h-79z" />
    <glyph glyph-name="gravecomb" unicode="&#x300;" horiz-adv-x="14" 
d="M-659 1516h131l75 -369h-84z" />
    <glyph glyph-name="acutecomb" unicode="&#x301;" horiz-adv-x="20" 
d="M98 1147l76 369h137l-129 -369h-84z" />
    <glyph glyph-name="tildecomb" unicode="&#x303;" horiz-adv-x="739" 
d="M72 1266q24 60 84 121t116 61q36 0 72.5 -29t61.5 -64t54.5 -64t53.5 -29q48 0 87 46.5t61 104.5l53 -41q-26 -66 -85 -131t-114 -65q-28 0 -56 19t-51.5 46.5t-46 55t-47.5 46.5t-47 19q-80 0 -147 -143z" />
    <glyph glyph-name="hookabovecomb" unicode="&#x309;" horiz-adv-x="14" 
d="M-639 1151q79 10 117.5 70.5t38.5 212.5h90q0 -70 -15 -125.5t-38 -89.5t-56.5 -57t-65.5 -33t-69 -13z" />
    <glyph glyph-name="dotbelowcomb" unicode="&#x323;" horiz-adv-x="290" 
d="M80 -166h127v-240h-127v240z" />
    <glyph glyph-name="afii10023" unicode="&#x401;" horiz-adv-x="1155" 
d="M193 0v1434h843v-99h-712v-508h624v-94h-624v-635h712v-98h-843zM436 1556v287h103v-287h-103zM733 1556v287h103v-287h-103z" />
    <glyph glyph-name="afii10051" unicode="&#x402;" horiz-adv-x="1468" 
d="M37 1319v115h1005v-115h-438v-459h303q47 0 129 -8q186 -22 265 -128.5t79 -295.5q0 -65 -7.5 -117.5t-29.5 -105t-58 -90.5t-96.5 -66.5t-141.5 -40.5q-78 -8 -129 -8h-125l-2 90h116q167 0 252.5 77t85.5 263q0 98 -23 165t-68.5 105t-105 54t-141.5 16h-303v-770h-131
v1319h-436z" />
    <glyph glyph-name="afii10052" unicode="&#x403;" horiz-adv-x="1050" 
d="M193 0v1434h770v-111h-639v-1323h-131zM502 1556l76 369h137l-129 -369h-84z" />
    <glyph glyph-name="afii10053" unicode="&#x404;" horiz-adv-x="1155" 
d="M119 547v340q0 567 555 567q208 0 393 -82l-31 -100q-196 82 -383 82q-197 0 -297 -133.5t-100 -386.5v-25h563v-90h-563v-49q0 -69 4 -126t15.5 -119t31 -110.5t51.5 -93.5t75 -74.5t104 -47t137 -17.5q164 0 362 80l31 -101q-183 -81 -393 -81q-268 0 -411.5 150
t-143.5 417z" />
    <glyph glyph-name="afii10054" unicode="&#x405;" horiz-adv-x="1273" 
d="M117 74l22 100q104 -46 234.5 -72t255.5 -26q74 0 133.5 13t97.5 32.5t65.5 48t41.5 53t21.5 54.5t9 45.5t1.5 31.5q0 76 -22 122t-68 75.5t-137 60.5q-39 13 -106 32.5t-112 33t-106.5 36.5t-103.5 45t-87 56t-72 72.5t-44.5 91.5t-17.5 115q0 90 40.5 160.5t111 113
t160.5 64.5t194 22q127 0 237 -23t236 -67l-25 -100q-119 47 -219.5 71.5t-224.5 24.5q-101 0 -176 -23.5t-116.5 -62.5t-61 -82.5t-19.5 -91.5q0 -154 207 -246q63 -28 142.5 -55t138.5 -44.5t123 -41t108.5 -52t81.5 -68.5t55.5 -99t18.5 -136q0 -93 -40.5 -166
t-110.5 -118.5t-160.5 -69.5t-194.5 -24q-128 0 -273 22t-239 72z" />
    <glyph glyph-name="afii10055" unicode="&#x406;" horiz-adv-x="768" 
d="M57 0v100h240v1233h-238v101h609v-101h-240v-1233h242v-100h-613z" />
    <glyph glyph-name="afii10056" unicode="&#x407;" horiz-adv-x="768" 
d="M57 0v100h240v1233h-238v101h609v-101h-240v-1233h242v-100h-613zM186 1597v281h101v-281h-101zM442 1597v281h101v-281h-101z" />
    <glyph glyph-name="afii10057" unicode="&#x408;" horiz-adv-x="958" 
d="M-25 37l31 110q87 -65 240 -65q69 0 124 12.5t92.5 32.5t65 51.5t43 63.5t25 74t12 78t2.5 81v959h131v-963q0 -57 -4.5 -104t-17.5 -99t-35 -92.5t-58.5 -78t-86 -62.5t-120.5 -40t-159 -15q-164 0 -285 57z" />
    <glyph glyph-name="afii10058" unicode="&#x409;" horiz-adv-x="2103" 
d="M35 106q27 -6 61 -6q146 3 211.5 333t65.5 1001h813v-586q211 29 299 29q252 3 366.5 -105.5t114.5 -335.5q0 -226 -113.5 -331t-367.5 -105h-430v1327h-570q-1 -87 -2.5 -157.5t-4.5 -169.5t-9.5 -180t-16 -177.5t-24 -173t-33 -155.5t-44.5 -136.5t-57.5 -103.5
t-72.5 -70t-88 -24q-41 0 -74 8zM1186 92h299q84 0 144.5 16t107 54.5t69.5 106.5t23 167q0 179 -84 260.5t-258 81.5q-145 0 -301 -24v-662z" />
    <glyph glyph-name="afii10059" unicode="&#x40a;" horiz-adv-x="2174" 
d="M193 0v1434h131v-600h802v600h131v-586q211 29 299 29q252 3 367 -105.5t115 -335.5q0 -226 -114 -331t-368 -105h-430v733h-802v-733h-131zM1257 92h299q84 0 144.5 16t107.5 54t70 106t23 168q0 99 -23.5 167t-70 105.5t-107 53.5t-144.5 16q-143 0 -299 -24v-662z" />
    <glyph glyph-name="afii10060" unicode="&#x40b;" horiz-adv-x="1652" 
d="M37 1319v115h1005v-115h-438v-434q45 29 99 56t151 54t190 27q418 0 418 -356v-666h-131v653q0 131 -85 198t-226 67q-123 0 -230.5 -41.5t-185.5 -98.5v-778h-131v1319h-436z" />
    <glyph glyph-name="afii10061" unicode="&#x40c;" horiz-adv-x="1271" 
d="M193 0v1434h131v-639h24l709 639h174l-750 -656l754 -778h-164l-723 745h-24v-745h-131zM598 1556l76 369h137l-129 -369h-84z" />
    <glyph glyph-name="afii10062" unicode="&#x40e;" horiz-adv-x="1300" 
d="M63 1434h154l449 -1063h6l403 1063h131l-430 -1108q-37 -90 -68 -148.5t-71.5 -106t-90.5 -69.5t-114 -22q-86 0 -171.5 17.5t-135.5 37.5l31 100q129 -57 270 -57q66 0 109 43.5t88 146.5q-18 5 -45 31t-39 57zM305 1800v43h111q0 -53 11.5 -91.5t39 -68t77 -44
t122.5 -13.5q144 1 196.5 54t52.5 163h109v-43q0 -114 -90.5 -179t-267.5 -65q-174 0 -267.5 65.5t-93.5 178.5z" />
    <glyph glyph-name="afii10145" unicode="&#x40f;" horiz-adv-x="1525" 
d="M193 0v1434h131v-1330h839v1330h131v-1434h-483l-12 -393h-121v393h-485z" />
    <glyph glyph-name="afii10017" unicode="&#x410;" horiz-adv-x="1273" 
d="M37 0l500 1434h161l496 -1434h-139l-148 438h-583l-146 -438h-141zM352 530h531l-265 789z" />
    <glyph glyph-name="afii10018" unicode="&#x411;" horiz-adv-x="1253" 
d="M193 0v1434h778v-101h-647v-469h323q127 0 216 -29t140 -87t73 -134.5t22 -181.5q0 -73 -10 -131t-39 -116.5t-78 -97.5t-131.5 -63t-194.5 -24h-452zM324 94h305q81 0 140 16t104 53.5t67.5 104.5t22.5 164t-22.5 164t-67.5 104.5t-104 53.5t-140 16h-305v-676z" />
    <glyph glyph-name="afii10019" unicode="&#x412;" horiz-adv-x="1243" 
d="M193 0v1434h477q160 0 253 -85t93 -251q0 -246 -170 -310q248 -94 248 -376q0 -73 -11.5 -131t-42.5 -112t-81 -90t-130.5 -57.5t-187.5 -21.5h-448zM322 92h305q165 0 249.5 72.5t84.5 249.5q0 71 -20 126.5t-52.5 90t-77.5 57t-90 31t-94 8.5h-305v-635zM322 819h331
q33 0 62.5 6t61.5 24t54.5 47t37 79.5t14.5 116.5q0 117 -58.5 183t-171.5 66h-331v-522z" />
    <glyph glyph-name="afii10020" unicode="&#x413;" horiz-adv-x="1052" 
d="M193 0v1434h770v-111h-639v-1323h-131z" />
    <glyph glyph-name="afii10021" unicode="&#x414;" horiz-adv-x="1521" 
d="M57 100h109q44 58 79.5 144.5t57.5 172.5t38 207t23.5 209.5t11.5 220t4.5 198.5t0.5 182h823v-1334h164l-20 -510h-111v410h-1049l-18 -410h-113v510zM293 100h780v1229h-571q-2 -379 -20 -569q-42 -455 -189 -660z" />
    <glyph glyph-name="afii10022" unicode="&#x415;" horiz-adv-x="1155" 
d="M193 0v1434h843v-99h-712v-508h624v-94h-624v-635h712v-98h-843z" />
    <glyph glyph-name="afii10024" unicode="&#x416;" horiz-adv-x="1642" 
d="M18 0l574 776l-572 658h154l533 -637h30v637h131v-637h31l531 637h155l-573 -658l571 -776h-145l-541 756h-29v-756h-131v756h-30l-541 -756h-148z" />
    <glyph glyph-name="afii10025" unicode="&#x417;" horiz-adv-x="1216" 
d="M115 61l20 107q5 -1 57.5 -19.5t95 -31t113 -25t134.5 -12.5q95 0 166 14.5t126.5 47.5t84 92.5t28.5 144.5q0 348 -430 348h-141v90h184q130 0 217.5 69.5t87.5 200.5q0 267 -305 267q-95 0 -198.5 -24.5t-176.5 -55.5l-31 98q74 32 184.5 57t223.5 25q105 0 182 -17
t136 -56.5t88.5 -109t29.5 -169.5q0 -254 -233 -316q82 -22 138 -50.5t98.5 -75.5t62.5 -117t20 -168q0 -91 -26 -160t-72 -113.5t-115.5 -72t-149 -38.5t-179.5 -11q-85 0 -186 19t-154.5 35t-79.5 27z" />
    <glyph glyph-name="afii10026" unicode="&#x418;" horiz-adv-x="1560" 
d="M193 0v1434h131v-1258l874 1258h129v-1434h-131v1257l-877 -1257h-126z" />
    <glyph glyph-name="afii10027" unicode="&#x419;" horiz-adv-x="1560" 
d="M193 0v1434h131v-1258l874 1258h129v-1434h-131v1257l-877 -1257h-126zM399 1800v43h111q0 -53 11.5 -91.5t39 -68t77 -44t122.5 -13.5q75 1 124.5 15.5t76.5 44t38 66.5t11 91h108v-43q0 -114 -90.5 -179t-267.5 -65q-174 0 -267.5 65.5t-93.5 178.5z" />
    <glyph glyph-name="afii10028" unicode="&#x41a;" horiz-adv-x="1271" 
d="M193 0v1434h131v-639h24l709 639h174l-750 -656l754 -778h-164l-723 745h-24v-745h-131z" />
    <glyph glyph-name="afii10029" unicode="&#x41b;" horiz-adv-x="1419" 
d="M35 106q27 -6 61 -6q146 3 211.5 333t65.5 1001h813v-1434h-131v1327h-570q-1 -87 -2.5 -157.5t-4.5 -169.5t-9.5 -180t-16 -177.5t-24 -173t-33 -155.5t-44.5 -136.5t-57.5 -103.5t-72.5 -70t-88 -24q-41 0 -74 8z" />
    <glyph glyph-name="afii10030" unicode="&#x41c;" horiz-adv-x="1929" 
d="M164 0l121 1434h143l516 -1295l514 1295h144l122 -1434h-129l-100 1249l-491 -1249h-123l-488 1249l-100 -1249h-129z" />
    <glyph glyph-name="afii10031" unicode="&#x41d;" horiz-adv-x="1490" 
d="M193 0v1434h131v-600h802v600h131v-1434h-131v733h-802v-733h-131z" />
    <glyph glyph-name="afii10032" unicode="&#x41e;" horiz-adv-x="1503" 
d="M119 543v346q0 90 24 173t74 154.5t121.5 124.5t172.5 83t220 30t220 -30t172.5 -83t121.5 -124.5t74 -154.5t24 -173v-346q0 -113 -39 -213.5t-112.5 -179t-192.5 -124.5t-268 -46t-268 46t-192.5 124.5t-112.5 179t-39 213.5zM258 551q0 -214 129.5 -342.5
t343.5 -128.5q224 0 349.5 127t125.5 344v332q0 202 -127.5 336.5t-347.5 134.5q-205 0 -339 -132.5t-134 -338.5v-332z" />
    <glyph glyph-name="afii10033" unicode="&#x41f;" horiz-adv-x="1527" 
d="M193 0v1434h1101v-1434h-131v1329h-839v-1329h-131z" />
    <glyph glyph-name="afii10034" unicode="&#x420;" horiz-adv-x="1259" 
d="M193 0v1434h428q127 0 212.5 -19t148.5 -67t91.5 -131t28.5 -209q0 -250 -116 -356.5t-365 -106.5h-297v-545h-131zM324 643h297q48 0 87 5t80 18.5t71.5 40t55 65.5t37.5 99t13 137q0 94 -23 158.5t-69 100.5t-106.5 51t-145.5 15h-297v-690z" />
    <glyph glyph-name="afii10035" unicode="&#x421;" horiz-adv-x="1144" 
d="M119 547v340q0 567 555 567q91 0 178 -20.5t203 -61.5l-31 -104q-176 58 -244 70q-55 10 -106 10q-221 0 -320.5 -115t-99.5 -348v-336q0 -463 420 -463q54 0 119.5 13.5t102 24.5t130.5 42l29 -105q-115 -40 -202.5 -60.5t-178.5 -20.5q-555 0 -555 567z" />
    <glyph glyph-name="afii10036" unicode="&#x422;" horiz-adv-x="1175" 
d="M74 1319v115h1005v-115h-438v-1319h-131v1319h-436z" />
    <glyph glyph-name="afii10037" unicode="&#x423;" horiz-adv-x="1298" 
d="M63 1434h154l449 -1063h6l403 1063h131l-430 -1108q-37 -90 -68 -148.5t-71.5 -106t-90.5 -69.5t-114 -22q-86 0 -171.5 17.5t-135.5 37.5l31 100q129 -57 270 -57q66 0 109 43.5t88 146.5q-18 5 -45 31t-39 57z" />
    <glyph glyph-name="afii10038" unicode="&#x424;" horiz-adv-x="1746" 
d="M115 698v119q0 250 131 376t385 126h149v178h131v-178h148q255 0 386.5 -126.5t131.5 -375.5v-119q0 -244 -132.5 -372.5t-385.5 -128.5h-148v-197h-131v197h-149q-253 0 -384.5 128.5t-131.5 372.5zM250 680q0 -198 94.5 -293.5t286.5 -95.5h149v934h-149
q-193 0 -287 -96.5t-94 -292.5v-156zM911 291h148q194 0 287.5 95.5t93.5 293.5v156q0 196 -94 292.5t-287 96.5h-148v-934z" />
    <glyph glyph-name="afii10039" unicode="&#x425;" horiz-adv-x="1292" 
d="M37 0l493 717l-493 717h168l424 -639l420 639h159l-493 -717l493 -717h-168l-424 637l-421 -637h-158z" />
    <glyph glyph-name="afii10040" unicode="&#x426;" horiz-adv-x="1564" 
d="M193 0v1434h131v-1334h796v1334h131v-1334h170l-18 -493h-119v393h-1091z" />
    <glyph glyph-name="afii10041" unicode="&#x427;" horiz-adv-x="1300" 
d="M152 897v537h131v-533q0 -82 18.5 -135.5t59 -81.5t92.5 -38.5t131 -10.5q215 0 346 12v787h131v-1434h-131v541q-193 -13 -350 -13q-74 0 -133 9t-116 33.5t-95 64.5t-61 106.5t-23 155.5z" />
    <glyph glyph-name="afii10042" unicode="&#x428;" horiz-adv-x="1908" 
d="M193 0v1434h131v-1334h544v1334h131v-1334h545v1334h131v-1434h-1482z" />
    <glyph glyph-name="afii10043" unicode="&#x429;" horiz-adv-x="2000" 
d="M193 0v1434h131v-1334h544v1334h131v-1334h545v1334h131v-1334h164l-18 -493h-113v393h-1515z" />
    <glyph glyph-name="afii10044" unicode="&#x42a;" horiz-adv-x="1384" 
d="M55 1337l13 97h401v-586q211 29 299 29q251 3 365 -105t114 -336q0 -227 -112.5 -331.5t-366.5 -104.5h-430v1337h-283zM469 92h299q84 0 144.5 16t107 54t69.5 106t23 168q0 99 -23 167t-69.5 105.5t-107 53.5t-144.5 16q-143 0 -299 -24v-662z" />
    <glyph glyph-name="afii10045" unicode="&#x42b;" horiz-adv-x="1679" 
d="M193 0v1434h131v-586q211 29 297 29q252 3 366.5 -105.5t114.5 -335.5q0 -226 -113.5 -331t-367.5 -105h-428zM324 92h297q85 0 145 16t106.5 54t69.5 106t23 168q0 99 -23 167t-69.5 105.5t-107 53.5t-144.5 16q-141 0 -297 -24v-662zM1315 0v1434h131v-1434h-131z" />
    <glyph glyph-name="afii10046" unicode="&#x42c;" horiz-adv-x="1239" 
d="M193 0v1434h131v-586q211 29 297 29q252 3 366.5 -105.5t114.5 -335.5q0 -226 -113.5 -331t-367.5 -105h-428zM324 92h297q85 0 145 16t106.5 54t69.5 106t23 168q0 99 -23 167t-69.5 105.5t-107 53.5t-144.5 16q-141 0 -297 -24v-662z" />
    <glyph glyph-name="afii10047" unicode="&#x42d;" horiz-adv-x="1183" 
d="M76 61l30 101q198 -80 363 -80q76 0 137 17.5t104 47t75 74.5t51.5 93.5t31 110.5t15.5 119t4 126v49h-563v90h563v25q0 253 -100 386.5t-298 133.5q-187 0 -383 -82l-30 100q185 82 393 82q555 0 555 -567v-340q0 -267 -143.5 -417t-411.5 -150q-210 0 -393 81z" />
    <glyph glyph-name="afii10048" unicode="&#x42e;" horiz-adv-x="1959" 
d="M193 0v1434h131v-627h301v121q0 111 39 206.5t112 167t185 112t249 40.5t248 -41t184 -113t112.5 -169.5t39.5 -212.5v-406q0 -236 -155.5 -384t-428.5 -148q-138 0 -249.5 39.5t-184.5 110t-112 165.5t-39 207v213h-301v-715h-131zM760 492q0 -176 125 -296t325 -120
q132 0 235.5 56.5t158.5 151t55 208.5v450q0 114 -55 208.5t-158.5 151t-235.5 56.5q-194 0 -322 -121t-128 -295v-450z" />
    <glyph glyph-name="afii10049" unicode="&#x42f;" horiz-adv-x="1390" 
d="M154 1012q0 422 489 422h514v-1434h-131v588h-334l-377 -588h-155l399 594q-203 4 -304 115.5t-101 302.5zM299 1008q0 -180 86.5 -253t257.5 -73h383v649h-383q-171 0 -257.5 -71.5t-86.5 -251.5z" />
    <glyph glyph-name="afii10065" unicode="&#x430;" 
d="M100 268q0 144 91.5 217.5t285.5 73.5h316v160q0 125 -48.5 176t-181.5 51q-147 0 -375 -57l-16 94q1 0 29.5 7.5t44.5 11t50.5 11t63 12t65 9.5t74 7.5t74.5 2.5q188 0 266.5 -82t78.5 -278v-684h-125v80q-53 -39 -138 -71t-188 -32q-189 0 -278 72t-89 219zM231 270
q0 -108 62.5 -158.5t200.5 -50.5q70 0 156 28.5t143 64.5v327h-299q-137 0 -200 -51t-63 -160z" />
    <glyph glyph-name="afii10066" unicode="&#x431;" horiz-adv-x="1210" 
d="M133 412v577q0 177 76 289.5t223 138.5l375 68q23 4 45.5 10.5t45.5 16t36.5 16t38.5 19l33 16.5l41 -115q-26 -17 -82 -40t-93 -30l-395 -67q-104 -20 -165.5 -110.5t-61.5 -207.5l-2 -301q24 118 130 203.5t251 85.5q207 0 326.5 -103t119.5 -309v-170
q0 -87 -27.5 -161t-83 -132.5t-147.5 -92t-213 -33.5t-213 33.5t-147.5 93.5t-83 136.5t-27.5 168.5zM264 401q0 -149 91.5 -240t248.5 -91q155 0 247.5 93t92.5 238v166q0 144 -92 235t-248 91q-101 0 -180.5 -56t-119.5 -142.5t-40 -184.5v-109z" />
    <glyph glyph-name="afii10067" unicode="&#x432;" horiz-adv-x="1110" 
d="M154 0v1024h430q145 0 221 -54t76 -192q0 -152 -123 -217q215 -41 215 -268q0 -72 -18.5 -124.5t-50.5 -85t-83 -51.5t-107 -25.5t-132 -6.5h-428zM274 80h289q150 0 216.5 47.5t66.5 167.5q0 102 -66.5 150.5t-214.5 48.5h-291v-414zM274 571h289q191 0 191 197
q0 83 -47 129.5t-144 46.5h-289v-373z" />
    <glyph glyph-name="afii10068" unicode="&#x433;" horiz-adv-x="847" 
d="M154 0v1024h624v-104h-497v-920h-127z" />
    <glyph glyph-name="afii10069" unicode="&#x434;" horiz-adv-x="1282" 
d="M57 90h97q53 56 90 149t54.5 178.5t27.5 214.5t11 200t1 192h663v-934h123l-16 -418h-107v328h-821l-16 -328h-107v418zM283 90h591v848h-415q0 -102 -2 -169t-11.5 -169t-27 -179t-52 -166.5t-83.5 -164.5z" />
    <glyph glyph-name="afii10070" unicode="&#x435;" 
d="M104 373v215q0 215 106 335.5t329 120.5q211 0 322.5 -103t111.5 -306v-162h-735v-104q0 -161 86.5 -232t257.5 -71q117 0 354 84l16 -93q-228 -77 -377 -77q-110 0 -193 20t-147 64t-97.5 122t-33.5 187zM238 543h608v112q0 150 -77 228t-230 78q-301 0 -301 -343v-75z
" />
    <glyph glyph-name="afii10072" unicode="&#x436;" horiz-adv-x="1456" 
d="M37 0l465 532l-463 492h151l428 -477h19v477h125v-477h20l424 477h154l-461 -492l459 -532h-152l-424 518h-20v-518h-125v518h-19l-432 -518h-149z" />
    <glyph glyph-name="afii10073" unicode="&#x437;" horiz-adv-x="1028" 
d="M86 61l31 86q19 -10 61 -25.5t118.5 -34.5t137.5 -19q167 0 253.5 61t86.5 172q0 116 -88 170.5t-235 54.5h-205v82h200q248 0 248 178q0 79 -67.5 124.5t-196.5 45.5q-135 0 -299 -75l-31 86q174 77 349 77q94 0 159.5 -11t117 -37.5t76.5 -75.5t25 -121
q0 -149 -176 -205q45 -14 75.5 -26t68 -36t59.5 -52.5t37.5 -74.5t15.5 -104q0 -75 -24.5 -132t-65.5 -92.5t-101 -57.5t-124.5 -30.5t-142.5 -8.5q-181 0 -363 81z" />
    <glyph glyph-name="afii10074" unicode="&#x438;" horiz-adv-x="1228" 
d="M154 0v1024h127v-862l634 862h119v-1024h-125v860l-637 -860h-118z" />
    <glyph glyph-name="afii10075" unicode="&#x439;" horiz-adv-x="1228" 
d="M154 0v1024h127v-862l634 862h119v-1024h-125v860l-637 -860h-118zM270 1450v20h109q0 -112 48.5 -161t166.5 -49t166.5 49t48.5 161h109v-20q0 -264 -324 -264t-324 264z" />
    <glyph glyph-name="afii10076" unicode="&#x43a;" horiz-adv-x="1054" 
d="M154 0v1024h127v-465h4l528 465h178l-581 -487l581 -537h-168l-538 508h-4v-508h-127z" />
    <glyph glyph-name="afii10077" unicode="&#x43b;" horiz-adv-x="1206" 
d="M55 111q52 -9 60 -9q58 0 103 60t70.5 152.5t42 220t22 244.5t5.5 245h654v-1024h-125v936h-420q0 -78 -1 -135.5t-4.5 -139.5t-10 -143.5t-19 -135t-29.5 -127t-42.5 -107t-58 -86.5t-76.5 -53.5t-97 -20.5q-25 0 -57 12z" />
    <glyph glyph-name="afii10078" unicode="&#x43c;" horiz-adv-x="1587" 
d="M133 0l98 1024h140l399 -926l397 926h140l100 -1024h-121l-78 868l-379 -868h-122l-375 868l-80 -868h-119z" />
    <glyph glyph-name="afii10079" unicode="&#x43d;" horiz-adv-x="1212" 
d="M154 0v1024h127v-440h610v440h127v-1024h-127v502h-610v-502h-127z" />
    <glyph glyph-name="afii10080" unicode="&#x43e;" horiz-adv-x="1175" 
d="M102 397v230q0 191 125 304t344 113q221 0 347 -113t126 -304v-230q0 -191 -126 -304t-347 -113q-219 0 -344 113t-125 304zM233 397q0 -149 90.5 -240t247.5 -91q159 0 249.5 91t90.5 240v228q0 149 -91 241t-249 92q-155 0 -246.5 -90.5t-91.5 -236.5v-234z" />
    <glyph glyph-name="afii10081" unicode="&#x43f;" horiz-adv-x="1198" 
d="M154 0v1024h845v-1024h-127v934h-591v-934h-127z" />
    <glyph glyph-name="afii10082" unicode="&#x440;" horiz-adv-x="1185" 
d="M156 -410v1434h127v-80q159 103 323 103q223 0 335 -137t112 -398q0 -530 -447 -530q-70 0 -140 19.5t-103.5 36t-79.5 42.5v-490h-127zM283 164q157 -92 297 -92q54 1 98 10.5t91 38.5t78.5 76t52 127.5t20.5 187.5t-20.5 187.5t-53 128t-79.5 76.5t-92.5 38.5
t-99.5 9.5q-151 0 -292 -92v-696z" />
    <glyph glyph-name="afii10083" unicode="&#x441;" horiz-adv-x="980" 
d="M104 430v162q0 213 124.5 332.5t344.5 119.5q85 0 176 -21.5t164 -57.5l-24 -95q-70 29 -99 40t-92.5 27.5t-111.5 16.5q-171 0 -258.5 -96t-87.5 -270v-152q0 -176 87.5 -271t258.5 -95q50 0 107 14t93.5 27.5t104.5 42.5l22 -95q-195 -79 -340 -79q-221 0 -345 117
t-124 333z" />
    <glyph glyph-name="afii10084" unicode="&#x442;" horiz-adv-x="995" 
d="M57 920v104h850v-104h-360v-920h-127v920h-363z" />
    <glyph glyph-name="afii10085" unicode="&#x443;" horiz-adv-x="1114" 
d="M37 1024h151l402 -948l315 948h137l-348 -979q-89 -234 -135 -332q-39 -84 -101 -134t-163 -50q-120 0 -223 49l30 92q100 -41 177 -41q68 0 110.5 29.5t77.5 112.5l92 229q-31 5 -62 29t-44 57z" />
    <glyph glyph-name="afii10086" unicode="&#x444;" horiz-adv-x="1613" 
d="M102 530q0 243 106.5 378.5t332.5 135.5q26 0 50.5 -3t46.5 -10t35 -11t33 -13t23 -10v498h127v-498q97 47 188 47q439 0 439 -514q0 -257 -107 -403.5t-332 -146.5q-97 0 -188 47v-437h-127v437q-86 -47 -188 -47q-225 0 -332 146.5t-107 403.5zM236 530
q0 -232 80.5 -347t246.5 -115q83 0 166 45v798q-3 1 -19.5 9t-23 11t-23.5 9t-29.5 8.5t-31.5 5t-39 2.5q-164 0 -245.5 -115t-81.5 -311zM856 113q77 -45 166 -45q328 0 328 462q0 198 -82 312t-246 114q-89 0 -166 -45v-798z" />
    <glyph glyph-name="afii10087" unicode="&#x445;" horiz-adv-x="1062" 
d="M37 0l389 514l-389 510h158l333 -455l318 455h147l-389 -510l389 -514h-157l-328 455l-322 -455h-149z" />
    <glyph glyph-name="afii10088" unicode="&#x446;" horiz-adv-x="1234" 
d="M154 0v1024h127v-934h569v934h127v-934h123l-21 -418h-106v328h-819z" />
    <glyph glyph-name="afii10089" unicode="&#x447;" horiz-adv-x="1099" 
d="M100 735v289h127v-313q0 -73 11.5 -120.5t41 -82t81 -49.5t131.5 -15q101 0 284 29v551h127v-1024h-127v385q-204 -33 -303 -33q-192 0 -282.5 89.5t-90.5 293.5z" />
    <glyph glyph-name="afii10090" unicode="&#x448;" horiz-adv-x="1634" 
d="M154 0v1024h122v-934h457v934h123v-934h455v934h125v-1024h-1282z" />
    <glyph glyph-name="afii10091" unicode="&#x449;" horiz-adv-x="1710" 
d="M154 0v1024h122v-934h498v934h123v-934h455v934h125v-934h122l-16 -418h-110v328h-1319z" />
    <glyph glyph-name="afii10092" unicode="&#x44a;" horiz-adv-x="1159" 
d="M37 936l4 88h381v-395h250q90 1 156.5 -14t117 -49.5t76 -96t25.5 -150.5q0 -95 -26.5 -159t-80 -98.5t-118.5 -48t-156 -13.5h-371v936h-258zM422 84h248q141 0 193 53.5t52 181.5q0 54 -10.5 92.5t-36.5 70.5t-76 47.5t-124 15.5h-246v-461z" />
    <glyph glyph-name="afii10093" unicode="&#x44b;" horiz-adv-x="1425" 
d="M154 0v1024h127v-395h249q185 2 279 -67.5t94 -242.5q0 -95 -26.5 -159t-80 -98.5t-118.5 -48t-156 -13.5h-368zM281 84h247q141 0 192.5 53t51.5 182q0 112 -52.5 169t-193.5 57h-245v-461zM1098 0v1024h129v-1024h-129z" />
    <glyph glyph-name="afii10094" unicode="&#x44c;" horiz-adv-x="1015" 
d="M154 0v1024h127v-395h249q185 2 279 -67.5t94 -242.5q0 -95 -26.5 -159t-80 -98.5t-118.5 -48t-156 -13.5h-368zM281 84h247q141 0 192.5 53t51.5 182q0 112 -52.5 169t-193.5 57h-245v-461z" />
    <glyph glyph-name="afii10095" unicode="&#x44d;" horiz-adv-x="1050" 
d="M104 61l25 91q195 -84 315 -84q168 0 255 93t87 263v68h-518v81h518v27q0 169 -86 262.5t-254 93.5q-145 0 -313 -84l-27 91q169 81 347 81q222 0 344.5 -118t122.5 -334v-162q0 -217 -123 -333.5t-344 -116.5q-169 0 -349 81z" />
    <glyph glyph-name="afii10096" unicode="&#x44e;" horiz-adv-x="1611" 
d="M154 0v1024h120v-453h267v80q0 183 127.5 288t341.5 105q218 0 344.5 -112.5t126.5 -306.5v-226q0 -194 -126.5 -306.5t-344.5 -112.5q-214 0 -341.5 117.5t-127.5 328.5v59h-267v-485h-120zM672 395q0 -148 91.5 -237.5t246.5 -89.5q156 0 248 90t92 237v230
q0 149 -91 240t-249 91q-155 0 -246.5 -91t-91.5 -240v-230z" />
    <glyph glyph-name="afii10097" unicode="&#x44f;" horiz-adv-x="1185" 
d="M113 0l352 383q-63 1 -112.5 9t-94 29t-74 55t-46.5 88t-17 126q0 175 101.5 257t287.5 77h479v-1024h-127v379h-264l-326 -379h-159zM256 692q0 -123 62.5 -176t203.5 -53h340v475h-340q-139 0 -202.5 -61t-63.5 -185z" />
    <glyph glyph-name="afii10071" unicode="&#x451;" 
d="M104 373v215q0 215 106 335.5t329 120.5q211 0 322.5 -103t111.5 -306v-162h-735v-104q0 -161 86.5 -232t257.5 -71q117 0 354 84l16 -93q-228 -77 -377 -77q-110 0 -193 20t-147 64t-97.5 122t-33.5 187zM238 543h608v112q0 150 -77 228t-230 78q-301 0 -301 -343v-75z
M358 1188v280h101v-280h-101zM614 1188v280h101v-280h-101z" />
    <glyph glyph-name="afii10099" unicode="&#x452;" horiz-adv-x="1218" 
d="M16 1178v112h146v205h127v-205h352v-112h-352v-277q56 52 152 97.5t214 45.5q74 0 126.5 -8t100 -30t76.5 -60.5t45.5 -100t16.5 -147.5v-776q0 -167 -74.5 -249.5t-226.5 -82.5q-76 0 -221 43l12 86q127 -41 192 -41q191 0 191 244v635h2v131q0 140 -57.5 202t-206.5 62
q-90 0 -188 -44t-154 -97v-811h-127v1178h-146z" />
    <glyph glyph-name="afii10100" unicode="&#x453;" horiz-adv-x="847" 
d="M154 0v1024h624v-104h-497v-920h-127zM406 1147l75 369h137l-129 -369h-83z" />
    <glyph glyph-name="afii10101" unicode="&#x454;" horiz-adv-x="989" 
d="M104 430v162q0 216 122.5 334t344.5 118q178 0 347 -81l-27 -91q-168 84 -313 84q-168 0 -254 -93.5t-86 -262.5v-27h518v-81h-518v-68q0 -170 87 -263t255 -93q120 0 315 84l25 -91q-180 -81 -349 -81q-221 0 -344 116.5t-123 333.5z" />
    <glyph glyph-name="afii10102" unicode="&#x455;" horiz-adv-x="995" 
d="M104 51l17 86q241 -76 393 -76q58 0 103.5 7.5t74.5 18t50 27t31.5 30.5t16 34t6.5 31.5t1 28.5q0 103 -117 157q-44 20 -112.5 38t-126.5 29.5t-121 34.5t-106.5 52.5t-72 83.5t-28.5 127q0 76 32 132t89.5 88.5t129.5 48t160 15.5q77 0 152.5 -12t114 -23.5t98.5 -31.5
l-25 -82q-66 23 -100.5 33.5t-102 21.5t-139.5 11q-79 0 -137.5 -20t-88 -52.5t-43 -64.5t-13.5 -64q0 -51 29.5 -87.5t78.5 -56.5q46 -17 119 -35t130.5 -30.5t121.5 -37t106.5 -55.5t70.5 -85.5t28 -128.5q0 -67 -21.5 -115.5t-56.5 -76.5t-89.5 -44.5t-108.5 -22
t-126 -5.5q-201 0 -418 71z" />
    <glyph glyph-name="afii10103" unicode="&#x456;" horiz-adv-x="477" 
d="M154 0v1024h127v-1024h-127zM154 1194v240h127v-240h-127z" />
    <glyph glyph-name="afii10104" unicode="&#x457;" horiz-adv-x="477" 
d="M47 1194v250h111v-250h-111zM154 0v1024h127v-1024h-127zM276 1194v250h111v-250h-111z" />
    <glyph glyph-name="afii10105" unicode="&#x458;" horiz-adv-x="483" 
d="M-223 -367l12 86q135 -41 193 -41q192 0 192 244v1102h127v-1102q0 -332 -303 -332q-65 0 -221 43zM174 1194v240h127v-240h-127z" />
    <glyph glyph-name="afii10106" unicode="&#x459;" horiz-adv-x="1724" 
d="M55 111q52 -9 60 -9q58 0 103 60t70.5 152.5t42 220t22 244.5t5.5 245h656v-395h250q185 2 278.5 -67.5t93.5 -242.5q0 -95 -26.5 -159t-80 -98.5t-118.5 -48t-156 -13.5h-368v936h-420q0 -78 -1 -135.5t-4.5 -139.5t-10 -143.5t-19 -135t-29.5 -127t-42.5 -107
t-58 -86.5t-76.5 -53.5t-97 -20.5q-25 0 -57 12zM1014 84h248q141 0 192 53t51 182q0 112 -52 169t-193 57h-246v-461z" />
    <glyph glyph-name="afii10107" unicode="&#x45a;" horiz-adv-x="1728" 
d="M154 0v1024h127v-403h610v403h127v-395h250q185 2 278.5 -67.5t93.5 -242.5q0 -95 -26.5 -159t-79.5 -98.5t-118 -48t-156 -13.5h-369v530h-610v-530h-127zM1018 84h248q141 0 192 53t51 182q0 112 -52 169t-193 57h-246v-461z" />
    <glyph glyph-name="afii10108" unicode="&#x45b;" horiz-adv-x="1159" 
d="M16 1178v112h146v205h127v-205h352v-112h-352v-277q56 52 152 97.5t214 45.5q74 0 126.5 -8t100 -30t76.5 -60.5t45.5 -100t16.5 -147.5v-698h-125v688q0 140 -57.5 202t-206.5 62q-90 0 -188 -44t-154 -97v-811h-127v1178h-146z" />
    <glyph glyph-name="afii10109" unicode="&#x45c;" horiz-adv-x="1054" 
d="M154 0v1024h127v-465h4l528 465h178l-581 -487l581 -537h-168l-538 508h-4v-508h-127zM477 1147l76 369h137l-129 -369h-84z" />
    <glyph glyph-name="afii10110" unicode="&#x45e;" horiz-adv-x="970" 
d="M37 1024h151l402 -948l315 948h137l-348 -979q-89 -234 -135 -332q-39 -84 -101 -134t-163 -50q-120 0 -223 49l30 92q100 -41 177 -41q68 0 110.5 29.5t77.5 112.5l92 229q-31 5 -62 29t-44 57zM246 1450v20h108q0 -112 48.5 -161t166.5 -49t166.5 49t48.5 161h109v-20
q0 -264 -324 -264q-323 0 -323 264z" />
    <glyph glyph-name="afii10193" unicode="&#x45f;" horiz-adv-x="1196" 
d="M154 0v1024h127v-934h591v934h127v-1024h-358l-14 -393h-119v393h-354z" />
    <glyph glyph-name="afii10147" unicode="&#x472;" horiz-adv-x="1503" 
d="M119 543v346q0 90 24 173t74 154.5t121.5 124.5t172.5 83t220 30t220 -30t172.5 -83t121.5 -124.5t74 -154.5t24 -173v-346q0 -113 -39 -213.5t-112.5 -179t-192.5 -124.5t-268 -46t-268 46t-192.5 124.5t-112.5 179t-39 213.5zM258 551q0 -214 129.5 -342.5
t343.5 -128.5q224 0 349.5 127t125.5 344v117h-948v-117zM258 768h948v115q0 202 -127.5 336.5t-347.5 134.5q-205 0 -339 -132.5t-134 -338.5v-115z" />
    <glyph glyph-name="afii10195" unicode="&#x473;" horiz-adv-x="1175" 
d="M102 397v230q0 191 125 304t344 113q221 0 347 -113t126 -304v-230q0 -191 -126 -304t-347 -113q-219 0 -344 113t-125 304zM233 397q0 -149 90.5 -240t247.5 -91q159 0 249.5 91t90.5 240v78h-678v-78zM233 563h678v62q0 149 -91 241t-249 92q-155 0 -246.5 -90.5
t-91.5 -236.5v-68z" />
    <glyph glyph-name="afii10050" unicode="&#x490;" horiz-adv-x="1079" 
d="M193 0v1434h679l13 303h106v-414h-667v-1323h-131z" />
    <glyph glyph-name="afii10098" unicode="&#x491;" horiz-adv-x="847" 
d="M154 0v1024h512l14 299h98v-403h-497v-920h-127z" />
    <glyph glyph-name="uni0492" unicode="&#x492;" horiz-adv-x="985" 
d="M37 698v80h141v656h770v-111h-639v-545h436v-80h-436v-698h-131v698h-141z" />
    <glyph glyph-name="uni0493" unicode="&#x493;" horiz-adv-x="821" 
d="M57 483v78h103v463h624v-104h-497v-359h354v-78h-354v-483h-127v483h-103z" />
    <glyph glyph-name="uni0496" unicode="&#x496;" horiz-adv-x="1693" 
d="M39 0l573 776l-571 658h154l532 -637h31v637h131v-637h31l530 637h156l-574 -658l498 -676h117l-17 -493h-117v393h-55l-540 756h-29v-756h-131v756h-31l-541 -756h-147z" />
    <glyph glyph-name="uni0497" unicode="&#x497;" horiz-adv-x="1417" 
d="M31 0l465 532l-463 492h151l428 -477h19v477h125v-477h20l424 477h154l-461 -492l381 -442h100l-18 -418h-105v328h-51l-424 518h-20v-518h-125v518h-19l-432 -518h-149z" />
    <glyph glyph-name="uni0498" unicode="&#x498;" horiz-adv-x="1216" 
d="M115 61l20 107q5 -1 57.5 -19.5t95 -31t113 -25t134.5 -12.5q95 0 166 14.5t126.5 47.5t84 92.5t28.5 144.5q0 348 -430 348h-141v90h184q130 0 217.5 69.5t87.5 200.5q0 267 -305 267q-95 0 -198.5 -24.5t-176.5 -55.5l-31 98q74 32 184.5 57t223.5 25q105 0 182 -17
t136 -56.5t88.5 -109t29.5 -169.5q0 -254 -233 -316q82 -22 138 -50.5t98.5 -75.5t62.5 -117t20 -168q0 -104 -32.5 -179t-96 -119.5t-144 -67t-188.5 -27.5q54 -110 54 -220q0 -159 -158 -159q-77 0 -166 24l16 82q96 -22 132 -22q42 0 61.5 21.5t19.5 74.5q0 82 -49 197
q-85 1 -183.5 20t-150.5 35t-77 26z" />
    <glyph glyph-name="uni0499" unicode="&#x499;" horiz-adv-x="1030" 
d="M88 61l31 86q19 -10 61 -25.5t118.5 -34.5t137.5 -19q167 0 253.5 61t86.5 172q0 116 -88 170.5t-235 54.5h-205v82h201q247 0 247 178q0 79 -67.5 124.5t-196.5 45.5q-135 0 -299 -75l-31 86q174 77 349 77q94 0 159.5 -11t117 -37.5t76.5 -75.5t25 -121
q0 -149 -176 -205q45 -14 75.5 -26t68 -36t59.5 -52.5t37.5 -74.5t15.5 -104q0 -87 -31 -149t-88.5 -97t-126 -52t-157.5 -21q53 -108 53 -220q0 -159 -156 -159q-81 0 -165 24l14 82q96 -22 133 -22q42 0 61 21t19 75q0 72 -49 199q-77 4 -158 23t-116 33t-54 23z" />
    <glyph glyph-name="uni049A" unicode="&#x49a;" horiz-adv-x="1294" 
d="M193 0v1434h131v-639h24l709 639h174l-750 -656l656 -678h120l-16 -493h-117v393h-53l-723 745h-24v-745h-131z" />
    <glyph glyph-name="uni049B" unicode="&#x49b;" horiz-adv-x="1046" 
d="M154 0v1024h127v-465h4l528 465h178l-581 -487l483 -447h111l-21 -418h-104v328h-56l-538 508h-4v-508h-127z" />
    <glyph glyph-name="uni049C" unicode="&#x49c;" horiz-adv-x="1308" 
d="M193 0v1434h131v-621h149v375h84v-375h84l455 621h172l-504 -658l508 -776h-164l-467 727h-84v-481h-84v481h-149v-727h-131z" />
    <glyph glyph-name="uni049D" unicode="&#x49d;" horiz-adv-x="1138" 
d="M154 0v1024h127v-457h120v240h76v-240h92l340 457h152l-371 -483l369 -541h-150l-340 500h-92v-283h-76v283h-120v-500h-127z" />
    <glyph glyph-name="uni04A0" unicode="&#x4a0;" horiz-adv-x="1458" 
d="M55 1337l13 97h401v-639h25l708 639h174l-749 -656l753 -778h-163l-723 745h-25v-745h-131v1337h-283z" />
    <glyph glyph-name="uni04A1" unicode="&#x4a1;" horiz-adv-x="1212" 
d="M37 936l12 88h375v-465h4l528 465h179l-582 -487l582 -537h-168l-539 508h-4v-508h-127v936h-260z" />
    <glyph glyph-name="uni04A2" unicode="&#x4a2;" horiz-adv-x="1521" 
d="M193 0v1434h131v-600h802v600h131v-1334h78l-16 -493h-119v393h-74v733h-802v-733h-131z" />
    <glyph glyph-name="uni04A3" unicode="&#x4a3;" horiz-adv-x="1224" 
d="M154 0v1024h127v-440h610v440h127v-934h69l-20 -418h-104v328h-72v502h-610v-502h-127z" />
    <glyph glyph-name="uni04AA" unicode="&#x4aa;" horiz-adv-x="1163" 
d="M119 547v340q0 567 555 567q91 0 178 -20.5t203 -61.5l-31 -104q-176 58 -244 70q-55 10 -106 10q-221 0 -320.5 -115t-99.5 -348v-336q0 -463 420 -463q54 0 119.5 13.5t102 24.5t130.5 42l29 -105q-208 -74 -353 -81q52 -106 52 -218q0 -159 -156 -159q-77 0 -166 24
l14 82q102 -22 134 -22q41 0 60 21t19 75q0 77 -47 199q-493 28 -493 565z" />
    <glyph glyph-name="uni04AB" unicode="&#x4ab;" horiz-adv-x="980" 
d="M104 430v162q0 213 124.5 332.5t344.5 119.5q85 0 176 -21.5t164 -57.5l-24 -95q-70 29 -99 40t-92.5 27.5t-111.5 16.5q-171 0 -258.5 -96t-87.5 -270v-152q0 -176 87.5 -271t258.5 -95q50 0 107 14t93.5 27.5t104.5 42.5l22 -95q-172 -72 -311 -77q51 -104 51 -220
q0 -159 -155 -159q-82 0 -166 24l14 82q102 -22 133 -22q42 0 61 21t19 75q0 79 -47 201q-193 15 -300.5 130.5t-107.5 315.5z" />
    <glyph glyph-name="uni04AE" unicode="&#x4ae;" horiz-adv-x="1187" 
d="M16 1434h156l428 -744l422 744h149l-512 -859v-575h-131v578z" />
    <glyph glyph-name="uni04AF" unicode="&#x4af;" horiz-adv-x="978" 
d="M16 1024h134l342 -891h6l333 891h132l-406 -1030v-414h-127v420z" />
    <glyph glyph-name="uni04B0" unicode="&#x4b0;" horiz-adv-x="1263" 
d="M37 1434h156l428 -744l421 744h150l-512 -859v-16h305v-92h-305v-467h-131v467h-303v92h303v19z" />
    <glyph glyph-name="uni04B1" unicode="&#x4b1;" horiz-adv-x="1019" 
d="M37 1024h133l342 -891h6l334 891h131l-362 -918h264v-106h-305l-2 -6v-414h-127v420h-306v106h263z" />
    <glyph glyph-name="uni04B2" unicode="&#x4b2;" horiz-adv-x="1331" 
d="M37 0l493 717l-493 717h168l424 -639l420 639h159l-493 -717l424 -617h108l-16 -493h-117v393h-74l-424 637l-421 -637h-158z" />
    <glyph glyph-name="uni04B3" unicode="&#x4b3;" 
d="M51 0l389 514l-389 510h158l334 -455l317 455h148l-390 -510l320 -424h88l-18 -418h-107v328h-51l-328 455l-321 -455h-150z" />
    <glyph glyph-name="uni04B8" unicode="&#x4b8;" horiz-adv-x="1306" 
d="M152 940v494h131v-490q0 -82 18.5 -135.5t59 -81.5t92.5 -38.5t131 -10.5h4v510h86v-510q147 0 270 12v744h131v-1434h-131v584q-191 -13 -270 -13v-325h-86v325h-8q-74 0 -133 9t-116 33.5t-95 64.5t-61 106.5t-23 155.5z" />
    <glyph glyph-name="uni04B9" unicode="&#x4b9;" horiz-adv-x="1112" 
d="M100 799v225h127v-252q0 -139 54.5 -203.5t173.5 -64.5h28v303h74v-299q132 9 231 27v489h127v-1024h-127v449q-117 -19 -231 -29v-203h-74v199h-47q-167 0 -251.5 91t-84.5 292z" />
    <glyph glyph-name="uni04BA" unicode="&#x4ba;" horiz-adv-x="1402" 
d="M193 0v1434h131v-527q70 48 188 92.5t250 44.5q420 0 420 -356v-688h-131v676q0 131 -85 197.5t-227 66.5q-224 0 -415 -139v-801h-131z" />
    <glyph glyph-name="uni04BB" unicode="&#x4bb;" horiz-adv-x="1208" 
d="M154 0v1495h127v-594q56 52 152 97.5t214 45.5q74 0 126.5 -8t100 -30t76.5 -60.5t45.5 -100t16.5 -147.5v-698h-125v688q0 140 -57.5 202t-206.5 62q-90 0 -188 -44t-154 -97v-811h-127z" />
    <glyph glyph-name="uni04D8" unicode="&#x4d8;" horiz-adv-x="1458" 
d="M119 543v266h1042v78q0 467 -436 467q-241 0 -500 -82l-22 100q316 82 520 82q149 0 261 -41.5t180 -119t101 -179.5t33 -229v-338q0 -89 -21.5 -170.5t-68 -154.5t-114.5 -126.5t-167 -84.5t-218 -31q-148 0 -264 47t-185.5 127.5t-105 179t-35.5 209.5zM258 543
q0 -214 121 -339.5t330 -125.5q218 0 335 124t117 341v176h-903v-176z" />
    <glyph glyph-name="afii10846" unicode="&#x4d9;" horiz-adv-x="1101" 
d="M102 389v162h736v104q0 161 -86.5 232t-257.5 71q-120 0 -353 -84l-18 93q231 77 379 77q109 0 191.5 -20t146.5 -64t97.5 -122t33.5 -187v-215q0 -215 -105 -335.5t-327 -120.5q-212 0 -324.5 103t-112.5 306zM231 369q0 -150 76.5 -228t229.5 -78q301 0 301 343v75
h-607v-112z" />
    <glyph glyph-name="uni2000" unicode="&#x2000;" horiz-adv-x="962" 
 />
    <glyph glyph-name="uni2001" unicode="&#x2001;" horiz-adv-x="1925" 
 />
    <glyph glyph-name="uni2002" unicode="&#x2002;" horiz-adv-x="962" 
 />
    <glyph glyph-name="uni2003" unicode="&#x2003;" horiz-adv-x="1925" 
 />
    <glyph glyph-name="uni2004" unicode="&#x2004;" horiz-adv-x="641" 
 />
    <glyph glyph-name="uni2005" unicode="&#x2005;" horiz-adv-x="481" 
 />
    <glyph glyph-name="uni2006" unicode="&#x2006;" horiz-adv-x="320" 
 />
    <glyph glyph-name="uni2007" unicode="&#x2007;" horiz-adv-x="320" 
 />
    <glyph glyph-name="uni2008" unicode="&#x2008;" horiz-adv-x="240" 
 />
    <glyph glyph-name="uni2009" unicode="&#x2009;" horiz-adv-x="385" 
 />
    <glyph glyph-name="uni200A" unicode="&#x200a;" horiz-adv-x="106" 
 />
    <glyph glyph-name="uni2010" unicode="&#x2010;" horiz-adv-x="933" 
d="M139 451v116h615v-116h-615z" />
    <glyph glyph-name="uni2011" unicode="&#x2011;" horiz-adv-x="933" 
d="M139 451v116h615v-116h-615z" />
    <glyph glyph-name="figuredash" unicode="&#x2012;" horiz-adv-x="933" 
d="M139 451v116h615v-116h-615z" />
    <glyph glyph-name="endash" unicode="&#x2013;" horiz-adv-x="1529" 
d="M139 481v119h1211v-119h-1211z" />
    <glyph glyph-name="emdash" unicode="&#x2014;" horiz-adv-x="1806" 
d="M102 481v119h1561v-119h-1561z" />
    <glyph glyph-name="quoteleft" unicode="&#x2018;" horiz-adv-x="571" 
d="M180 985v145q0 195 119 406l55 -20q-75 -158 -75 -295h71v-236h-170z" />
    <glyph glyph-name="quoteright" unicode="&#x2019;" horiz-adv-x="571" 
d="M180 905q76 156 76 293h-70v236h168v-146q0 -199 -116 -405z" />
    <glyph glyph-name="quotesinglbase" unicode="&#x201a;" horiz-adv-x="571" 
d="M180 -295q76 160 76 295h-70v236h168v-146q0 -199 -116 -405z" />
    <glyph glyph-name="quotedblleft" unicode="&#x201c;" horiz-adv-x="890" 
d="M180 985v145q0 195 119 406l55 -20q-75 -158 -75 -295h71v-236h-170zM453 985v145q0 83 20 165.5t42 131.5t54 109l58 -20q-76 -160 -76 -295h72v-236h-170z" />
    <glyph glyph-name="quotedblright" unicode="&#x201d;" horiz-adv-x="890" 
d="M180 905q76 156 76 293h-70v236h168v-146q0 -199 -116 -405zM453 905q75 154 75 293h-71v236h170v-146q0 -197 -117 -405z" />
    <glyph glyph-name="quotedblbase" unicode="&#x201e;" horiz-adv-x="890" 
d="M180 -295q76 160 76 295h-70v236h168v-146q0 -199 -116 -405zM453 -295q75 158 75 295h-71v236h170v-146q0 -197 -117 -405z" />
    <glyph glyph-name="dagger" unicode="&#x2020;" horiz-adv-x="927" 
d="M98 913v111h301v410h131v-410h299v-111h-299v-1323h-131v1323h-301z" />
    <glyph glyph-name="daggerdbl" unicode="&#x2021;" horiz-adv-x="927" 
d="M98 0v111h301v802h-301v111h301v410h131v-410h299v-111h-299v-802h299v-111h-299v-410h-131v410h-301z" />
    <glyph glyph-name="bullet" unicode="&#x2022;" horiz-adv-x="724" 
d="M172 596q0 78 40 126t130 48q91 0 132.5 -48.5t41.5 -125.5t-41.5 -124.5t-132.5 -47.5q-170 0 -170 172z" />
    <glyph glyph-name="ellipsis" unicode="&#x2026;" horiz-adv-x="1320" 
d="M170 0v236h168v-236h-168zM520 0v236h170v-236h-170zM872 0v236h168v-236h-168z" />
    <glyph glyph-name="uni202F" unicode="&#x202f;" horiz-adv-x="385" 
 />
    <glyph glyph-name="perthousand" unicode="&#x2030;" horiz-adv-x="2502" 
d="M180 1006v165q0 124 75.5 203.5t219.5 79.5q145 0 221 -79.5t76 -203.5v-165q0 -125 -75.5 -204t-221.5 -79t-220.5 78.5t-74.5 204.5zM287 1008q0 -89 51 -147t137 -58q88 0 138.5 58t50.5 143v165q0 83 -50.5 144t-138.5 61q-86 0 -137 -58.5t-51 -141.5v-166zM381 0
l866 1438h135l-864 -1438h-137zM993 262v166q0 124 75.5 203.5t219.5 79.5q146 0 221.5 -79t75.5 -204v-166q0 -125 -75.5 -203.5t-221.5 -78.5t-220.5 78.5t-74.5 203.5zM1100 260q0 -86 51.5 -143.5t136.5 -57.5q89 0 139 57.5t50 143.5v170q0 84 -50.5 142.5t-138.5 58.5
q-87 0 -137.5 -62t-50.5 -155v-154zM1731 262v166q0 124 76 203.5t221 79.5q144 0 219 -79t75 -204v-166q0 -126 -74 -204t-220 -78q-147 0 -222 78.5t-75 203.5zM1839 260q0 -86 51.5 -143.5t137.5 -57.5q87 0 137.5 57.5t50.5 143.5v170q0 84 -50.5 142.5t-137.5 58.5
t-138 -62.5t-51 -154.5v-154z" />
    <glyph glyph-name="guilsinglleft" unicode="&#x2039;" horiz-adv-x="714" 
d="M180 514l314 447h122l-297 -443l297 -412h-129z" />
    <glyph glyph-name="guilsinglright" unicode="&#x203a;" horiz-adv-x="796" 
d="M180 106l297 412l-297 443h121l315 -447l-309 -408h-127z" />
    <glyph glyph-name="fraction" unicode="&#x2044;" horiz-adv-x="561" 
d="M-154 0l764 1434h105l-766 -1434h-103z" />
    <glyph glyph-name="uni205F" unicode="&#x205f;" horiz-adv-x="481" 
 />
    <glyph glyph-name="zerosuperior" unicode="&#x2070;" horiz-adv-x="759" 
d="M84 1006v165q0 124 75.5 203.5t219.5 79.5q146 0 221.5 -79t75.5 -204v-165q0 -125 -75.5 -204t-221.5 -79t-220.5 78.5t-74.5 204.5zM190 1004q0 -86 51.5 -143.5t137.5 -57.5q89 0 138.5 57.5t49.5 143.5v170q0 84 -50 142t-138 58q-87 0 -138 -62.5t-51 -154.5v-153z
" />
    <glyph glyph-name="foursuperior" unicode="&#x2074;" horiz-adv-x="739" 
d="M45 928v76l397 442h107v-438h82l-15 -80h-67v-193h-98v193h-406zM139 1008h312v338z" />
    <glyph glyph-name="fivesuperior" unicode="&#x2075;" horiz-adv-x="722" 
d="M92 764l14 80q160 -39 259 -41q90 0 138 37t48 125q0 137 -158 137q-104 0 -256 -31l37 377h455v-80h-365l-26 -215q136 21 184 21q237 0 237 -207q0 -244 -288 -244q-122 0 -279 41z" />
    <glyph glyph-name="sixsuperior" unicode="&#x2076;" horiz-adv-x="755" 
d="M100 1012v145q0 79 26.5 139t70.5 94t94.5 50t105.5 16q143 0 240 -33l-19 -73q-32 11 -94.5 19.5t-117.5 8.5q-85 0 -142 -51.5t-57 -142.5v-58q34 17 90 31t102 14q60 0 106.5 -10t85.5 -33t60 -66.5t21 -105.5q0 -103 -78 -169t-203 -66q-61 0 -111 14t-92 46
t-65 90.5t-23 140.5zM205 1065h2v-70q0 -102 49 -150t131 -48q78 0 128 43.5t50 120.5q0 78 -47 112.5t-123 34.5q-36 0 -94 -14t-96 -29z" />
    <glyph glyph-name="sevensuperior" unicode="&#x2077;" horiz-adv-x="702" 
d="M94 1362v84h537v-70q-68 -50 -130 -143t-105 -227t-44 -271h-108q1 130 43 261t97 221t114 145h-404z" />
    <glyph glyph-name="eightsuperior" unicode="&#x2078;" horiz-adv-x="716" 
d="M74 928q0 134 180 198q-154 60 -154 166q0 79 69 121.5t183 42.5q118 0 185 -41.5t67 -122.5q0 -105 -166 -166q86 -25 141.5 -73.5t55.5 -124.5q0 -207 -283 -207q-278 0 -278 207zM174 936q0 -71 48.5 -107t129.5 -36t129.5 36t48.5 107q0 39 -32 69t-62 42.5t-90 31.5
q-8 3 -12 4q-160 -44 -160 -147zM201 1286q0 -79 157 -127q152 52 152 127q0 55 -40 79t-118 24q-75 0 -113 -24t-38 -79z" />
    <glyph glyph-name="ninesuperior" unicode="&#x2079;" horiz-adv-x="958" 
d="M150 1223q0 102 77 166.5t203 64.5q289 0 289 -287v-149q0 -78 -26.5 -137.5t-70.5 -93t-94.5 -50t-105.5 -16.5q-131 0 -238 33l17 73q86 -28 213 -28q85 0 142.5 52.5t57.5 141.5v58q-31 -18 -88 -32t-106 -15q-127 -2 -198.5 47.5t-71.5 171.5zM254 1217
q0 -78 48 -113t124 -35q37 0 95 13.5t95 29.5h-2v72q0 100 -49.5 148t-130.5 48q-78 0 -129 -43t-51 -120z" />
    <glyph glyph-name="parenleftsuperior" unicode="&#x207d;" horiz-adv-x="831" 
d="M150 1081q0 66 12.5 134t28 119t43.5 112t46 94.5t48 85.5l100 -6q-22 -33 -46 -76.5t-55 -115.5t-51 -164t-20 -183q0 -83 16.5 -166t41.5 -146t49 -110.5t45 -82t22 -37.5l-98 -7q-38 63 -62.5 109.5t-56 120t-47.5 154t-16 165.5z" />
    <glyph glyph-name="parenrightsuperior" unicode="&#x207e;" horiz-adv-x="458" 
d="M57 539q0 1 22.5 37.5t45.5 82t48.5 110t41.5 147t16 165.5q0 91 -19.5 183t-50.5 163.5t-54.5 116t-45.5 76.5l101 6q37 -64 60.5 -110.5t54 -120.5t46 -153t15.5 -161q0 -85 -16 -165.5t-46.5 -153.5t-55.5 -120.5t-62 -109.5z" />
    <glyph glyph-name="zeroinferior" unicode="&#x2080;" horiz-adv-x="937" 
d="M139 262v166q0 124 75.5 203.5t219.5 79.5q146 0 221.5 -79t75.5 -204v-166q0 -125 -75.5 -203.5t-221.5 -78.5t-220.5 78.5t-74.5 203.5zM246 260q0 -86 51.5 -143.5t136.5 -57.5q89 0 139 57.5t50 143.5v170q0 84 -50.5 142.5t-138.5 58.5q-87 0 -137.5 -62t-50.5 -155
v-154z" />
    <glyph glyph-name="oneinferior" unicode="&#x2081;" horiz-adv-x="546" 
d="M41 453l295 256h86v-709h-103v590l-241 -213z" />
    <glyph glyph-name="twoinferior" unicode="&#x2082;" horiz-adv-x="700" 
d="M111 0v45q0 54 10 95.5t25 70t46 54.5t60.5 43t79.5 42q10 5 49 22.5t62.5 30.5t54 33t46 43t15.5 47q0 50 -47 80.5t-129 30.5q-47 0 -124 -15.5t-116 -31.5l-22 78q50 18 125.5 35.5t136.5 17.5q129 0 205 -47t76 -144q0 -27 -6.5 -49t-22.5 -41t-31.5 -33t-46 -31.5
t-52.5 -28.5t-64.5 -31.5t-69.5 -34.5q-40 -19 -61.5 -32.5t-47.5 -37t-38 -55t-13 -74.5h455v-82h-555z" />
    <glyph glyph-name="threeinferior" unicode="&#x2083;" horiz-adv-x="720" 
d="M63 20l15 78q29 -9 98.5 -19.5t130.5 -10.5q228 0 228 127q0 149 -234 149h-92l-10 68h114q68 0 121 30.5t53 87.5q0 111 -174 111q-48 0 -117.5 -8.5t-103.5 -22.5l-14 78q35 10 111 21.5t126 11.5q273 0 273 -172q0 -56 -37 -97t-98 -61q87 -23 135.5 -68.5
t48.5 -134.5q0 -48 -18.5 -84.5t-48.5 -58.5t-75 -35.5t-91 -18.5t-103 -5q-59 0 -139.5 13t-98.5 21z" />
    <glyph glyph-name="fourinferior" unicode="&#x2084;" horiz-adv-x="739" 
d="M45 193v73l397 443h107v-439h82l-15 -77h-67v-193h-98v193h-406zM139 270h312v340z" />
    <glyph glyph-name="fiveinferior" unicode="&#x2085;" horiz-adv-x="712" 
d="M92 29l17 80q159 -41 251 -41q90 0 135.5 36.5t45.5 124.5q0 138 -150 138q-102 0 -254 -31l37 377h457l-2 -80h-365l-26 -215q12 1 46.5 6.5t69.5 9.5t64 4q106 0 168.5 -49.5t62.5 -157.5q0 -132 -74 -187.5t-206 -55.5q-120 0 -277 41z" />
    <glyph glyph-name="sixinferior" unicode="&#x2086;" horiz-adv-x="755" 
d="M100 276v146q0 79 26.5 138.5t70.5 93.5t94.5 50.5t105.5 16.5q143 0 240 -33l-19 -74q-32 11 -94.5 20t-117.5 9q-85 0 -142 -52.5t-57 -141.5v-58q34 17 90 31t102 14q60 0 106.5 -10t85.5 -33t60 -66.5t21 -105.5q0 -103 -78 -169t-203 -66q-291 0 -291 290zM207 258
q0 -101 49 -149t131 -48q78 0 128 43.5t50 120.5q0 78 -46.5 113t-121.5 35q-36 0 -95.5 -14t-94.5 -29v-72z" />
    <glyph glyph-name="seveninferior" unicode="&#x2087;" horiz-adv-x="696" 
d="M88 623v86h537v-68q-108 -81 -193 -259.5t-86 -381.5h-108q1 130 43 260t97 219t114 144h-404z" />
    <glyph glyph-name="eightinferior" unicode="&#x2088;" horiz-adv-x="722" 
d="M74 193q0 39 17 72.5t46 57t59 40t64 28.5q-154 60 -154 166q0 79 69 121.5t183 42.5q117 0 184.5 -42t67.5 -122q0 -105 -166 -166q85 -25 141 -74t56 -124q0 -108 -77 -157.5t-206 -49.5q-284 0 -284 207zM180 195q0 -68 48.5 -103t129.5 -35t130 36t49 104
q0 22 -7.5 40.5t-25 33.5t-31.5 24.5t-43 20.5t-43 15.5t-47 14.5q-160 -44 -160 -151zM207 551q0 -79 158 -127q151 51 151 127q0 55 -39.5 78.5t-118.5 23.5q-151 0 -151 -102z" />
    <glyph glyph-name="nineinferior" unicode="&#x2089;" horiz-adv-x="788" 
d="M150 485q0 104 77 169t203 65q289 0 289 -287v-149q0 -78 -26.5 -137.5t-70.5 -93t-94.5 -50t-105.5 -16.5q-149 0 -238 32l17 74q89 -29 213 -29q85 0 142.5 53t57.5 142v55q-34 -17 -91 -31t-103 -14q-127 -2 -198.5 47t-71.5 170zM254 481q0 -78 47.5 -113.5
t122.5 -35.5q38 0 95.5 14.5t94.5 30.5v72q0 100 -49.5 147t-130.5 47q-78 0 -129 -43t-51 -119z" />
    <glyph glyph-name="parenleftinferior" unicode="&#x208d;" horiz-adv-x="499" 
d="M70 369q0 81 15.5 159t47.5 154t54 119t61 112l100 -6q-172 -264 -172 -538q0 -83 16.5 -166t42 -147t48.5 -111t44.5 -82t22.5 -37l-98 -6q-37 61 -62.5 108.5t-56.5 120.5t-47 154t-16 166z" />
    <glyph glyph-name="parenrightinferior" unicode="&#x208e;" horiz-adv-x="454" 
d="M139 -174q1 2 22.5 37t44.5 82t48.5 111t42 147t16.5 166q0 264 -170 538l101 6q32 -59 47 -87t44.5 -93t44.5 -113.5t27.5 -116.5t12.5 -134q0 -85 -16 -166.5t-46 -153.5t-55.5 -120.5t-62.5 -108.5z" />
    <glyph glyph-name="dong" unicode="&#x20ab;" horiz-adv-x="1208" 
d="M68 -106h1034v-113h-1034v113zM137 512q0 258 107 395t346 137q158 0 317 -100v266h-315v93h315v192h125v-192h137v-93h-137v-1210h-125v80q-163 -100 -317 -100q-223 0 -338 136.5t-115 395.5zM268 512q0 -107 20.5 -187.5t52.5 -128t78.5 -76t91.5 -38.5t99 -10
q149 0 297 92v696q-166 92 -297 92q-54 0 -99 -9.5t-91.5 -38.5t-78.5 -76t-52.5 -127.5t-20.5 -188.5z" />
    <glyph glyph-name="Euro" unicode="&#x20ac;" horiz-adv-x="1341" 
d="M143 641h105v170h-82l-23 80h105v31q0 277 137.5 404.5t402.5 127.5q193 0 394 -86l-31 -96q-186 82 -350 82q-212 0 -317 -107t-105 -325v-31h702l-14 -80h-688v-170h657l-14 -80h-643v-47q0 -200 108 -317t314 -117q84 0 164 20t190 62l29 -101q-213 -81 -396 -81
q-261 0 -400.5 138t-139.5 396v47h-82z" />
    <glyph glyph-name="uni20B4" unicode="&#x20b4;" horiz-adv-x="1339" 
d="M174 528v86h256q34 26 258 172q73 46 137 93h-651v84h748q65 77 65 190q0 207 -319 207q-122 0 -224 -25t-213 -71l-24 100q83 30 136 45.5t144 30t191 14.5q442 0 442 -293q0 -113 -57 -198h158v-84h-234q-15 -14 -35 -29.5t-35 -27t-44 -31t-42.5 -28.5t-51.5 -34
t-50 -33l-125 -82h617v-86h-732q-65 -57 -92.5 -115t-27.5 -137q0 -103 75.5 -151.5t243.5 -48.5q140 0 245.5 24t233.5 74l25 -100q-126 -46 -239 -70t-269 -24q-229 0 -338.5 69.5t-109.5 224.5q0 147 98 254h-160z" />
    <glyph glyph-name="uni20BD" unicode="&#x20bd;" horiz-adv-x="1363" 
d="M145 287v88h131v184h-131v88h131v787h431q127 0 212.5 -19t147.5 -65.5t90.5 -128t28.5 -205.5q0 -246 -114.5 -351.5t-362.5 -105.5h-301v-184h575v-88h-575v-287h-132v287h-131zM408 647h299q58 0 104 7.5t92.5 30.5t77.5 61.5t50.5 105.5t19.5 158q0 180 -86.5 251.5
t-257.5 71.5h-299v-686z" />
    <glyph glyph-name="afii61352" unicode="&#x2116;" horiz-adv-x="2498" 
d="M193 0v1434h149l768 -1254v920q0 160 89.5 247t240.5 87h166l16 -86h-164q-119 0 -176 -80t-57 -207v-1061h-150l-768 1255v-1255h-114zM1425 743v88q0 163 96.5 253t303.5 90t304 -90t97 -253v-88q0 -161 -97 -250.5t-304 -89.5t-303.5 89.5t-96.5 250.5zM1542 743
q0 -125 65 -188t218 -63t217.5 62.5t64.5 188.5v88q0 126 -65 191t-217 65q-151 0 -217 -64.5t-66 -191.5v-88z" />
    <glyph glyph-name="trademark" unicode="&#x2122;" horiz-adv-x="1812" 
d="M117 1358v76h504v-76h-211v-639h-84v639h-209zM743 719l62 715h106l258 -627l258 627h107l61 -715h-82l-51 604l-243 -604h-99l-243 604l-50 -604h-84z" />
    <glyph glyph-name="Omega" unicode="&#x2126;" horiz-adv-x="1875" 
d="M57 0v444h111v-352h391q-114 74 -172.5 194.5t-58.5 256.5v346q0 113 39 213.5t112.5 179.5t192 125.5t266.5 46.5q149 0 268 -46.5t192.5 -126t112.5 -179.5t39 -213v-346q0 -135 -58.5 -255.5t-172.5 -195.5h391v352h111v-444h-709v100q148 44 225.5 161t77.5 290v332
q0 132 -54.5 238.5t-164.5 171.5t-258 65q-113 0 -204 -38t-149.5 -104t-90 -153t-31.5 -186v-326q0 -173 77 -290t224 -161v-100h-707z" />
    <glyph glyph-name="onethird" unicode="&#x2153;" horiz-adv-x="1634" 
d="M139 1188l295 258h82v-711h-98v590l-242 -211zM289 -12q164 277 459 785.5t391 672.5h139q-123 -212 -410 -703.5t-440 -754.5h-139zM989 20l15 78q29 -9 98.5 -19.5t130.5 -10.5q223 0 223 127q0 149 -229 149h-92l-11 68h115q68 0 121 30.5t53 87.5q0 111 -174 111
q-48 0 -117.5 -8.5t-103.5 -22.5l-14 78q35 10 111 21.5t126 11.5q272 0 272 -172q0 -56 -37 -97t-98 -61q87 -24 136 -69t49 -134q0 -48 -18.5 -84.5t-48.5 -58.5t-75 -35.5t-91 -18.5t-103 -5q-59 0 -139.5 13t-98.5 21z" />
    <glyph glyph-name="twothirds" unicode="&#x2154;" horiz-adv-x="1689" 
d="M111 737v45q0 68 13 115.5t44.5 82.5t66.5 58t97 54q12 6 49.5 22.5t62 29.5t54.5 32t45.5 41.5t15.5 46.5q0 50 -47.5 78t-130.5 28q-46 0 -123 -13.5t-115 -27.5l-22 76q50 18 125.5 35.5t136.5 17.5q138 0 213 -57q68 -54 68 -133q0 -27 -6.5 -49t-22.5 -41.5t-31 -33
t-46.5 -31t-52.5 -28.5t-64.5 -31.5t-69.5 -33.5q-39 -19 -60.5 -32.5t-47.5 -37t-38 -54.5t-12 -71h453v-88h-555zM350 -12q153 258 850 1458h139q-123 -212 -410 -703.5t-440 -754.5h-139zM1042 20l15 78q33 -9 101 -19.5t128 -10.5q223 0 223 127q0 149 -229 149h-90
l-12 68h114q68 0 122 30.5t54 87.5q0 111 -176 111q-48 0 -117.5 -8.5t-101.5 -22.5l-16 78q37 10 113 21.5t126 11.5q273 0 273 -172q0 -56 -37.5 -97t-97.5 -61q86 -23 134 -68.5t48 -134.5q0 -48 -18.5 -84.5t-48.5 -58.5t-74.5 -35.5t-90.5 -18.5t-102 -5q-60 0 -141 13
t-99 21z" />
    <glyph glyph-name="oneeighth" unicode="&#x215b;" horiz-adv-x="1505" 
d="M137 1188l295 258h82v-711h-98v590l-242 -211zM283 -12q156 265 442.5 758t407.5 700h139q-123 -212 -410 -703.5t-440 -754.5h-139zM909 193q0 42 16 75.5t45.5 57t57.5 38t64 27.5q-154 60 -154 166q0 80 68 122t182 42q118 0 185 -42t67 -122q0 -106 -164 -166
q85 -25 139.5 -73t54.5 -125q0 -207 -282 -207q-279 0 -279 207zM1012 201q0 -72 47.5 -108t128.5 -36q82 0 130 36.5t48 107.5q0 18 -7 34.5t-15.5 28t-27.5 23.5t-31 18.5t-38.5 15.5t-37.5 12.5t-40 12.5q-157 -44 -157 -145zM1038 551q0 -78 156 -127q152 50 152 127
q0 55 -39 78.5t-119 23.5q-150 0 -150 -102z" />
    <glyph glyph-name="threeeighths" unicode="&#x215c;" horiz-adv-x="1638" 
d="M115 756l14 78q30 -9 99.5 -20t129.5 -11q222 0 222 127q0 149 -228 149h-92l-10 70h115q68 0 121 31t53 88q0 108 -174 108q-49 0 -119 -8t-103 -22l-14 77q35 10 111.5 21.5t126.5 11.5q272 0 272 -170q0 -57 -37 -99t-98 -61q88 -24 136 -68t48 -134q0 -60 -27 -101.5
t-76.5 -62.5t-105.5 -30t-127 -9q-59 0 -140 13.5t-97 21.5zM330 -12q168 284 478.5 817t373.5 641h139q-528 -902 -850 -1458h-141zM1006 193q0 134 182 198q-156 59 -156 166q0 79 69 121.5t183 42.5q118 0 185 -42t67 -122q0 -107 -166 -166q86 -25 141.5 -73.5
t55.5 -124.5q0 -207 -283 -207q-278 0 -278 207zM1108 201q0 -72 47.5 -108t128.5 -36t129.5 36.5t48.5 107.5q0 25 -13 46.5t-28.5 34.5t-48 27t-50 19.5t-56.5 17.5q-158 -44 -158 -145zM1133 551q0 -77 157 -127q152 50 152 127q0 55 -39 78.5t-119 23.5
q-151 0 -151 -102z" />
    <glyph glyph-name="fiveeighths" unicode="&#x215d;" horiz-adv-x="1607" 
d="M100 764l17 80q150 -39 256 -41q90 0 138 37t48 125q0 137 -158 137q-104 0 -256 -31l37 377h457l-2 -80h-365l-26 -215q136 21 184 21q240 0 240 -207q0 -244 -291 -244q-122 0 -279 41zM299 -12q168 284 478.5 817t373.5 641h137q-123 -212 -410 -703.5t-440 -754.5
h-139zM975 193q0 134 182 198q-156 59 -156 166q0 79 69 121.5t183 42.5q118 0 185 -42t67 -122q0 -107 -166 -166q86 -25 141.5 -73.5t55.5 -124.5q0 -207 -283 -207q-278 0 -278 207zM1077 201q0 -72 47.5 -108t128.5 -36q82 0 130.5 36.5t48.5 107.5q0 18 -7 34.5
t-15.5 28t-27.5 23.5t-31 18.5t-38.5 15.5t-37.5 12.5t-40 12.5q-158 -44 -158 -145zM1102 551q0 -77 158 -127q151 49 151 127q0 55 -39 78.5t-119 23.5q-151 0 -151 -102z" />
    <glyph glyph-name="seveneighths" unicode="&#x215e;" horiz-adv-x="1519" 
d="M100 1352v94h537v-70q-68 -50 -130 -143t-105 -227t-44 -271h-108q1 190 77.5 359.5t170.5 257.5h-398zM207 -12q153 258 850 1458h139q-123 -212 -410 -703.5t-440 -754.5h-139zM887 193q0 134 180 198q-154 60 -154 166q0 79 69 121.5t183 42.5q117 0 184.5 -42
t67.5 -122q0 -105 -166 -166q86 -25 141.5 -73.5t55.5 -124.5q0 -207 -283 -207q-278 0 -278 207zM987 201q0 -72 48 -108t130 -36q81 0 129.5 36.5t48.5 107.5q0 25 -13 46.5t-28.5 34.5t-48 27t-50 19.5t-56.5 17.5q-160 -44 -160 -145zM1014 551q0 -79 157 -127
q152 52 152 127q0 55 -39.5 78.5t-118.5 23.5q-151 0 -151 -102z" />
    <glyph glyph-name="arrowleft" unicode="&#x2190;" horiz-adv-x="1679" 
d="M123 596v98l766 408v-135l-545 -273q157 11 207 11h1005v-119h-1005q-109 0 -207 10l545 -272v-136z" />
    <glyph glyph-name="arrowup" unicode="&#x2191;" horiz-adv-x="1159" 
d="M123 668l407 766h99l407 -766h-135l-272 544q10 -142 10 -206v-1006h-119v1006q0 108 10 206l-272 -544h-135z" />
    <glyph glyph-name="arrowright" unicode="&#x2192;" horiz-adv-x="1679" 
d="M123 557v119h1005q64 0 207 -10l-544 272v135l765 -407v-99l-765 -407v135l544 272q-98 -10 -207 -10h-1005z" />
    <glyph glyph-name="arrowdown" unicode="&#x2193;" horiz-adv-x="1159" 
d="M123 766h135l272 -545q-10 98 -10 207v1006h119v-1006q0 -64 -10 -207l272 545h135l-407 -766h-99z" />
    <glyph glyph-name="uni2196" unicode="&#x2196;" horiz-adv-x="1335" 
d="M123 1190l67 67l832 -251l-96 -97l-578 193q84 -69 154 -139l710 -711l-84 -84l-710 711q-53 53 -139 153l192 -577l-96 -97z" />
    <glyph glyph-name="uni2197" unicode="&#x2197;" horiz-adv-x="1335" 
d="M123 252l711 711q74 74 153 139l-577 -193l-97 97l832 251l67 -67l-251 -832l-97 97l193 577q-86 -100 -139 -153l-711 -711z" />
    <glyph glyph-name="uni2198" unicode="&#x2198;" horiz-adv-x="1335" 
d="M123 1174l84 83l711 -710q46 -46 139 -154l-193 578l97 96l251 -831l-67 -68l-832 252l97 96l577 -192q-79 65 -153 139z" />
    <glyph glyph-name="uni2199" unicode="&#x2199;" horiz-adv-x="1335" 
d="M123 236l252 831l96 -96l-192 -578q93 108 139 154l710 710l84 -83l-710 -711q-70 -70 -154 -139l578 192l96 -96l-832 -252z" />
    <glyph glyph-name="Delta" unicode="&#x2206;" horiz-adv-x="1355" 
d="M90 0l500 1434h158l495 -1434h-1153zM250 90h831l-411 1233z" />
    <glyph glyph-name="product" unicode="&#x220f;" horiz-adv-x="1523" 
d="M193 -410v1844h1101v-1844h-129v1743h-843v-1743h-129z" />
    <glyph glyph-name="summation" unicode="&#x2211;" horiz-adv-x="1327" 
d="M178 -358l785 948l-785 786l21 58h1052v-105h-880l737 -739l-746 -897h889v-103h-1071z" />
    <glyph glyph-name="minus" unicode="&#x2212;" horiz-adv-x="1351" 
d="M143 659v115h1024v-115h-1024z" />
    <glyph glyph-name="radical" unicode="&#x221a;" horiz-adv-x="1280" 
d="M-51 842v98h471l274 -836h13l448 1330h119l-492 -1434h-164l-288 842h-381z" />
    <glyph glyph-name="infinity" unicode="&#x221e;" horiz-adv-x="1310" 
d="M100 715q0 101 65.5 174.5t180.5 73.5q34 0 70 -12.5t61.5 -26.5t64 -46t56 -48.5t59.5 -57.5q40 44 69 72.5t69.5 58.5t83.5 45t90 15q115 -3 177 -74.5t62 -179.5q0 -101 -65 -175.5t-180 -74.5q-34 0 -70.5 13t-60.5 25.5t-65.5 47t-56.5 47.5t-61 57
q-83 -92 -153.5 -140t-157.5 -48q-113 0 -175.5 72.5t-62.5 181.5zM195 715q0 -66 38 -113t111 -47q66 0 124 37.5t126 109.5q-6 5 -30 26l-36 31.5t-36 29.5t-41 29.5t-38.5 22.5t-41 17.5t-37.5 5.5q-66 0 -102.5 -45t-36.5 -104zM713 715q164 -158 262 -158
q66 0 102.5 45.5t36.5 106.5q0 65 -38.5 111t-112.5 46q-64 0 -121.5 -38.5t-128.5 -112.5z" />
    <glyph glyph-name="approxequal" unicode="&#x2248;" horiz-adv-x="1310" 
d="M150 451l8 9q7 10 15 19t21.5 24t28 28t33 28t38.5 27t42 22t47 15.5t49 5.5q52 0 107 -22t95.5 -48t98 -48t113.5 -22q26 0 52 8t48.5 22t43 29.5t37 32.5t28.5 30t20 23l8 11l56 -72l-8 -13q-8 -12 -16.5 -24.5t-24.5 -32t-32.5 -36t-40 -34.5t-48 -31t-55 -21
t-62.5 -8q-61 0 -123.5 21.5t-105.5 47t-94 47t-91 21.5q-61 0 -133 -48t-108 -89zM170 811l8 9q7 10 15 19t21.5 24t28.5 28t33.5 28t38.5 27t42 22t47 15.5t49 5.5q43 0 86 -14.5t79.5 -34.5t73.5 -40.5t82.5 -35t91.5 -14.5q26 0 52.5 8t49 22t43 29.5t37 32.5t28.5 30
t20 24l8 10l55 -72q-1 -1 -10 -15t-21.5 -30.5t-31 -38.5t-42 -42t-51 -37t-61.5 -27.5t-70 -10.5q-61 0 -123.5 21.5t-105.5 48t-94.5 48t-91.5 21.5q-60 0 -133 -49t-107 -90z" />
    <glyph glyph-name="notequal" unicode="&#x2260;" horiz-adv-x="1310" 
d="M143 461v110h385l90 209h-475v111h525l176 403h104l-178 -403h397v-111h-444l-92 -209h536v-110h-583l-189 -430h-102l186 430h-336z" />
    <glyph glyph-name="lessequal" unicode="&#x2264;" horiz-adv-x="1351" 
d="M221 338v129l866 -451v-127zM221 674v114q646 336 866 451v-131q-73 -38 -226.5 -115.5t-270.5 -137.5t-225 -118v-8q84 -43 361 -188.5t361 -188.5v-129q-73 38 -385 201.5t-481 249.5z" />
    <glyph glyph-name="greaterequal" unicode="&#x2265;" horiz-adv-x="1351" 
d="M221 16l866 451v-129l-866 -449v127zM221 223v129q84 43 361.5 188.5t361.5 188.5v8q-108 58 -226.5 118.5t-268.5 136.5t-228 116v131q220 -115 866 -451v-114q-169 -86 -481 -249.5t-385 -201.5z" />
    <glyph glyph-name="uni25FC" unicode="&#x25fc;" horiz-adv-x="1024" 
d="M0 0v1024h1024v-1024h-1024z" />
    <glyph glyph-name="commaaccent" unicode="&#xf6c3;" horiz-adv-x="366" 
d="M98 -94h170v-90q0 -81 -32.5 -146t-69.5 -100l-53 31q57 69 57 166h-72v139z" />
    <glyph glyph-name="Acute" unicode="&#xf6c9;" horiz-adv-x="413" 
d="M98 1556l80 287h137l-135 -287h-82z" />
    <glyph glyph-name="Caron" unicode="&#xf6ca;" horiz-adv-x="1142" 
d="M334 1843h104l133 -233l131 233h107l-178 -287h-119z" />
    <glyph glyph-name="Dieresis" unicode="&#xf6cb;" horiz-adv-x="1150" 
d="M375 1556v287h102v-287h-102zM672 1556v287h102v-287h-102z" />
    <glyph glyph-name="Grave" unicode="&#xf6ce;" horiz-adv-x="413" 
d="M98 1843h138l79 -287h-82z" />
    <glyph glyph-name="Macron" unicode="&#xf6d0;" horiz-adv-x="1052" 
d="M98 1651v90h693v-90h-693z" />
    <glyph glyph-name="Breve" horiz-adv-x="1488" 
d="M406 1800v43h110q0 -53 11.5 -91.5t39 -68t77 -44t122.5 -13.5q75 1 124.5 15.5t76.5 44t38 66.5t11 91h108v-43q0 -114 -90.5 -179t-267.5 -65q-174 0 -267 65.5t-93 178.5z" />
    <glyph glyph-name="Circumflex" horiz-adv-x="1142" 
d="M334 1556l176 287h119l180 -287h-107l-131 234l-133 -234h-104z" />
    <glyph glyph-name="Tilde" horiz-adv-x="792" 
d="M90 1679q93 82 193 82q51 0 118 -35.5t107 -35.5q81 0 149 73l43 -63q-23 -33 -76 -64.5t-116 -31.5q-44 0 -112 35.5t-115 35.5q-14 0 -26 -1t-23.5 -4.5t-19.5 -5.5t-18 -8.5t-15 -8.5t-14.5 -10.5t-11.5 -10t-11.5 -10.5t-10.5 -10z" />
    <glyph glyph-name="Ring" horiz-adv-x="681" 
d="M156 1651q0 78 52 128t134 50q80 0 132 -50t52 -128q0 -77 -52.5 -127.5t-131.5 -50.5q-81 0 -133.5 50.5t-52.5 127.5zM227 1651q0 -48 32.5 -80.5t82.5 -32.5q49 0 81 32.5t32 80.5q0 49 -31.5 80.5t-81.5 31.5q-51 0 -83 -31t-32 -81z" />
    <glyph glyph-name="Dotaccent" horiz-adv-x="405" 
d="M139 1556v287h127v-287h-127z" />
    </font>
</defs>
</svg>
