<?xml version="1.0" standalone="no"?>
<!DOCTYPE svg PUBLIC "-//W3C//DTD SVG 1.1//EN" "http://www.w3.org/Graphics/SVG/1.1/DTD/svg11.dtd" >
<svg xmlns="http://www.w3.org/2000/svg" xmlns:xlink="http://www.w3.org/1999/xlink" version="1.1">
<metadata>
Created by FontForge 20170812 at Fri Feb 15 19:25:19 2008
 By root
Copyright (c) 2006 by Zakhar Yashchin. All rights reserved.
</metadata>
<defs>
<font id="Ekibastuz-Black" horiz-adv-x="676" >
  <font-face 
    font-family="Ekibastuz Bk"
    font-weight="900"
    font-stretch="normal"
    units-per-em="1000"
    panose-1="2 0 5 3 0 0 0 2 0 4"
    ascent="800"
    descent="-200"
    x-height="500"
    cap-height="700"
    bbox="-89 -251 1324 950"
    underline-thickness="50"
    underline-position="-100"
    stemh="132"
    stemv="172"
    unicode-range="U+0020-2122"
  />
<missing-glyph horiz-adv-x="420" 
 />
    <glyph glyph-name=".notdef" horiz-adv-x="420" 
 />
    <glyph glyph-name=".null" horiz-adv-x="0" 
 />
    <glyph glyph-name="CR" horiz-adv-x="264" 
 />
    <glyph glyph-name="space" unicode=" " horiz-adv-x="264" 
 />
    <glyph glyph-name="afii10040" unicode="&#x426;" horiz-adv-x="780" 
d="M66 700h172v-568h252v568h172v-568h81l-10 -289h-163v157h-504v700z" />
    <glyph glyph-name="afii10041" unicode="&#x427;" horiz-adv-x="664" 
d="M46 700h172v-270c0 -66 32 -88 90 -88c38 0 79 4 118 7v351h172v-700h-172v221c-45 -4 -86 -9 -128 -9c-84 0 -252 21 -252 216v272z" />
    <glyph glyph-name="afii10042" unicode="&#x428;" horiz-adv-x="964" 
d="M396 700h172v-568h158v568h172v-700h-832v700h172v-568h158v568z" />
    <glyph glyph-name="afii10043" unicode="&#x429;" horiz-adv-x="1016" 
d="M396 700h172v-568h158v568h172v-568h80l-10 -289h-162v157h-740v700h172v-568h158v568z" />
    <glyph glyph-name="afii10047" unicode="&#x42d;" horiz-adv-x="590" 
d="M378 277v21h-256v128h256v15c0 101 -48 134 -129 134c-47 0 -150 -14 -196 -32l-29 133c19 8 132 34 231 34c180 0 297 -77 297 -288v-144c0 -202 -136 -288 -307 -288c-92 0 -197 24 -221 34l29 133c49 -15 135 -29 192 -29c101 0 133 61 133 149z" />
    <glyph glyph-name="afii10048" unicode="&#x42e;" horiz-adv-x="949" 
d="M335 248v32h-97v-280h-172v700h172v-286h97v22c0 191 114 274 288 274s288 -84 288 -273v-188c0 -189 -114 -259 -288 -259s-288 70 -288 258zM502 442v-182c0 -76 44 -125 121 -125s121 49 121 125v182c0 75 -46 123 -121 123c-73 0 -121 -48 -121 -123z" />
    <glyph glyph-name="afii10049" unicode="&#x42f;" horiz-adv-x="707" 
d="M341 700h300v-700h-172v227h-83l-132 -227h-190l158 245c-114 19 -171 101 -171 220c0 131 81 235 290 235zM341 367h128v194h-128c-73 0 -113 -19 -113 -96c0 -78 42 -98 113 -98z" />
    <glyph glyph-name="afii10018" unicode="&#x411;" horiz-adv-x="639" 
d="M238 568v-137h150c152 0 207 -73 207 -215c0 -132 -47 -216 -209 -216h-320v700h474v-132h-302zM338 313h-100v-194h100c56 0 90 28 90 97s-34 97 -90 97z" />
    <glyph glyph-name="afii10019" unicode="&#x412;" horiz-adv-x="621" 
d="M66 0v700h303c106 0 186 -39 186 -173c0 -81 -36 -125 -83 -143c58 -19 111 -59 111 -178c0 -136 -52 -206 -209 -206h-308zM232 308v-194h100c56 0 90 33 90 98s-45 96 -90 96h-100zM327 586h-95v-164h95c33 0 67 26 67 87c0 45 -22 77 -67 77z" />
    <glyph glyph-name="afii10020" unicode="&#x413;" horiz-adv-x="536" 
d="M238 0h-172v700h450v-151h-278v-549z" />
    <glyph glyph-name="afii10021" unicode="&#x414;" horiz-adv-x="786" 
d="M168 700h500v-568h80l-15 -332h-157v200h-384l-10 -200h-162v332h66c82 127 82 424 82 568zM496 556h-169c-4 -126 -8 -317 -76 -424h245v424z" />
    <glyph glyph-name="afii10022" unicode="&#x415;" horiz-adv-x="570" 
d="M238 294v-163h294v-131h-466v700h466v-131h-294v-145h242v-130h-242z" />
    <glyph glyph-name="afii10024" unicode="&#x416;" horiz-adv-x="922" 
d="M200 377l-184 323h184l159 -300h16v300h172v-300h16l159 300h184l-184 -323l182 -377h-177l-165 351h-15v-351h-172v351h-16l-165 -351h-177z" />
    <glyph glyph-name="afii10025" unicode="&#x417;" horiz-adv-x="602" 
d="M38 26l21 136c43 -15 111 -34 185 -34c89 0 140 9 140 80c0 89 -75 92 -169 92h-75v118h106c70 0 105 29 105 83s-30 71 -105 71c-63 0 -129 -14 -174 -30l-24 134c36 14 113 34 206 34c178 0 265 -37 265 -174c0 -89 -39 -131 -102 -150c87 -25 141 -66 141 -190
c0 -173 -120 -206 -314 -206c-93 0 -184 26 -206 36z" />
    <glyph glyph-name="afii10026" unicode="&#x418;" horiz-adv-x="750" 
d="M66 700h172v-436l306 436h140v-700h-172v436l-306 -436h-140v700z" />
    <glyph glyph-name="afii10027" unicode="&#x419;" horiz-adv-x="750" 
d="M153 892h124c0 -27 11 -64 102 -64c90 0 104 36 104 64h123v-23c0 -108 -125 -121 -227 -121c-100 0 -226 13 -226 121v23zM66 700h172v-436l306 436h140v-700h-172v436l-306 -436h-140v700z" />
    <glyph glyph-name="afii10029" unicode="&#x41b;" horiz-adv-x="743" 
d="M168 700h509v-700h-172v560h-172c-8 -324 -45 -570 -224 -570c-21 0 -57 6 -75 10l-20 135c4 -1 24 -1 40 -1c99 0 114 221 114 566z" />
    <glyph glyph-name="afii10031" unicode="&#x41d;" horiz-adv-x="746" 
d="M508 700h172v-700h-172v304h-270v-304h-172v700h172v-264h270v264z" />
    <glyph glyph-name="afii10046" unicode="&#x42c;" horiz-adv-x="645" 
d="M320 0h-254v700h172v-258c43 5 82 9 129 9c172 0 240 -80 240 -226c0 -159 -80 -225 -287 -225zM320 334c-27 0 -54 -1 -82 -5v-215h82c73 0 113 22 113 110s-42 110 -113 110z" />
    <glyph glyph-name="afii10045" unicode="&#x42b;" horiz-adv-x="925" 
d="M687 0v700h172v-700h-172zM320 0c207 0 287 66 287 225c0 146 -67 226 -240 226c-42 0 -85 -4 -129 -9v258h-172v-700h254zM320 334c71 0 113 -22 113 -110s-40 -110 -113 -110h-82v215c28 4 55 5 82 5z" />
    <glyph glyph-name="afii10044" unicode="&#x42a;" horiz-adv-x="722" 
d="M143 0v576h-129l14 124h287v-258c28 5 76 10 103 10c187 0 266 -68 266 -227s-80 -225 -287 -225h-254zM397 334c-27 0 -53 -1 -82 -5v-215h82c73 0 114 22 114 110s-42 110 -114 110z" />
    <glyph glyph-name="P" unicode="P" horiz-adv-x="645" 
d="M66 700h254c203 0 287 -62 287 -246c0 -185 -84 -253 -287 -253h-82v-201h-172v700zM238 567v-234h82c63 0 113 19 113 122c0 90 -40 112 -113 112h-82z" />
    <glyph glyph-name="T" unicode="T" horiz-adv-x="576" 
d="M18 558v142h540v-142h-184v-558h-172v558h-184z" />
    <glyph glyph-name="X" unicode="X" horiz-adv-x="696" 
d="M228 700l130 -260l131 260h197l-201 -340l201 -360h-219l-109 299l-152 -299h-196l211 360l-211 340h218z" />
    <glyph glyph-name="B" unicode="B" horiz-adv-x="621" 
d="M66 0v700h303c106 0 186 -39 186 -173c0 -81 -36 -125 -83 -143c58 -19 111 -59 111 -178c0 -136 -52 -206 -209 -206h-308zM232 308v-194h100c56 0 90 33 90 98s-45 96 -90 96h-100zM327 586h-95v-164h95c33 0 67 26 67 87c0 45 -22 77 -67 77z" />
    <glyph glyph-name="E" unicode="E" horiz-adv-x="570" 
d="M238 294v-163h294v-131h-466v700h466v-131h-294v-145h242v-130h-242z" />
    <glyph glyph-name="H" unicode="H" horiz-adv-x="746" 
d="M508 700h172v-700h-172v304h-270v-304h-172v700h172v-264h270v264z" />
    <glyph glyph-name="F" unicode="F" horiz-adv-x="564" 
d="M238 267v-267h-172v700h466v-144h-294v-157h242v-132h-242z" />
    <glyph glyph-name="D" unicode="D" horiz-adv-x="703" 
d="M66 0v700h256c235 0 343 -72 343 -350s-110 -350 -343 -350h-256zM322 569h-84v-438h84c104 0 170 32 170 219c0 194 -66 219 -170 219z" />
    <glyph glyph-name="G" unicode="G" horiz-adv-x="641" 
d="M603 33c-75 -30 -153 -43 -244 -43c-192 0 -321 79 -321 280v156c0 201 129 284 321 284c80 0 159 -11 228 -32l-30 -131c-56 16 -121 27 -177 27c-121 0 -169 -52 -169 -154v-150c0 -101 48 -154 148 -154c34 0 65 5 104 15v141l-122 6v113h262v-358z" />
    <glyph glyph-name="I" unicode="I" horiz-adv-x="416" 
d="M20 568v132h370v-132h-99v-436h105v-132h-370v132h93v436h-99z" />
    <glyph glyph-name="J" unicode="J" horiz-adv-x="510" 
d="M184 -10c-74 0 -129 14 -168 29l21 136c25 -13 63 -27 111 -27c96 0 124 48 124 115v457h172v-472c0 -162 -76 -238 -260 -238z" />
    <glyph glyph-name="L" unicode="L" horiz-adv-x="584" 
d="M66 0v700h172v-558h314v-142h-486z" />
    <glyph glyph-name="N" unicode="N" horiz-adv-x="760" 
d="M542 700h152v-700h-168l-308 450v-450h-152v700h172l304 -444v444z" />
    <glyph glyph-name="Q" unicode="Q" horiz-adv-x="730" 
d="M38 266v162c0 189 128 282 327 282c200 0 327 -93 327 -282v-162c0 -157 -88 -244 -232 -268l119 -151h-188l-89 146c-164 17 -264 104 -264 273zM217 414v-128c0 -98 44 -164 148 -164c109 0 148 66 148 164v128c0 92 -39 164 -148 164c-102 0 -148 -69 -148 -164z" />
    <glyph glyph-name="R" unicode="R" horiz-adv-x="669" 
d="M466 0l-137 240h-91v-240h-172v700h268c205 0 287 -60 287 -231c0 -124 -54 -203 -131 -225l168 -244h-192zM238 572v-203h102c71 0 107 24 107 100c0 75 -34 103 -107 103h-102z" />
    <glyph glyph-name="S" unicode="S" horiz-adv-x="636" 
d="M316 710c98 0 185 -14 259 -33l-19 -131c-75 21 -172 35 -230 35c-84 0 -113 -24 -113 -60c0 -33 25 -47 67 -61c176 -59 318 -66 318 -262c0 -155 -124 -208 -283 -208c-92 0 -202 16 -272 44l19 131c69 -21 185 -41 254 -41c98 0 109 42 109 62c0 41 -20 53 -77 70
c-178 53 -308 69 -308 253c0 146 112 201 276 201z" />
    <glyph glyph-name="U" unicode="U" horiz-adv-x="686" 
d="M469 700h159v-450c0 -181 -106 -260 -276 -260c-193 0 -294 79 -294 260v450h178v-460c0 -84 40 -118 122 -118s111 34 111 118v460z" />
    <glyph glyph-name="W" unicode="W" horiz-adv-x="1010" 
d="M175 0l-165 700h159l106 -551l141 551h160l142 -549l105 549h157l-185 -700h-173l-127 532l-126 -532h-194z" />
    <glyph glyph-name="Y" unicode="Y" horiz-adv-x="660" 
d="M244 228l-234 472h189l129 -325l133 325h189l-234 -471v-229h-172v228z" />
    <glyph glyph-name="Z" unicode="Z" horiz-adv-x="612" 
d="M46 580v120h522v-123l-331 -457h343v-120h-548v123l336 457h-322z" />
    <glyph glyph-name="V" unicode="V" horiz-adv-x="677" 
d="M219 0l-209 700h194l130 -547h16l133 547h184l-213 -700h-235z" />
    <glyph glyph-name="afii10081" unicode="&#x43f;" horiz-adv-x="620" 
d="M212 0h-160v500h516v-500h-160v392h-196v-392z" />
    <glyph glyph-name="afii10084" unicode="&#x442;" horiz-adv-x="524" 
d="M20 378v122h484v-122h-161v-378h-160v378h-163z" />
    <glyph glyph-name="afii10085" unicode="&#x443;" horiz-adv-x="588" 
d="M236 -65l28 66c-43 0 -87 31 -107 86l-149 413h181l109 -411h11l105 411h164l-159 -493c-15 -47 -55 -127 -80 -160c-35 -47 -83 -77 -160 -77c-54 0 -121 17 -161 30l24 108c32 -10 92 -24 116 -24c37 0 57 7 78 51z" />
    <glyph glyph-name="afii10086" unicode="&#x444;" horiz-adv-x="858" 
d="M349 700h160v-211c19 9 71 21 102 21c154 0 217 -100 217 -256c0 -162 -63 -264 -217 -264c-31 0 -83 12 -102 21v-211h-160v211c-19 -9 -70 -21 -102 -21c-153 0 -217 99 -217 264c0 155 64 256 217 256c33 0 84 -13 102 -21v211zM298 101c20 0 41 6 51 10v277
c-13 4 -32 10 -51 10c-79 0 -107 -50 -107 -144c0 -117 40 -152 107 -153zM559 398c-20 0 -42 -6 -50 -10v-277c9 -4 33 -10 50 -10c76 0 108 44 108 153c0 104 -35 144 -108 144z" />
    <glyph glyph-name="afii10087" unicode="&#x445;" horiz-adv-x="562" 
d="M184 500l97 -197l100 197h171l-156 -244l156 -256h-174l-97 216l-99 -216h-172l147 256l-147 244h174z" />
    <glyph glyph-name="afii10088" unicode="&#x446;" horiz-adv-x="646" 
d="M52 500h160v-392h180v392h160v-392h60l-11 -268h-149v160h-400v500z" />
    <glyph glyph-name="afii10089" unicode="&#x447;" horiz-adv-x="584" 
d="M42 500h160v-168c0 -62 19 -86 80 -86c32 0 63 2 90 9v245h160v-500h-160v150c-39 -6 -89 -12 -139 -12c-130 0 -191 59 -191 193v169z" />
    <glyph glyph-name="afii10090" unicode="&#x448;" horiz-adv-x="848" 
d="M350 500h148v-392h144v392h154v-500h-744v500h154v-392h144v392z" />
    <glyph glyph-name="afii10091" unicode="&#x449;" horiz-adv-x="890" 
d="M52 0v500h154v-392h144v392h148v-392h144v392h154v-392h60l-10 -268h-150v160h-644z" />
    <glyph glyph-name="afii10095" unicode="&#x44d;" horiz-adv-x="504" 
d="M305 190v12h-201v98h201v15c0 73 -47 84 -126 84c-44 0 -77 -11 -120 -27l-23 102c51 21 119 36 180 36c148 0 252 -69 252 -223v-76c0 -154 -105 -221 -252 -221c-62 0 -134 14 -186 34l22 103c45 -16 83 -27 127 -27c79 0 126 16 126 90z" />
    <glyph glyph-name="afii10096" unicode="&#x44e;" horiz-adv-x="849" 
d="M296 200h-96v-200h-148v500h148v-204h95v26c0 125 123 187 258 187c151 0 260 -65 260 -219v-81c0 -154 -109 -220 -260 -220c-135 0 -257 65 -257 194v17zM453 293v-96c0 -61 32 -96 100 -96c66 0 100 35 100 96v96c0 69 -29 105 -100 105c-65 0 -100 -35 -100 -105z
" />
    <glyph glyph-name="afii10097" unicode="&#x44f;" horiz-adv-x="601" 
d="M253 500h296v-500h-160v154h-67l-113 -154h-174l134 166c-68 4 -135 40 -135 160s70 174 219 174zM201 327c1 -53 24 -76 86 -76h102v145h-102c-62 0 -86 -17 -86 -69z" />
    <glyph glyph-name="afii10067" unicode="&#x432;" horiz-adv-x="559" 
d="M52 0v500h290c108 0 152 -32 152 -123c0 -59 -41 -85 -80 -97c55 -9 115 -24 115 -125c0 -120 -61 -155 -215 -155h-262zM293 218h-93v-120h96c55 0 84 12 84 63c0 42 -28 57 -87 57zM200 301h88c38 0 57 16 57 54c0 31 -19 49 -57 49h-88v-103z" />
    <glyph glyph-name="afii10068" unicode="&#x433;" horiz-adv-x="440" 
d="M212 0h-160v500h374v-122h-214v-378z" />
    <glyph glyph-name="afii10069" unicode="&#x434;" horiz-adv-x="672" 
d="M143 500h432v-392h59l-9 -268h-139v160h-318l-9 -160h-139v268h49c72 77 74 281 74 392zM415 404h-127c0 -99 -6 -204 -57 -296h184v296z" />
    <glyph glyph-name="afii10072" unicode="&#x436;" horiz-adv-x="797" 
d="M10 500h167l133 -223h12v223h154v-223h13l128 223h170l-156 -241l155 -259h-169l-129 244h-12v-244h-154v242h-11l-136 -242h-164l163 259z" />
    <glyph glyph-name="afii10076" unicode="&#x43a;" horiz-adv-x="565" 
d="M212 500v-217h7l154 217h186l-192 -240l194 -260h-181l-162 245h-6v-245h-160v500h160z" />
    <glyph glyph-name="afii10077" unicode="&#x43b;" horiz-adv-x="631" 
d="M147 500h432v-500h-160v393h-134c0 -191 -9 -401 -188 -401c-13 0 -50 3 -68 8l-15 112c16 -2 25 -3 40 -3c67 0 93 147 93 391z" />
    <glyph glyph-name="afii10078" unicode="&#x43c;" horiz-adv-x="814" 
d="M201 351l-22 -351h-133l42 500h175l144 -360l144 360h175l42 -500h-133l-22 351l-147 -351h-129z" />
    <glyph glyph-name="afii10079" unicode="&#x43d;" horiz-adv-x="624" 
d="M412 500h160v-500h-160v204h-200v-204h-160v500h160v-190h200v190z" />
    <glyph glyph-name="afii10080" unicode="&#x43e;" horiz-adv-x="580" 
d="M30 203v93c0 138 90 213 257 213s263 -75 263 -213v-93c0 -138 -96 -214 -263 -214s-257 76 -257 214zM185 308v-103c0 -66 27 -110 102 -110c76 0 102 45 102 110v89c0 65 -26 110 -102 110c-68 0 -102 -35 -102 -96z" />
    <glyph glyph-name="afii10073" unicode="&#x437;" horiz-adv-x="531" 
d="M36 22l20 98c10 -3 73 -22 133 -22c96 0 144 11 144 62c0 45 -37 54 -95 54h-129v89h113c30 0 79 7 79 57c0 36 -40 44 -112 44c-51 0 -93 -11 -130 -22l-20 99c36 12 114 28 176 28c158 0 248 -23 248 -119c0 -56 -40 -86 -86 -98c59 -14 124 -36 124 -135
c0 -129 -115 -166 -286 -166c-86 0 -159 24 -179 31z" />
    <glyph glyph-name="afii10075" unicode="&#x439;" horiz-adv-x="628" 
d="M86 730h124c0 -30 5 -66 104 -66c87 0 104 36 104 66h124v-20c0 -111 -122 -136 -228 -136c-105 0 -228 25 -228 136v20zM52 500h160v-292l224 292h140v-500h-160v291l-223 -291h-141v500z" />
    <glyph glyph-name="afii10074" unicode="&#x438;" horiz-adv-x="628" 
d="M52 500h160v-292l224 292h140v-500h-160v291l-223 -291h-141v500z" />
    <glyph glyph-name="afii10094" unicode="&#x44c;" horiz-adv-x="561" 
d="M52 0v500h160v-160h83c150 0 230 -23 230 -166c0 -144 -99 -174 -249 -174h-224zM284 240h-72v-137h76c55 0 76 17 76 71c0 43 -20 66 -80 66z" />
    <glyph glyph-name="afii10093" unicode="&#x44b;" horiz-adv-x="806" 
d="M593 0v500h161v-500h-161zM52 0v500h160v-160h82c149 0 231 -23 231 -166c0 -144 -99 -174 -249 -174h-224zM284 240h-72v-137h76c55 0 76 17 76 71c0 43 -20 66 -80 66z" />
    <glyph glyph-name="afii10092" unicode="&#x44a;" horiz-adv-x="652" 
d="M14 391l12 109h276v-160h82c151 0 232 -23 232 -166c0 -144 -100 -174 -250 -174h-224v391h-128zM375 240h-73v-137h77c54 0 75 17 75 71c0 43 -19 66 -79 66z" />
    <glyph glyph-name="afii10066" unicode="&#x431;" horiz-adv-x="607" 
d="M42 242v200c0 140 90 242 252 269l101 16c42 7 81 23 113 37l42 -130c-22 -13 -48 -26 -90 -31l-169 -20c-79 -9 -103 -65 -103 -125v-77c17 46 77 91 154 91c139 0 226 -44 226 -202v-61c0 -146 -90 -220 -263 -220c-172 0 -263 73 -263 253zM305 107
c65 0 102 39 102 112v42c0 72 -37 111 -102 111c-68 0 -102 -39 -102 -123v-30c0 -74 34 -112 102 -112z" />
    <glyph glyph-name="c" unicode="c" horiz-adv-x="473" 
d="M437 133l22 -113c-54 -20 -129 -29 -168 -29c-145 0 -255 68 -255 221v75c0 139 110 224 255 224c40 0 116 -11 168 -32l-22 -114c-19 9 -79 28 -114 28c-79 0 -120 -30 -120 -118v-51c0 -89 41 -117 120 -117c43 0 68 11 114 26z" />
    <glyph glyph-name="e" unicode="e" horiz-adv-x="560" 
d="M501 123l16 -106c-63 -15 -139 -27 -224 -27c-130 0 -257 40 -257 203v82c0 157 79 235 249 235c127 0 245 -44 245 -199v-98h-333v-31c0 -78 50 -85 114 -85c52 0 141 12 190 26zM197 312v-17h184v24c0 73 -35 92 -96 92s-88 -22 -88 -99z" />
    <glyph glyph-name="o" unicode="o" horiz-adv-x="580" 
d="M30 203v93c0 138 90 213 257 213s263 -75 263 -213v-93c0 -138 -96 -214 -263 -214s-257 76 -257 214zM185 308v-103c0 -66 27 -110 102 -110c76 0 102 45 102 110v89c0 65 -26 110 -102 110c-68 0 -102 -35 -102 -96z" />
    <glyph glyph-name="p" unicode="p" horiz-adv-x="593" 
d="M212 -200h-160v700h160v-34c25 16 76 48 151 48c123 0 194 -73 194 -264c0 -188 -68 -254 -194 -254c-75 0 -115 23 -151 38v-234zM282 397c-31 0 -54 -12 -70 -20v-254c20 -8 47 -19 83 -19c52 0 101 30 101 146c0 118 -52 147 -114 147z" />
    <glyph glyph-name="q" unicode="q" horiz-adv-x="593" 
d="M541 488v-688h-160v234c-32 -18 -80 -45 -139 -45c-145 0 -206 85 -206 261s61 260 233 260c89 0 198 -10 272 -22zM311 397c-62 0 -114 -29 -114 -147c0 -124 53 -147 114 -147c31 0 55 12 70 20v266c-17 6 -39 8 -70 8z" />
    <glyph glyph-name="x" unicode="x" horiz-adv-x="562" 
d="M184 500l97 -197l100 197h171l-156 -244l156 -256h-174l-97 216l-99 -216h-172l147 256l-147 244h174z" />
    <glyph glyph-name="d" unicode="d" horiz-adv-x="597" 
d="M385 700h160v-700h-160v34c-20 -11 -58 -44 -133 -44c-117 0 -212 69 -212 260c0 188 68 260 213 260c73 0 107 -25 132 -44v234zM309 103c30 0 58 12 76 20v254c-18 8 -44 20 -76 20c-61 0 -103 -23 -103 -147c0 -118 41 -147 103 -147z" />
    <glyph glyph-name="k" unicode="k" horiz-adv-x="559" 
d="M212 700v-417h7l149 217h185l-185 -240l187 -260h-180l-157 245h-6v-245h-160v700h160z" />
    <glyph glyph-name="f" unicode="f" horiz-adv-x="428" 
d="M463 729l-21 -106c-29 7 -73 13 -102 13c-70 0 -78 -54 -78 -136h146v-114h-146v-386h-160v386h-82v114h82v30c0 153 66 220 188 220c77 0 146 -12 173 -21z" />
    <glyph glyph-name="g" unicode="g" horiz-adv-x="594" 
d="M297 510c45 0 73 -7 102 -16c7 15 9 30 9 56h160c-1 -48 -16 -91 -62 -109c23 -20 35 -50 35 -89c0 -131 -113 -154 -244 -154c-20 0 -51 1 -67 3c-4 -7 -8 -23 -8 -35c0 -11 5 -26 9 -35c16 2 46 3 66 3c156 0 267 -32 267 -167c0 -134 -111 -168 -267 -168
s-267 34 -267 168c0 72 32 113 80 139c-13 14 -25 36 -25 58c0 28 12 49 29 65c-35 22 -62 60 -62 123c0 132 117 158 245 158zM409 -33c0 49 -20 70 -112 70c-80 0 -112 -18 -112 -70c0 -44 20 -71 112 -71s112 25 112 71zM386 352c0 49 -24 63 -89 63
c-73 0 -89 -18 -89 -63c0 -48 16 -58 89 -58c69 0 88 8 89 58z" />
    <glyph glyph-name="j" unicode="j" horiz-adv-x="264" 
d="M-89 -180l11 92c13 -5 50 -11 65 -11c35 0 65 20 65 70v529h160v-528c0 -114 -58 -172 -182 -172c-55 0 -105 15 -119 20zM52 700h160v-117h-160v117z" />
    <glyph glyph-name="l" unicode="l" horiz-adv-x="264" 
d="M212 0h-160v750h160v-750z" />
    <glyph glyph-name="m" unicode="m" horiz-adv-x="860" 
d="M510 0h-154v331c0 41 -19 62 -59 62c-25 0 -66 -19 -91 -40v-353h-154v500h154v-67c40 30 120 77 173 77c72 0 102 -30 119 -75c47 35 129 75 180 75c112 0 130 -50 130 -152v-358h-154v331c0 42 -16 62 -55 62c-22 0 -64 -17 -89 -35v-358z" />
    <glyph glyph-name="n" unicode="n" horiz-adv-x="612" 
d="M560 0h-160v308c0 66 -25 88 -86 88c-40 0 -81 -20 -102 -36v-360h-160v500h160v-39c44 22 127 49 198 49c110 0 150 -60 150 -187v-323z" />
    <glyph glyph-name="r" unicode="r" horiz-adv-x="420" 
d="M391 510l15 -131h-66c-67 0 -128 -70 -128 -129v-250h-160v500h160v-73c26 36 75 83 137 83h42z" />
    <glyph glyph-name="s" unicode="s" horiz-adv-x="533" 
d="M277 510c81 0 150 -14 206 -29l-17 -97c-59 16 -125 27 -190 27c-66 0 -84 -12 -84 -38c0 -25 12 -39 40 -46c122 -28 270 -37 270 -186c0 -125 -84 -151 -226 -151c-86 0 -164 10 -244 27l13 98c67 -12 151 -27 214 -27c77 0 83 18 83 37c0 23 -12 30 -48 40
c-127 35 -262 42 -262 198c0 108 96 147 245 147z" />
    <glyph glyph-name="u" unicode="u" horiz-adv-x="612" 
d="M52 500h160v-308c0 -66 31 -88 79 -88c45 0 87 19 109 36v360h160v-500h-160v39c-45 -21 -123 -49 -206 -49c-99 0 -142 63 -142 150v360z" />
    <glyph glyph-name="v" unicode="v" horiz-adv-x="569" 
d="M174 0l-164 500h175l98 -386h16l97 386h163l-163 -500h-222z" />
    <glyph glyph-name="w" unicode="w" horiz-adv-x="860" 
d="M150 0l-138 500h150l90 -397h4l92 397h166l92 -398h4l91 398h147l-139 -500h-194l-85 386l-86 -386h-194z" />
    <glyph glyph-name="z" unicode="z" horiz-adv-x="504" 
d="M40 392v108h420v-78l-231 -313h243v-109h-442v78l237 314h-227z" />
    <glyph glyph-name="h" unicode="h" horiz-adv-x="612" 
d="M560 0h-160v316c0 56 -25 80 -86 80c-38 0 -80 -20 -102 -38v-358h-160v700h160v-239c28 18 81 49 169 49c101 0 179 -16 179 -166v-344z" />
    <glyph glyph-name="i" unicode="i" horiz-adv-x="264" 
d="M52 500h160v-500h-160v500zM52 700h160v-117h-160v117z" />
    <glyph glyph-name="t" unicode="t" horiz-adv-x="404" 
d="M14 392v108h70v124l160 16v-140h140v-108h-140v-220c0 -51 20 -73 57 -73c35 0 55 3 84 10l19 -99c-25 -7 -78 -20 -143 -20c-123 0 -177 40 -177 153v249h-70z" />
    <glyph glyph-name="afii10033" unicode="&#x41f;" horiz-adv-x="754" 
d="M238 0h-172v700h622v-700h-172v556h-278v-556z" />
    <glyph glyph-name="afii10034" unicode="&#x420;" horiz-adv-x="645" 
d="M66 700h254c203 0 287 -62 287 -246c0 -185 -84 -253 -287 -253h-82v-201h-172v700zM238 567v-234h82c63 0 113 19 113 122c0 90 -40 112 -113 112h-82z" />
    <glyph glyph-name="A" unicode="A" horiz-adv-x="744" 
d="M522 0l-43 151h-214l-43 -151h-181l225 700h217l219 -700h-180zM376 541l-86 -276h166z" />
    <glyph glyph-name="C" unicode="C" horiz-adv-x="569" 
d="M507 154l24 -130c-29 -9 -118 -34 -186 -34c-179 0 -307 86 -307 288v144c0 201 129 288 307 288c68 0 157 -25 186 -34l-30 -130c-29 10 -111 29 -156 29c-91 0 -134 -67 -134 -155v-140c0 -82 36 -155 134 -155c45 0 133 19 162 29z" />
    <glyph glyph-name="K" unicode="K" horiz-adv-x="671" 
d="M238 700v-301h14l204 301h199l-249 -322l255 -378h-193l-214 340h-16v-340h-172v700h172z" />
    <glyph glyph-name="M" unicode="M" horiz-adv-x="954" 
d="M398 0l-160 500h-4l-12 -500h-176l58 700h207l164 -526h4l164 526h207l58 -700h-176l-13 500h-4l-159 -500h-158z" />
    <glyph glyph-name="O" unicode="O" horiz-adv-x="730" 
d="M38 266v162c0 189 128 282 327 282c200 0 327 -93 327 -282v-162c0 -189 -127 -276 -327 -276s-327 87 -327 276zM217 414v-128c0 -98 44 -164 148 -164c109 0 148 66 148 164v128c0 92 -39 164 -148 164c-102 0 -148 -69 -148 -164z" />
    <glyph glyph-name="a" unicode="a" horiz-adv-x="559" 
d="M78 376l-18 103c36 9 122 31 209 31c161 0 238 -56 238 -187v-323h-160v34c-30 -22 -85 -44 -151 -44c-105 0 -160 47 -160 154c0 102 67 140 187 140h125v44c0 52 -20 73 -87 73c-56 0 -141 -16 -183 -25zM274 86c24 0 57 13 73 20v95h-79c-48 0 -71 -25 -71 -54
c0 -44 23 -61 77 -61z" />
    <glyph glyph-name="y" unicode="y" horiz-adv-x="588" 
d="M236 -65l28 66c-43 0 -87 31 -107 86l-149 413h181l109 -411h11l105 411h164l-159 -493c-15 -47 -55 -127 -80 -160c-35 -47 -83 -77 -160 -77c-54 0 -121 17 -161 30l24 108c32 -10 92 -24 116 -24c37 0 57 7 78 51z" />
    <glyph glyph-name="zero" unicode="0" 
d="M32 288v118c0 200 120 304 306 304c187 0 306 -103 306 -304v-118c0 -198 -117 -298 -306 -298c-188 0 -306 98 -306 298zM338 578c-90 0 -128 -75 -128 -162v-132c0 -97 38 -162 128 -162s128 65 128 162v132c0 88 -38 162 -128 162z" />
    <glyph glyph-name="one" unicode="1" 
d="M130 452l265 248h151v-700h-172v492l-200 -170z" />
    <glyph glyph-name="two" unicode="2" 
d="M328 710c153 0 278 -37 278 -192c0 -140 -119 -190 -222 -237c-72 -33 -142 -71 -142 -145h370v-136h-548v44c0 206 65 259 190 321c63 31 179 71 179 132c0 45 -39 75 -115 75c-82 0 -143 -17 -214 -41l-29 137c57 21 155 42 253 42z" />
    <glyph glyph-name="four" unicode="4" 
d="M358 700h195v-423h82l-21 -137h-61v-140h-172v140h-340v124zM381 539l-186 -261h186v261z" />
    <glyph glyph-name="five" unicode="5" 
d="M57 26l21 130c43 -9 160 -28 240 -28c78 0 122 14 122 100c0 76 -58 90 -115 90c-67 0 -168 -11 -225 -19l32 401h463l-10 -137h-310l-15 -134c29 7 111 14 158 14c115 0 201 -50 201 -212c0 -201 -134 -241 -288 -241c-116 0 -244 25 -274 36z" />
    <glyph glyph-name="seven" unicode="7" 
d="M381 0h-203c0 271 119 456 233 549h-355v151h563v-108c-99 -76 -238 -291 -238 -592z" />
    <glyph glyph-name="three" unicode="3" 
d="M62 22l21 132c43 -9 131 -24 205 -24c89 0 152 13 152 84c0 89 -91 96 -157 96h-74l-19 108h100c70 0 117 27 117 81s-44 71 -119 71c-55 0 -147 -7 -192 -20l-27 131c36 13 145 29 217 29c178 0 289 -33 289 -170c0 -89 -54 -134 -117 -154c87 -24 156 -66 156 -190
c0 -173 -144 -206 -338 -206c-77 0 -192 22 -214 32z" />
    <glyph glyph-name="six" unicode="6" 
d="M50 284v128c0 207 143 297 302 297c112 0 202 -21 253 -36l-29 -134c-47 15 -138 28 -205 28c-93 0 -147 -33 -147 -120v-34c47 26 122 35 176 35c150 0 225 -79 225 -231c0 -143 -93 -227 -277 -227c-174 0 -298 68 -298 294zM224 300v-52c0 -97 41 -128 115 -128
c64 0 112 27 112 97c0 75 -46 109 -108 109c-34 0 -90 -13 -119 -26z" />
    <glyph glyph-name="eight" unicode="8" 
d="M203 383c-60 19 -141 59 -141 163c0 112 109 164 276 164s276 -52 276 -164c0 -102 -76 -142 -149 -164c97 -27 179 -86 179 -193c0 -150 -131 -199 -306 -199s-306 49 -306 199c0 112 81 166 171 194zM323 309c-59 -20 -112 -48 -112 -105c0 -61 51 -82 127 -82
s127 21 127 82s-81 86 -142 105zM338 588c-75 0 -115 -23 -115 -63c0 -58 77 -78 127 -91c34 16 103 39 103 91c0 40 -40 63 -115 63z" />
    <glyph glyph-name="period" unicode="." horiz-adv-x="300" 
d="M60 164h180v-164h-180v164z" />
    <glyph glyph-name="nine" unicode="9" 
d="M625 416v-128c0 -207 -142 -298 -301 -298c-112 0 -202 22 -253 37l29 134c47 -17 137 -28 204 -28c93 0 147 32 147 120v34c-24 -14 -102 -37 -174 -37c-135 0 -227 68 -227 232c0 143 94 227 277 227c174 0 298 -67 298 -293zM451 400v60c0 90 -43 119 -114 119
c-64 0 -113 -27 -113 -96c0 -75 46 -109 105 -109c34 0 93 12 122 26z" />
    <glyph glyph-name="comma" unicode="," horiz-adv-x="300" 
d="M60 164h180v-100c0 -88 -56 -175 -108 -218l-57 31c26 33 45 75 45 123h-60v164z" />
    <glyph glyph-name="quotesingle" unicode="'" horiz-adv-x="282" 
d="M66 700h150l-10 -230h-130z" />
    <glyph glyph-name="exclam" unicode="!" horiz-adv-x="292" 
d="M56 700h180l-22 -476h-136zM56 164h180v-164h-180v164z" />
    <glyph glyph-name="numbersign" unicode="#" horiz-adv-x="766" 
d="M66 436v138h139l24 126h155l-25 -126h136l25 126h155l-25 -126h50v-138h-75l-38 -172h113v-138h-137l-25 -126h-154l24 126h-136l-25 -126h-154l24 126h-51v138h75l39 172h-114zM334 436l-38 -172h136l38 172h-136z" />
    <glyph glyph-name="ampersand" unicode="&#x26;" horiz-adv-x="819" 
d="M600 661l-32 -127c-31 16 -82 39 -129 39c-49 0 -99 -17 -99 -76c0 -28 18 -59 33 -76l175 -206c18 26 31 70 35 103l150 -18c-5 -79 -63 -152 -98 -181l106 -119h-179l-39 44c-35 -28 -90 -54 -192 -54c-119 0 -271 39 -271 202c0 129 71 179 149 209
c-23 31 -54 74 -54 137c0 114 105 172 238 172c98 0 170 -30 207 -49zM339 100c37 0 83 1 112 26l-159 185c-19 -13 -61 -51 -61 -119c0 -65 49 -92 108 -92z" />
    <glyph glyph-name="parenleft" unicode="(" horiz-adv-x="465" 
d="M72 325c0 197 82 362 149 477l158 -24c-63 -105 -135 -250 -135 -453c0 -214 85 -362 137 -451l-158 -24c-69 113 -151 276 -151 475z" />
    <glyph glyph-name="asterisk" unicode="*" horiz-adv-x="720" 
d="M66 544l60 122l175 -104l-9 178h136l-9 -178l175 104l60 -122l-162 -74l162 -74l-60 -122l-175 104l9 -178h-136l9 178l-175 -104l-60 122l162 74z" />
    <glyph glyph-name="plus" unicode="+" horiz-adv-x="632" 
d="M242 499h148v-176h176v-130h-176v-176h-148v176h-176v130h176v176z" />
    <glyph glyph-name="hyphen" unicode="-" horiz-adv-x="432" 
d="M66 256v130h300v-130h-300z" />
    <glyph glyph-name="slash" unicode="/" horiz-adv-x="575" 
d="M539 709l-344 -753h-159l344 753h159z" />
    <glyph glyph-name="less" unicode="&#x3c;" horiz-adv-x="649" 
d="M66 212v81c170 69 338 139 507 209v-127c-107 -41 -215 -80 -322 -120v-8c91 -32 231 -86 322 -117v-127c-169 69 -338 140 -507 209z" />
    <glyph glyph-name="equal" unicode="=" horiz-adv-x="632" 
d="M66 295v118h500v-118h-500zM66 77v118h500v-118h-500z" />
    <glyph glyph-name="question" unicode="?" horiz-adv-x="570" 
d="M79 558l-17 133c20 4 98 19 156 19c153 0 286 -22 286 -207c0 -126 -78 -144 -142 -177c-22 -11 -40 -26 -40 -62v-59h-148v81c0 67 33 97 88 122c42 19 70 38 70 95c0 62 -39 74 -114 74c-38 0 -108 -10 -139 -19zM158 164h180v-164h-180v164z" />
    <glyph glyph-name="bracketleft" unicode="[" horiz-adv-x="446" 
d="M380 740v-135h-142v-670h142v-135h-314v940h314z" />
    <glyph glyph-name="braceleft" unicode="{" horiz-adv-x="482" 
d="M416 597h-63c-23 0 -39 -13 -39 -38v-203c0 -43 -27 -57 -51 -67c28 -17 52 -48 52 -106v-201c0 -24 15 -38 38 -38h63v-144h-74c-128 0 -199 49 -199 163v213c0 25 -16 38 -30 38h-47v143h46c15 0 31 13 31 38v183c0 117 75 162 199 162h74v-143z" />
    <glyph glyph-name="asciitilde" unicode="~" horiz-adv-x="731" 
d="M130 299l-52 138c26 20 86 80 157 80c102 0 150 -57 246 -57c53 0 112 45 130 60l66 -135c-20 -19 -76 -94 -163 -94c-114 0 -159 57 -246 57c-51 0 -115 -34 -138 -49z" />
    <glyph glyph-name="at" unicode="@" horiz-adv-x="1141" 
d="M570 734c310 0 506 -92 506 -401c0 -220 -126 -309 -317 -309h-101v41c-25 -22 -88 -51 -138 -51c-109 0 -186 74 -186 245c0 185 96 265 242 265c73 0 147 -13 208 -24v-382c71 3 139 37 139 215c0 234 -94 294 -353 294c-211 0 -352 -99 -352 -361
c0 -280 140 -355 352 -355c159 0 326 37 430 73l24 -98c-116 -48 -282 -87 -454 -87c-311 0 -505 112 -505 467c0 338 194 468 505 468zM560 118c29 0 70 23 84 32v266c-16 4 -44 11 -78 11c-49 0 -100 -24 -101 -161c0 -126 49 -148 95 -148z" />
    <glyph glyph-name="grave" unicode="`" horiz-adv-x="295" 
d="M219 749l16 -182l-110 -16l-69 198h163z" />
    <glyph glyph-name="Euro" unicode="&#x20ac;" horiz-adv-x="698" 
d="M82 368l-16 92h59v10c0 179 125 240 283 240c96 0 197 -24 223 -35l-30 -121c-22 10 -126 23 -185 23c-70 0 -122 -28 -122 -107v-10h290l-14 -92h-276v-31h268l-14 -92h-254v-15c0 -73 47 -107 123 -107c60 0 159 13 191 23l24 -122c-29 -10 -127 -34 -224 -34
c-159 0 -283 67 -283 240v15h-43l-16 92h56v31h-40z" />
    <glyph glyph-name="guillemotleft" unicode="&#xab;" horiz-adv-x="599" 
d="M66 259l135 210h136l-118 -210l116 -207h-140zM274 259l135 210h136l-118 -210l116 -207h-140z" />
    <glyph glyph-name="copyright" unicode="&#xa9;" horiz-adv-x="1042" 
d="M521 710c319 0 455 -185 455 -455s-136 -455 -455 -455s-455 185 -455 455s136 455 455 455zM842 256c0 239 -97 346 -321 346c-205 0 -321 -107 -321 -346c0 -256 132 -345 321 -345c213 0 321 89 321 345zM668 127l17 -101c-26 -8 -86 -23 -138 -23
c-138 0 -226 57 -226 211v79c0 153 89 215 226 215c52 0 112 -14 138 -23l-21 -101c-25 8 -81 20 -117 20c-75 0 -105 -36 -105 -112v-77c0 -69 25 -108 105 -108c36 0 96 11 121 20z" />
    <glyph glyph-name="section" unicode="&#xa7;" horiz-adv-x="747" 
d="M374 703c115 0 214 -18 291 -34l-30 -127c-70 15 -172 35 -261 35c-105 0 -134 -17 -134 -45c0 -45 87 -66 163 -83c111 -25 277 -58 277 -200c0 -68 -56 -111 -112 -138c70 -30 112 -74 112 -137c0 -124 -136 -174 -306 -174c-114 0 -234 21 -292 34l31 128
c78 -19 201 -36 261 -36c107 0 134 17 134 48c0 50 -95 68 -174 83c-101 18 -266 54 -266 198c0 65 61 108 113 137c-65 22 -113 75 -113 138c0 118 133 173 306 173zM240 255c0 -59 72 -76 151 -94c63 25 117 52 117 88c0 54 -58 76 -152 93c-59 -20 -116 -51 -116 -87z
" />
    <glyph glyph-name="sterling" unicode="&#xa3;" horiz-adv-x="866" 
d="M688 669l-32 -117c-1 1 -122 30 -202 30c-61 0 -113 -33 -114 -115v-45h254v-104h-254v-155c10 1 18 1 31 1c68 0 116 -43 188 -43c66 0 149 49 162 55l55 -107c-21 -16 -104 -79 -217 -79c-107 0 -147 50 -257 50c-51 0 -132 -17 -186 -43l-38 110c23 12 54 27 90 39
v173h-57v103h57v60c0 156 126 228 286 228c106 0 225 -38 234 -41z" />
    <glyph glyph-name="registered" unicode="&#xae;" horiz-adv-x="628" 
d="M287 710c151 0 222 -83 222 -221s-71 -221 -222 -221s-222 83 -222 221s71 221 222 221zM437 488c0 115 -45 164 -150 164c-96 0 -149 -49 -149 -164c0 -121 60 -161 149 -161c101 0 150 40 150 161zM333 377l-50 90h-26v-90h-51v228h84c63 0 91 -20 91 -73
c0 -41 -21 -62 -47 -63l59 -92h-60zM257 566v-67h34c22 0 37 4 37 33c0 28 -15 34 -37 34h-34z" />
    <glyph glyph-name="degree" unicode="&#xb0;" horiz-adv-x="568" 
d="M284 716c120 0 218 -98 218 -218s-98 -218 -218 -218s-218 98 -218 218s98 218 218 218zM379 498c0 53 -42 95 -95 95s-95 -42 -95 -95s42 -95 95 -95s95 42 95 95z" />
    <glyph glyph-name="plusminus" unicode="&#xb1;" horiz-adv-x="632" 
d="M242 660h148v-176h176v-130h-176v-176h-148v176h-176v130h176v176zM66 0v130h500v-130h-500z" />
    <glyph glyph-name="paragraph" unicode="&#xb6;" horiz-adv-x="814" 
d="M720 700l28 -135h-94v-650l-136 -23v673h-110v-693l-136 -22v426h-14c-121 0 -192 75 -192 212s71 212 192 212h462z" />
    <glyph glyph-name="quotedbl" unicode="&#x22;" horiz-adv-x="487" 
d="M271 700h150l-10 -230h-130zM65 700h150l-10 -230h-130z" />
    <glyph glyph-name="dollar" unicode="$" horiz-adv-x="636" 
d="M269 730h100v-60c78 -3 145 -15 206 -31l-19 -108c-52 13 -122 25 -187 26v-148c126 -13 227 -66 227 -215c0 -146 -91 -196 -227 -204v-70h-100v70c-79 1 -168 13 -226 36l19 114c50 -17 137 -27 207 -28v153c-119 13 -229 63 -229 202c0 147 103 201 229 203v60z
M393 255c-7 1 -17 1 -24 1v-144c76 3 86 54 86 74c0 40 -21 63 -62 69zM241 425c10 -2 19 -5 28 -6v138c-65 -3 -86 -35 -86 -69c0 -32 23 -52 58 -63z" />
    <glyph glyph-name="bar" unicode="|" horiz-adv-x="304" 
d="M66 750h172v-1001h-172v1001z" />
    <glyph glyph-name="percent" horiz-adv-x="991" 
d="M749 700l-360 -700h-150l359 700h151zM236 710c106 0 169 -55 169 -162v-67c0 -106 -62 -159 -169 -159c-108 0 -170 52 -170 159v67c0 106 64 162 170 162zM185 533v-34c0 -51 4 -86 51 -86c43 0 50 42 50 86v34c0 51 -3 86 -50 86c-44 0 -51 -35 -51 -86zM755 378
c106 0 169 -55 169 -162v-67c0 -106 -62 -159 -169 -159c-108 0 -170 52 -170 159v67c0 106 64 162 170 162zM704 201v-34c0 -51 4 -86 51 -86c43 0 50 42 50 86v34c0 51 -3 86 -50 86c-44 0 -51 -35 -51 -86z" />
    <glyph glyph-name="parenright" unicode=")" horiz-adv-x="465" 
d="M381 325c0 -199 -82 -362 -150 -475l-159 24c52 89 137 237 137 451c0 203 -71 348 -135 453l158 24c67 -115 149 -280 149 -477z" />
    <glyph glyph-name="bracketright" unicode="]" horiz-adv-x="446" 
d="M208 605h-142v135h314v-940h-314v135h142v670z" />
    <glyph glyph-name="braceright" unicode="}" horiz-adv-x="482" 
d="M129 597h-63v143h74c124 0 199 -45 199 -162v-183c0 -25 12 -38 31 -38h46v-143h-47c-14 0 -30 -13 -30 -38v-213c0 -114 -71 -163 -199 -163h-74v144h63c23 0 38 14 38 38v201c0 58 24 89 52 106c-24 10 -52 24 -52 67v203c0 25 -15 38 -38 38z" />
    <glyph glyph-name="backslash" unicode="\" horiz-adv-x="575" 
d="M555 -111h-158l-354 833h159z" />
    <glyph glyph-name="colon" unicode=":" horiz-adv-x="300" 
d="M60 505h180v-164h-180v164zM60 164h180v-164h-180v164z" />
    <glyph glyph-name="semicolon" unicode=";" horiz-adv-x="300" 
d="M60 505h180v-164h-180v164zM60 164h180v-100c0 -88 -56 -175 -108 -218l-57 31c26 33 45 75 45 123h-60v164z" />
    <glyph glyph-name="greater" unicode="&#x3e;" horiz-adv-x="649" 
d="M573 293v-81c-169 -69 -338 -140 -507 -209v127c91 31 231 85 322 117v8c-107 40 -215 79 -322 120v127c169 -70 337 -140 507 -209z" />
    <glyph glyph-name="asciicircum" unicode="^" horiz-adv-x="711" 
d="M292 700h127l226 -426h-156l-131 273l-136 -273h-156z" />
    <glyph glyph-name="endash" unicode="&#x2013;" horiz-adv-x="632" 
d="M66 276v136h500v-136h-500z" />
    <glyph glyph-name="emdash" unicode="&#x2014;" horiz-adv-x="902" 
d="M66 276v136h770v-136h-770z" />
    <glyph glyph-name="circumflex" unicode="&#x2c6;" horiz-adv-x="479" 
d="M169 735h141l97 -152h-125l-40 96l-39 -96h-125z" />
    <glyph glyph-name="tilde" unicode="&#x2dc;" horiz-adv-x="526" 
d="M97 609l-29 78c29 23 73 55 131 55c64 0 87 -48 139 -48c41 0 65 25 91 41l39 -73c-21 -24 -72 -68 -130 -68c-68 0 -92 48 -139 48c-46 0 -76 -21 -102 -33z" />
    <glyph glyph-name="acute" unicode="&#xb4;" horiz-adv-x="295" 
d="M56 564l16 186h163l-81 -201z" />
    <glyph glyph-name="dieresis" unicode="&#xa8;" horiz-adv-x="465" 
d="M56 718h145v-147h-145v147zM263 718h146v-147h-146v147z" />
    <glyph glyph-name="guillemotright" unicode="&#xbb;" horiz-adv-x="599" 
d="M392 259l-118 210h136l135 -210l-129 -207h-141zM184 259l-118 210h136l135 -210l-129 -207h-141z" />
    <glyph glyph-name="quotedblbase" unicode="&#x201e;" horiz-adv-x="528" 
d="M60 164h180v-100c0 -88 -56 -175 -108 -218l-57 31c26 33 45 75 45 123h-60v164zM296 164h180v-100c0 -88 -56 -175 -108 -218l-57 31c26 33 45 75 45 123h-60v164z" />
    <glyph glyph-name="ellipsis" unicode="&#x2026;" horiz-adv-x="781" 
d="M60 164h180v-164h-180v164zM300 164h180v-164h-180v164zM540 164h181v-164h-181v164z" />
    <glyph glyph-name="b" unicode="b" horiz-adv-x="587" 
d="M52 700h160v-234c34 20 80 43 143 43c140 0 202 -84 202 -259c0 -197 -61 -254 -202 -254c-63 0 -110 22 -143 38v-34h-160v700zM286 97c58 0 105 35 105 153c0 115 -46 147 -105 147c-25 0 -58 -13 -74 -20v-260c16 -8 39 -20 74 -20z" />
    <glyph glyph-name="quotesinglbase" unicode="&#x201a;" horiz-adv-x="300" 
d="M60 164h180v-100c0 -88 -56 -175 -108 -218l-57 31c26 33 45 75 45 123h-60v164z" />
    <glyph glyph-name="quoteright" unicode="&#x2019;" horiz-adv-x="300" 
d="M60 700h180v-100c0 -88 -56 -175 -108 -218l-57 31c26 33 45 75 45 123h-60v164z" />
    <glyph glyph-name="quoteleft" unicode="&#x2018;" horiz-adv-x="300" 
d="M238 432h-180v100c0 88 56 175 108 218l57 -31c-26 -33 -45 -75 -45 -123h60v-164z" />
    <glyph glyph-name="quotedblright" unicode="&#x201d;" horiz-adv-x="528" 
d="M60 700h180v-100c0 -88 -56 -175 -108 -218l-57 31c26 33 45 75 45 123h-60v164zM296 700h180v-100c0 -88 -56 -175 -108 -218l-57 31c26 33 45 75 45 123h-60v164z" />
    <glyph glyph-name="quotedblleft" unicode="&#x201c;" horiz-adv-x="528" 
d="M474 432h-180v100c0 88 56 175 108 218l57 -31c-26 -33 -45 -75 -45 -123h60v-164zM238 432h-180v100c0 88 56 175 108 218l57 -31c-26 -33 -45 -75 -45 -123h60v-164z" />
    <glyph glyph-name="afii10017" unicode="&#x410;" horiz-adv-x="744" 
d="M522 0l-43 151h-214l-43 -151h-181l225 700h217l219 -700h-180zM376 541l-86 -276h166z" />
    <glyph glyph-name="afii10035" unicode="&#x421;" horiz-adv-x="569" 
d="M507 154l24 -130c-29 -9 -118 -34 -186 -34c-179 0 -307 86 -307 288v144c0 201 129 288 307 288c68 0 157 -25 186 -34l-30 -130c-29 10 -111 29 -156 29c-91 0 -134 -67 -134 -155v-140c0 -82 36 -155 134 -155c45 0 133 19 162 29z" />
    <glyph glyph-name="afii10039" unicode="&#x425;" horiz-adv-x="696" 
d="M228 700l130 -260l131 260h197l-201 -340l201 -360h-219l-109 299l-152 -299h-196l211 360l-211 340h218z" />
    <glyph glyph-name="afii10032" unicode="&#x41e;" horiz-adv-x="730" 
d="M38 266v162c0 189 128 282 327 282c200 0 327 -93 327 -282v-162c0 -189 -127 -276 -327 -276s-327 87 -327 276zM217 414v-128c0 -98 44 -164 148 -164c109 0 148 66 148 164v128c0 92 -39 164 -148 164c-102 0 -148 -69 -148 -164z" />
    <glyph glyph-name="afii10028" unicode="&#x41a;" horiz-adv-x="671" 
d="M238 700v-301h14l204 301h199l-249 -322l255 -378h-193l-214 340h-16v-340h-172v700h172z" />
    <glyph glyph-name="afii10030" unicode="&#x41c;" horiz-adv-x="954" 
d="M398 0l-160 500h-4l-12 -500h-176l58 700h207l164 -526h3l165 526h207l58 -700h-176l-13 500h-3l-160 -500h-158z" />
    <glyph glyph-name="afii10082" unicode="&#x440;" horiz-adv-x="593" 
d="M212 -200h-160v700h160v-34c25 16 76 48 151 48c123 0 194 -73 194 -264c0 -188 -68 -254 -194 -254c-75 0 -115 24 -151 38v-234zM282 397c-31 0 -54 -12 -70 -20v-254c20 -8 49 -19 83 -19c52 0 101 30 101 146c0 118 -52 147 -114 147z" />
    <glyph glyph-name="afii10083" unicode="&#x441;" horiz-adv-x="473" 
d="M437 133l22 -113c-54 -20 -129 -29 -168 -29c-145 0 -255 68 -255 221v75c0 139 110 224 255 224c40 0 116 -11 168 -32l-22 -114c-19 9 -79 28 -114 28c-79 0 -120 -30 -120 -118v-51c0 -89 41 -117 120 -117c43 0 68 11 114 26z" />
    <glyph glyph-name="afii10065" unicode="&#x430;" horiz-adv-x="559" 
d="M78 376l-18 103c36 9 122 31 209 31c161 0 238 -56 238 -187v-323h-160v34c-30 -22 -85 -44 -151 -44c-105 0 -160 47 -160 154c0 102 67 140 187 140h125v44c0 52 -20 73 -87 73c-56 0 -141 -16 -183 -25zM274 86c24 0 57 13 73 20v95h-79c-48 0 -71 -25 -71 -54
c0 -44 23 -61 77 -61z" />
    <glyph glyph-name="afii10070" unicode="&#x435;" horiz-adv-x="560" 
d="M501 123l16 -106c-63 -15 -139 -27 -224 -27c-130 0 -257 40 -257 203v82c0 157 79 235 249 235c127 0 245 -44 245 -199v-98h-333v-31c0 -78 50 -85 114 -85c52 0 141 12 190 26zM197 312v-17h184v24c0 73 -35 92 -96 92s-88 -22 -88 -99z" />
    <glyph glyph-name="trademark" unicode="&#x2122;" horiz-adv-x="866" 
d="M40 610v90h290v-90h-90v-259h-110v259h-90zM473 569l-16 -218h-98l30 349h126l68 -250l78 250h116l29 -349h-97l-16 219l-62 -219h-96z" />
    <glyph glyph-name="afii10071" unicode="&#x451;" horiz-adv-x="560" 
d="M103 718h145v-147h-145v147zM310 718h146v-147h-146v147zM501 123l16 -106c-63 -15 -139 -27 -224 -27c-130 0 -257 40 -257 203v82c0 157 79 235 249 235c127 0 245 -44 245 -199v-98h-333v-31c0 -78 50 -85 114 -85c52 0 141 12 190 26zM197 312v-17h184v24
c0 73 -35 92 -96 92s-88 -22 -88 -99z" />
    <glyph glyph-name="afii10023" unicode="&#x401;" horiz-adv-x="582" 
d="M126 918h145v-147h-145v147zM334 918h145v-147h-145v147zM238 294v-163h294v-131h-466v700h466v-131h-294v-145h242v-130h-242z" />
    <glyph glyph-name="perthousand" unicode="&#x2030;" horiz-adv-x="1389" 
d="M749 701l-360 -701h-150l359 701h151zM236 710c106 0 169 -55 169 -162v-67c0 -106 -62 -159 -169 -159c-108 0 -170 52 -170 159v67c0 106 64 162 170 162zM185 533v-34c0 -51 4 -86 51 -86c43 0 50 42 50 86v34c0 51 -3 86 -50 86c-44 0 -51 -35 -51 -86zM755 378
c106 0 169 -55 169 -162v-67c0 -106 -62 -159 -169 -159c-108 0 -170 52 -170 159v67c0 106 64 162 170 162zM704 201v-34c0 -51 4 -86 51 -86c43 0 50 42 50 86v34c0 51 -3 86 -50 86c-44 0 -51 -35 -51 -86zM1155 378c106 0 169 -55 169 -162v-67
c0 -106 -62 -159 -169 -159c-108 0 -170 52 -170 159v67c0 106 64 162 170 162zM1104 201v-34c0 -51 4 -86 51 -86c43 0 50 42 50 86v34c0 51 -3 86 -50 86c-44 0 -51 -35 -51 -86z" />
    <glyph glyph-name="underscore" unicode="_" horiz-adv-x="500" 
d="M0 -165v136h500v-136h-500z" />
    <glyph glyph-name="afii61352" unicode="&#x2116;" horiz-adv-x="1131" 
d="M482 700h152v-700h-168l-248 440v-440h-152v700h172l244 -434v434zM693 412v31c0 86 44 157 184 157c139 0 188 -71 188 -157v-31c0 -87 -49 -156 -188 -156c-140 0 -184 70 -184 156zM824 441v-27c0 -37 7 -61 53 -61s53 24 53 61v27c0 37 -7 62 -53 62s-53 -25 -53 -62
zM697 110v95h368v-95h-368z" />
    <glyph glyph-name="Agrave" unicode="&#xc0;" horiz-adv-x="744" 
d="M522 0l-43 151h-214l-43 -151h-181l225 700h217l219 -700h-180zM376 541l-86 -276h166zM435 949l16 -182l-110 -16l-69 198h163z" />
    <glyph glyph-name="Aacute" unicode="&#xc1;" horiz-adv-x="744" 
d="M522 0l-43 151h-214l-43 -151h-181l225 700h217l219 -700h-180zM376 541l-86 -276h166zM312 764l16 186h163l-81 -201z" />
    <glyph glyph-name="Acircumflex" unicode="&#xc2;" horiz-adv-x="744" 
d="M522 0l-43 151h-214l-43 -151h-181l225 700h217l219 -700h-180zM376 541l-86 -276h166zM298 935h141l97 -152h-125l-40 96l-39 -96h-125z" />
    <glyph glyph-name="Atilde" unicode="&#xc3;" horiz-adv-x="744" 
d="M522 0l-43 151h-214l-43 -151h-181l225 700h217l219 -700h-180zM376 541l-86 -276h166zM201 809l-29 78c29 23 73 55 131 55c64 0 87 -48 139 -48c41 0 65 25 91 41l39 -73c-21 -24 -72 -68 -130 -68c-68 0 -92 48 -139 48c-46 0 -76 -21 -102 -33z" />
    <glyph glyph-name="Adieresis" unicode="&#xc4;" horiz-adv-x="744" 
d="M522 0l-43 151h-214l-43 -151h-181l225 700h217l219 -700h-180zM376 541l-86 -276h166zM195 918h145v-147h-145v147zM402 918h146v-147h-146v147z" />
    <glyph glyph-name="agrave" unicode="&#xe0;" horiz-adv-x="559" 
d="M343 749l16 -182l-110 -16l-69 198h163zM78 376l-18 103c36 9 122 31 209 31c161 0 238 -56 238 -187v-323h-160v34c-30 -22 -85 -44 -151 -44c-105 0 -160 47 -160 154c0 102 67 140 187 140h125v44c0 52 -20 73 -87 73c-56 0 -141 -16 -183 -25zM274 86
c24 0 57 13 73 20v95h-79c-48 0 -71 -25 -71 -54c0 -44 23 -61 77 -61z" />
    <glyph glyph-name="aacute" unicode="&#xe1;" horiz-adv-x="559" 
d="M210 564l16 186h163l-81 -201zM78 376l-18 103c36 9 122 31 209 31c161 0 238 -56 238 -187v-323h-160v34c-30 -22 -85 -44 -151 -44c-105 0 -160 47 -160 154c0 102 67 140 187 140h125v44c0 52 -20 73 -87 73c-56 0 -141 -16 -183 -25zM274 86c24 0 57 13 73 20v95h-79
c-48 0 -71 -25 -71 -54c0 -44 23 -61 77 -61z" />
    <glyph glyph-name="acircumflex" unicode="&#xe2;" horiz-adv-x="559" 
d="M206 735h141l97 -152h-125l-40 96l-39 -96h-125zM78 376l-18 103c36 9 122 31 209 31c161 0 238 -56 238 -187v-323h-160v34c-30 -22 -85 -44 -151 -44c-105 0 -160 47 -160 154c0 102 67 140 187 140h125v44c0 52 -20 73 -87 73c-56 0 -141 -16 -183 -25zM274 86
c24 0 57 13 73 20v95h-79c-48 0 -71 -25 -71 -54c0 -44 23 -61 77 -61z" />
    <glyph glyph-name="atilde" unicode="&#xe3;" horiz-adv-x="559" 
d="M108 609l-29 78c29 23 73 55 131 55c64 0 87 -48 139 -48c41 0 65 25 91 41l39 -73c-21 -24 -72 -68 -130 -68c-68 0 -92 48 -139 48c-46 0 -76 -21 -102 -33zM78 376l-18 103c36 9 122 31 209 31c161 0 238 -56 238 -187v-323h-160v34c-30 -22 -85 -44 -151 -44
c-105 0 -160 47 -160 154c0 102 67 140 187 140h125v44c0 52 -20 73 -87 73c-56 0 -141 -16 -183 -25zM274 86c24 0 57 13 73 20v95h-79c-48 0 -71 -25 -71 -54c0 -44 23 -61 77 -61z" />
    <glyph glyph-name="adieresis" unicode="&#xe4;" horiz-adv-x="559" 
d="M103 718h145v-147h-145v147zM310 718h146v-147h-146v147zM78 376l-18 103c36 9 122 31 209 31c161 0 238 -56 238 -187v-323h-160v34c-30 -22 -85 -44 -151 -44c-105 0 -160 47 -160 154c0 102 67 140 187 140h125v44c0 52 -20 73 -87 73c-56 0 -141 -16 -183 -25z
M274 86c24 0 57 13 73 20v95h-79c-48 0 -71 -25 -71 -54c0 -44 23 -61 77 -61z" />
    <glyph glyph-name="Egrave" unicode="&#xc8;" horiz-adv-x="570" 
d="M238 294v-163h294v-131h-466v700h466v-131h-294v-145h242v-130h-242zM358 949l16 -182l-110 -16l-69 198h163z" />
    <glyph glyph-name="Eacute" unicode="&#xc9;" horiz-adv-x="570" 
d="M238 294v-163h294v-131h-466v700h466v-131h-294v-145h242v-130h-242zM233 764l16 186h163l-81 -201z" />
    <glyph glyph-name="Ecircumflex" unicode="&#xca;" horiz-adv-x="570" 
d="M238 294v-163h294v-131h-466v700h466v-131h-294v-145h242v-130h-242zM232 935h141l97 -152h-125l-40 96l-39 -96h-125z" />
    <glyph glyph-name="Edieresis" unicode="&#xcb;" horiz-adv-x="570" 
d="M238 294v-163h294v-131h-466v700h466v-131h-294v-145h242v-130h-242zM108 918h145v-147h-145v147zM315 918h146v-147h-146v147z" />
    <glyph glyph-name="Igrave" unicode="&#xcc;" horiz-adv-x="416" 
d="M20 568v132h370v-132h-99v-436h105v-132h-370v132h93v436h-99zM281 949l16 -182l-110 -16l-69 198h163z" />
    <glyph glyph-name="Iacute" unicode="&#xcd;" horiz-adv-x="416" 
d="M20 568v132h370v-132h-99v-436h105v-132h-370v132h93v436h-99zM118 764l16 186h163l-81 -201z" />
    <glyph glyph-name="Icircumflex" unicode="&#xce;" horiz-adv-x="416" 
d="M20 568v132h370v-132h-99v-436h105v-132h-370v132h93v436h-99zM135 935h141l97 -152h-125l-40 96l-39 -96h-125z" />
    <glyph glyph-name="Idieresis" unicode="&#xcf;" horiz-adv-x="416" 
d="M20 568v132h370v-132h-99v-436h105v-132h-370v132h93v436h-99zM32 918h145v-147h-145v147zM239 918h146v-147h-146v147z" />
    <glyph glyph-name="idieresis" unicode="&#xef;" horiz-adv-x="264" 
d="M52 500h160v-500h-160v500zM-44 718h145v-147h-145v147zM163 718h146v-147h-146v147z" />
    <glyph glyph-name="icircumflex" unicode="&#xee;" horiz-adv-x="264" 
d="M52 500h160v-500h-160v500zM59 735h141l97 -152h-125l-40 96l-39 -96h-125z" />
    <glyph glyph-name="iacute" unicode="&#xed;" horiz-adv-x="264" 
d="M52 500h160v-500h-160v500zM43 564l16 186h163l-81 -201z" />
    <glyph glyph-name="igrave" unicode="&#xec;" horiz-adv-x="264" 
d="M52 500h160v-500h-160v500zM206 749l16 -182l-110 -16l-69 198h163z" />
    <glyph glyph-name="edieresis" unicode="&#xeb;" horiz-adv-x="560" 
d="M103 718h145v-147h-145v147zM310 718h146v-147h-146v147zM501 123l16 -106c-63 -15 -139 -27 -224 -27c-130 0 -257 40 -257 203v82c0 157 79 235 249 235c127 0 245 -44 245 -199v-98h-333v-31c0 -78 50 -85 114 -85c52 0 141 12 190 26zM197 312v-17h184v24
c0 73 -35 92 -96 92s-88 -22 -88 -99z" />
    <glyph glyph-name="ecircumflex" unicode="&#xea;" horiz-adv-x="560" 
d="M206 735h141l97 -152h-125l-40 96l-39 -96h-125zM501 123l16 -106c-63 -15 -139 -27 -224 -27c-130 0 -257 40 -257 203v82c0 157 79 235 249 235c127 0 245 -44 245 -199v-98h-333v-31c0 -78 50 -85 114 -85c52 0 141 12 190 26zM197 312v-17h184v24c0 73 -35 92 -96 92
s-88 -22 -88 -99z" />
    <glyph glyph-name="eacute" unicode="&#xe9;" horiz-adv-x="560" 
d="M220 564l16 186h163l-81 -201zM501 123l16 -106c-63 -15 -139 -27 -224 -27c-130 0 -257 40 -257 203v82c0 157 79 235 249 235c127 0 245 -44 245 -199v-98h-333v-31c0 -78 50 -85 114 -85c52 0 141 12 190 26zM197 312v-17h184v24c0 73 -35 92 -96 92s-88 -22 -88 -99z
" />
    <glyph glyph-name="egrave" unicode="&#xe8;" horiz-adv-x="560" 
d="M353 749l16 -182l-110 -16l-69 198h163zM501 123l16 -106c-63 -15 -139 -27 -224 -27c-130 0 -257 40 -257 203v82c0 157 79 235 249 235c127 0 245 -44 245 -199v-98h-333v-31c0 -78 50 -85 114 -85c52 0 141 12 190 26zM197 312v-17h184v24c0 73 -35 92 -96 92
s-88 -22 -88 -99z" />
    <glyph glyph-name="Ograve" unicode="&#xd2;" horiz-adv-x="730" 
d="M38 266v162c0 189 128 282 327 282c200 0 327 -93 327 -282v-162c0 -189 -127 -276 -327 -276s-327 87 -327 276zM217 414v-128c0 -98 44 -164 148 -164c109 0 148 66 148 164v128c0 92 -39 164 -148 164c-102 0 -148 -69 -148 -164zM418 949l16 -182l-110 -16l-69 198
h163z" />
    <glyph glyph-name="Oacute" unicode="&#xd3;" horiz-adv-x="730" 
d="M38 266v162c0 189 128 282 327 282c200 0 327 -93 327 -282v-162c0 -189 -127 -276 -327 -276s-327 87 -327 276zM217 414v-128c0 -98 44 -164 148 -164c109 0 148 66 148 164v128c0 92 -39 164 -148 164c-102 0 -148 -69 -148 -164zM295 764l16 186h163l-81 -201z" />
    <glyph glyph-name="Ocircumflex" unicode="&#xd4;" horiz-adv-x="730" 
d="M38 266v162c0 189 128 282 327 282c200 0 327 -93 327 -282v-162c0 -189 -127 -276 -327 -276s-327 87 -327 276zM217 414v-128c0 -98 44 -164 148 -164c109 0 148 66 148 164v128c0 92 -39 164 -148 164c-102 0 -148 -69 -148 -164zM291 935h141l97 -152h-125l-40 96
l-39 -96h-125z" />
    <glyph glyph-name="Otilde" unicode="&#xd5;" horiz-adv-x="730" 
d="M38 266v162c0 189 128 282 327 282c200 0 327 -93 327 -282v-162c0 -189 -127 -276 -327 -276s-327 87 -327 276zM217 414v-128c0 -98 44 -164 148 -164c109 0 148 66 148 164v128c0 92 -39 164 -148 164c-102 0 -148 -69 -148 -164zM194 809l-29 78c29 23 73 55 131 55
c64 0 87 -48 139 -48c41 0 65 25 91 41l39 -73c-21 -24 -72 -68 -130 -68c-68 0 -92 48 -139 48c-46 0 -76 -21 -102 -33z" />
    <glyph glyph-name="Odieresis" unicode="&#xd6;" horiz-adv-x="730" 
d="M38 266v162c0 189 128 282 327 282c200 0 327 -93 327 -282v-162c0 -189 -127 -276 -327 -276s-327 87 -327 276zM217 414v-128c0 -98 44 -164 148 -164c109 0 148 66 148 164v128c0 92 -39 164 -148 164c-102 0 -148 -69 -148 -164zM188 918h145v-147h-145v147zM395 918
h146v-147h-146v147z" />
    <glyph glyph-name="odieresis" unicode="&#xf6;" horiz-adv-x="580" 
d="M30 203v93c0 138 90 213 257 213s263 -75 263 -213v-93c0 -138 -96 -214 -263 -214s-257 76 -257 214zM185 308v-103c0 -66 27 -110 102 -110c76 0 102 45 102 110v89c0 65 -26 110 -102 110c-68 0 -102 -35 -102 -96zM113 718h145v-147h-145v147zM320 718h146v-147h-146
v147z" />
    <glyph glyph-name="otilde" unicode="&#xf5;" horiz-adv-x="580" 
d="M30 203v93c0 138 90 213 257 213s263 -75 263 -213v-93c0 -138 -96 -214 -263 -214s-257 76 -257 214zM185 308v-103c0 -66 27 -110 102 -110c76 0 102 45 102 110v89c0 65 -26 110 -102 110c-68 0 -102 -35 -102 -96zM119 609l-29 78c29 23 73 55 131 55
c64 0 87 -48 139 -48c41 0 65 25 91 41l39 -73c-21 -24 -72 -68 -130 -68c-68 0 -92 48 -139 48c-46 0 -76 -21 -102 -33z" />
    <glyph glyph-name="ocircumflex" unicode="&#xf4;" horiz-adv-x="580" 
d="M30 203v93c0 138 90 213 257 213s263 -75 263 -213v-93c0 -138 -96 -214 -263 -214s-257 76 -257 214zM185 308v-103c0 -66 27 -110 102 -110c76 0 102 45 102 110v89c0 65 -26 110 -102 110c-68 0 -102 -35 -102 -96zM216 735h141l97 -152h-125l-40 96l-39 -96h-125z
" />
    <glyph glyph-name="oacute" unicode="&#xf3;" horiz-adv-x="580" 
d="M30 203v93c0 138 90 213 257 213s263 -75 263 -213v-93c0 -138 -96 -214 -263 -214s-257 76 -257 214zM185 308v-103c0 -66 27 -110 102 -110c76 0 102 45 102 110v89c0 65 -26 110 -102 110c-68 0 -102 -35 -102 -96zM220 564l16 186h163l-81 -201z" />
    <glyph glyph-name="ograve" unicode="&#xf2;" horiz-adv-x="580" 
d="M30 203v93c0 138 90 213 257 213s263 -75 263 -213v-93c0 -138 -96 -214 -263 -214s-257 76 -257 214zM185 308v-103c0 -66 27 -110 102 -110c76 0 102 45 102 110v89c0 65 -26 110 -102 110c-68 0 -102 -35 -102 -96zM343 749l16 -182l-110 -16l-69 198h163z" />
    <glyph glyph-name="Ugrave" unicode="&#xd9;" horiz-adv-x="686" 
d="M469 700h159v-450c0 -181 -106 -260 -276 -260c-193 0 -294 79 -294 260v450h178v-460c0 -84 40 -118 122 -118s111 34 111 118v460zM416 949l16 -182l-110 -16l-69 198h163z" />
    <glyph glyph-name="Uacute" unicode="&#xda;" horiz-adv-x="686" 
d="M469 700h159v-450c0 -181 -106 -260 -276 -260c-193 0 -294 79 -294 260v450h178v-460c0 -84 40 -118 122 -118s111 34 111 118v460zM303 764l16 186h163l-81 -201z" />
    <glyph glyph-name="Ucircumflex" unicode="&#xdb;" horiz-adv-x="686" 
d="M469 700h159v-450c0 -181 -106 -260 -276 -260c-193 0 -294 79 -294 260v450h178v-460c0 -84 40 -118 122 -118s111 34 111 118v460zM269 935h141l97 -152h-125l-40 96l-39 -96h-125z" />
    <glyph glyph-name="Udieresis" unicode="&#xdc;" horiz-adv-x="686" 
d="M469 700h159v-450c0 -181 -106 -260 -276 -260c-193 0 -294 79 -294 260v450h178v-460c0 -84 40 -118 122 -118s111 34 111 118v460zM184 918h145v-147h-145v147zM391 918h146v-147h-146v147z" />
    <glyph glyph-name="udieresis" unicode="&#xfc;" horiz-adv-x="612" 
d="M52 500h160v-308c0 -66 31 -88 79 -88c45 0 87 19 109 36v360h160v-500h-160v39c-45 -21 -123 -49 -206 -49c-99 0 -142 63 -142 150v360zM129 718h145v-147h-145v147zM336 718h146v-147h-146v147z" />
    <glyph glyph-name="ucircumflex" unicode="&#xfb;" horiz-adv-x="612" 
d="M52 500h160v-308c0 -66 31 -88 79 -88c45 0 87 19 109 36v360h160v-500h-160v39c-45 -21 -123 -49 -206 -49c-99 0 -142 63 -142 150v360zM232 735h141l97 -152h-125l-40 96l-39 -96h-125z" />
    <glyph glyph-name="uacute" unicode="&#xfa;" horiz-adv-x="612" 
d="M52 500h160v-308c0 -66 31 -88 79 -88c45 0 87 19 109 36v360h160v-500h-160v39c-45 -21 -123 -49 -206 -49c-99 0 -142 63 -142 150v360zM246 564l16 186h163l-81 -201z" />
    <glyph glyph-name="ugrave" unicode="&#xf9;" horiz-adv-x="612" 
d="M52 500h160v-308c0 -66 31 -88 79 -88c45 0 87 19 109 36v360h160v-500h-160v39c-45 -21 -123 -49 -206 -49c-99 0 -142 63 -142 150v360zM373 749l16 -182l-110 -16l-69 198h163z" />
    <glyph glyph-name="afii10038" unicode="&#x424;" horiz-adv-x="914" 
d="M371 736h172v-72h38c200 0 295 -81 295 -267v-54c0 -184 -95 -267 -295 -267h-38v-76h-172v76h-38c-200 0 -295 83 -295 267v54c0 186 95 267 295 267h38v72zM581 543h-38v-346h38c87 0 122 41 122 142v62c0 96 -32 142 -122 142zM211 339c0 -101 35 -142 122 -142h38
v346h-38c-89 0 -122 -46 -122 -142v-62z" />
    <glyph glyph-name="afii10036" unicode="&#x422;" horiz-adv-x="576" 
d="M18 558v142h540v-142h-184v-558h-172v558h-184z" />
    <glyph glyph-name="afii10037" unicode="&#x423;" horiz-adv-x="661" 
d="M297 179c-26 1 -90 21 -120 86l-167 435h200l139 -419h4l121 419h177l-184 -542c-52 -128 -143 -168 -239 -168c-77 0 -144 12 -192 26l30 124c39 -14 77 -23 123 -23c48 0 89 13 108 62z" />
    <glyph glyph-name="bullet" unicode="&#x2022;" horiz-adv-x="386" 
d="M66 277c0 70 34 128 126 128c91 0 128 -58 128 -128s-37 -126 -128 -126c-92 0 -126 56 -126 126z" />
    <glyph glyph-name="periodcentered" unicode="&#xb7;" horiz-adv-x="284" 
d="M66 250c0 42 21 77 75 77c56 0 77 -35 77 -77s-21 -75 -77 -75c-54 0 -75 33 -75 75z" />
    </font>
</defs>
</svg>
