<svg width="61" height="91" viewBox="0 0 61 91" fill="none" xmlns="http://www.w3.org/2000/svg">
<path d="M47.0934 75.5L47.3414 81.204C47.5894 83.932 48.168 85.792 49.0774 86.784C50.0694 87.6933 51.3507 88.272 52.9214 88.52C54.492 88.6853 55.8147 88.8093 56.8894 88.892C58.0467 88.892 59.2867 88.9333 60.6094 89.016V91H2.08138V89.016C2.99071 89.016 3.90004 89.016 4.80938 89.016C5.80138 88.9333 7.41338 88.768 9.64538 88.52C11.96 88.1893 13.572 87.528 14.4814 86.536C15.4734 85.4613 16.0934 83.6013 16.3414 80.956L16.5894 75.252V16.972L16.3414 11.268C16.0934 8.70533 15.4734 6.84533 14.4814 5.688C13.572 4.448 12.1667 3.704 10.2654 3.456C8.44671 3.20799 6.58671 3.04266 4.68538 2.96C2.78404 2.79466 1.42004 2.67066 0.593375 2.58799V0.603996H47.0934V75.5Z" fill="white"/>
</svg>
