<svg width="84" height="92" viewBox="0 0 84 92" fill="none" xmlns="http://www.w3.org/2000/svg">
<path d="M0.284781 91.132C5.74078 86.172 11.3621 81.0053 17.1488 75.632C23.0181 70.2587 27.4408 66.0013 30.4168 62.86C38.2701 55.42 43.4781 48.972 46.0408 43.516C48.6034 38.06 49.8848 32.232 49.8848 26.032C49.8848 19.088 48.4381 13.5907 45.5448 9.54C42.7341 5.48933 38.6008 3.46399 33.1448 3.46399C29.1768 3.46399 25.4568 4.53866 21.9848 6.688C18.5954 8.75466 16.9008 10.9867 16.9008 13.384C16.9008 17.352 19.0501 19.336 23.3488 19.336C26.4901 19.336 29.0114 20.2867 30.9128 22.188C32.8968 24.0067 33.8888 26.404 33.8888 29.38C33.8888 33.1 32.6074 36.2 30.0448 38.68C27.4821 41.16 24.3408 42.4 20.6208 42.4C15.9914 42.4 12.1474 41.0773 9.08878 38.432C6.03011 35.704 4.50078 32.1493 4.50078 27.768C4.50078 22.6427 6.23678 18.0133 9.70878 13.88C13.1808 9.66399 17.0661 6.60533 21.3648 4.70399C25.7461 2.80266 29.5901 1.60399 32.8968 1.108C36.2861 0.529331 39.8821 0.239999 43.6848 0.239999C53.6875 0.239999 62.2021 2.472 69.2288 6.93599C76.2554 11.4 79.7688 17.848 79.7688 26.28C79.7688 31.5707 78.1155 36.2827 74.8088 40.416C71.5848 44.5493 67.9475 47.6907 63.8968 49.84C59.8461 51.9067 53.6048 54.5933 45.1728 57.9C36.8234 61.124 32.1941 63.48 31.2848 64.968V65.464C33.3514 65.2987 35.7074 65.1747 38.3528 65.092C41.0808 65.0093 43.9741 64.968 47.0328 64.968H66.6248C70.6754 64.968 73.5275 64.472 75.1808 63.48C76.8341 62.488 78.0328 61.0827 78.7768 59.264C79.6035 57.4453 80.2648 55.668 80.7608 53.932C81.3395 52.196 81.8355 50.7493 82.2488 49.592H83.8608L75.9248 92H0.284781V91.132Z" fill="white"/>
</svg>
