<svg width="83" height="94" viewBox="0 0 83 94" fill="none" xmlns="http://www.w3.org/2000/svg">
<path d="M55.2841 40.912C63.7988 40.912 70.5361 43.02 75.4961 47.236C80.4561 51.452 82.9361 57.156 82.9361 64.348C82.9361 74.02 77.8521 81.2947 67.6841 86.172C57.5988 91.0493 46.2734 93.488 33.7081 93.488C25.1934 93.488 17.5054 91.38 10.6441 87.164C3.78276 82.948 0.352094 77.6987 0.352094 71.416C0.352094 66.704 1.96409 62.7773 5.18809 59.636C8.41209 56.4947 12.3801 54.924 17.0921 54.924C22.0521 54.924 26.0614 56.2467 29.1201 58.892C32.2614 61.4547 33.8321 64.844 33.8321 69.06C33.8321 72.1187 33.2121 74.4747 31.9721 76.128C30.8148 77.6987 29.2441 79.352 27.2601 81.088C25.3588 82.7413 24.2014 83.816 23.7881 84.312C23.3748 84.808 23.1681 85.5933 23.1681 86.668C23.1681 88.156 24.3254 89.3547 26.6401 90.264C28.9548 91.0907 31.7241 91.504 34.9481 91.504C40.9001 91.504 45.3641 89.3133 48.3401 84.932C51.3988 80.5507 52.9281 74.7227 52.9281 67.448C52.9281 61 51.2748 55.296 47.9681 50.336C44.7441 45.2933 40.3214 42.772 34.7001 42.772C32.7161 42.772 30.8561 43.02 29.1201 43.516C27.5494 44.0947 26.0201 44.6733 24.5321 45.252C24.1188 45.252 23.6641 45.0867 23.1681 44.756C22.7548 44.3427 22.5481 43.888 22.5481 43.392C22.5481 42.4 23.4161 41.7387 25.1521 41.408C26.9708 41.0773 29.0374 40.912 31.3521 40.912C37.0561 40.912 41.4788 39.2587 44.6201 35.952C47.7614 32.6453 49.3321 27.9747 49.3321 21.94C49.3321 16.6493 48.2161 12.1853 45.9841 8.548C43.8348 4.82799 40.2801 2.96799 35.3201 2.96799C32.4268 2.96799 29.6574 3.54666 27.0121 4.70399C24.4494 5.77866 23.1681 7.30799 23.1681 9.29199C23.1681 10.3667 23.4988 11.276 24.1601 12.02C24.8214 12.764 26.1028 13.3013 28.0041 13.632C29.9881 13.9627 31.6828 14.9547 33.0881 16.608C34.4934 18.1787 35.1961 20.204 35.1961 22.684C35.1961 26.2387 33.8321 28.9667 31.1041 30.868C28.4588 32.7693 24.9868 33.72 20.6881 33.72C16.6374 33.72 13.3308 32.5213 10.7681 30.124C8.20543 27.7267 6.92409 24.6267 6.92409 20.824C6.92409 17.104 8.94943 13.508 13.0001 10.036C17.0508 6.48133 21.7214 3.95999 27.0121 2.47199C32.3028 0.983997 37.6348 0.239999 43.0081 0.239999C53.5894 0.239999 62.0628 1.93466 68.4281 5.32399C74.8761 8.71333 78.1001 14.0867 78.1001 21.444C78.1001 26.9827 75.8681 31.3227 71.4041 34.464C67.0228 37.5227 61.6494 39.3413 55.2841 39.92V40.912Z" fill="white"/>
</svg>
