<?xml version="1.0" encoding="utf-8"?>
<!-- Generator: Adobe Illustrator 17.0.0, SVG Export Plug-In . SVG Version: 6.00 Build 0)  -->
<!DOCTYPE svg PUBLIC "-//W3C//DTD SVG 1.1//EN" "http://www.w3.org/Graphics/SVG/1.1/DTD/svg11.dtd">
<svg version="1.1" id="Layer_1" xmlns="http://www.w3.org/2000/svg" xmlns:xlink="http://www.w3.org/1999/xlink" x="0px" y="0px"
	 width="80px" height="80px" viewBox="-2 -2 80 80" enable-background="new -2 -2 80 80" xml:space="preserve">
<path fill="#00A2B8" d="M71.25,1.188H19c-1.964,0-3.563,1.598-3.563,3.563v17.813H7.125c-3.274,0-5.938,2.664-5.938,5.938V57
	c0,3.274,2.664,5.938,5.938,5.938h11.414l-1.583,4.75h-3.894c-1.964,0-3.563,1.598-3.563,3.563v3.563h35.625V71.25
	c0-1.964-1.598-3.563-3.563-3.563h-3.894l-1.583-4.75H47.5c3.274,0,5.938-2.664,5.938-5.938v-1.188H71.25
	c1.964,0,3.563-1.598,3.563-3.563V4.75C74.812,2.786,73.214,1.188,71.25,1.188z M19,3.563h52.25c0.654,0,1.188,0.533,1.188,1.188
	v5.938H17.812V4.75C17.812,4.096,18.346,3.563,19,3.563z M7.125,24.938H47.5c1.964,0,3.563,1.598,3.563,3.563v22.563h-47.5V28.5
	C3.562,26.536,5.161,24.938,7.125,24.938z M53.437,32.063h14.25v16.625h-14.25V32.063z M42.75,71.25v1.188H11.875V71.25
	c0-0.654,0.533-1.188,1.188-1.188h28.5C42.217,70.063,42.75,70.596,42.75,71.25z M35.164,67.688H19.461l1.583-4.75h12.538
	L35.164,67.688z M47.5,60.563H7.125c-1.964,0-3.563-1.598-3.563-3.563v-3.563h47.5V57C51.062,58.964,49.464,60.563,47.5,60.563z
	 M71.25,53.438H53.437v-2.375h16.625V29.688H53.437V28.5c0-3.274-2.664-5.938-5.938-5.938H17.812v-9.5h54.625V52.25
	C72.437,52.904,71.904,53.438,71.25,53.438z"/>
<path fill="#00A2B8" d="M21.375,55.813h2.375v2.375h-2.375V55.813z"/>
<path fill="#00A2B8" d="M26.125,55.813H28.5v2.375h-2.375V55.813z"/>
<path fill="#00A2B8" d="M30.875,55.813h2.375v2.375h-2.375V55.813z"/>
<path fill="#00A2B8" d="M24.937,5.938h2.375v2.375h-2.375V5.938z"/>
<path fill="#00A2B8" d="M29.687,5.938h2.375v2.375h-2.375V5.938z"/>
<path fill="#00A2B8" d="M20.187,5.938h2.375v2.375h-2.375V5.938z"/>
<path fill="#00A2B8" d="M20.187,15.438h2.375v2.375h-2.375V15.438z"/>
<path fill="#00A2B8" d="M24.937,15.438h45.125v2.375H24.937V15.438z"/>
<path fill="#00A2B8" d="M55.812,20.188h14.25v2.375h-14.25V20.188z"/>
<path fill="#00A2B8" d="M55.812,24.938h14.25v2.375h-14.25V24.938z"/>
<path fill="#00A2B8" d="M9.5,48.688h23.75c1.964,0,3.563-1.598,3.563-3.563v-14.25c0-1.964-1.598-3.563-3.563-3.563H9.5
	c-1.964,0-3.563,1.598-3.563,3.563v14.25C5.937,47.089,7.536,48.688,9.5,48.688z M8.312,30.875c0-0.654,0.533-1.188,1.188-1.188
	h23.75c0.654,0,1.188,0.533,1.188,1.188v14.25c0,0.654-0.533,1.188-1.188,1.188H9.5c-0.654,0-1.188-0.533-1.188-1.188V30.875z"/>
<path fill="#00A2B8" d="M17.881,44.73l4.747-14.255l2.254,0.75l-4.747,14.255L17.881,44.73z"/>
<path fill="#00A2B8" d="M26.965,43.59L32.555,38l-5.589-5.59l-1.679,1.679l3.91,3.91l-3.91,3.91L26.965,43.59z"/>
<path fill="#00A2B8" d="M17.465,41.91L13.554,38l3.911-3.91l-1.679-1.679L10.196,38l5.59,5.59L17.465,41.91z"/>
<path fill="#00A2B8" d="M39.187,27.313h9.5v2.375h-9.5V27.313z"/>
<path fill="#00A2B8" d="M39.187,32.063h9.5v2.375h-9.5V32.063z"/>
<path fill="#00A2B8" d="M39.187,36.813h9.5v2.375h-9.5V36.813z"/>
<path fill="#00A2B8" d="M39.187,41.563h9.5v2.375h-9.5V41.563z"/>
<path fill="#00A2B8" d="M41.562,46.313h2.375v2.375h-2.375V46.313z"/>
<path fill="#00A2B8" d="M46.312,46.313h2.375v2.375h-2.375V46.313z"/>
</svg>
