<?xml version="1.0" encoding="utf-8"?>
<!-- Generator: Adobe Illustrator 17.0.0, SVG Export Plug-In . SVG Version: 6.00 Build 0)  -->
<!DOCTYPE svg PUBLIC "-//W3C//DTD SVG 1.1//EN" "http://www.w3.org/Graphics/SVG/1.1/DTD/svg11.dtd">
<svg version="1.1" id="Layer_1" xmlns="http://www.w3.org/2000/svg" xmlns:xlink="http://www.w3.org/1999/xlink" x="0px" y="0px"
	 width="80px" height="80px" viewBox="-2 -2 80 80" enable-background="new -2 -2 80 80" xml:space="preserve">
<path fill="#00A2B8" d="M50.16,36.516c0.82,0,1.484-0.665,1.484-1.484c0-0.82-0.665-1.484-1.484-1.484
	c-0.82,0-1.484,0.665-1.484,1.484C48.676,35.851,49.34,36.516,50.16,36.516z"/>
<path fill="#00A2B8" d="M50.415,41.391c-0.81-0.12-1.566,0.44-1.686,1.251c-0.406,2.739-2.721,5.011-6.194,6.078
	c-3.712,1.14-8.864,0.758-12.008-2.665c-0.555-0.604-1.494-0.644-2.097-0.089c-0.604,0.555-0.644,1.493-0.089,2.097
	c1.82,1.981,4.291,3.332,7.147,3.905c1.008,0.202,2.055,0.303,3.108,0.303c1.627,0,3.269-0.24,4.811-0.713
	c4.594-1.411,7.682-4.581,8.259-8.481C51.786,42.266,51.226,41.512,50.415,41.391z"/>
<path fill="#00A2B8" d="M71.046,28.264c-2.698-3.128-6.422-5.156-10.904-5.97c4.291-2.896,7.993-5.778,10.632-8.293
	c4.024-3.834,5.373-6.529,4.247-8.479C73.767,3.35,70.148,3.365,63.63,5.57c-5.507,1.863-12.367,5.098-19.316,9.111
	c-1.2,0.693-2.39,1.403-3.553,2.118c-0.863-2.437-0.294-5.221,1.61-7.634c1.426-1.808,1.744-4.104,0.831-5.993
	c-0.957-1.98-3.059-3.165-5.624-3.17h-0.07c-9.055,0-17.913,3.573-24.94,10.061C5.532,16.557,1.224,25.156,0.439,34.275
	c-0.945,10.981,2.565,21.422,9.884,29.397C17.512,71.507,27.704,76,38.286,76c5.697,0,11.045-1.042,15.896-3.098
	c4.435-1.88,8.374-4.564,11.707-7.979c3.09-3.166,5.526-6.811,7.241-10.833c1.632-3.827,2.523-7.883,2.579-11.729
	C75.789,36.768,74.177,31.894,71.046,28.264z M40.935,20.186c1.571-0.991,3.207-1.978,4.864-2.934
	c6.425-3.71,12.823-6.765,18.016-8.604c5.716-2.024,8.057-1.892,8.602-1.631c-0.047,0.345-0.476,1.882-4.227,5.337
	c-3.132,2.885-7.706,6.277-12.88,9.552c-1.635,1.036-3.337,2.065-5.058,3.059c-2.373,1.369-4.744,2.65-7.071,3.823
	c-0.464-1.355-1.059-2.67-1.784-3.925c-0.702-1.216-1.516-2.357-2.426-3.413C39.616,21.026,40.271,20.604,40.935,20.186z
	 M40.492,30.103c-4.191,1.988-8.037,3.503-11.109,4.382c-0.16-0.768-0.441-1.51-0.84-2.201c-0.378-0.655-0.852-1.241-1.401-1.747
	c2.299-2.219,5.535-4.79,9.346-7.42c0.885,0.989,1.669,2.07,2.338,3.229C39.518,27.544,40.075,28.804,40.492,30.103z M72.74,42.318
	c-0.212,14.771-13.445,30.713-34.454,30.713c-9.753,0-19.148-4.143-25.776-11.366c-6.75-7.356-9.986-16.993-9.113-27.136
	c1.499-17.403,16.802-31.56,34.112-31.56h0.067c1.42,0.003,2.497,0.547,2.955,1.494c0.421,0.87,0.238,1.94-0.489,2.862
	c-2.675,3.392-3.346,7.563-1.835,11.081c-0.796,0.513-1.578,1.028-2.334,1.538c-0.004,0.002-0.007,0.005-0.01,0.007
	c-4.72,3.185-8.706,6.353-11.358,9.019c-2.011-0.687-4.221-0.487-6.1,0.597c-3.084,1.781-7.133,10.083-7.914,11.729
	c-0.209,0.441-0.188,0.956,0.056,1.378c0.244,0.422,0.679,0.698,1.165,0.737c0.82,0.066,3.15,0.235,5.743,0.235
	c3.147,0,6.681-0.248,8.371-1.224c1.831-1.057,3.101-2.824,3.541-4.854c3.64-0.956,8.396-2.825,13.547-5.334
	c2.886-1.405,5.854-2.985,8.822-4.698c1.506-0.87,2.994-1.766,4.441-2.67c0.009,0,0.017,0.002,0.026,0.002
	C68.575,25.222,72.858,34.114,72.74,42.318z M26.561,36.274c-0.095,1.493-0.924,2.83-2.219,3.577
	c-1.404,0.811-6.226,0.92-10.186,0.739c1.822-3.518,4.328-7.64,5.733-8.452c1.327-0.766,2.931-0.799,4.292-0.09
	c0.748,0.389,1.367,0.984,1.791,1.719C26.413,34.532,26.617,35.399,26.561,36.274z"/>
<path fill="#00A2B8" d="M26.41,9.179c-3.274,0-5.938,2.664-5.938,5.938c0,3.274,2.663,5.937,5.938,5.937
	c3.274,0,5.937-2.664,5.937-5.937C32.348,11.843,29.684,9.179,26.41,9.179z M26.41,18.086c-1.637,0-2.969-1.332-2.969-2.969
	s1.332-2.969,2.969-2.969c1.637,0,2.969,1.332,2.969,2.969S28.047,18.086,26.41,18.086z"/>
<path fill="#00A2B8" d="M18.988,49.066c-3.274,0-5.938,2.664-5.938,5.938c0,3.274,2.663,5.938,5.938,5.938
	c3.274,0,5.938-2.664,5.938-5.938C24.926,51.73,22.262,49.066,18.988,49.066z M18.988,57.972c-1.637,0-2.969-1.332-2.969-2.969
	c0-1.637,1.332-2.969,2.969-2.969c1.637,0,2.969,1.332,2.969,2.969C21.957,56.64,20.625,57.972,18.988,57.972z"/>
<path fill="#00A2B8" d="M33.832,57.972c-3.274,0-5.938,2.663-5.938,5.938c0,3.274,2.664,5.937,5.938,5.937
	c3.274,0,5.938-2.664,5.938-5.937C39.769,60.636,37.106,57.972,33.832,57.972z M33.832,66.879c-1.637,0-2.969-1.332-2.969-2.969
	c0-1.637,1.332-2.969,2.969-2.969c1.637,0,2.969,1.332,2.969,2.969C36.801,65.547,35.469,66.879,33.832,66.879z"/>
<path fill="#00A2B8" d="M51.644,55.004c-3.274,0-5.938,2.664-5.938,5.938c0,3.274,2.664,5.938,5.938,5.938
	c3.274,0,5.938-2.664,5.938-5.938C57.582,57.667,54.918,55.004,51.644,55.004z M51.644,63.91c-1.637,0-2.969-1.332-2.969-2.969
	c0-1.637,1.332-2.969,2.969-2.969c1.637,0,2.969,1.332,2.969,2.969C54.613,62.578,53.281,63.91,51.644,63.91z"/>
<path fill="#00A2B8" d="M63.519,40.16c-3.274,0-5.938,2.663-5.938,5.938c0,3.274,2.664,5.938,5.938,5.938
	c3.274,0,5.938-2.664,5.938-5.938C69.457,42.823,66.793,40.16,63.519,40.16z M63.519,49.066c-1.637,0-2.969-1.332-2.969-2.969
	c0-1.637,1.332-2.969,2.969-2.969c1.637,0,2.969,1.332,2.969,2.969C66.488,47.734,65.156,49.066,63.519,49.066z"/>
</svg>
