<svg width="80" height="80" viewBox="0 0 80 80" fill="none" xmlns="http://www.w3.org/2000/svg">
<path d="M75.1706 4.36517H4.82954C2.16657 4.36517 0 6.53173 0 9.19471V57.7603C0 60.4232 2.16657 62.5898 4.82954 62.5898H28.9327V66.1039C28.9327 69.3253 26.3118 71.9462 23.0904 71.9462H17.7783C16.7599 71.9462 15.9341 72.7719 15.9341 73.7905C15.9341 74.8091 16.7599 75.6347 17.7783 75.6347H62.2215C63.24 75.6347 64.0657 74.8091 64.0657 73.7905C64.0657 72.7719 63.24 71.9462 62.2215 71.9462H56.9093C53.6879 71.9462 51.067 69.3253 51.067 66.1039V62.59H75.1701C77.8331 62.59 79.9998 60.4234 79.9998 57.7604V9.19471C80.0002 6.53173 77.8336 4.36517 75.1706 4.36517ZM30.6126 71.9465C31.8697 70.3315 32.6215 68.3047 32.6215 66.1042V62.5901H47.3788V66.1042C47.3788 68.3047 48.1306 70.3317 49.3877 71.9465H30.6126ZM76.3117 57.7604C76.3117 58.3896 75.7998 58.9017 75.1705 58.9017H4.82954C4.20032 58.9017 3.68829 58.3898 3.68829 57.7604V48.0677H76.3117V57.7604ZM76.3117 44.3792H3.68844V9.19471C3.68844 8.56549 4.20032 8.05345 4.8297 8.05345H75.1705C75.7997 8.05345 76.3119 8.56533 76.3119 9.19471V44.3792H76.3117Z" fill="#00A2B8"/>
<path d="M40.0006 55.4756C41.0998 55.4756 41.9909 54.5845 41.9909 53.4853C41.9909 52.386 41.0998 51.4949 40.0006 51.4949C38.9013 51.4949 38.0103 52.386 38.0103 53.4853C38.0103 54.5845 38.9013 55.4756 40.0006 55.4756Z" fill="#00A2B8"/>
<path d="M43.1623 17.071C42.442 16.3508 41.2747 16.3508 40.5541 17.071L27.5206 30.1044C26.8004 30.8246 26.8004 31.9924 27.5206 32.7127C27.8809 33.0729 28.3526 33.2529 28.8248 33.2529C29.297 33.2529 29.7687 33.0729 30.1289 32.7127L43.1623 19.6793C43.8825 18.9591 43.8825 17.7913 43.1623 17.071Z" fill="#00A2B8"/>
<path d="M50.8873 24.624C50.1673 23.9038 49 23.9038 48.2792 24.6238L43.087 29.8157C42.3668 30.536 42.3668 31.7038 43.087 32.424C43.4472 32.7841 43.919 32.9641 44.3911 32.9641C44.8629 32.9641 45.335 32.7841 45.6951 32.424L50.8873 27.2321C51.6075 26.5119 51.6075 25.3441 50.8873 24.624Z" fill="#00A2B8"/>
</svg>
