<svg width="1440px" height="272.5px" viewBox="0 0 1440 272.5" fill="none" xmlns="http://www.w3.org/2000/svg">
<g id="lines" opacity="0.3">
	<linearGradient id="line_1_1_" gradientUnits="userSpaceOnUse" x1="685.0355" y1="103.97" x2="685.0355" y2="297.36" gradientTransform="matrix(-1 0 0 1 1395.016 -31.36)">
		<stop  offset="0" style="stop-color:#28A07C"/>
		<stop  offset="1" style="stop-color:#5E5CD1"/>
		<animate
			attributeName="x1"
			attributeType="XML"
	        from="-900"
    		to="2000"
	        begin="0s" dur="3s"
	        repeatCount="indefinite"
	    />
	    <animate
	        attributeName="x2"
			attributeType="XML"
	        from="0"
    		to="2000"
	        begin="0s" dur="3s"
	        repeatCount="indefinite"
	    />
	</linearGradient>
	<path id="line_1" fill="none" stroke="url(#line_1_1_)" stroke-width="3" stroke-linecap="round" d="M-32.019,201.325
		c0,0,59.28-161.192,91.97-161.192c32.69,0,58.62,139.427,93.97,161.192c35.36,21.765,53.91,9.701,61.98,0
		c8.08-9.701,39.29-79.161,65.98-82.69c26.69-3.528,49.67,43.959,73.98,72.988c34.12,40.733,70.695-0.243,93.973-29.104
		c23.278-28.86,55.983-67.192,55.983-67.192s42.911-61.926,76.005-27.293S666.181,206,683.98,232s39.652,37.139,69-9
		c29.348-46.139,63.342-104.365,63.342-104.365s13.597-26.59,45.367-23.308c31.77,3.282,39.494,27.981,56.511,44.154
		c17.016,16.174,46.815,38.024,87.799,0c40.983-38.024,66.016-71.447,86.192-91.74c20.177-20.293,61.637-54.912,118.948-5.149
		C1250.48,83.5,1251.07,84,1285.554,121.5c29.426,32,42.926,21.5,62.588,0c25.606-28,43.338-54,103.838-81.367"/>
	<linearGradient id="line_2_1_" gradientUnits="userSpaceOnUse" x1="542.1088" y1="-277.9334" x2="751.5289" y2="471.7556" gradientTransform="matrix(-1 0 0 1 1395.016 -31.36)">
		<stop  offset="0" style="stop-color:#1AB1E0"/>
		<stop  offset="1" style="stop-color:#005069"/>
	</linearGradient>
		<path id="line_2" opacity="0.3" fill="none" stroke="url(#line_2_1_)" stroke-width="3" stroke-linecap="round" enable-background="new    " d="
		M-18.019,245.53c0,0,37.53-98.11,70.22-98.11c32.68,0,78.59,82.988,113.94,98.11c35.35,15.122,52.1,8.814,71.97-8.358
		c19.87-17.172,37.28-56.623,63.97-59.075c26.68-2.452,24.98,14.003,72.98,59.075c30.97,23.955,50.522,15.75,73.796-4.302
		c23.274-20.052,74.53-94.947,74.53-94.947s25.498-33.528,58.586-9.466c33.088,24.063,82.604,100.513,91.134,114.168
		c8.531,13.655,43.873,40.258,73.216,8.201c29.343-32.057,70.109-87.213,70.109-87.213s13.594-18.474,45.359-16.194
		c31.765,2.28,39.487,19.44,56.501,30.677c17.014,11.237,46.808,26.418,87.784,0c40.976-26.418,66.005-49.64,86.178-63.739
		c20.172-14.099,61.626-38.152,118.926-3.577c44.8,38.219,32.8,36.219,60.8,58.719c22.757,18.287,48.154,38,74.577,11
		c26.423-27,45.745-66.142,105.423-71.427"/>
</g>
<g id="stars" opacity="0.3">
	<g id="star_1" opacity="0.3">
		<path fill="#23DCF5" fill-opacity="0.2" d="M1151.98,32c8.284,0,15-6.716,15-15s-6.716-15-15-15s-15,6.716-15,15
			S1143.696,32,1151.98,32z"/>
		<path fill="#78EBF2" fill-opacity="0.3" d="M1151.98,27c5.523,0,10-4.477,10-10c0-5.523-4.477-10-10-10s-10,4.477-10,10
			C1141.98,22.523,1146.457,27,1151.98,27z"/>
		<path fill="#25F5F5" d="M1151.98,22c2.761,0,5-2.239,5-5s-2.239-5-5-5s-5,2.239-5,5S1149.219,22,1151.98,22z"/>
		<animate
			attributeName="opacity"
			attributeType="XML"
	        values="1; .3; 1"
	        begin="0.5s" 
	        dur="4.0s"
	        repeatCount="indefinite"
	    />
	</g>
	<g id="star_2" opacity="0.3">
		<path fill="#239DF5" fill-opacity="0.2" d="M854.98,163c8.284,0,15-6.716,15-15s-6.716-15-15-15s-15,6.716-15,15
			S846.696,163,854.98,163z"/>
		<path fill="#7893F2" fill-opacity="0.4" d="M854.98,158c5.523,0,10-4.477,10-10c0-5.523-4.477-10-10-10s-10,4.477-10,10
			C844.98,153.523,849.457,158,854.98,158z"/>
		<path fill="#255FF5" d="M854.98,153c2.762,0,5-2.239,5-5s-2.238-5-5-5c-2.761,0-5,2.239-5,5S852.219,153,854.98,153z"/>
		<animate
			attributeName="opacity"
			attributeType="XML"
	        values="1; .3; 1"
	        begin="2s" 
	        dur="4s"
	        repeatCount="indefinite"
	    />
	</g>
	<g id="star_3" opacity="0.3">
		<path fill="#23DCF5" fill-opacity="0.2" d="M563.98,74c8.284,0,15-6.716,15-15s-6.716-15-15-15s-15,6.716-15,15
			S555.696,74,563.98,74z"/>
		<path fill="#78EBF2" fill-opacity="0.3" d="M563.98,69c5.523,0,10-4.477,10-10s-4.477-10-10-10s-10,4.477-10,10
			S558.457,69,563.98,69z"/>
		<path fill="#25F5F5" d="M563.98,64c2.762,0,5-2.239,5-5s-2.238-5-5-5c-2.761,0-5,2.239-5,5S561.219,64,563.98,64z"/>
		<animate
			attributeName="opacity"
			attributeType="XML"
	        values="1; .2; 1"
	        begin="2s" 
	        dur="4s"
	        repeatCount="indefinite"
	    />
	</g>
	<g id="star_4" opacity="0.3">
		<path fill="#239DF5" fill-opacity="0.2" d="M287.981,134c8.28,0,15-6.716,15-15s-6.72-15-15-15c-8.29,0-15,6.716-15,15
			S279.691,134,287.981,134z"/>
		<path fill="#7893F2" fill-opacity="0.4" d="M287.981,129c5.52,0,10-4.477,10-10s-4.48-10-10-10s-10,4.477-10,10
			S282.461,129,287.981,129z"/>
		<path fill="#255FF5" d="M287.981,124c2.76,0,5-2.239,5-5s-2.24-5-5-5s-5,2.239-5,5S285.221,124,287.981,124z"/>
		<animate
			attributeName="opacity"
			attributeType="XML"
	        values="1; .3; 1"
	        begin="2s" 
	        dur="4s"
	        repeatCount="indefinite"
	    />
	</g>
</g>
</svg>
