<?xml version="1.0" encoding="utf-8"?>
<!-- Generator: Adobe Illustrator 17.0.0, SVG Export Plug-In . SVG Version: 6.00 Build 0)  -->
<!DOCTYPE svg PUBLIC "-//W3C//DTD SVG 1.1//EN" "http://www.w3.org/Graphics/SVG/1.1/DTD/svg11.dtd">
<svg version="1.1" id="Layer_1" xmlns="http://www.w3.org/2000/svg" xmlns:xlink="http://www.w3.org/1999/xlink" x="0px" y="0px"
	 width="80px" height="80px" viewBox="-3 -3 80 80" enable-background="new -3 -3 80 80" xml:space="preserve">
<path fill="#00A2B8" d="M72.844,37.281c0-3.343-2.72-6.062-6.061-6.062c-1.148,0-2.239,0.331-3.189,0.923V4.625
	c0-1.912-1.556-3.469-3.469-3.469H9.25c-1.912,0-3.469,1.556-3.469,3.469v10.406H4.625c-1.912,0-3.469,1.556-3.469,3.469V37
	c0,1.912,1.556,3.469,3.469,3.469h1.156v28.906c0,1.912,1.556,3.469,3.469,3.469h50.875c1.912,0,3.469-1.556,3.469-3.469V49.041
	l7.475-7.475C72.214,40.421,72.844,38.9,72.844,37.281z M9.25,3.469h50.875c0.638,0,1.156,0.519,1.156,1.156v5.781H8.094V4.625
	C8.094,3.988,8.612,3.469,9.25,3.469z M3.469,37V18.5c0-0.637,0.518-1.156,1.156-1.156h25.438c0.638,0,1.156,0.519,1.156,1.156V37
	c0,0.637-0.518,1.156-1.156,1.156H4.625C3.987,38.156,3.469,37.637,3.469,37z M61.281,69.375c0,0.638-0.518,1.156-1.156,1.156H9.25
	c-0.638,0-1.156-0.518-1.156-1.156V40.469h21.969c1.912,0,3.469-1.556,3.469-3.469V18.5c0-1.912-1.556-3.469-3.469-3.469H8.094
	v-2.312h53.187v21.49l-2.312,2.313v-7.615H38.156v11.563h16.865L37.067,58.423l-1.429,10.002l10.002-1.429l15.642-15.642V69.375z
	 M38.974,61.421l3.668,3.668l-4.278,0.611L38.974,61.421z M45.094,64.271l-1.834-1.834L62.437,43.26l1.834,1.834L45.094,64.271z
	 M41.625,60.803l-1.834-1.834l19.178-19.178l1.834,1.834L41.625,60.803z M56.656,38.156H40.469v-6.937h16.187V38.156z
	 M69.434,39.931l-3.528,3.528l-5.302-5.303l3.528-3.527h0.001c0.706-0.709,1.648-1.098,2.65-1.098c2.067,0,3.748,1.682,3.748,3.75
	C70.531,38.268,70.131,39.234,69.434,39.931z"/>
<path fill="#00A2B8" d="M13.875,5.781h2.313v2.313h-2.313V5.781z"/>
<path fill="#00A2B8" d="M9.25,5.781h2.313v2.313H9.25V5.781z"/>
<path fill="#00A2B8" d="M18.5,5.781h2.313v2.313H18.5V5.781z"/>
<path fill="#00A2B8" d="M13.948,34.33l4.636-13.88l2.194,0.733l-4.636,13.88L13.948,34.33z"/>
<path fill="#00A2B8" d="M22.308,23.942l3.808,3.808l-3.808,3.808l1.635,1.635l5.442-5.443l-5.442-5.442L22.308,23.942z"/>
<path fill="#00A2B8" d="M10.745,22.308L5.303,27.75l5.442,5.443l1.635-1.635L8.573,27.75l3.807-3.808L10.745,22.308z"/>
<path fill="#00A2B8" d="M58.969,15.031H38.156v11.563h20.813V15.031z M56.656,24.281H40.469v-6.937h16.187V24.281z"/>
<path fill="#00A2B8" d="M10.406,65.906h18.5v2.313h-18.5V65.906z"/>
<path fill="#00A2B8" d="M10.406,61.281h23.125v2.313H10.406V61.281z"/>
<path fill="#00A2B8" d="M12.719,58.969h2.312v-2.313h2.313v-2.312h-2.313V42.781h-2.312v11.563h-2.313v2.312h2.313V58.969z"/>
<path fill="#00A2B8" d="M21.969,58.969h2.312V47.406h2.313v-2.312h-2.313v-2.313h-2.312v2.313h-2.313v2.312h2.313V58.969z"/>
<path fill="#00A2B8" d="M35.844,52.031v-2.312h-2.313v-6.938h-2.312v6.938h-2.313v2.312h2.313v6.938h2.312v-6.938H35.844z"/>
<path fill="#00A2B8" d="M31.219,65.906h2.312v2.313h-2.312V65.906z"/>
<path fill="#00A2B8" d="M56.656,56.656h2.313v2.313h-2.313V56.656z"/>
<path fill="#00A2B8" d="M56.656,65.906h2.313v2.313h-2.313V65.906z"/>
<path fill="#00A2B8" d="M56.656,61.281h2.313v2.313h-2.313V61.281z"/>
</svg>
