<?xml version="1.0" encoding="utf-8"?>
<!-- Generator: Adobe Illustrator 17.0.0, SVG Export Plug-In . SVG Version: 6.00 Build 0)  -->
<!DOCTYPE svg PUBLIC "-//W3C//DTD SVG 1.1//EN" "http://www.w3.org/Graphics/SVG/1.1/DTD/svg11.dtd">
<svg version="1.1" id="Layer_1" xmlns="http://www.w3.org/2000/svg" xmlns:xlink="http://www.w3.org/1999/xlink" x="0px" y="0px"
	 width="80px" height="80px" viewBox="-18 -2 80 80" enable-background="new -18 -2 80 80" xml:space="preserve">
<path fill="#00A2B8" d="M37.878,0H5.971c-3.075,0-5.58,2.504-5.58,5.58v64.839c0,3.077,2.504,5.581,5.58,5.581h31.906
	c3.077,0,5.581-2.504,5.581-5.58V5.58C43.458,2.504,40.954,0,37.878,0z M2.924,10.133h38v48.133h-38V10.133z M5.971,2.533h31.906
	c1.681,0,3.048,1.367,3.048,3.046V7.6h-38V5.58C2.924,3.9,4.291,2.533,5.971,2.533z M37.878,73.467H5.971
	c-1.68,0-3.046-1.367-3.046-3.046V60.8h38v9.62C40.924,72.1,39.558,73.467,37.878,73.467z"/>
<path fill="#00A2B8" d="M21.925,62.067c-2.794,0-5.067,2.272-5.067,5.067c0,2.794,2.272,5.067,5.067,5.067
	c2.794,0,5.067-2.272,5.067-5.067C26.991,64.339,24.719,62.067,21.925,62.067z M21.925,69.667c-1.397,0-2.533-1.136-2.533-2.533
	c0-1.397,1.136-2.533,2.533-2.533c1.397,0,2.533,1.136,2.533,2.533C24.458,68.531,23.322,69.667,21.925,69.667z"/>
<path fill="#00A2B8" d="M16.858,6.333h5.067c0.7,0,1.267-0.566,1.267-1.267S22.625,3.8,21.925,3.8h-5.067
	c-0.701,0-1.267,0.566-1.267,1.267S16.157,6.333,16.858,6.333z"/>
<path fill="#00A2B8" d="M25.724,6.333h1.267c0.7,0,1.267-0.566,1.267-1.267S27.691,3.8,26.991,3.8h-1.267
	c-0.7,0-1.267,0.566-1.267,1.267S25.024,6.333,25.724,6.333z"/>
<path fill="#00A2B8" d="M11.102,40.246l-0.057,0.053l1.238,0.897c0.041,0.029,0.084,0.053,0.124,0.082
	c0.244,0.175,0.495,0.34,0.751,0.502c0.156,0.099,0.313,0.194,0.471,0.286c0.242,0.142,0.484,0.281,0.732,0.41
	c0.209,0.109,0.423,0.208,0.637,0.308c0.213,0.099,0.42,0.204,0.638,0.294c0.424,0.177,0.856,0.334,1.293,0.475
	c0.152,0.049,0.309,0.086,0.462,0.13c0.328,0.095,0.657,0.182,0.992,0.256c0.172,0.038,0.344,0.071,0.518,0.103
	c0.342,0.065,0.685,0.117,1.032,0.158c0.157,0.019,0.313,0.041,0.47,0.056c0.503,0.047,1.01,0.077,1.52,0.077
	c0.51,0,1.016-0.03,1.519-0.077c0.158-0.015,0.313-0.037,0.47-0.056c0.347-0.042,0.692-0.094,1.034-0.158
	c0.172-0.032,0.343-0.065,0.514-0.103c0.338-0.075,0.671-0.162,1.003-0.258c0.149-0.043,0.302-0.08,0.45-0.127
	c0.438-0.141,0.871-0.298,1.298-0.475c0.209-0.086,0.409-0.187,0.614-0.282c0.223-0.104,0.446-0.207,0.664-0.321
	c0.241-0.125,0.475-0.26,0.708-0.396c0.169-0.099,0.337-0.2,0.503-0.305c0.245-0.155,0.485-0.313,0.72-0.479
	c0.043-0.03,0.09-0.057,0.133-0.089l1.282-0.926l-0.063-0.056c3.435-3.021,5.619-7.435,5.619-12.359
	c0-9.079-7.387-16.467-16.467-16.467c-9.08,0-16.467,7.387-16.467,16.467C5.458,32.802,7.651,37.226,11.102,40.246z M18.529,41.364
	c-0.502-0.124-0.996-0.281-1.482-0.462c-0.057-0.021-0.115-0.041-0.172-0.063c-0.5-0.194-0.992-0.414-1.468-0.667l3.076-1.677
	c0.945-0.515,1.531-1.505,1.531-2.58v-2.138l-0.295-0.352c-0.01-0.013-1.018-1.25-1.398-2.906l-0.17-0.591l-0.433-0.28l0.042-1.914
	l0.418-0.378v-3.217l-0.011-0.166c-0.001-0.009-0.091-0.942,0.543-1.666c0.591-0.674,1.715-1.031,3.249-1.031
	c1.517,0,2.636,0.35,3.231,1.012c0.654,0.724,0.564,1.663,0.561,1.686l-0.011,2.821l0.042,0.64l0.418,0.377v1.837
	c0,0.053-0.051,0.089-0.082,0.099l-0.631,0.194l-0.203,0.629c-0.282,0.877-0.683,1.685-1.193,2.404
	c-0.118,0.168-0.229,0.312-0.327,0.422l-0.318,0.36v2.2c0,1.12,0.622,2.127,1.623,2.627l3.273,1.637
	c-0.019,0.01-0.038,0.018-0.056,0.027c-0.446,0.232-0.906,0.435-1.373,0.613c-0.08,0.03-0.16,0.058-0.239,0.087
	c-0.475,0.171-0.959,0.322-1.45,0.441c-0.013,0.002-0.024,0.006-0.037,0.009c-2.171,0.514-4.462,0.505-6.63-0.027
	C18.547,41.369,18.538,41.367,18.529,41.364z M21.924,13.933c7.682,0,13.933,6.251,13.933,13.933c0,4.326-1.981,8.195-5.083,10.753
	c-0.062-0.034-0.122-0.077-0.185-0.109l-4.384-2.191c-0.137-0.068-0.226-0.21-0.226-0.362v-1.273c0.06-0.079,0.12-0.161,0.181-0.247
	c0.555-0.782,1.01-1.644,1.354-2.569c0.75-0.475,1.22-1.301,1.22-2.22v-1.837c0-0.528-0.163-1.044-0.46-1.478v-2.128
	c0.041-0.457,0.091-2.139-1.16-3.567c-1.102-1.257-2.836-1.895-5.154-1.895s-4.052,0.638-5.154,1.895
	c-1.25,1.427-1.201,3.108-1.16,3.567v2.128c-0.296,0.434-0.46,0.95-0.46,1.478v1.837c0,0.711,0.284,1.376,0.776,1.867
	c0.408,1.443,1.118,2.579,1.519,3.144v1.255c0,0.148-0.081,0.285-0.212,0.356l-4.094,2.234c-0.047,0.025-0.09,0.06-0.136,0.086
	c-3.083-2.559-5.05-6.416-5.05-10.724C7.991,20.184,14.242,13.933,21.924,13.933z"/>
<path fill="#00A2B8" d="M14.324,46.867H4.191V57h10.133h25.333V46.867H14.324z M6.724,54.467V49.4h5.067v5.067H6.724z
	 M37.124,54.467h-22.8V49.4h22.8V54.467z"/>
</svg>
