<?xml version="1.0" encoding="utf-8"?>
<!-- Generator: Adobe Illustrator 17.0.0, SVG Export Plug-In . SVG Version: 6.00 Build 0)  -->
<!DOCTYPE svg PUBLIC "-//W3C//DTD SVG 1.1//EN" "http://www.w3.org/Graphics/SVG/1.1/DTD/svg11.dtd">
<svg version="1.1" id="Layer_1" xmlns="http://www.w3.org/2000/svg" xmlns:xlink="http://www.w3.org/1999/xlink" x="0px" y="0px"
	 width="80px" height="80px" viewBox="-1.5 -3 80 80" enable-background="new -1.5 -3 80 80" xml:space="preserve">
<path fill="#00A2B8" d="M75.377,0H2.47C1.616,0,0.924,0.674,0.924,1.506v70.988C0.924,73.326,1.616,74,2.47,74h72.907
	c0.854,0,1.547-0.674,1.547-1.506V1.506C76.924,0.674,76.231,0,75.377,0z M4.017,70.988V3.012H73.83v10.037H9.281
	c-0.854,0-1.547,0.674-1.547,1.506c0,0.832,0.693,1.506,1.547,1.506h64.55v54.927H4.017z"/>
<path fill="#00A2B8" d="M9.151,9.535c0.407,0,0.807-0.161,1.095-0.439c0.286-0.281,0.451-0.668,0.451-1.064
	s-0.165-0.786-0.451-1.067C9.958,6.686,9.559,6.526,9.151,6.526c-0.405,0-0.804,0.161-1.093,0.439
	c-0.286,0.281-0.451,0.67-0.451,1.067s0.165,0.783,0.451,1.064C8.347,9.374,8.744,9.535,9.151,9.535z"/>
<path fill="#00A2B8" d="M14.307,9.538c0.407,0,0.807-0.161,1.093-0.442c0.288-0.281,0.454-0.67,0.454-1.067
	c0-0.394-0.165-0.783-0.454-1.064c-0.286-0.281-0.686-0.442-1.093-0.442c-0.407,0-0.807,0.161-1.093,0.442
	c-0.289,0.281-0.454,0.67-0.454,1.064c0,0.397,0.165,0.786,0.454,1.067C13.501,9.377,13.9,9.538,14.307,9.538z"/>
<path fill="#00A2B8" d="M19.46,9.535c0.407,0,0.807-0.161,1.096-0.439c0.288-0.281,0.454-0.67,0.454-1.067
	c0-0.394-0.165-0.783-0.454-1.064c-0.289-0.279-0.688-0.439-1.096-0.439c-0.407,0-0.804,0.161-1.093,0.439
	c-0.286,0.281-0.451,0.67-0.451,1.064c0,0.397,0.165,0.786,0.451,1.067C18.656,9.374,19.053,9.535,19.46,9.535z"/>
<path fill="#00A2B8" d="M64.459,41.03c-0.781-0.336-1.694,0.009-2.039,0.77c-4.111,9.07-13.334,14.93-23.496,14.93
	c-9.933,0-18.969-5.599-23.211-14.322c4.242-8.723,13.278-14.322,23.211-14.322c7.202,0,14.118,2.979,18.975,8.172
	c0.575,0.615,1.553,0.66,2.185,0.1c0.632-0.56,0.677-1.512,0.102-2.127c-5.441-5.819-13.191-9.156-21.262-9.156
	c-11.387,0-21.72,6.565-26.326,16.726c-0.176,0.387-0.176,0.829,0,1.216c4.606,10.16,14.94,16.726,26.326,16.726
	c11.387,0,21.721-6.565,26.326-16.726C65.595,42.255,65.241,41.366,64.459,41.03z"/>
<path fill="#00A2B8" d="M28.132,42.408c0,5.794,4.841,10.508,10.792,10.508c5.951,0,10.792-4.714,10.792-10.508
	c0-5.794-4.841-10.508-10.792-10.508C32.973,31.899,28.132,36.613,28.132,42.408z M46.623,42.408c0,4.133-3.454,7.496-7.699,7.496
	c-4.245,0-7.699-3.363-7.699-7.496c0-4.134,3.453-7.497,7.699-7.497C43.169,34.911,46.623,38.274,46.623,42.408z"/>
</svg>
