<svg width="1437px" height="277px" viewBox="0 0 1437 277" xmlns="http://www.w3.org/2000/svg">
<g id="star_2" opacity="0.8">
	<path fill="#656565" fill-opacity="0.2" d="M1139.63,277c-8.28,0-15-6.716-15-15s6.72-15,15-15c8.29,0,15,6.716,15,15
		S1147.92,277,1139.63,277z"/>
	<path fill="#656565" fill-opacity="0.4" d="M1139.63,272c-5.52,0-10-4.477-10-10s4.48-10,10-10s10,4.477,10,10
		S1145.15,272,1139.63,272z"/>
	<path fill="#656565" d="M1139.63,267c-2.76,0-5-2.239-5-5s2.24-5,5-5s5,2.239,5,5S1142.39,267,1139.63,267z"/>
</g>
<g id="star_1" opacity="0.8">
	<path fill="#239DF5" fill-opacity="0.2" d="M994.631,95c-8.284,0-15-6.716-15-15s6.716-15,15-15c8.289,0,14.999,6.716,14.999,15
		S1002.92,95,994.631,95z"/>
	<path fill="#7893F2" fill-opacity="0.4" d="M994.631,90c-5.523,0-10-4.477-10-10s4.477-10,10-10c5.519,0,9.999,4.477,9.999,10
		S1000.15,90,994.631,90z"/>
	<path fill="#255FF5" d="M994.631,85c-2.762,0-5-2.239-5-5s2.238-5,5-5c2.761,0,5,2.239,5,5S997.392,85,994.631,85z"/>
	<animate
		attributeName="opacity"
		attributeType="XML"
        values="1; .3; 1"
        begin="0.5s" 
        dur="4.0s"
        repeatCount="indefinite"
    />
</g>
<g id="lines" opacity="0.5">
	
	<linearGradient id="line_2_1_" gradientUnits="userSpaceOnUse" x1="697.1854" y1="40.504" x2="697.1854" y2="242.6972" gradientTransform="matrix(1 0 0 -1 24.945 268.36)">
		<stop  offset="0" style="stop-color:#28A07C"/>
		<stop  offset="1" style="stop-color:#5E5CD1"/>
		<animate
			attributeName="x1"
			attributeType="XML"
	        from="-900"
    		to="2000"
	        begin="0s" dur="3s"
	        repeatCount="indefinite"
	    />
	    <animate
	        attributeName="x2"
			attributeType="XML"
	        from="0"
    		to="2000"
	        begin="0s" dur="3s"
	        repeatCount="indefinite"
	    />
	</linearGradient>
	<path id="line_2" fill="none" stroke="url(#line_2_1_)" stroke-width="3" stroke-linecap="round" d="M1.631,93.283
		c0,0,58.1,168.529,90.138,168.529c32.038,0,45.213-177.845,79.862-200.601s46.684,27.822,50,32.072
		c3.316,4.25,39.841,156.886,66,160.575c26.159,3.69,64.072-79.437,87.902-109.788c33.437-42.588,78.598-12.071,103.098,26.929
		s33,49,50,69c17,20,47.056,36.209,79.49,0c32.434-36.21,77.79-151.604,95.234-178.788c17.445-27.184,38.861-38.83,67.624,9.41
		c28.763,48.239,62.08,109.115,62.08,109.115s13.325,27.801,44.462,24.37s38.706-29.255,55.384-46.164
		c16.677-16.91,45.882-39.755,86.045,0c40.17,39.755,43.7,41.183,78.68,54.058c42.77,15.74,79,57,116.58,5.383
		c37.57-51.617,44.93-61.676,78.72-100.883c33.8-39.207,56.43-22.479,75.7,0c25.1,29.275,14.71,82.888,74,111.5"/>
	
	<linearGradient id="line_1_1_" gradientUnits="userSpaceOnUse" x1="514.5099" y1="-403.6193" x2="808.8689" y2="461.2537" gradientTransform="matrix(1 0 0 -1 24.945 268.36)">
		<stop  offset="0" style="stop-color:#1AB1E0"/>
		<stop  offset="1" style="stop-color:#005069"/>
	</linearGradient>
	
		<path id="line_1" opacity="0.3" fill="none" stroke="url(#line_1_1_)" stroke-width="3" stroke-linecap="round" enable-background="new    " d="
		M1437.63,95.999c0,0-40.97,122-73,122s-42-100-66.47-131.981c-25.53-51.019-42.53-10.539-59.53,17.721
		c-17,28.26-66.84,158.332-93,161.26c-26.15,2.928-55.13-47.311-89-110.259c-21-39.035-56.19-92.665-78.999-68.722
		c-22.81,23.944-65.922,68.721-65.922,68.721s-24.989,40.037-57.417,11.304C821.863,137.31,773.334,46.02,764.974,29.715
		c-8.361-16.305-42.998-48.072-71.756-9.793s-48.711,75.399-64.587,106.077c-15.876,30.677-28.869,78.723-60,76
		c-31.132-2.723-42.048-43.734-65-84.965c-16.342-29.357-32-36.178-64.987-10.267c-40.159,31.546-90.743,93.396-110.513,110.232
		c-19.771,16.835-83.023,65.542-116.556,4.271s-24.944-77.871-33.533-104.236c-9.668-29.679-47.194-45.376-73.09-13.135
		c-25.896,32.24-44.834,78.979-103.321,85.291"/>
</g>
</svg>
