<svg width="1440px" height="328px" viewBox="0 0 1440 328" fill="none" xmlns="http://www.w3.org/2000/svg">
<g id="lines" opacity="0.5">		
	<path id="line_1" fill="none" stroke="url(#line_1_1_)" stroke-width="3" stroke-linecap="round" d="M-148.501,235.407
	c0,0,69.744-189.636,108.202-189.636S40.256,187.905,68.499,223.994s53.45,36.914,74.676,11.413
	c21.226-25.5,46.223-93.13,77.624-97.281c31.401-4.152,58.427,51.716,87.032,85.868c40.139,47.922,83.169-0.286,110.555-34.24
	c27.386-33.953,65.862-79.05,65.862-79.05s50.484-72.854,89.418-32.109c38.934,40.745,99.246,162.313,120.186,192.901
	s46.649,43.693,81.176-10.588c34.528-54.282,74.521-122.782,74.521-122.782s15.995-31.283,53.372-27.422
	c37.377,3.861,46.464,32.919,66.483,51.946c20.02,19.028,55.075,44.735,103.295,0c48.21-44.734,77.66-84.055,101.4-107.929
	s72.52-64.602,139.94-6.057c46.28,48.126,46.98,48.715,87.55,92.832c34.62,37.647,50.5,25.294,73.63,0
	c30.12-32.941,50.99-63.529,122.16-95.725"/>	
	<path id="line_2" opacity="0.3" fill="none" stroke="url(#line_2_1_)" stroke-width="3" stroke-linecap="round" enable-background="new    " d="
	M-132.03,287.414c0,0,44.156-115.424,82.608-115.424c38.452,0,92.469,97.633,134.054,115.424
	c41.586,17.79,61.287,10.369,84.666-9.833c23.379-20.203,43.863-66.615,75.258-69.5c31.396-2.884,29.398,16.475,85.865,69.5
	c36.43,28.183,59.436,18.529,86.817-5.061c27.381-23.59,87.683-111.702,87.683-111.702s29.996-39.446,68.924-11.137
	c38.927,28.309,97.181,118.251,107.217,134.316c10.036,16.064,51.615,47.361,86.136,9.648
	c34.522-37.714,82.481-102.603,82.481-102.603s15.993-21.735,53.363-19.052c37.371,2.683,46.456,22.871,66.472,36.091
	c20.017,13.22,55.066,31.081,103.276,0c48.21-31.08,77.65-58.4,101.39-74.987c23.73-16.587,72.5-44.885,139.91-4.208
	c52.7,44.963,38.59,42.61,71.53,69.081c26.77,21.514,56.65,44.705,87.74,12.941c31.08-31.765,53.81-77.814,124.02-84.032"/>
</g>
<g id="star_1" opacity="0.8">
	<circle opacity="0.2" fill="#239DF5" cx="227.471" cy="138.6" r="17.647"/>
	<circle opacity="0.4" fill="#7893F2" cx="227.471" cy="138.6" r="11.765"/>
	<circle fill="#255FF5" cx="227.471" cy="138.6" r="5.882"/>
	<animate
		attributeName="opacity"
		attributeType="XML"
        values="1; .3; 1"
        begin="0.5s" 
        dur="4.0s"
        repeatCount="indefinite"
    />
</g>
<g id="star_2" opacity="0.8">
	<circle opacity="0.2" fill="#23DCF5" cx="552.177" cy="68.012" r="17.647"/>
	<circle opacity="0.3" fill="#78EBF2" cx="552.177" cy="68.012" r="11.765"/>
	<circle fill="#25F5F5" cx="552.177" cy="68.012" r="5.882"/>
	<animate
		attributeName="opacity"
		attributeType="XML"
        values="1; .3; 1"
        begin="2s" 
        dur="4s"
        repeatCount="indefinite"
    />
</g>
<g id="star_3" opacity="0.8">
	<circle opacity="0.2" fill="#239DF5" cx="894.529" cy="172.718" r="17.647"/>
	<circle opacity="0.4" fill="#7893F2" cx="894.53" cy="172.718" r="11.765"/>
	<circle fill="#255FF5" cx="894.53" cy="172.718" r="5.882"/>
	<animate
		attributeName="opacity"
		attributeType="XML"
        values="1; .2; 1"
        begin="2s" 
        dur="4s"
        repeatCount="indefinite"
    />
</g>
<g id="star_4" opacity="0.8">
	<circle opacity="0.2" fill="#23DCF5" cx="1243.941" cy="18.6" r="17.647"/>
	<circle opacity="0.3" fill="#78EBF2" cx="1243.941" cy="18.6" r="11.765"/>
	<circle fill="#25F5F5" cx="1243.941" cy="18.6" r="5.882"/>
    <animate
		attributeName="opacity"
		attributeType="XML"
        values="1; .3; 1"
        begin="2s" 
        dur="4s"
        repeatCount="indefinite"
    />
</g>
<defs>
	<linearGradient id="line_1_1_" gradientUnits="userSpaceOnUse" x1="724.3337" y1="-397.2184" x2="724.3337" y2="-624.736" gradientTransform="matrix(1 0 0 -1 0.105 -313.24)">
		<stop  offset="0" style="stop-color:#28A07C"/>
		<stop  offset="1" style="stop-color:#5E5CD1"/>
		<animate
			attributeName="x1"
			attributeType="XML"
	        from="-900"
    		to="2000"
	        begin="0s" dur="3s"
	        repeatCount="indefinite"
	    />
	    <animate
	        attributeName="x2"
			attributeType="XML"
	        from="0"
    		to="2000"
	        begin="0s" dur="3s"
	        repeatCount="indefinite"
	    />
	</linearGradient>
	<linearGradient id="line_2_1_" gradientUnits="userSpaceOnUse" x1="892.4828" y1="52.0805" x2="646.1069" y2="-829.9065" gradientTransform="matrix(1 0 0 -1 0.105 -313.24)">
		<stop  offset="0" style="stop-color:#1AB1E0"/>
		<stop  offset="1" style="stop-color:#005069"/>
	</linearGradient>
</defs>
</svg>
