<svg width="1444px" height="276.697px" viewBox="-1.5 22.303 1444 276.697" xmlns="http://www.w3.org/2000/svg">
<g opacity="0.5">
	<linearGradient id="line_2_1_" gradientUnits="userSpaceOnUse" x1="720.395" y1="57.904" x2="720.395" y2="260.0974" gradientTransform="matrix(1 0 0 -1 0.105 307.76)">
		<stop  offset="0" style="stop-color:#28A07C"/>
		<stop  offset="1" style="stop-color:#5E5CD1"/>
		<animate
			attributeName="x1"
			attributeType="XML"
	        from="-900"
    		to="2000"
	        begin="0s" dur="3s"
	        repeatCount="indefinite"
	    />
	    <animate
	        attributeName="x2"
			attributeType="XML"
	        from="0"
    		to="2000"
	        begin="0s" dur="3s"
	        repeatCount="indefinite"
	    />
	</linearGradient>
	<path id="line_2" fill="none" stroke="url(#line_2_1_)" stroke-width="3" stroke-linecap="round" d="M1441,115.283
		c0,0-58.1,168.529-90.14,168.529S1305.65,105.966,1271,83.211c-34.65-22.756-46.68,27.822-50,32.072
		c-3.32,4.25-39.84,156.886-66,160.575s-64.07-79.437-87.9-109.788c-33.44-42.588-78.6-12.072-103.1,26.928s-33,49-50,69
		s-47.056,36.21-79.49,0c-32.434-36.21-77.79-151.603-95.234-178.787c-17.445-27.184-38.861-38.83-67.625,9.41
		c-28.763,48.239-62.079,109.115-62.079,109.115s-13.325,27.801-44.462,24.37c-31.137-3.432-38.706-29.255-55.384-46.165
		c-16.678-16.909-45.882-39.755-86.049,0C383.511,219.696,379.985,221.125,345,234c-42.77,15.74-79,57-116.576,5.383
		s-44.932-61.676-78.728-100.883C115.9,99.293,93.27,116.021,74,138.5C48.905,167.775,59.294,221.388,0,250"/>
	<linearGradient id="line_1_1_" gradientUnits="userSpaceOnUse" x1="903.0699" y1="-386.2189" x2="608.712" y2="478.6534" gradientTransform="matrix(1 0 0 -1 0.105 307.76)">
		<stop  offset="0" style="stop-color:#1AB1E0"/>
		<stop  offset="1" style="stop-color:#005069"/>
	</linearGradient>
	
		<path id="line_1" opacity="0.3" fill="none" stroke="url(#line_1_1_)" stroke-width="3" stroke-linecap="round" enable-background="new    " d="
		M5,117.998c0,0,40.967,122.001,73,122.001c32.032,0,42-100,66.469-131.981C170,56.999,187,97.479,204,125.739
		c17,28.26,66.846,158.332,93,161.26c26.154,2.927,55.135-47.311,89-110.259c21-39.035,56.19-92.666,79-68.722
		c22.81,23.944,65.922,68.721,65.922,68.721s24.989,40.036,57.417,11.303c32.429-28.733,80.957-120.022,89.318-136.328
		c8.36-16.305,42.998-48.071,71.756-9.793C778.171,80.2,798.124,117.321,814,147.998c15.876,30.678,28.869,78.723,60,76
		c31.132-2.723,42.047-43.733,65-84.965c16.342-29.356,32-36.177,64.986-10.266c40.164,31.546,90.744,93.396,110.514,110.231
		c19.77,16.836,83.02,65.543,116.56,4.272c33.53-61.272,24.94-77.871,33.53-104.237c9.67-29.678,47.19-45.375,73.09-13.135
		c25.89,32.241,44.83,78.98,103.32,85.292"/>
	<g id="star_2" opacity="0.8">
		<path fill="#239DF5" fill-opacity="0.2" d="M447.481,87c-8.284,0-15,6.716-15,15s6.716,15,15,15s15-6.716,15-15
			S455.765,87,447.481,87z"/>
		<path fill="#7893F2" fill-opacity="0.4" d="M447.481,92c-5.523,0-10,4.477-10,10s4.477,10,10,10s10-4.477,10-10
			S453.004,92,447.481,92z"/>
		<path fill="#255FF5" d="M447.481,97c-2.762,0-5,2.239-5,5s2.238,5,5,5c2.761,0,5-2.239,5-5S450.242,97,447.481,97z"/>
		<animate
			attributeName="opacity"
			attributeType="XML"
	        values="1; .3; 1"
	        begin="0.5s" 
	        dur="4.0s"
	        repeatCount="indefinite"
	    />
	</g>
	<g id="star_1" opacity="0.8">
		<path fill-opacity="0.2" d="M302.981,269c-8.284,0-15,6.716-15,15s6.716,15,15,15s15-6.716,15-15S311.265,269,302.981,269z"/>
		<path fill-opacity="0.4" d="M302.981,274c-5.523,0-10,4.477-10,10s4.477,10,10,10s10-4.477,10-10S308.504,274,302.981,274z"/>
		<path d="M302.981,279c-2.762,0-5,2.239-5,5c0,2.761,2.238,5,5,5c2.761,0,5-2.239,5-5C307.981,281.239,305.742,279,302.981,279z"/>
	</g>
</g>
</svg>
