<svg width="40" height="40" viewBox="0 0 40 40" fill="none" xmlns="http://www.w3.org/2000/svg">
<g clip-path="url(#clip0)">
<path d="M30.6506 17.6618C30.6506 16.3955 29.6204 15.3654 28.3541 15.3654H24.1336C25.159 14.2128 25.8292 12.9004 25.9586 11.723C26.0377 11.0038 25.8155 10.29 25.3488 9.76444C24.9224 9.28405 24.3392 9.01631 23.7067 9.01045C23.6993 9.01038 23.692 9.01038 23.6847 9.01038C23.0729 9.01038 22.4987 9.246 22.0653 9.67538C21.6319 10.1048 21.392 10.6769 21.3892 11.2875C21.367 11.4212 21.1318 11.882 20.5564 12.4292C20.0853 12.8773 19.2716 13.4933 18.0701 13.8834C17.599 14.0364 17.1685 14.318 16.7905 14.7205C16.5921 14.9316 16.2951 15.2232 15.9274 15.5158C15.7469 15.4202 15.5417 15.3655 15.3236 15.3655H11.3152C10.6015 15.3655 10.0209 15.9462 10.0209 16.6599V27.3488C10.0209 28.0626 10.6015 28.6432 11.3152 28.6432H15.3236C15.8102 28.6432 16.2345 28.373 16.4556 27.9751H26.6839C27.766 27.9751 28.6463 27.0948 28.6463 26.0127C28.6463 25.6489 28.5469 25.308 28.3736 25.0155C28.9374 24.6703 29.3144 24.0486 29.3144 23.3405C29.3144 22.9766 29.2149 22.6357 29.0417 22.3432C29.6055 21.998 29.9824 21.3763 29.9824 20.6682C29.9824 20.2587 29.8563 19.878 29.641 19.563C30.2498 19.1495 30.6506 18.4516 30.6506 17.6618ZM28.3541 18.7056H28.02C27.6742 18.7056 27.3937 18.986 27.3937 19.3319C27.3937 19.6778 27.6741 19.9583 28.02 19.9583C28.4114 19.9583 28.7299 20.2767 28.7299 20.6681C28.7299 21.0595 28.4114 21.378 28.02 21.378H27.352C27.0061 21.378 26.7256 21.6583 26.7256 22.0043C26.7256 22.3501 27.006 22.6306 27.352 22.6306C27.7434 22.6306 28.0618 22.9491 28.0618 23.3405C28.0618 23.7319 27.7434 24.0503 27.352 24.0503H26.6839C26.3381 24.0503 26.0576 24.3307 26.0576 24.6766C26.0576 25.0225 26.338 25.303 26.6839 25.303C27.0753 25.303 27.3938 25.6214 27.3938 26.0128C27.3938 26.4042 27.0753 26.7226 26.6839 26.7226H16.618V20.6683C16.618 20.3225 16.3376 20.042 15.9917 20.042C15.6457 20.042 15.3653 20.3224 15.3653 20.6683V27.3489C15.3653 27.3719 15.3467 27.3906 15.3236 27.3906H11.3152C11.2922 27.3906 11.2735 27.3719 11.2735 27.3489V16.6597C11.2735 16.6366 11.2922 16.618 11.3152 16.618H15.3236C15.3467 16.618 15.3653 16.6366 15.3653 16.6597V17.9958C15.3653 18.3417 15.6457 18.6222 15.9917 18.6222C16.3376 18.6222 16.618 18.3418 16.618 17.9958V16.6597C16.618 16.6293 16.6155 16.5995 16.6134 16.5697C17.083 16.2062 17.4585 15.8387 17.7035 15.5779C17.9353 15.3309 18.1888 15.1617 18.4568 15.0748C19.931 14.5962 20.9231 13.8255 21.4957 13.2633C22.2134 12.5587 22.6417 11.8242 22.6417 11.2983C22.6417 11.0205 22.7501 10.7601 22.9469 10.5651C23.1461 10.3677 23.4099 10.2634 23.695 10.263C24.0461 10.2663 24.2786 10.4459 24.412 10.5961C24.6406 10.8535 24.7531 11.2237 24.7133 11.5861C24.5765 12.8305 23.5813 14.3688 22.1778 15.5049C21.9717 15.6719 21.893 15.9506 21.9815 16.2007C22.07 16.4508 22.3066 16.618 22.5719 16.618H28.3539C28.9295 16.618 29.3977 17.0862 29.3977 17.6618C29.3977 18.2374 28.9296 18.7056 28.3541 18.7056Z" fill="url(#paint0_linear)"/>
<path d="M13.3194 24.7114C12.9736 24.7114 12.6898 24.9952 12.6898 25.341C12.6898 25.6869 12.9736 25.9706 13.3194 25.9706C13.6653 25.9706 13.949 25.6869 13.949 25.341C13.9491 24.9953 13.6654 24.7114 13.3194 24.7114Z" fill="url(#paint1_linear)"/>
<path d="M38.8833 20.0003L39.9592 17.1532C40.0375 16.9461 40.0006 16.7131 39.8621 16.5402L37.959 14.1649L38.1025 11.1246C38.1129 10.9035 38.0057 10.6931 37.8208 10.5717L35.2768 8.90065L34.4739 5.96487C34.4154 5.75127 34.2486 5.5844 34.035 5.52604L31.0993 4.72307L29.4283 2.17924C29.3067 1.99417 29.0964 1.88745 28.8753 1.89752L25.835 2.04096L23.4597 0.137915C23.2869 -0.000522383 23.0539 -0.0374755 22.8467 0.0408057L19.9996 1.11674L17.1526 0.0408839C16.9454 -0.0374755 16.7124 -0.000522392 16.5396 0.137993L14.1643 2.04104L11.124 1.8976C10.9018 1.88713 10.6925 1.99432 10.5711 2.17932L8.90013 4.72323L5.96434 5.5262C5.75075 5.58463 5.58388 5.75151 5.52552 5.96502L4.72255 8.90081L2.17864 10.5717C1.99356 10.6933 1.88645 10.9036 1.89692 11.1247L2.04036 14.1649L0.137314 16.5403C-0.00112359 16.7131 -0.0380767 16.9461 0.0402045 17.1533L1.11606 20.0003L0.0401264 22.8474C-0.038233 23.0545 -0.00127984 23.2875 0.137236 23.4604L2.04028 25.8357L1.89685 28.876C1.88638 29.0971 1.99356 29.3074 2.17856 29.4289L4.72247 31.0999L5.52544 34.0357C5.58388 34.2493 5.75075 34.4162 5.96427 34.4746L8.90005 35.2775L10.571 37.8214C10.6925 38.0065 10.9033 38.1129 11.124 38.1031L14.1642 37.9597L16.5395 39.8628C16.7123 40.0013 16.9454 40.0382 17.1525 39.9599L19.9997 38.8839L22.8468 39.9599C22.9186 39.987 22.9936 40.0003 23.0681 40.0003C23.2084 40.0003 23.3469 39.9532 23.4597 39.8628L25.835 37.9597L28.8753 38.1031C29.0971 38.113 29.3067 38.0064 29.4283 37.8214L31.0993 35.2775L34.035 34.4746C34.2486 34.4161 34.4155 34.2492 34.4739 34.0357L35.2768 31.0999L37.8208 29.4289C38.0058 29.3074 38.1129 29.0971 38.1025 28.876L37.959 25.8357L39.8621 23.4604C40.0005 23.2876 40.0375 23.0546 39.9592 22.8474L38.8833 20.0003ZM37.6279 20.2217L38.6611 22.956L36.8335 25.2372C36.7381 25.3562 36.6894 25.506 36.6966 25.6583L36.8344 28.5781L34.3914 30.1828C34.264 30.2665 34.1713 30.3939 34.1311 30.5411L33.3599 33.3606L30.5404 34.1317C30.3933 34.172 30.266 34.2646 30.1822 34.3921L28.5774 36.8351L25.6576 36.6973C25.5052 36.6903 25.3555 36.7388 25.2365 36.8342L22.9554 38.6618L20.2211 37.6285C20.1497 37.6016 20.0747 37.5882 19.9997 37.5882C19.9247 37.5882 19.8496 37.6017 19.7783 37.6285L17.044 38.6618L14.7628 36.8342C14.6438 36.7388 14.4938 36.6903 14.3417 36.6973L11.4219 36.8351L9.81716 34.3921C9.73349 34.2646 9.60606 34.172 9.45888 34.1317L6.63942 33.3606L5.86825 30.5411C5.82802 30.394 5.73544 30.2667 5.60794 30.1828L3.16489 28.5781L3.3027 25.6583C3.30989 25.5059 3.26122 25.3562 3.16583 25.2372L1.33817 22.956L2.37153 20.2217C2.42544 20.0791 2.42544 19.9216 2.37153 19.7789L1.33817 17.0446L3.16583 14.7635C3.26122 14.6445 3.30989 14.4947 3.3027 14.3424L3.16489 11.4226L5.60794 9.81784C5.73536 9.73417 5.82802 9.60674 5.86825 9.45956L6.63942 6.6401L9.45888 5.86893C9.60599 5.8287 9.73333 5.73612 9.81716 5.60862L11.4219 3.16557L14.3417 3.30338C14.4939 3.31049 14.6438 3.2619 14.7628 3.16651L17.044 1.33885L19.7783 2.37221C19.921 2.42612 20.0784 2.42612 20.2211 2.37221L22.9554 1.33885L25.2365 3.16651C25.3555 3.26198 25.5054 3.31057 25.6576 3.30338L28.5774 3.16557L30.1822 5.60862C30.2658 5.73604 30.3933 5.8287 30.5404 5.86893L33.3599 6.6401L34.1311 9.45956C34.1713 9.60667 34.2639 9.73401 34.3914 9.81784L36.8344 11.4226L36.6966 14.3424C36.6894 14.4948 36.7381 14.6445 36.8335 14.7635L38.6611 17.0446L37.6278 19.7789C37.574 19.9217 37.574 20.0791 37.6279 20.2217Z" fill="url(#paint2_linear)"/>
<path d="M31.7682 9.18548C31.6124 9.0158 31.4507 8.84705 31.2875 8.68392C31.1243 8.5208 30.9556 8.35908 30.786 8.20322C30.5312 7.96931 30.135 7.98619 29.901 8.24103C29.6671 8.4958 29.684 8.89205 29.9388 9.12595C30.0953 9.2697 30.2511 9.41892 30.4017 9.56955C30.5523 9.72009 30.7016 9.87595 30.8454 10.0325C30.9689 10.167 31.1377 10.2353 31.307 10.2353C31.4583 10.2353 31.6101 10.1807 31.7303 10.0703C31.9852 9.8365 32.0021 9.44025 31.7682 9.18548Z" fill="url(#paint3_linear)"/>
<path d="M28.5619 6.49412C25.5415 4.5699 21.9051 3.71474 18.3229 4.0856C14.6881 4.46217 11.2608 6.09513 8.67201 8.68381C5.82303 11.5328 4.16428 15.3175 4.00131 19.3407C3.83936 23.3402 5.16404 27.2233 7.73147 30.2746C7.85529 30.4218 8.03248 30.4976 8.21107 30.4976C8.35342 30.4976 8.49654 30.4494 8.61397 30.3506C8.87857 30.1279 8.91264 29.7328 8.68998 29.4682C6.32428 26.6565 5.10365 23.0779 5.25287 19.3915C5.40303 15.6835 6.93178 12.1954 9.55764 9.56959C11.9436 7.18357 15.1023 5.67849 18.4519 5.33154C21.7546 4.98935 25.1058 5.77756 27.8887 7.55052C28.1805 7.73638 28.5676 7.6506 28.7534 7.35888C28.9394 7.06709 28.8535 6.67998 28.5619 6.49412Z" fill="url(#paint4_linear)"/>
<path d="M33.4774 11.4096C33.2915 11.1178 32.9042 11.032 32.6126 11.2179C32.3208 11.4037 32.2351 11.7909 32.421 12.0826C34.1939 14.8655 34.982 18.2169 34.64 21.5194C34.293 24.869 32.7879 28.0276 30.402 30.4137C27.7761 33.0395 24.288 34.5683 20.5801 34.7185C16.8943 34.8683 13.315 33.6472 10.5034 31.2815C10.2388 31.0588 9.84371 31.0929 9.62098 31.3576C9.39824 31.6222 9.43231 32.0172 9.69699 32.24C12.5814 34.6669 16.2088 35.9835 19.9756 35.9834C20.1935 35.9834 20.4122 35.979 20.631 35.9701C24.6542 35.8072 28.4388 34.1485 31.2879 31.2995C33.8766 28.7108 35.5096 25.2833 35.8861 21.6486C36.257 18.0661 35.4016 14.4298 33.4774 11.4096Z" fill="url(#paint5_linear)"/>
</g>
<defs>
<linearGradient id="paint0_linear" x1="20.3357" y1="9.01038" x2="20.3357" y2="28.6432" gradientUnits="userSpaceOnUse">
<stop stop-color="#0195B6"/>
<stop offset="1" stop-color="#21EADE"/>
</linearGradient>
<linearGradient id="paint1_linear" x1="13.3194" y1="24.7114" x2="13.3194" y2="25.9706" gradientUnits="userSpaceOnUse">
<stop stop-color="#0195B6"/>
<stop offset="1" stop-color="#21EADE"/>
</linearGradient>
<linearGradient id="paint2_linear" x1="19.9997" y1="0.000366211" x2="19.9997" y2="40.0004" gradientUnits="userSpaceOnUse">
<stop stop-color="#0195B6"/>
<stop offset="1" stop-color="#21EADE"/>
</linearGradient>
<linearGradient id="paint3_linear" x1="30.8346" y1="8.03827" x2="30.8346" y2="10.2353" gradientUnits="userSpaceOnUse">
<stop stop-color="#0195B6"/>
<stop offset="1" stop-color="#21EADE"/>
</linearGradient>
<linearGradient id="paint4_linear" x1="16.4198" y1="4.00092" x2="16.4198" y2="30.4976" gradientUnits="userSpaceOnUse">
<stop stop-color="#0195B6"/>
<stop offset="1" stop-color="#21EADE"/>
</linearGradient>
<linearGradient id="paint5_linear" x1="22.7223" y1="11.1197" x2="22.7223" y2="35.9834" gradientUnits="userSpaceOnUse">
<stop stop-color="#0195B6"/>
<stop offset="1" stop-color="#21EADE"/>
</linearGradient>
<clipPath id="clip0">
<rect width="40" height="40" fill="white"/>
</clipPath>
</defs>
</svg>
