<svg width="40" height="40" viewBox="0 0 40 40" fill="none" xmlns="http://www.w3.org/2000/svg">
<g clip-path="url(#clip0)">
<path d="M34.0958 5.82553C30.3149 2.04432 25.2877 -0.0380249 19.9404 -0.0380249C14.593 -0.0380249 9.56585 2.04432 5.78464 5.82553C2.00373 9.60644 -0.0786133 14.6336 -0.0786133 19.981C-0.0786133 24.1911 1.21344 28.2194 3.65805 31.6304C3.91124 31.9837 4.40317 32.0651 4.75653 31.8116C5.11019 31.5585 5.19131 31.0665 4.93812 30.7132C2.68647 27.5711 1.49613 23.8599 1.49613 19.981C1.49613 15.0543 3.41469 10.4225 6.89817 6.93876C10.382 3.45528 15.0137 1.53671 19.9404 1.53671C24.8671 1.53671 29.4988 3.45528 32.9826 6.93876C36.4661 10.4225 38.3846 15.0543 38.3846 19.981C38.3846 24.9077 36.4661 29.5394 32.9826 33.0232C29.4988 36.5067 24.8671 38.4252 19.9404 38.4252C16.0129 38.4252 12.2636 37.2078 9.09881 34.9043C8.74699 34.6483 8.25475 34.7257 7.9988 35.0776C7.74315 35.4291 7.82058 35.9213 8.17209 36.1773C11.6083 38.6781 15.6777 40 19.9404 40C25.2877 40 30.3149 37.9176 34.0961 34.1367C37.877 30.3555 39.9594 25.3283 39.9594 19.981C39.9594 14.6336 37.877 9.60644 34.0958 5.82553Z" fill="url(#paint0_linear)"/>
<path d="M27.9643 28.8796H32.8753C33.146 28.8796 33.398 28.7405 33.5421 28.5112C35.1466 25.9579 35.9947 23.0081 35.9947 19.9809C35.9947 11.1286 28.7927 3.92657 19.9403 3.92657C11.088 3.92657 3.88599 11.1286 3.88599 19.9809C3.88599 23.0081 4.73404 25.9579 6.33858 28.5112C6.48269 28.7405 6.73434 28.8796 7.00504 28.8796H11.9164C12.2937 28.8796 12.6182 28.612 12.6895 28.2411C13.0828 26.1994 14.3081 24.4443 16.0482 23.3655L16.0571 27.0917C16.0599 28.3066 16.6114 29.433 17.5701 30.1818C18.2627 30.7226 19.095 31.0062 19.9452 31.0062C20.254 31.0062 20.5653 30.9688 20.8726 30.8929C20.9058 30.8846 20.9386 30.876 20.9718 30.867C21.0053 30.8578 21.0385 30.8483 21.0708 30.8385C22.2101 30.4949 23.1135 29.658 23.5495 28.5423C23.9922 27.4091 23.8921 26.1588 23.2748 25.1123L21.7191 22.4747C22.8385 22.7546 23.889 23.2954 24.7696 24.0586C26.0205 25.1433 26.8805 26.6286 27.1909 28.2411C27.2625 28.6117 27.587 28.8796 27.9643 28.8796ZM22.0829 27.9689C21.8242 28.6314 21.2895 29.1279 20.6154 29.331C20.5963 29.3369 20.577 29.3424 20.5573 29.3476C20.5567 29.3479 20.5561 29.3479 20.5558 29.3482C20.5358 29.3538 20.5161 29.359 20.4959 29.3639C19.8128 29.5326 19.1 29.3783 18.5395 28.9408C17.9643 28.4916 17.6337 27.8162 17.6318 27.0877L17.6116 18.6105L21.9185 25.9124C22.2885 26.5398 22.3484 27.2892 22.0829 27.9689ZM25.8011 22.8689C24.3671 21.6254 22.561 20.8674 20.679 20.711L17.4957 15.3142C17.3154 15.0081 16.9522 14.8606 16.6093 14.955C16.2667 15.0487 16.0294 15.3606 16.0301 15.7161L16.0442 21.5732C13.6945 22.7097 11.9659 24.7973 11.2905 27.3049H7.44781C6.14654 25.0898 5.46072 22.5669 5.46072 19.9809C5.46072 11.9969 11.9563 5.50131 19.9403 5.50131C27.9243 5.50131 34.4199 11.9969 34.4199 19.9809C34.4199 22.5669 33.7341 25.0898 32.4325 27.3049H28.5896C28.1259 25.5959 27.1512 24.0393 25.8011 22.8689Z" fill="url(#paint1_linear)"/>
<path d="M29.8537 17.9469C29.9296 18.3199 30.2578 18.5771 30.6244 18.5771C30.6766 18.5771 30.7295 18.5718 30.7826 18.5611C31.2085 18.4741 31.4835 18.0581 31.3965 17.6322C31.1458 16.4038 30.6954 15.2273 30.0731 14.1484C30.0707 14.1438 30.0688 14.1392 30.0664 14.1349C30.0627 14.1288 30.0587 14.1236 30.055 14.1177C29.3618 12.924 28.4581 11.8507 27.3809 10.9612C26.8825 10.5497 26.3521 10.1829 25.7972 9.86208C25.7935 9.85993 25.7902 9.85717 25.7868 9.85532C25.7834 9.85348 25.7803 9.85194 25.7769 9.85041C24.0123 8.83489 21.9963 8.28857 19.9404 8.28857C17.8848 8.28857 15.8685 8.83489 14.1039 9.8501C14.1008 9.85194 14.0975 9.85348 14.0944 9.85502C14.0907 9.85717 14.0873 9.85993 14.0839 9.86178C13.529 10.1829 12.9987 10.5494 12.5003 10.9612C11.423 11.8507 10.519 12.924 9.82584 14.1177C9.82215 14.1236 9.81816 14.1288 9.81478 14.1349C9.81201 14.1392 9.81017 14.1438 9.80771 14.1484C9.1855 15.2273 8.73504 16.4038 8.48432 17.6322C8.39736 18.0581 8.67236 18.4741 9.09854 18.5611C9.52503 18.648 9.94045 18.373 10.0274 17.9469C10.1946 17.1277 10.46 16.3482 10.81 15.6187L11.67 16.1153C11.7939 16.1868 11.9294 16.221 12.063 16.221C12.335 16.221 12.5998 16.0796 12.7455 15.827C12.963 15.4503 12.834 14.9688 12.4573 14.7516L11.6003 14.2566C12.3079 13.2313 13.1981 12.3463 14.2185 11.6451L14.7111 12.4978C14.8567 12.7504 15.1213 12.8917 15.3935 12.8917C15.5272 12.8917 15.6624 12.8576 15.7865 12.786C16.1629 12.5685 16.2919 12.087 16.0747 11.7106L15.5815 10.8567C16.6843 10.3276 17.8913 9.99359 19.1532 9.89465V10.8856C19.1532 11.3204 19.5056 11.6731 19.9404 11.6731C20.3752 11.6731 20.7276 11.3204 20.7276 10.8856V9.89465C21.9896 9.99359 23.1965 10.3276 24.2993 10.8567L23.8061 11.7106C23.5889 12.087 23.718 12.5685 24.0944 12.786C24.2185 12.8576 24.3537 12.8917 24.4873 12.8917C24.7596 12.8917 25.0241 12.7504 25.1698 12.4978L25.6623 11.6451C26.6831 12.3463 27.5729 13.2313 28.2805 14.2566L27.4236 14.7516C27.0469 14.9688 26.9178 15.4503 27.1354 15.827C27.281 16.0796 27.5459 16.221 27.8178 16.221C27.9515 16.221 28.087 16.1868 28.2108 16.1153L29.0708 15.6187C29.4208 16.3482 29.6866 17.1277 29.8537 17.9469Z" fill="url(#paint2_linear)"/>
<path d="M30.6176 20.2019C30.2074 20.3463 29.992 20.7958 30.1365 21.206L30.1414 21.2196C30.2554 21.5431 30.5593 21.7456 30.884 21.7456C30.9707 21.7456 31.0592 21.7312 31.1455 21.7007C31.5557 21.5563 31.7711 21.1065 31.6267 20.6966L31.6218 20.6831C31.4774 20.2729 31.0278 20.0572 30.6176 20.2019Z" fill="url(#paint3_linear)"/>
<path d="M7.00189 33.3003C6.85747 32.8901 6.40825 32.6744 5.99774 32.8191C5.58754 32.9636 5.37245 33.4134 5.51687 33.8233L5.52148 33.8368C5.63547 34.1607 5.93936 34.3628 6.26414 34.3628C6.3511 34.3628 6.43928 34.3484 6.52593 34.318C6.93613 34.1736 7.15122 33.724 7.0068 33.3138L7.00189 33.3003Z" fill="url(#paint4_linear)"/>
</g>
<defs>
<linearGradient id="paint0_linear" x1="19.9404" y1="-0.0380249" x2="19.9404" y2="40" gradientUnits="userSpaceOnUse">
<stop stop-color="#0195B6"/>
<stop offset="1" stop-color="#21EADE"/>
</linearGradient>
<linearGradient id="paint1_linear" x1="19.9403" y1="3.92657" x2="19.9403" y2="31.0062" gradientUnits="userSpaceOnUse">
<stop stop-color="#0195B6"/>
<stop offset="1" stop-color="#21EADE"/>
</linearGradient>
<linearGradient id="paint2_linear" x1="19.9404" y1="8.28857" x2="19.9404" y2="18.5771" gradientUnits="userSpaceOnUse">
<stop stop-color="#0195B6"/>
<stop offset="1" stop-color="#21EADE"/>
</linearGradient>
<linearGradient id="paint3_linear" x1="30.8816" y1="20.1569" x2="30.8816" y2="21.7456" gradientUnits="userSpaceOnUse">
<stop stop-color="#0195B6"/>
<stop offset="1" stop-color="#21EADE"/>
</linearGradient>
<linearGradient id="paint4_linear" x1="6.26183" y1="32.7741" x2="6.26183" y2="34.3628" gradientUnits="userSpaceOnUse">
<stop stop-color="#0195B6"/>
<stop offset="1" stop-color="#21EADE"/>
</linearGradient>
<clipPath id="clip0">
<rect width="40" height="40" fill="white"/>
</clipPath>
</defs>
</svg>
