<svg width="131" height="95" viewBox="0 0 131 95" fill="none" xmlns="http://www.w3.org/2000/svg">
<path d="M48.9253 78.75L49.1853 84.73C49.4453 87.59 50.052 89.54 51.0053 90.58C52.0453 91.5333 53.3887 92.14 55.0353 92.4C56.682 92.5733 58.0687 92.7033 59.1953 92.79C60.4087 92.79 61.7086 92.8333 63.0953 92.92V95H1.73531V92.92C2.68865 92.92 3.64198 92.92 4.59531 92.92C5.63531 92.8333 7.32531 92.66 9.66531 92.4C12.092 92.0533 13.782 91.36 14.7353 90.32C15.7753 89.1933 16.4253 87.2433 16.6853 84.47L16.9453 78.49V17.39L16.6853 11.41C16.4253 8.72333 15.7753 6.77333 14.7353 5.56C13.782 4.26 12.3086 3.48 10.3153 3.22C8.40865 2.95999 6.45865 2.78666 4.46531 2.7C2.47198 2.52666 1.04198 2.39666 0.175314 2.30999V0.229996H48.9253V78.75ZM116.18 78.75L116.44 84.73C116.7 87.59 117.307 89.54 118.26 90.58C119.3 91.5333 120.643 92.14 122.29 92.4C123.937 92.5733 125.323 92.7033 126.45 92.79C127.663 92.79 128.963 92.8333 130.35 92.92V95H68.99V92.92C69.9433 92.92 70.8967 92.92 71.85 92.92C72.89 92.8333 74.58 92.66 76.92 92.4C79.3467 92.0533 81.0367 91.36 81.99 90.32C83.03 89.1933 83.68 87.2433 83.94 84.47L84.2 78.49V17.39L83.94 11.41C83.68 8.72333 83.03 6.77333 81.99 5.56C81.0367 4.26 79.5633 3.48 77.57 3.22C75.6633 2.95999 73.7133 2.78666 71.72 2.7C69.7267 2.52666 68.2967 2.39666 67.43 2.30999V0.229996H116.18V78.75Z" fill="#00A2B8"/>
</svg>
