<svg width="172" height="99" viewBox="0 0 172 99" fill="none" xmlns="http://www.w3.org/2000/svg">
<path d="M0.59445 96.09C6.31445 90.89 12.2078 85.4733 18.2745 79.84C24.4278 74.2067 29.0645 69.7433 32.1845 66.45C40.4178 58.65 45.8778 51.89 48.5645 46.17C51.2511 40.45 52.5945 34.34 52.5945 27.84C52.5945 20.56 51.0778 14.7967 48.0445 10.55C45.0978 6.30333 40.7645 4.17999 35.0445 4.17999C30.8845 4.17999 26.9845 5.30666 23.3445 7.56C19.7911 9.72666 18.0145 12.0667 18.0145 14.58C18.0145 18.74 20.2678 20.82 24.7745 20.82C28.0678 20.82 30.7111 21.8167 32.7045 23.81C34.7845 25.7167 35.8245 28.23 35.8245 31.35C35.8245 35.25 34.4811 38.5 31.7945 41.1C29.1078 43.7 25.8145 45 21.9145 45C17.0611 45 13.0311 43.6133 9.82445 40.84C6.61778 37.98 5.01445 34.2533 5.01445 29.66C5.01445 24.2867 6.83445 19.4333 10.4745 15.1C14.1145 10.68 18.1878 7.47333 22.6945 5.47999C27.2878 3.48666 31.3178 2.22999 34.7845 1.70999C38.3378 1.10333 42.1078 0.799999 46.0945 0.799999C56.5811 0.799999 65.5078 3.14 72.8745 7.81999C80.2411 12.5 83.9245 19.26 83.9245 28.1C83.9245 33.6467 82.1911 38.5867 78.7245 42.92C75.3445 47.2533 71.5311 50.5467 67.2845 52.8C63.0378 54.9667 56.4945 57.7833 47.6545 61.25C38.9011 64.63 34.0478 67.1 33.0945 68.66V69.18C35.2611 69.0067 37.7311 68.8767 40.5045 68.79C43.3645 68.7033 46.3978 68.66 49.6045 68.66H70.1444C74.3911 68.66 77.3811 68.14 79.1145 67.1C80.8478 66.06 82.1045 64.5867 82.8845 62.68C83.7511 60.7733 84.4445 58.91 84.9645 57.09C85.5711 55.27 86.0911 53.7533 86.5245 52.54H88.2145L79.8945 97H0.59445V96.09ZM98.4123 52.8L109.722 1.45H110.892C113.926 2.40333 117.566 3.35666 121.812 4.30999C126.146 5.26333 130.912 5.74 136.112 5.74C142.786 5.74 148.202 5.26333 152.362 4.30999C155.136 3.27 157.909 2.18666 160.682 1.06C161.549 1.06 161.982 1.88333 161.982 3.52999C161.982 6.13 160.986 9.12 158.992 12.5C157.086 15.7933 153.749 19.3033 148.982 23.03C144.302 26.67 137.022 28.49 127.142 28.49C122.722 28.49 118.952 28.2733 115.832 27.84C112.712 27.32 109.766 26.41 106.992 25.11L102.832 43.44C106.819 39.54 111.196 36.8967 115.962 35.51C120.816 34.0367 127.056 33.3 134.682 33.3C144.302 33.3 152.796 36.0733 160.162 41.62C167.529 47.1667 171.212 54.4033 171.212 63.33C171.212 74.51 166.402 83.1767 156.782 89.33C147.249 95.4833 136.199 98.56 123.632 98.56C114.099 98.56 106.299 96.3067 100.232 91.8C94.2523 87.2067 91.2623 81.4433 91.2623 74.51C91.2623 70.87 92.7357 67.7067 95.6823 65.02C98.629 62.3333 102.052 60.99 105.952 60.99C110.719 60.99 114.749 62.29 118.042 64.89C121.336 67.4033 122.982 70.8267 122.982 75.16C122.982 79.4933 121.596 83.0467 118.822 85.82C116.049 88.5933 114.662 90.5433 114.662 91.67C114.662 93.23 115.572 94.4433 117.392 95.31C119.299 96.09 121.206 96.48 123.112 96.48C129.612 96.48 134.032 93.8367 136.372 88.55C138.712 83.2633 139.882 76.6767 139.882 68.79C139.882 60.3833 138.409 52.9733 135.462 46.56C132.602 40.1467 127.879 36.94 121.292 36.94C115.312 36.94 110.849 38.4133 107.902 41.36C104.956 44.3067 103.049 46.56 102.182 48.12C101.402 49.68 100.796 51.3267 100.362 53.06L98.4123 52.8Z" fill="#00A2B8"/>
</svg>
