<svg width="181" height="99" viewBox="0 0 181 99" fill="none" xmlns="http://www.w3.org/2000/svg">
<path d="M58.4338 43.44C67.3605 43.44 74.4238 45.65 79.6238 50.07C84.8238 54.49 87.4238 60.47 87.4238 68.01C87.4238 78.15 82.0938 85.7767 71.4338 90.89C60.8605 96.0033 48.9872 98.56 35.8138 98.56C26.8872 98.56 18.8272 96.35 11.6338 91.93C4.44049 87.51 0.843825 82.0067 0.843825 75.42C0.843825 70.48 2.53383 66.3633 5.91383 63.07C9.29383 59.7767 13.4538 58.13 18.3938 58.13C23.5938 58.13 27.7972 59.5167 31.0038 62.29C34.2972 64.9767 35.9438 68.53 35.9438 72.95C35.9438 76.1567 35.2938 78.6267 33.9938 80.36C32.7805 82.0067 31.1338 83.74 29.0538 85.56C27.0605 87.2933 25.8472 88.42 25.4138 88.94C24.9805 89.46 24.7638 90.2833 24.7638 91.41C24.7638 92.97 25.9772 94.2267 28.4038 95.18C30.8305 96.0467 33.7338 96.48 37.1138 96.48C43.3538 96.48 48.0338 94.1833 51.1538 89.59C54.3605 84.9967 55.9638 78.8867 55.9638 71.26C55.9638 64.5 54.2305 58.52 50.7638 53.32C47.3838 48.0333 42.7472 45.39 36.8538 45.39C34.7738 45.39 32.8238 45.65 31.0038 46.17C29.3572 46.7767 27.7538 47.3833 26.1938 47.99C25.7605 47.99 25.2838 47.8167 24.7638 47.47C24.3305 47.0367 24.1138 46.56 24.1138 46.04C24.1138 45 25.0238 44.3067 26.8438 43.96C28.7505 43.6133 30.9172 43.44 33.3438 43.44C39.3238 43.44 43.9605 41.7067 47.2538 38.24C50.5472 34.7733 52.1938 29.8767 52.1938 23.55C52.1938 18.0033 51.0238 13.3233 48.6838 9.51C46.4305 5.60999 42.7038 3.65999 37.5038 3.65999C34.4705 3.65999 31.5672 4.26666 28.7938 5.47999C26.1072 6.60666 24.7638 8.20999 24.7638 10.29C24.7638 11.4167 25.1105 12.37 25.8038 13.15C26.4972 13.93 27.8405 14.4933 29.8338 14.84C31.9138 15.1867 33.6905 16.2267 35.1638 17.96C36.6372 19.6067 37.3738 21.73 37.3738 24.33C37.3738 28.0567 35.9438 30.9167 33.0838 32.91C30.3105 34.9033 26.6705 35.9 22.1638 35.9C17.9172 35.9 14.4505 34.6433 11.7638 32.13C9.07716 29.6167 7.73383 26.3667 7.73383 22.38C7.73383 18.48 9.85716 14.71 14.1038 11.07C18.3505 7.34333 23.2472 4.69999 28.7938 3.13999C34.3405 1.58 39.9305 0.799999 45.5638 0.799999C56.6572 0.799999 65.5405 2.57666 72.2138 6.12999C78.9738 9.68333 82.3538 15.3167 82.3538 23.03C82.3538 28.8367 80.0138 33.3867 75.3338 36.68C70.7405 39.8867 65.1072 41.7933 58.4338 42.4V43.44ZM180.344 49.68C180.344 62.2467 176.184 73.5567 167.864 83.61C159.544 93.5767 148.841 98.56 135.754 98.56C121.974 98.56 111.098 93.36 103.124 82.96C95.151 72.56 91.1644 61.4667 91.1644 49.68C91.1644 37.1133 95.4544 25.8467 104.034 15.88C112.614 5.82667 123.188 0.799999 135.754 0.799999C148.754 0.799999 159.414 5.91333 167.734 16.14C176.141 26.28 180.344 37.46 180.344 49.68ZM147.974 49.68C147.974 42.4867 147.844 36.3333 147.584 31.22C147.324 26.1067 146.804 21.1667 146.024 16.4C145.331 11.5467 144.204 8.16666 142.644 6.26C141.171 4.26666 138.874 3.27 135.754 3.27C132.894 3.27 130.598 4.31 128.864 6.39C127.218 8.38333 126.091 11.46 125.484 15.62C124.878 19.78 124.401 24.98 124.054 31.22C123.708 37.46 123.534 43.6133 123.534 49.68C123.534 56.3533 123.664 62.42 123.924 67.88C124.271 73.2533 124.791 78.3233 125.484 83.09C126.178 87.8567 127.261 91.2367 128.734 93.23C130.294 95.1367 132.634 96.09 135.754 96.09C138.614 96.09 140.868 95.0933 142.514 93.1C144.248 91.02 145.374 87.9433 145.894 83.87C146.501 79.71 146.978 74.38 147.324 67.88C147.758 61.2933 147.974 55.2267 147.974 49.68Z" fill="#00A2B8"/>
</svg>
