<svg width="12" height="12" viewBox="0 0 12 12" fill="none" xmlns="http://www.w3.org/2000/svg">
<path d="M6 0C2.6916 0 0 2.69164 0 6.00004C0 9.30844 2.6916 12 6 12C9.3084 12 12 9.30844 12 6.00004C12 2.69164 9.3084 0 6 0ZM6 10.9091C3.29309 10.9091 1.09091 8.70691 1.09091 6.00004C1.09091 3.29316 3.29309 1.09091 6 1.09091C8.70691 1.09091 10.9091 3.29316 10.9091 6.00004C10.9091 8.70691 8.70687 10.9091 6 10.9091Z" fill="#00A2B8"/>
<path d="M5.99995 2.54546C5.59901 2.54546 5.27283 2.87186 5.27283 3.27306C5.27283 3.67389 5.59901 4 5.99995 4C6.4009 4 6.72708 3.67389 6.72708 3.27306C6.72708 2.87186 6.4009 2.54546 5.99995 2.54546Z" fill="#00A2B8"/>
<path d="M6.00004 5.09091C5.69881 5.09091 5.45459 5.33513 5.45459 5.63636V8.90909C5.45459 9.21033 5.69881 9.45454 6.00004 9.45454C6.30128 9.45454 6.5455 9.21033 6.5455 8.90909V5.63636C6.5455 5.33513 6.30128 5.09091 6.00004 5.09091Z" fill="#00A2B8"/>
</svg>
