<?xml version="1.0" encoding="utf-8"?>
<!-- Generator: Adobe Illustrator 17.0.0, SVG Export Plug-In . SVG Version: 6.00 Build 0)  -->
<!DOCTYPE svg PUBLIC "-//W3C//DTD SVG 1.1//EN" "http://www.w3.org/Graphics/SVG/1.1/DTD/svg11.dtd">
<svg version="1.1" id="Слой_1" xmlns="http://www.w3.org/2000/svg" xmlns:xlink="http://www.w3.org/1999/xlink" x="0px" y="0px"
	 width="40px" height="40px" viewBox="12.778 -4.672 40 40" enable-background="new 12.778 -4.672 40 40" xml:space="preserve">
<path fill="#00A2B8" d="M52.778,15.328c0,11.046-8.954,20-20,20s-20-8.954-20-20s8.954-20,20-20S52.778,4.282,52.778,15.328z
	 M32.779,15.329l5.09,5.09c0.938,0.938,2.457,0.938,3.394,0l0,0c0.938-0.938,0.938-2.457,0-3.394l-6.788-6.788l0,0
	c-0.938-0.938-2.457-0.938-3.394,0l-6.788,6.788c-0.938,0.938-0.938,2.457,0,3.394l0,0c0.938,0.938,2.457,0.938,3.394,0
	C27.687,20.419,32.778,15.328,32.779,15.329z"/>
</svg>
