<?xml version="1.0" encoding="utf-8"?>
<!-- Generator: Adobe Illustrator 17.0.0, SVG Export Plug-In . SVG Version: 6.00 Build 0)  -->
<!DOCTYPE svg PUBLIC "-//W3C//DTD SVG 1.1//EN" "http://www.w3.org/Graphics/SVG/1.1/DTD/svg11.dtd">
<svg version="1.1" id="Слой_1" xmlns="http://www.w3.org/2000/svg" xmlns:xlink="http://www.w3.org/1999/xlink" x="0px" y="0px"
	 width="50px" height="50px" viewBox="7.778 -9.672 50 50" enable-background="new 7.778 -9.672 50 50" xml:space="preserve">
<path fill="#CC3333" d="M57.778,15.328c0,13.807-11.193,25-25,25s-25-11.193-25-25s11.193-25,25-25S57.778,1.521,57.778,15.328z
	 M32.779,15.329l6.363,6.363c1.172,1.172,3.071,1.172,4.243,0l0,0c1.172-1.172,1.172-3.071,0-4.243L34.9,8.964l0,0
	c-1.172-1.172-3.071-1.172-4.243,0l-8.485,8.485c-1.172,1.172-1.172,3.071,0,4.243l0,0c1.172,1.172,3.071,1.172,4.243,0
	C26.414,21.692,32.778,15.328,32.779,15.329z"/>
</svg>
