<svg width="13" height="13" viewBox="0 0 13 13" fill="none" xmlns="http://www.w3.org/2000/svg">
<path d="M9.16602 1.9043V0H3.83398V1.9043H0V13H13V1.9043H9.16602ZM4.5957 0.761719H8.4043V1.9043H4.5957V0.761719ZM0.761719 5.33099C0.983252 5.49768 1.24216 5.61724 1.52344 5.67458V12.2383H0.761719V5.33099ZM5.92244 6.47461H6.68416V7.23633H5.92244V6.47461ZM6.68416 5.71289H5.92244V4.95117H6.68416V5.71289ZM7.44588 7.99805V5.71289H10.7148V12.2383H2.28516V5.71289H5.16072V7.99805H7.44588ZM11.4766 12.2383V5.67458C11.7578 5.61724 12.0167 5.49768 12.2383 5.33099V12.2383H11.4766ZM11.0957 4.95117H7.44588V4.18945H5.16072V4.95117H1.9043C1.27428 4.95117 0.761719 4.43861 0.761719 3.80859V2.66602H12.2383V3.80859C12.2383 4.43861 11.7257 4.95117 11.0957 4.95117Z" fill="#00A2B8"/>
</svg>
