<svg width="360" height="133" viewBox="0 0 360 133" fill="none" xmlns="http://www.w3.org/2000/svg">
<g opacity="0.8">
<path d="M212.373 46.1796C216.3 46.1796 219.484 42.9961 219.484 39.0689C219.484 35.1418 216.3 31.9583 212.373 31.9583C208.446 31.9583 205.262 35.1418 205.262 39.0689C205.262 42.9961 208.446 46.1796 212.373 46.1796Z" fill="#239DF5" fill-opacity="0.2"/>
<path d="M212.373 43.8093C214.991 43.8093 217.113 41.6869 217.113 39.0688C217.113 36.4507 214.991 34.3284 212.373 34.3284C209.755 34.3284 207.632 36.4507 207.632 39.0688C207.632 41.6869 209.755 43.8093 212.373 43.8093Z" fill="#7893F2" fill-opacity="0.4"/>
<path d="M212.373 41.4392C213.682 41.4392 214.743 40.378 214.743 39.069C214.743 37.7599 213.682 36.6987 212.373 36.6987C211.064 36.6987 210.003 37.7599 210.003 39.069C210.003 40.378 211.064 41.4392 212.373 41.4392Z" fill="#255FF5"/>
</g>
<g opacity="0.8">
<path d="M143.636 132.456C147.563 132.456 150.747 129.272 150.747 125.345C150.747 121.418 147.563 118.235 143.636 118.235C139.709 118.235 136.525 121.418 136.525 125.345C136.525 129.272 139.709 132.456 143.636 132.456Z" fill="#656565" fill-opacity="0.2"/>
<path d="M143.636 130.086C146.254 130.086 148.377 127.964 148.377 125.345C148.377 122.727 146.254 120.605 143.636 120.605C141.018 120.605 138.896 122.727 138.896 125.345C138.896 127.964 141.018 130.086 143.636 130.086Z" fill="#656565" fill-opacity="0.4"/>
<path d="M143.636 127.716C144.945 127.716 146.006 126.654 146.006 125.345C146.006 124.036 144.945 122.975 143.636 122.975C142.327 122.975 141.266 124.036 141.266 125.345C141.266 126.654 142.327 127.716 143.636 127.716Z" fill="#656565"/>
</g>
<g opacity="0.5">
<path d="M683.101 45.3654C683.101 45.3654 655.559 125.256 640.371 125.256C625.184 125.256 618.938 40.9492 602.513 30.1619C586.088 19.3747 580.383 43.351 578.811 45.3654C577.239 47.3799 559.924 119.737 547.524 121.486C535.123 123.235 517.151 83.8286 505.854 69.4408C490.003 49.2522 468.595 63.7185 456.981 82.2063C445.367 100.694 441.337 105.435 433.279 114.916C425.22 124.396 410.972 132.081 395.597 114.916C380.221 97.7504 358.721 43.0482 350.451 30.1619C342.182 17.2757 332.029 11.7548 318.394 34.6226C304.759 57.4904 288.966 86.3484 288.966 86.3484C288.966 86.3484 282.649 99.5275 267.889 97.9008C253.128 96.2741 249.54 84.0327 241.634 76.0167C233.728 68.0007 219.884 57.171 200.843 76.0167C181.802 94.8624 180.131 95.5396 163.546 101.643C143.271 109.104 126.096 128.664 108.284 104.195C90.4711 79.7258 86.984 74.9576 70.963 56.3716C54.942 37.7856 44.2142 45.7156 35.0795 56.3716C23.1832 70.2491 28.1081 95.6642 6.98268e-05 109.228" stroke="url(#paint0_linear)" stroke-width="3" stroke-linecap="round"/>
<path opacity="0.3" d="M2.3703 46.6529C2.3703 46.6529 21.7908 104.487 36.9757 104.487C52.1606 104.487 56.8856 57.0821 68.4851 41.9218C80.5879 17.7363 88.6467 36.926 96.7055 50.3224C104.764 63.7188 128.393 125.379 140.792 126.767C153.19 128.155 166.929 104.339 182.982 74.4989C192.937 55.9946 209.619 30.5714 220.432 41.9218C231.245 53.2722 251.682 74.4987 251.682 74.4987C251.682 74.4987 263.528 93.4778 278.9 79.857C294.273 66.2363 317.278 22.9608 321.241 15.2312C325.204 7.50171 341.624 -7.5569 355.257 10.5889C368.889 28.7348 378.348 46.3317 385.874 60.8743C393.4 75.4169 399.559 98.1926 414.317 96.9018C429.075 95.611 434.249 76.1699 445.13 56.6244C452.877 42.7083 460.299 39.4745 475.936 51.7578C494.974 66.7121 518.953 96.0316 528.325 104.012C537.697 111.993 567.681 135.083 583.578 106.037C599.474 76.9919 595.402 69.1231 599.474 56.6244C604.057 42.5554 621.846 35.1143 634.122 50.3978C646.398 65.6814 655.375 87.8379 683.101 90.8299" stroke="url(#paint1_linear)" stroke-width="3" stroke-linecap="round"/>
</g>
<defs>
<linearGradient id="paint0_linear" x1="600.438" y1="109.16" x2="600.438" y2="13.3104" gradientUnits="userSpaceOnUse">
<stop stop-color="#28A07C"/>
<stop offset="1" stop-color="#5E5CD1"/>
</linearGradient>
<linearGradient id="paint1_linear" x1="291.889" y1="366.07" x2="152.35" y2="-43.9202" gradientUnits="userSpaceOnUse">
<stop stop-color="#1AB1E0"/>
<stop offset="1" stop-color="#005069"/>
</linearGradient>
</defs>
</svg>
