<svg width="16" height="16" viewBox="0 0 16 16" fill="none" xmlns="http://www.w3.org/2000/svg">
<path d="M14.3011 4.20877C13.3644 4.20877 12.6023 4.97086 12.6023 5.90761C12.6023 6.24927 12.704 6.56742 12.8783 6.83408L11.0429 8.66948C10.7762 8.49523 10.458 8.39351 10.1164 8.39351C9.76233 8.39351 9.4333 8.50251 9.16086 8.68854L7.30655 6.83395C7.48077 6.5673 7.58242 6.24917 7.58242 5.90758C7.58242 4.97083 6.82033 4.20874 5.88358 4.20874C4.94683 4.20874 4.18474 4.97083 4.18474 5.90758C4.18474 6.24917 4.28643 6.5672 4.46059 6.83386L2.62512 8.66936C2.3585 8.49517 2.0404 8.39351 1.69884 8.39351C0.762092 8.39351 0 9.15564 0 10.0924C0 11.0291 0.762092 11.7912 1.69884 11.7912C2.63559 11.7912 3.39768 11.0291 3.39768 10.0924C3.39768 9.75073 3.29596 9.43257 3.12171 9.16589L4.95712 7.33048C5.2238 7.50473 5.54196 7.60645 5.88361 7.60645C6.22524 7.60645 6.54339 7.50473 6.81005 7.33048L8.67461 9.19529C8.51192 9.45586 8.41755 9.76323 8.41755 10.0924C8.41755 11.0291 9.17964 11.7912 10.1164 11.7912C11.0531 11.7912 11.8152 11.0291 11.8152 10.0924C11.8152 9.75076 11.7135 9.4327 11.5394 9.16607L13.3749 7.33058C13.6415 7.50477 13.9596 7.60642 14.3012 7.60642C15.2379 7.60642 16 6.84433 16 5.90758C16 4.9708 15.2379 4.20877 14.3011 4.20877ZM1.69884 11.089C1.14928 11.089 0.702186 10.6419 0.702186 10.0924C0.702186 9.54282 1.14928 9.09573 1.69884 9.09573C2.24837 9.09573 2.69549 9.54282 2.69549 10.0924C2.69549 10.6419 2.2484 11.089 1.69884 11.089ZM5.88361 6.90424C5.33408 6.90424 4.88696 6.45714 4.88696 5.90758C4.88696 5.35805 5.33405 4.91093 5.88361 4.91093C6.43318 4.91093 6.88027 5.35802 6.88027 5.90758C6.88027 6.45714 6.43318 6.90424 5.88361 6.90424ZM10.1164 11.089C9.56683 11.089 9.1197 10.6419 9.1197 10.0924C9.1197 9.54279 9.56679 9.0957 10.1164 9.0957C10.6659 9.0957 11.113 9.54279 11.113 10.0924C11.113 10.6419 10.6659 11.089 10.1164 11.089ZM14.3011 6.90424C13.7516 6.90424 13.3045 6.45714 13.3045 5.90758C13.3045 5.35805 13.7516 4.91093 14.3011 4.91093C14.8507 4.91093 15.2978 5.35802 15.2978 5.90758C15.2978 6.45714 14.8507 6.90424 14.3011 6.90424Z" fill="#00A2B8"/>
<path d="M5.52423 8.52239C5.3871 8.3853 5.16482 8.3853 5.0277 8.52239L4.31351 9.23658C4.17642 9.37367 4.17642 9.59598 4.31354 9.7331C4.3821 9.80167 4.47195 9.83595 4.56179 9.83595C4.65163 9.83595 4.74151 9.80163 4.81004 9.7331L5.52423 9.01892C5.66138 8.88183 5.66138 8.65948 5.52423 8.52239Z" fill="#00A2B8"/>
<path d="M11.6862 6.27933C11.5491 6.14224 11.3269 6.14224 11.1897 6.27936L10.4755 6.99355C10.3384 7.13065 10.3384 7.35296 10.4755 7.49008C10.5441 7.55862 10.6339 7.5929 10.7238 7.5929C10.8137 7.5929 10.9035 7.55859 10.972 7.49005L11.6862 6.77586C11.8233 6.63874 11.8233 6.41642 11.6862 6.27933Z" fill="#00A2B8"/>
</svg>
