<svg width="1440" height="308" viewBox="0 0 1440 308" fill="none" xmlns="http://www.w3.org/2000/svg">
<g id="lines" opacity="0.5">
	<path id="line_1" d="M1451.98 66.6753C1451.98 66.6753 1392.7 227.867 1360.01 227.867C1327.32 227.867 1301.39 88.4402 1266.04 66.6753C1230.68 44.9105 1212.13 56.974 1204.06 66.6753C1195.98 76.3766 1164.77 145.836 1138.08 149.365C1111.39 152.893 1088.41 105.406 1064.1 76.3766C1029.98 35.6432 993.405 76.62 970.127 105.481C946.849 134.341 914.144 172.673 914.144 172.673C914.144 172.673 871.233 234.599 838.139 199.966C805.045 165.333 753.78 62 735.981 36C718.182 10 696.329 -1.13914 666.981 45C637.633 91.1391 603.639 149.365 603.639 149.365C603.639 149.365 590.042 175.955 558.272 172.673C526.502 169.391 518.778 144.692 501.761 128.519C484.745 112.345 454.946 90.4947 413.962 128.519C372.979 166.543 347.946 199.966 327.77 220.259C307.593 240.552 266.133 275.171 208.822 225.408C169.481 184.5 168.891 184 134.407 146.5C104.981 114.5 91.481 125 71.8193 146.5C46.2135 174.5 28.481 200.5 -32.019 227.867" stroke="url(#paint0_linear)" stroke-width="3" stroke-linecap="round"/>
	<path id="line_2" opacity="0.3" d="M1437.98 22.47C1437.98 22.47 1400.45 120.58 1367.76 120.58C1335.08 120.58 1289.17 37.5918 1253.82 22.47C1218.47 7.34823 1201.72 13.6559 1181.85 30.8279C1161.98 48 1144.57 87.4509 1117.88 89.9026C1091.2 92.3543 1092.9 75.8992 1044.9 30.8279C1013.93 6.87247 994.378 15.0778 971.104 35.1295C947.83 55.1811 896.574 130.077 896.574 130.077C896.574 130.077 871.076 163.605 837.988 139.543C804.9 115.48 755.384 39.0296 746.854 25.3746C738.323 11.7196 702.981 -14.8831 673.638 17.1735C644.295 49.23 603.529 104.386 603.529 104.386C603.529 104.386 589.935 122.86 558.17 120.58C526.405 118.3 518.683 101.14 501.669 89.9026C484.655 78.6656 454.861 63.4843 413.885 89.9026C372.909 116.321 347.88 139.543 327.707 153.642C307.535 167.741 266.081 191.794 208.781 157.219C163.981 119 175.981 121 147.981 98.5C125.224 80.2128 99.8269 60.5 73.4039 87.5C46.981 114.5 27.6584 153.642 -32.019 158.927" stroke="url(#paint1_linear)" stroke-width="3" stroke-linecap="round"/>
</g>
<g id="star_1" opacity="0.8">
	<path d="M267.981 236C259.697 236 252.981 242.716 252.981 251C252.981 259.284 259.697 266 267.981 266C276.265 266 282.981 259.284 282.981 251C282.981 242.716 276.265 236 267.981 236Z" fill="#23DCF5" fill-opacity="0.2"/>
	<path d="M267.981 241C262.458 241 257.981 245.477 257.981 251C257.981 256.523 262.458 261 267.981 261C273.504 261 277.981 256.523 277.981 251C277.981 245.477 273.504 241 267.981 241Z" fill="#78EBF2" fill-opacity="0.3"/>
	<path d="M267.981 246C265.22 246 262.981 248.239 262.981 251C262.981 253.761 265.22 256 267.981 256C270.742 256 272.981 253.761 272.981 251C272.981 248.239 270.742 246 267.981 246Z" fill="#25F5F5"/>
	<animate
		attributeName="opacity"
		attributeType="XML"
        values="1; .3; 1"
        begin="0.5s" 
        dur="4.0s"
        repeatCount="indefinite"
    />
</g>
<g id="star_2" opacity="0.8">
	<path d="M564.981 105C556.697 105 549.981 111.716 549.981 120C549.981 128.284 556.697 135 564.981 135C573.265 135 579.981 128.284 579.981 120C579.981 111.716 573.265 105 564.981 105Z" fill="#239DF5" fill-opacity="0.2"/>
	<path d="M564.981 110C559.458 110 554.981 114.477 554.981 120C554.981 125.523 559.458 130 564.981 130C570.504 130 574.981 125.523 574.981 120C574.981 114.477 570.504 110 564.981 110Z" fill="#7893F2" fill-opacity="0.4"/>
	<path d="M564.981 115C562.219 115 559.981 117.239 559.981 120C559.981 122.761 562.219 125 564.981 125C567.742 125 569.981 122.761 569.981 120C569.981 117.239 567.742 115 564.981 115Z" fill="#255FF5"/>
	<animate
		attributeName="opacity"
		attributeType="XML"
        values="1; .3; 1"
        begin="2s" 
        dur="4s"
        repeatCount="indefinite"
    />
</g>
<g id="star_3" opacity="0.8">
	<path d="M855.981 194C847.697 194 840.981 200.716 840.981 209C840.981 217.284 847.697 224 855.981 224C864.265 224 870.981 217.284 870.981 209C870.981 200.716 864.265 194 855.981 194Z" fill="#23DCF5" fill-opacity="0.2"/>
	<path d="M855.981 199C850.458 199 845.981 203.477 845.981 209C845.981 214.523 850.458 219 855.981 219C861.504 219 865.981 214.523 865.981 209C865.981 203.477 861.504 199 855.981 199Z" fill="#78EBF2" fill-opacity="0.3"/>
	<path d="M855.981 204C853.219 204 850.981 206.239 850.981 209C850.981 211.761 853.219 214 855.981 214C858.742 214 860.981 211.761 860.981 209C860.981 206.239 858.742 204 855.981 204Z" fill="#25F5F5"/>
	<animate
		attributeName="opacity"
		attributeType="XML"
        values="1; .2; 1"
        begin="2s" 
        dur="4s"
        repeatCount="indefinite"
    />
</g>
<g id="star_4" opacity="0.8">
	<path d="M1131.98 134C1123.7 134 1116.98 140.716 1116.98 149C1116.98 157.284 1123.7 164 1131.98 164C1140.27 164 1146.98 157.284 1146.98 149C1146.98 140.716 1140.27 134 1131.98 134Z" fill="#239DF5" fill-opacity="0.2"/>
	<path d="M1131.98 139C1126.46 139 1121.98 143.477 1121.98 149C1121.98 154.523 1126.46 159 1131.98 159C1137.5 159 1141.98 154.523 1141.98 149C1141.98 143.477 1137.5 139 1131.98 139Z" fill="#7893F2" fill-opacity="0.4"/>
	<path d="M1131.98 144C1129.22 144 1126.98 146.239 1126.98 149C1126.98 151.761 1129.22 154 1131.98 154C1134.74 154 1136.98 151.761 1136.98 149C1136.98 146.239 1134.74 144 1131.98 144Z" fill="#255FF5"/>
	<animate
		attributeName="opacity"
		attributeType="XML"
        values="1; .3; 1"
        begin="2s" 
        dur="4s"
        repeatCount="indefinite"
    />
</g>
<defs>
	<linearGradient id="paint0_linear" x1="1274.06" y1="195.39" x2="1274.06" y2="2" gradientUnits="userSpaceOnUse">
		<stop stop-color="#28A07C"/>
		<stop offset="1" stop-color="#5E5CD1"/>
		<animate
			attributeName="x1"
			attributeType="XML"
	        from="-900"
    		to="2000"
	        begin="0s" dur="3s"
	        repeatCount="indefinite"
	    />
	    <animate
	        attributeName="x2"
			attributeType="XML"
	        from="0"
    		to="2000"
	        begin="0s" dur="3s"
	        repeatCount="indefinite"
	    />
	</linearGradient>
	<linearGradient id="paint1_linear" x1="810.03" y1="645.167" x2="1019.45" y2="-104.522" gradientUnits="userSpaceOnUse">
		<stop stop-color="#1AB1E0"/>
		<stop offset="1" stop-color="#005069"/>
	</linearGradient>
</defs>
</svg>
