<?xml version="1.0" encoding="utf-8"?>
<!-- Generator: Adobe Illustrator 17.0.0, SVG Export Plug-In . SVG Version: 6.00 Build 0)  -->
<!DOCTYPE svg PUBLIC "-//W3C//DTD SVG 1.1//EN" "http://www.w3.org/Graphics/SVG/1.1/DTD/svg11.dtd">
<svg version="1.1" id="Layer_3" xmlns="http://www.w3.org/2000/svg" xmlns:xlink="http://www.w3.org/1999/xlink" x="0px" y="0px"
	 width="1437px" height="945.156px" viewBox="0 0 1437 945.156" enable-background="new 0 0 1437 945.156" xml:space="preserve">
<linearGradient id="SVGID_1_" gradientUnits="userSpaceOnUse" x1="1093.8495" y1="-753.1555" x2="26.6665" y2="562.7277" gradientTransform="matrix(1 0 0 -1 0.105 262.1176)">
	<stop  offset="0" style="stop-color:#3D0F46"/>
	<stop  offset="1" style="stop-color:#056277"/>
</linearGradient>
<path fill="url(#SVGID_1_)" d="M1437.624,945.156H-0.464V81.956c0,0,40.946,7.345,170.774,36.726
	c129.827,29.381,159.788-186.57,363.517,16.16c95.543,95.073,205.793-269.829,411.454,8.08
	c205.66,277.909,173.764-41.868,357.53-8.08c183.755,33.788,134.813,33.788,134.813,33.788V945.156z"/>
<g opacity="0.5">
	
		<linearGradient id="SVGID_2_" gradientUnits="userSpaceOnUse" x1="707.7914" y1="67.2276" x2="707.7914" y2="260.6176" gradientTransform="matrix(1 0 0 -1 0.105 262.1176)">
		<stop  offset="0" style="stop-color:#28A07D"/>
		<stop  offset="1" style="stop-color:#5F60AB"/>
	</linearGradient>
	<path fill="none" stroke="url(#SVGID_2_)" stroke-width="3" stroke-linecap="round" d="M1449.896,66.175
		c0,0-59.28,161.192-91.97,161.192c-32.69,0-58.62-139.427-93.97-161.192c-35.36-21.765-53.91-9.701-61.98,0
		c-8.08,9.701-39.29,79.161-65.98,82.69c-26.69,3.528-49.67-43.959-73.98-72.988c-34.12-40.733-70.695,0.243-93.973,29.104
		c-23.278,28.86-55.983,67.192-55.983,67.192s-42.911,61.926-76.005,27.293S751.696,61.5,733.897,35.5s-39.652-37.139-69,9
		c-29.348,46.139-63.342,104.365-63.342,104.365s-13.597,26.59-45.367,23.308c-31.77-3.282-39.494-27.981-56.511-44.154
		c-17.016-16.174-46.815-38.024-87.799,0c-40.983,38.024-66.016,71.447-86.192,91.74c-20.177,20.293-61.637,54.912-118.948,5.149
		C167.397,184,166.807,183.5,132.323,146c-29.426-32-42.926-21.5-62.588,0c-25.606,28-43.338,54-103.838,81.367"/>
	
		<linearGradient id="SVGID_3_" gradientUnits="userSpaceOnUse" x1="564.8647" y1="-314.6758" x2="774.2848" y2="435.0132" gradientTransform="matrix(1 0 0 -1 0.105 262.1176)">
		<stop  offset="0" style="stop-color:#1DB0DF"/>
		<stop  offset="1" style="stop-color:#04516A"/>
	</linearGradient>
	<path opacity="0.3" fill="none" stroke="url(#SVGID_3_)" stroke-width="3" stroke-linecap="round" enable-background="new    " d="
		M1435.896,21.97c0,0-37.53,98.11-70.22,98.11c-32.68,0-78.59-82.988-113.94-98.11c-35.35-15.122-52.1-8.814-71.97,8.358
		c-19.87,17.172-37.28,56.623-63.97,59.075c-26.68,2.452-24.98-14.003-72.98-59.075c-30.97-23.955-50.522-15.75-73.796,4.302
		c-23.274,20.052-74.53,94.947-74.53,94.947s-25.498,33.528-58.586,9.466C802.816,114.98,753.3,38.53,744.77,24.875
		c-8.531-13.655-43.873-40.258-73.216-8.201c-29.343,32.056-70.109,87.213-70.109,87.213s-13.594,18.474-45.359,16.194
		c-31.765-2.28-39.487-19.44-56.501-30.677c-17.014-11.237-46.808-26.418-87.784,0c-40.976,26.418-66.005,49.64-86.178,63.739
		c-20.172,14.099-61.626,38.152-118.926,3.577c-44.8-38.219-32.8-36.219-60.8-58.719C123.14,79.713,97.743,60,71.32,87
		c-26.423,27-45.745,66.142-105.423,71.427"/>
</g>
<g opacity="0.8">
	<path fill="#57C8E3" fill-opacity="0.2" d="M853.897,193.5c-8.284,0-15,6.716-15,15s6.716,15,15,15s15-6.716,15-15
		S862.181,193.5,853.897,193.5z"/>
	<path fill="#8CD4E1" fill-opacity="0.3" d="M853.897,198.5c-5.523,0-10,4.477-10,10s4.477,10,10,10s10-4.477,10-10
		S859.42,198.5,853.897,198.5z"/>
	<path fill="#6DCBD9" d="M853.897,203.5c-2.762,0-5,2.239-5,5s2.238,5,5,5c2.761,0,5-2.239,5-5S856.658,203.5,853.897,203.5z"/>
</g>
<g opacity="0.8">
	<path fill="#57C8E3" fill-opacity="0.2" d="M265.897,235.5c-8.284,0-15,6.716-15,15s6.716,15,15,15c8.284,0,15-6.716,15-15
		S274.181,235.5,265.897,235.5z"/>
	<path fill="#8CD4E1" fill-opacity="0.3" d="M265.897,240.5c-5.523,0-10,4.477-10,10c0,5.523,4.477,10,10,10c5.523,0,10-4.477,10-10
		C275.897,244.977,271.42,240.5,265.897,240.5z"/>
	<path fill="#6DCBD9" d="M265.897,245.5c-2.761,0-5,2.239-5,5s2.239,5,5,5c2.761,0,5-2.239,5-5S268.658,245.5,265.897,245.5z"/>
</g>
<g opacity="0.8">
	<path fill="#4C97D2" fill-opacity="0.2" d="M1129.896,133.5c-8.28,0-15,6.716-15,15s6.72,15,15,15c8.29,0,15-6.716,15-15
		S1138.186,133.5,1129.896,133.5z"/>
	<path fill="#7D8FC8" fill-opacity="0.4" d="M1129.896,138.5c-5.52,0-10,4.477-10,10s4.48,10,10,10s10-4.477,10-10
		S1135.416,138.5,1129.896,138.5z"/>
	<path fill="#4565AF" d="M1129.896,143.5c-2.76,0-5,2.239-5,5s2.24,5,5,5s5-2.239,5-5S1132.656,143.5,1129.896,143.5z"/>
</g>
<g opacity="0.8">
	<path fill="#4C97D2" fill-opacity="0.2" d="M562.897,104.5c-8.284,0-15,6.716-15,15s6.716,15,15,15s15-6.716,15-15
		S571.181,104.5,562.897,104.5z"/>
	<path fill="#7D8FC8" fill-opacity="0.4" d="M562.897,109.5c-5.523,0-10,4.477-10,10s4.477,10,10,10s10-4.477,10-10
		S568.42,109.5,562.897,109.5z"/>
	<path fill="#4565AF" d="M562.897,114.5c-2.762,0-5,2.239-5,5s2.238,5,5,5c2.761,0,5-2.239,5-5S565.658,114.5,562.897,114.5z"/>
</g>
</svg>
