<?xml version="1.0" encoding="utf-8"?>
<!-- Generator: Adobe Illustrator 17.0.0, SVG Export Plug-In . SVG Version: 6.00 Build 0)  -->
<!DOCTYPE svg PUBLIC "-//W3C//DTD SVG 1.1//EN" "http://www.w3.org/Graphics/SVG/1.1/DTD/svg11.dtd">
<svg version="1.1" id="Layer_1" xmlns="http://www.w3.org/2000/svg" xmlns:xlink="http://www.w3.org/1999/xlink" x="0px" y="0px"
	 width="360px" height="645px" viewBox="0 0 360 645" enable-background="new 0 0 360 645" xml:space="preserve">
<g>
	<defs>
		<rect id="SVGID_1_" width="360" height="645"/>
	</defs>
	<clipPath id="SVGID_2_">
		<use xlink:href="#SVGID_1_"  overflow="visible"/>
	</clipPath>
	
		<linearGradient id="SVGID_3_" gradientUnits="userSpaceOnUse" x1="207.8981" y1="610.2624" x2="207.8981" y2="38.439" gradientTransform="matrix(1 0 0 -1 0.105 644.76)">
		<stop  offset="0" style="stop-color:#0B161E"/>
		<stop  offset="1" style="stop-color:#0D2334"/>
	</linearGradient>
	<path clip-path="url(#SVGID_2_)" fill="url(#SVGID_3_)" d="M-74.675-8.363H459l32,591.423c0,0-49.932-10.865-101-25.872
		c-51.068-15.007-53,107.674-136,7.113c-46.719-56.604-89,99.106-147,0c-58-99.107-45.719,36.017-118,18.759
		s-63.675-44.271-63.675-44.271V-8.363z"/>
	<g opacity="0.5" clip-path="url(#SVGID_2_)">
		
			<linearGradient id="SVGID_4_" gradientUnits="userSpaceOnUse" x1="35.895" y1="114.766" x2="35.895" y2="10.46" gradientTransform="matrix(1 0 0 -1 0.105 644.76)">
			<stop  offset="0" style="stop-color:#28A07C"/>
			<stop  offset="1" style="stop-color:#5E5CD1"/>
		</linearGradient>
		<path fill="none" stroke="url(#SVGID_4_)" stroke-width="3" stroke-linecap="round" d="M492,599.417
			c0,0-36.432-86.94-56.522-86.94s-36.024,75.201-57.751,86.94c-21.726,11.739-33.128,5.232-38.091,0
			c-4.962-5.233-24.145-42.696-40.548-44.599c-16.403-1.904-30.52,23.709-45.463,39.366c-20.967,21.97-41.358-2.93-57.751-15.697
			c-16.392-12.768-20.908-16.309-24.893-18.772c-13.001-8.039-20.001-25.084-53.003-4.897
			c-26.001,19.748-37.502,26.397-55.037,39.366c-17.535,12.969-35.044,18.048-61.565-11.045
			c-26.52-29.094-30.729-28.321-30.729-28.321s-8.356-14.342-27.88-12.572c-19.525,1.77-24.271,15.092-34.729,23.815
			c-10.458,8.723-28.771,20.509-53.958,0c-25.186-20.508-40.571-38.536-52.97-49.481c-12.4-10.945-37.879-29.617-73.1-2.777
			c-24.177,22.064-24.54,22.334-45.732,42.56c-18.084,17.259-26.38,11.596-38.464,0c-15.736-15.102-26.633-29.126-63.814-43.886"/>
		
			<linearGradient id="SVGID_5_" gradientUnits="userSpaceOnUse" x1="-34.239" y1="325.4399" x2="66.8824" y2="-86.2531" gradientTransform="matrix(1 0 0 -1 0.105 644.76)">
			<stop  offset="0" style="stop-color:#1AB1E0"/>
			<stop  offset="1" style="stop-color:#005069"/>
		</linearGradient>
		
			<path opacity="0.3" fill="none" stroke="url(#SVGID_5_)" stroke-width="3" stroke-linecap="round" enable-background="new    " d="
			M483,623.387c0,0-23.056-52.993-43.133-52.993s-48.282,44.825-69.995,52.993c-21.714,8.168-32.001,4.761-44.208-4.515
			c-12.207-9.275-22.902-30.584-39.295-31.908c-16.393-1.324-15.35,7.564-44.834,31.908c-19.022,12.94-31.034,8.508-45.331-2.323
			c-14.297-10.831-45.783-51.284-45.783-51.284s-15.662-18.11-35.988-5.113c-20.325,12.997-41.29,43.035-57.384,52.192
			c-17.515,11.043-36.886,1.498-54.911-15.816c-18.025-17.315-34.082-31.263-34.082-31.263s-10.783-15.892-30.296-14.661
			c-19.513,1.232-19.472,30.291-29.923,36.36c-10.451,6.07-28.753,14.269-53.924,0s-40.546-26.812-52.938-34.428
			c-12.392-7.615-37.856-20.607-73.055-1.932c-27.52,20.644-20.149,19.563-37.349,31.716c-13.979,9.878-29.58,20.525-45.811,5.942
			c-16.231-14.584-28.101-35.726-64.76-38.581"/>
	</g>
	<g opacity="0.8" clip-path="url(#SVGID_2_)">
		<path fill="#23DCF5" fill-opacity="0.2" d="M144.747,553.163c-5.091,0-9.218-4.314-9.218-9.636c0-5.322,4.127-9.636,9.218-9.636
			c5.091,0,9.217,4.314,9.217,9.636C153.964,548.849,149.838,553.163,144.747,553.163z"/>
		<path fill="#78EBF2" fill-opacity="0.3" d="M144.747,549.951c-3.394,0-6.146-2.876-6.146-6.424c0-3.548,2.752-6.424,6.146-6.424
			c3.394,0,6.145,2.876,6.145,6.424C150.892,547.075,148.141,549.951,144.747,549.951z"/>
		<path fill="#25F5F5" d="M144.747,546.739c-1.697,0-3.073-1.438-3.073-3.212c0-1.774,1.376-3.212,3.073-3.212
			c1.697,0,3.072,1.438,3.072,3.212C147.819,545.301,146.444,546.739,144.747,546.739z"/>
	</g>
	<g opacity="0.8" clip-path="url(#SVGID_2_)">
		<path fill="#239DF5" fill-opacity="0.2" d="M295.354,564.528c-5.091,0-9.218-4.315-9.218-9.636c0-5.322,4.127-9.637,9.218-9.637
			s9.218,4.315,9.218,9.637C304.572,560.213,300.445,564.528,295.354,564.528z"/>
		<path fill="#7893F2" fill-opacity="0.4" d="M295.354,561.316c-3.394,0-6.145-2.877-6.145-6.424c0-3.548,2.751-6.425,6.145-6.425
			c3.394,0,6.145,2.877,6.145,6.425C301.499,558.439,298.748,561.316,295.354,561.316z"/>
		<path fill="#24D4D4" d="M295.354,558.104c-1.697,0-3.073-1.439-3.073-3.212c0-1.774,1.376-3.212,3.073-3.212
			s3.073,1.438,3.073,3.212C298.427,556.665,297.051,558.104,295.354,558.104z"/>
	</g>
	<g transform="matrix(1 0 0 1 0 0)" clip-path="url(#SVGID_2_)">
		
			<image overflow="visible" width="1209" height="467" xlink:href="Group 19 1.png"  transform="matrix(0.4628 0 0 0.4731 -77.3864 347.0052)">
		</image>
	</g>
	<g clip-path="url(#SVGID_2_)">
		<image overflow="visible" width="755" height="637" xlink:href="Pic.png"  transform="matrix(0.3814 0 0 0.3814 32.5 317.1703)">
		</image>
	</g>
</g>
</svg>
