<?xml version="1.0" encoding="utf-8"?>
<!-- Generator: Adobe Illustrator 17.0.0, SVG Export Plug-In . SVG Version: 6.00 Build 0)  -->
<!DOCTYPE svg PUBLIC "-//W3C//DTD SVG 1.1//EN" "http://www.w3.org/Graphics/SVG/1.1/DTD/svg11.dtd">
<svg version="1.1" id="Layer_1" xmlns="http://www.w3.org/2000/svg" xmlns:xlink="http://www.w3.org/1999/xlink" x="0px" y="0px"
	 width="12px" height="11.763px" viewBox="-0.085 0.119 12 11.763" enable-background="new -0.085 0.119 12 11.763"
	 xml:space="preserve">
<path fill="#00A2B8" d="M11.775,5.119L6.186,0.221c-0.155-0.136-0.387-0.136-0.542,0L0.055,5.119
	c-0.171,0.15-0.188,0.409-0.038,0.58c0.15,0.171,0.409,0.188,0.58,0.038l0.433-0.379v6.112c0,0.227,0.184,0.411,0.411,0.411h3.115
	h2.72h3.114c0.227,0,0.411-0.184,0.411-0.411V5.358l0.433,0.379c0.078,0.068,0.175,0.102,0.271,0.102
	c0.114,0,0.228-0.047,0.309-0.14C11.962,5.529,11.945,5.269,11.775,5.119z M4.966,11.059V7.674h1.898v3.385H4.966z M9.978,4.641
	v6.418H7.686V7.263c0-0.227-0.184-0.411-0.411-0.411h-2.72c-0.227,0-0.411,0.184-0.411,0.411v3.796H1.851V4.641
	c0-0.001,0-0.002,0-0.003l4.064-3.562l4.064,3.562C9.978,4.639,9.978,4.64,9.978,4.641z"/>
<path fill="#00A2B8" d="M4.994,4.25c0,0.227,0.184,0.411,0.411,0.411h1.019c0.227,0,0.411-0.184,0.411-0.411
	S6.651,3.839,6.424,3.839H5.405C5.178,3.839,4.994,4.023,4.994,4.25z"/>
</svg>
