<?xml version="1.0" encoding="utf-8"?>
<!-- Generator: Adobe Illustrator 17.0.0, SVG Export Plug-In . SVG Version: 6.00 Build 0)  -->
<!DOCTYPE svg PUBLIC "-//W3C//DTD SVG 1.1//EN" "http://www.w3.org/Graphics/SVG/1.1/DTD/svg11.dtd">
<svg version="1.1" id="Layer_1" xmlns="http://www.w3.org/2000/svg" xmlns:xlink="http://www.w3.org/1999/xlink" x="0px" y="0px"
	 width="437.556px" height="437px" viewBox="54.781 14 437.556 437" enable-background="new 54.781 14 437.556 437"
	 xml:space="preserve">
<path fill="#FFC959" d="M277,14c34.482,0,64.974,8.161,95.697,23.815s57.306,38.358,77.573,66.254
	c20.268,27.896,33.646,60.193,39.04,94.25s3.845,62.887-6.81,95.681l-7.127,4.093L472.5,290
	c10.047-30.921,9.573-57.617,4.487-89.729c-5.086-32.113-17.7-62.565-36.81-88.869c-19.111-26.303-44.175-47.71-73.144-62.47
	C338.064,34.171,309.513,26.5,277,26.5l5-6L277,14z"/>
<path fill="#FF4E83" d="M480.5,299.5c-14.287,43.875-41.333,82.753-78.681,109.851C364.472,436.45,319.505,451.029,273.362,451
	s-91.092-14.666-128.405-41.811C107.644,382.043,81.731,346.393,67.5,302.5L70,295l7,3.5c13.418,41.387,40.115,75.004,75.297,100.6
	c35.183,25.595,77.565,39.396,121.073,39.424c43.508,0.027,85.907-13.72,121.122-39.271S457.029,337.37,470.5,296l3,7.5L480.5,299.5
	z"/>
<path fill="#00C297" d="M65.5,298c-10.987-32.684-13.194-63.381-8.145-97.491C62.403,166.399,74.516,137.1,94.5,109l8-2v8.5
	c-18.843,26.496-28.043,54.673-32.803,86.836C64.936,234.498,65.64,263.182,76,294l-8-4.5L65.5,298z"/>
<path fill="#AB34F4" d="M96.032,104.98c20.112-27.994,46.563-50.83,77.191-66.642s64.563-24.151,99.032-24.335L277.5,20.5
	l-5.179,5.975c-32.5,0.173-64.498,8.036-93.377,22.945s-53.82,36.442-72.783,62.837V102L96.032,104.98z"/>
<path fill="#FFFFFF" d="M190.58,287.2v14.256H176V287.2h-9.288V325H176v-16.416h14.58V325h9.288v-37.8H190.58z"/>
<path fill="#FFFFFF" d="M230.491,318.358c-2.646,0.756-7.452,1.404-10.26,1.404c-3.456,0-6.156-0.378-6.156-4.59v-1.674h17.982
	v-5.292c0-8.37-6.372-10.746-13.23-10.746c-9.18,0-13.446,4.212-13.446,12.69v4.428c0,8.802,6.858,10.962,13.878,10.962
	c4.59,0,8.694-0.648,12.096-1.458L230.491,318.358z M214.075,308.152c0-4.158,1.458-5.346,4.752-5.346
	c3.294,0,5.184,1.026,5.184,4.968v1.296h-9.936V308.152z"/>
<path fill="#FFFFFF" d="M245.101,325v-40.5h-8.64V325H245.101z"/>
<path fill="#FFFFFF" d="M259.34,335.8v-12.636c1.944,0.81,4.104,2.052,8.154,2.052c6.804,0,10.476-3.564,10.476-13.716
	c0-10.314-3.834-14.256-10.476-14.256c-4.05,0-6.804,1.728-8.154,2.592V298h-8.64v37.8H259.34z M263.12,303.562
	c3.348,0,6.156,1.566,6.156,7.938c0,6.264-2.646,7.884-5.454,7.884c-1.944,0-3.402-0.594-4.482-1.026v-13.716
	C260.204,304.21,261.446,303.562,263.12,303.562z"/>
<path fill="#FFFFFF" d="M307.316,312.688V325h9.288v-12.366L329.24,287.2h-10.206l-7.182,17.55l-6.966-17.55H294.68L307.316,312.688
	z"/>
<path fill="#FFFFFF" d="M327.084,314.038c0,7.452,4.86,11.556,13.878,11.556s14.202-4.104,14.202-11.556v-5.022
	c0-7.452-5.184-11.502-14.202-11.502s-13.878,4.05-13.878,11.502V314.038z M335.454,308.368c0-3.294,1.836-5.184,5.508-5.184
	c4.104,0,5.508,2.43,5.508,5.94v4.806c0,3.51-1.404,5.94-5.508,5.94c-4.05,0-5.508-2.376-5.508-5.94V308.368z"/>
<path fill="#FFFFFF" d="M359.596,298v19.44c0,4.698,2.322,8.1,7.668,8.1c4.482,0,8.694-1.512,11.124-2.646V325h8.64v-27h-8.64v19.44
	c-1.188,0.918-3.456,1.944-5.886,1.944c-2.592,0-4.266-1.188-4.266-4.752V298H359.596z"/>
<path fill="#FFFFFF" d="M212.758,135v29.04h-29.7V135h-18.92v77h18.92v-33.44h29.7V212h18.92v-77H212.758z"/>
<path fill="#FFFFFF" d="M242.248,189.67c0,15.18,9.9,23.54,28.27,23.54s28.93-8.36,28.93-23.54v-10.23
	c0-15.18-10.56-23.43-28.93-23.43s-28.27,8.25-28.27,23.43V189.67z M259.298,178.12c0-6.71,3.74-10.56,11.22-10.56
	c8.36,0,11.22,4.95,11.22,12.1v9.79c0,7.15-2.86,12.1-11.22,12.1c-8.25,0-11.22-4.84-11.22-12.1V178.12z"/>
<path fill="#FFFFFF" d="M317.108,212h21.34l9.46-42.46l9.35,42.46h21.34l15.29-55h-16.17l-10.01,43.78h-0.44L357.148,157h-18.26
	l-10.12,43.67h-0.44l-9.9-43.67h-16.5L317.108,212z"/>
<path fill="#FFFFFF" d="M171.339,272h12.804l8.316-35.112L200.841,272h11.418l12.21-46.2h-10.362l-6.93,36.234l-9.372-36.234h-10.56
	l-9.306,36.366l-6.996-36.366h-10.494L171.339,272z"/>
<path fill="#FFFFFF" d="M256.213,263.882c-3.234,0.924-9.108,1.716-12.54,1.716c-4.224,0-7.524-0.462-7.524-5.61v-2.046h21.978
	v-6.468c0-10.23-7.788-13.134-16.17-13.134c-11.22,0-16.434,5.148-16.434,15.51v5.412c0,10.758,8.382,13.398,16.962,13.398
	c5.61,0,10.626-0.792,14.784-1.782L256.213,263.882z M236.149,251.408c0-5.082,1.782-6.534,5.808-6.534s6.336,1.254,6.336,6.072
	v1.584h-12.144V251.408z"/>
<path fill="#FFFFFF" d="M310.943,261.836c-1.914,0.66-7.722,1.914-10.692,1.914c-6.468,0-8.845-4.818-8.845-10.23v-9.24
	c0-5.808,2.839-10.23,8.845-10.23c2.97,0,8.382,1.254,10.296,1.914l1.98-8.58c-1.914-0.594-7.788-2.244-12.276-2.244
	c-11.748,0-20.263,5.742-20.263,19.008v9.504c0,13.332,8.449,19.008,20.263,19.008c4.488,0,10.362-1.65,12.276-2.244
	L310.943,261.836z"/>
<path fill="#FFFFFF" d="M320.205,247.184c2.772-0.594,8.382-1.65,12.078-1.65c4.422,0,5.742,1.386,5.742,4.818v2.904h-8.25
	c-7.92,0-12.342,2.508-12.342,9.24c0,7.062,3.63,10.164,10.56,10.164c4.356,0,7.986-1.452,9.966-2.904V272h10.56v-21.318
	c0-8.646-5.082-12.342-15.708-12.342c-5.742,0-11.418,1.452-13.794,2.046L320.205,247.184z M333.141,266.324
	c-3.564,0-5.082-1.122-5.082-4.026c0-1.914,1.518-3.564,4.686-3.564h5.214v6.27C336.903,265.466,334.725,266.324,333.141,266.324z"
	/>
<path fill="#FFFFFF" d="M388.884,272v-21.318c0-8.382-2.64-12.342-9.9-12.342c-4.686,0-10.164,1.782-13.068,3.234V239h-10.56v33
	h10.56v-23.76c1.386-1.056,4.092-2.376,6.732-2.376c4.026,0,5.676,1.452,5.676,5.808V272H388.884z"/>
</svg>
