<svg width="56" height="56" viewBox="0 0 56 56" fill="none" xmlns="http://www.w3.org/2000/svg">
<path d="M28 0C18.3746 0 10.5436 7.83099 10.5436 17.4564C10.5436 22.9961 13.1553 28.1653 17.5726 31.4568V32.9146C16.4968 33.8601 15.8158 35.2448 15.8158 36.7863C15.8158 38.1437 16.3439 39.3797 17.2043 40.3013C16.3439 41.2228 15.8158 42.4584 15.8158 43.8158C15.8158 46.1281 17.3458 48.0895 19.447 48.7407C20.1229 52.8525 23.6998 56 28 56C32.3002 56 35.8776 52.8525 36.5535 48.7407C38.6542 48.0891 40.1846 46.1281 40.1846 43.8154C40.1846 42.4584 39.6566 41.2224 38.7961 40.3008C39.6566 39.3793 40.1846 38.1437 40.1846 36.7863C40.1846 35.2448 39.5036 33.8601 38.4274 32.9142V31.4568C42.8447 28.1653 45.4564 22.9961 45.4564 17.4564C45.4564 7.83099 37.6254 0 28 0ZM35.0295 34.9124C36.0626 34.9124 36.9034 35.7532 36.9034 36.7863C36.9034 37.8198 36.0626 38.6606 35.0295 38.6606H20.9709C19.9374 38.6606 19.0966 37.8198 19.0966 36.7863C19.0966 35.7532 19.9374 34.9124 20.9709 34.9124H35.0295ZM28 52.7188C25.6006 52.7188 23.5626 51.1422 22.8666 48.9709H33.1334C32.4378 51.1426 30.3994 52.7188 28 52.7188ZM35.0295 45.6897H20.9709C19.9374 45.6897 19.0966 44.8489 19.0966 43.8158C19.0966 42.7823 19.9374 41.9419 20.9709 41.9419H35.0295C36.0626 41.9419 36.9034 42.7823 36.9034 43.8158C36.9034 44.8489 36.0626 45.6897 35.0295 45.6897ZM35.8741 29.2446C35.4191 29.5492 35.1461 30.0606 35.1461 30.6079V31.6342C35.1072 31.6333 35.0684 31.6312 35.0295 31.6312H33.1552V25.1652L35.511 22.8094C36.1519 22.1685 36.1519 21.1299 35.511 20.489C34.8705 19.8481 33.8315 19.8481 33.191 20.489L30.3546 23.3255C30.0469 23.6331 29.8739 24.0501 29.8739 24.4855V31.6312H26.1261V24.4855C26.1261 24.0505 25.9531 23.6331 25.6454 23.3255L22.809 20.489C22.1685 19.8486 21.1299 19.8486 20.489 20.489C19.8481 21.1299 19.8481 22.1685 20.489 22.8094L22.8448 25.1652V31.6316H20.9709C20.9316 31.6316 20.8928 31.6333 20.8539 31.6342V30.6079C20.8539 30.0606 20.5809 29.5492 20.1259 29.2446C16.1807 26.6033 13.8248 22.1967 13.8248 17.4564C13.8248 9.63995 20.184 3.28125 28 3.28125C35.816 3.28125 42.1752 9.63995 42.1752 17.4564C42.1752 22.1967 39.8193 26.6033 35.8741 29.2446Z" fill="url(#paint0_linear)"/>
<path d="M6.79579 17.4565C6.79579 16.5503 6.06135 15.8159 5.15516 15.8159H1.64063C0.734437 15.8159 0 16.5503 0 17.4565C0 18.3622 0.734437 19.0971 1.64063 19.0971H5.15516C6.06135 19.0971 6.79579 18.3622 6.79579 17.4565Z" fill="url(#paint1_linear)"/>
<path d="M54.3595 15.8159H50.845C49.9392 15.8159 49.2043 16.5503 49.2043 17.4565C49.2043 18.3622 49.9392 19.0971 50.845 19.0971H54.3595C55.2657 19.0971 56.0001 18.3622 56.0001 17.4565C56.0001 16.5503 55.2657 15.8159 54.3595 15.8159Z" fill="url(#paint2_linear)"/>
<path d="M7.39524 27.4579L4.35153 29.2152C3.56711 29.6685 3.29837 30.6717 3.75125 31.4565C4.05502 31.9829 4.6066 32.2768 5.17356 32.2768C5.45169 32.2768 5.7341 32.2063 5.99216 32.0568L9.03587 30.3C9.82072 29.8466 10.0895 28.8435 9.63658 28.0586C9.1837 27.2738 8.18009 27.005 7.39524 27.4579Z" fill="url(#paint3_linear)"/>
<path d="M47.7858 7.67507C48.0639 7.67507 48.3459 7.60415 48.6044 7.45504L51.6486 5.69734C52.433 5.24446 52.7021 4.24128 52.2488 3.45643C51.7955 2.67158 50.7923 2.40284 50.0079 2.85615L46.9638 4.61342C46.1794 5.0663 45.9102 6.0699 46.3635 6.85433C46.6673 7.3807 47.2189 7.67507 47.7858 7.67507Z" fill="url(#paint4_linear)"/>
<path d="M51.6483 29.2152L48.6045 27.4583C47.8197 27.0054 46.8161 27.2742 46.3632 28.059C45.9103 28.8435 46.1795 29.8471 46.9639 30.3L50.0081 32.0568C50.2661 32.2059 50.5481 32.2768 50.8267 32.2768C51.3936 32.2768 51.9452 31.9825 52.249 31.4561C52.7023 30.6717 52.4331 29.6681 51.6483 29.2152Z" fill="url(#paint5_linear)"/>
<path d="M9.0363 4.61294L5.99259 2.8561C5.20774 2.40279 4.20457 2.67196 3.75169 3.45681C3.29838 4.24166 3.56754 5.24484 4.35197 5.69772L7.39567 7.45499C7.65416 7.6041 7.93614 7.67502 8.21428 7.67502C8.78166 7.67502 9.33281 7.38065 9.63701 6.85428C10.0899 6.06943 9.82072 5.06625 9.0363 4.61294Z" fill="url(#paint6_linear)"/>
<defs>
<linearGradient id="paint0_linear" x1="28" y1="0" x2="28" y2="56" gradientUnits="userSpaceOnUse">
<stop offset="0.078125" stop-color="#0095B6"/>
<stop offset="1" stop-color="#00E8DA" stop-opacity="0.87"/>
</linearGradient>
<linearGradient id="paint1_linear" x1="3.39789" y1="15.8159" x2="3.39789" y2="19.0971" gradientUnits="userSpaceOnUse">
<stop stop-color="#0095B6"/>
<stop offset="1" stop-color="#00E8DA" stop-opacity="0.87"/>
</linearGradient>
<linearGradient id="paint2_linear" x1="52.6022" y1="15.8159" x2="52.6022" y2="19.0971" gradientUnits="userSpaceOnUse">
<stop stop-color="#0095B6"/>
<stop offset="1" stop-color="#00E8DA" stop-opacity="0.87"/>
</linearGradient>
<linearGradient id="paint3_linear" x1="6.69391" y1="27.2379" x2="6.69391" y2="32.2768" gradientUnits="userSpaceOnUse">
<stop stop-color="#0095B6"/>
<stop offset="1" stop-color="#00E8DA" stop-opacity="0.87"/>
</linearGradient>
<linearGradient id="paint4_linear" x1="49.3062" y1="2.63586" x2="49.3062" y2="7.67507" gradientUnits="userSpaceOnUse">
<stop stop-color="#0095B6"/>
<stop offset="1" stop-color="#00E8DA" stop-opacity="0.87"/>
</linearGradient>
<linearGradient id="paint5_linear" x1="49.3062" y1="27.2383" x2="49.3062" y2="32.2768" gradientUnits="userSpaceOnUse">
<stop stop-color="#0095B6"/>
<stop offset="1" stop-color="#00E8DA" stop-opacity="0.87"/>
</linearGradient>
<linearGradient id="paint6_linear" x1="6.6942" y1="2.63593" x2="6.6942" y2="7.67502" gradientUnits="userSpaceOnUse">
<stop stop-color="#0095B6"/>
<stop offset="1" stop-color="#00E8DA" stop-opacity="0.87"/>
</linearGradient>
</defs>
</svg>
