<svg width="360" height="133" viewBox="0 0 360 133" fill="none" xmlns="http://www.w3.org/2000/svg">
<g opacity="0.8">
<path d="M147.728 46.1796C143.801 46.1796 140.618 42.9961 140.618 39.0689C140.618 35.1418 143.801 31.9583 147.728 31.9583C151.655 31.9583 154.839 35.1418 154.839 39.0689C154.839 42.9961 151.655 46.1796 147.728 46.1796Z" fill="#239DF5" fill-opacity="0.2"/>
<path d="M147.728 43.8093C145.11 43.8093 142.988 41.6869 142.988 39.0688C142.988 36.4507 145.11 34.3284 147.728 34.3284C150.346 34.3284 152.469 36.4507 152.469 39.0688C152.469 41.6869 150.346 43.8093 147.728 43.8093Z" fill="#7893F2" fill-opacity="0.4"/>
<path d="M147.728 41.4392C146.419 41.4392 145.358 40.378 145.358 39.069C145.358 37.7599 146.419 36.6987 147.728 36.6987C149.037 36.6987 150.098 37.7599 150.098 39.069C150.098 40.378 149.037 41.4392 147.728 41.4392Z" fill="#255FF5"/>
</g>
<g opacity="0.8">
<path d="M216.465 132.456C212.538 132.456 209.354 129.272 209.354 125.345C209.354 121.418 212.538 118.235 216.465 118.235C220.392 118.235 223.576 121.418 223.576 125.345C223.576 129.272 220.392 132.456 216.465 132.456Z" fill="#656565" fill-opacity="0.2"/>
<path d="M216.465 130.086C213.847 130.086 211.725 127.964 211.725 125.345C211.725 122.727 213.847 120.605 216.465 120.605C219.083 120.605 221.205 122.727 221.205 125.345C221.205 127.964 219.083 130.086 216.465 130.086Z" fill="#656565" fill-opacity="0.4"/>
<path d="M216.465 127.716C215.156 127.716 214.095 126.654 214.095 125.345C214.095 124.036 215.156 122.975 216.465 122.975C217.774 122.975 218.835 124.036 218.835 125.345C218.835 126.654 217.774 127.716 216.465 127.716Z" fill="#656565"/>
</g>
<g opacity="0.5">
<path d="M-323 45.3654C-323 45.3654 -295.458 125.256 -280.27 125.256C-265.083 125.256 -258.837 40.9492 -242.412 30.1619C-225.987 19.3747 -220.281 43.351 -218.71 45.3654C-217.138 47.3799 -199.823 119.737 -187.423 121.486C-175.022 123.235 -157.049 83.8286 -145.753 69.4408C-129.902 49.2522 -108.494 63.7185 -96.8797 82.2063C-85.2656 100.694 -81.2362 105.435 -73.1774 114.916C-65.1186 124.396 -50.8707 132.081 -35.4955 114.916C-20.1203 97.7504 1.38055 43.0482 9.65003 30.1619C17.9195 17.2757 28.072 11.7548 41.7071 34.6226C55.3421 57.4904 71.1357 86.3484 71.1357 86.3484C71.1357 86.3484 77.4523 99.5275 92.2126 97.9008C106.973 96.2741 110.561 84.0327 118.467 76.0167C126.373 68.0007 140.218 57.171 159.258 76.0167C178.299 94.8624 179.97 95.5396 196.555 101.643C216.83 109.104 234.005 128.664 251.817 104.195C269.63 79.7258 273.117 74.9576 289.138 56.3716C305.159 37.7856 315.887 45.7156 325.022 56.3716C336.918 70.2491 331.993 95.6642 360.101 109.228" stroke="url(#paint0_linear)" stroke-width="3" stroke-linecap="round"/>
<path opacity="0.3" d="M357.731 46.6529C357.731 46.6529 338.31 104.487 323.125 104.487C307.941 104.487 303.216 57.0821 291.616 41.9218C279.513 17.7363 271.454 36.926 263.396 50.3224C255.337 63.7188 231.708 125.379 219.309 126.767C206.911 128.155 193.173 104.339 177.119 74.4989C167.164 55.9946 150.482 30.5714 139.669 41.9218C128.856 53.2722 108.419 74.4987 108.419 74.4987C108.419 74.4987 96.5735 93.4778 81.2009 79.857C65.8284 66.2363 42.8234 22.9608 38.8602 15.2312C34.8969 7.50171 18.4772 -7.5569 4.84448 10.5889C-8.78822 28.7348 -18.2469 46.3317 -25.7728 60.8743C-33.2988 75.4169 -39.4579 98.1926 -54.2156 96.9018C-68.9734 95.611 -74.148 76.1699 -85.0286 56.6244C-92.7754 42.7083 -100.198 39.4745 -115.835 51.7578C-134.872 66.7121 -158.852 96.0316 -168.224 104.012C-177.596 111.993 -207.58 135.083 -223.477 106.037C-239.373 76.9919 -235.301 69.1231 -239.373 56.6244C-243.956 42.5554 -261.745 35.1143 -274.021 50.3978C-286.297 65.6814 -295.274 87.8379 -323 90.8299" stroke="url(#paint1_linear)" stroke-width="3" stroke-linecap="round"/>
</g>
<defs>
<linearGradient id="paint0_linear" x1="-240.337" y1="109.16" x2="-240.337" y2="13.3104" gradientUnits="userSpaceOnUse">
<stop stop-color="#28A07C"/>
<stop offset="1" stop-color="#5E5CD1"/>
</linearGradient>
<linearGradient id="paint1_linear" x1="68.2118" y1="366.07" x2="207.751" y2="-43.9202" gradientUnits="userSpaceOnUse">
<stop stop-color="#1AB1E0"/>
<stop offset="1" stop-color="#005069"/>
</linearGradient>
</defs>
</svg>
