<?xml version="1.0" encoding="utf-8"?>
<!-- Generator: Adobe Illustrator 17.0.0, SVG Export Plug-In . SVG Version: 6.00 Build 0)  -->
<!DOCTYPE svg PUBLIC "-//W3C//DTD SVG 1.1//EN" "http://www.w3.org/Graphics/SVG/1.1/DTD/svg11.dtd">
<svg version="1.1" id="Layer_1" xmlns="http://www.w3.org/2000/svg" xmlns:xlink="http://www.w3.org/1999/xlink" x="0px" y="0px"
	 width="1440px" height="718px" viewBox="0 0 1440 718" enable-background="new 0 0 1440 718" xml:space="preserve">
<image overflow="visible" width="788" height="718" xlink:href="real.png"  transform="matrix(0.9999 0 0 0.9999 652.0985 0.0898)">
</image>
<g>
	<defs>
		<filter id="Adobe_OpacityMaskFilter" filterUnits="userSpaceOnUse" x="812" y="127" width="497" height="591">
			<feColorMatrix  type="matrix" values="1 0 0 0 0  0 1 0 0 0  0 0 1 0 0  0 0 0 1 0"/>
		</filter>
	</defs>
	<mask maskUnits="userSpaceOnUse" x="812" y="127" width="497" height="591" id="mask0">
		<path fill="#C4C4C4" filter="url(#Adobe_OpacityMaskFilter)" d="M1725,431c0,173.545-113.29,151.521-406.88,248.915
			c-293.59,97.393-264.4-239.808-428.526-40.428c-75.635,91.881-294.76-151.923-223.177-303.205S963,450,963,450l355.12,27
			C1318.12,477,1725,257.455,1725,431z"/>
	</mask>
	<g mask="url(#mask0)">
		<rect x="812" y="127" fill="none" width="497" height="591"/>
	</g>
</g>
<g>
	<rect x="812" y="127" fill="none" width="497" height="443"/>
</g>
<g opacity="0.8">
	<path fill="#239DF5" fill-opacity="0.2" d="M440,509c8.284,0,15-6.716,15-15s-6.716-15-15-15s-15,6.716-15,15S431.716,509,440,509z
		"/>
	<path fill="#7893F2" fill-opacity="0.4" d="M440,504c5.523,0,10-4.477,10-10s-4.477-10-10-10s-10,4.477-10,10S434.477,504,440,504z
		"/>
	<path fill="#255FF5" d="M440,499c2.761,0,5-2.239,5-5s-2.239-5-5-5s-5,2.239-5,5S437.239,499,440,499z"/>
</g>
<g opacity="0.8">
	<path fill="#656565" fill-opacity="0.2" d="M295,691c8.284,0,15-6.716,15-15s-6.716-15-15-15s-15,6.716-15,15S286.716,691,295,691z
		"/>
	<path fill="#656565" fill-opacity="0.4" d="M295,686c5.523,0,10-4.477,10-10s-4.477-10-10-10s-10,4.477-10,10S289.477,686,295,686z
		"/>
	<path fill="#656565" d="M295,681c2.761,0,5-2.239,5-5s-2.239-5-5-5s-5,2.239-5,5S292.239,681,295,681z"/>
</g>
<g opacity="0.5">
	
		<linearGradient id="SVGID_1_" gradientUnits="userSpaceOnUse" x1="712.395" y1="75.904" x2="712.395" y2="278.097" gradientTransform="matrix(1 0 0 -1 0.105 717.76)">
		<stop  offset="0" style="stop-color:#28A07C"/>
		<stop  offset="1" style="stop-color:#5E5CD1"/>
	</linearGradient>
	<path fill="none" stroke="url(#SVGID_1_)" stroke-width="3" stroke-linecap="round" d="M1433,507.283
		c0,0-58.1,168.529-90.14,168.529s-45.21-177.845-79.86-200.601s-46.68,27.822-50,32.072c-3.32,4.249-39.84,156.886-66,160.575
		c-26.16,3.689-64.07-79.437-87.9-109.788c-33.44-42.588-78.6-12.072-103.1,26.928s-33,49-50,69s-47.056,36.21-79.49,0
		c-32.434-36.21-77.79-151.604-95.234-178.787c-17.445-27.184-38.861-38.83-67.625,9.41
		c-28.763,48.239-62.079,109.115-62.079,109.115s-13.325,27.801-44.462,24.37c-31.137-3.432-38.706-29.255-55.384-46.165
		c-16.678-16.909-45.882-39.755-86.049,0C375.511,611.696,371.985,613.125,337,626c-42.77,15.74-79,57-116.576,5.383
		s-44.932-61.676-78.728-100.883S85.27,508.021,66,530.5C40.905,559.775,51.294,613.388-8,642"/>
	
		<linearGradient id="SVGID_2_" gradientUnits="userSpaceOnUse" x1="895.0706" y1="-368.2221" x2="600.7125" y2="496.653" gradientTransform="matrix(1 0 0 -1 0.105 717.76)">
		<stop  offset="0" style="stop-color:#1AB1E0"/>
		<stop  offset="1" style="stop-color:#005069"/>
	</linearGradient>
	<path opacity="0.3" fill="none" stroke="url(#SVGID_2_)" stroke-width="3" stroke-linecap="round" enable-background="new    " d="
		M-3,509.998c0,0,40.967,122.001,73,122.001c32.032,0,42-100,66.469-131.981C162,448.999,179,489.479,196,517.739
		s66.846,158.332,93,161.26c26.154,2.927,55.135-47.311,89-110.259c21-39.035,56.19-92.665,79-68.722
		c22.81,23.944,65.922,68.721,65.922,68.721s24.989,40.036,57.417,11.303c32.429-28.733,80.957-120.022,89.318-136.328
		c8.36-16.305,42.998-48.071,71.756-9.792C770.171,472.2,790.124,509.321,806,539.998c15.876,30.678,28.869,78.723,60,76
		c31.132-2.723,42.047-43.733,65-84.965c16.342-29.356,32-36.177,64.986-10.266c40.164,31.546,90.744,93.396,110.514,110.231
		c19.77,16.836,83.02,65.543,116.56,4.272c33.53-61.272,24.94-77.871,33.53-104.237c9.67-29.678,47.19-45.375,73.09-13.135
		c25.89,32.241,44.83,78.98,103.32,85.292"/>
</g>
</svg>
